G04 #@! TF.GenerationSoftware,KiCad,Pcbnew,(5.0.1-3-g963ef8bb5)*
G04 #@! TF.CreationDate,2019-03-08T12:42:58-05:00*
G04 #@! TF.ProjectId,badge,62616467652E6B696361645F70636200,rev?*
G04 #@! TF.SameCoordinates,Original*
G04 #@! TF.FileFunction,Soldermask,Bot*
G04 #@! TF.FilePolarity,Negative*
%FSLAX46Y46*%
G04 Gerber Fmt 4.6, Leading zero omitted, Abs format (unit mm)*
G04 Created by KiCad (PCBNEW (5.0.1-3-g963ef8bb5)) date Friday, March 08, 2019 at 12:42:58 PM*
%MOMM*%
%LPD*%
G01*
G04 APERTURE LIST*
%ADD10C,0.100000*%
G04 APERTURE END LIST*
D10*
G36*
X174797409Y-116292259D02*
X174897292Y-116312127D01*
X175179556Y-116429044D01*
X175433587Y-116598782D01*
X175649623Y-116814818D01*
X175819361Y-117068849D01*
X175936278Y-117351113D01*
X175995882Y-117650763D01*
X175995882Y-117956283D01*
X175936278Y-118255933D01*
X175819361Y-118538197D01*
X175649623Y-118792228D01*
X175433587Y-119008264D01*
X175179556Y-119178002D01*
X174897292Y-119294919D01*
X174797409Y-119314787D01*
X174597644Y-119354523D01*
X174292120Y-119354523D01*
X174092355Y-119314787D01*
X173992472Y-119294919D01*
X173710208Y-119178002D01*
X173456177Y-119008264D01*
X173240141Y-118792228D01*
X173070403Y-118538197D01*
X172953486Y-118255933D01*
X172893882Y-117956283D01*
X172893882Y-117650763D01*
X172953486Y-117351113D01*
X173070403Y-117068849D01*
X173240141Y-116814818D01*
X173456177Y-116598782D01*
X173710208Y-116429044D01*
X173992472Y-116312127D01*
X174092355Y-116292259D01*
X174292120Y-116252523D01*
X174597644Y-116252523D01*
X174797409Y-116292259D01*
X174797409Y-116292259D01*
G37*
G36*
X181128456Y-113313395D02*
X178935010Y-115506841D01*
X176741564Y-113313395D01*
X178935010Y-111119949D01*
X181128456Y-113313395D01*
X181128456Y-113313395D01*
G37*
G36*
X161527142Y-110978242D02*
X161675102Y-111039530D01*
X161808258Y-111128502D01*
X161921498Y-111241742D01*
X162010470Y-111374898D01*
X162071758Y-111522858D01*
X162103000Y-111679925D01*
X162103000Y-111840075D01*
X162071758Y-111997142D01*
X162010470Y-112145102D01*
X161921498Y-112278258D01*
X161808258Y-112391498D01*
X161675102Y-112480470D01*
X161527142Y-112541758D01*
X161370075Y-112573000D01*
X161209925Y-112573000D01*
X161052858Y-112541758D01*
X160904898Y-112480470D01*
X160771742Y-112391498D01*
X160658502Y-112278258D01*
X160569530Y-112145102D01*
X160508242Y-111997142D01*
X160477000Y-111840075D01*
X160477000Y-111679925D01*
X160508242Y-111522858D01*
X160569530Y-111374898D01*
X160658502Y-111241742D01*
X160771742Y-111128502D01*
X160904898Y-111039530D01*
X161052858Y-110978242D01*
X161209925Y-110947000D01*
X161370075Y-110947000D01*
X161527142Y-110978242D01*
X161527142Y-110978242D01*
G37*
G36*
X161527142Y-108438242D02*
X161675102Y-108499530D01*
X161808258Y-108588502D01*
X161921498Y-108701742D01*
X162010470Y-108834898D01*
X162071758Y-108982858D01*
X162103000Y-109139925D01*
X162103000Y-109300075D01*
X162071758Y-109457142D01*
X162010470Y-109605102D01*
X161921498Y-109738258D01*
X161808258Y-109851498D01*
X161675102Y-109940470D01*
X161527142Y-110001758D01*
X161370075Y-110033000D01*
X161209925Y-110033000D01*
X161052858Y-110001758D01*
X160904898Y-109940470D01*
X160771742Y-109851498D01*
X160658502Y-109738258D01*
X160569530Y-109605102D01*
X160508242Y-109457142D01*
X160477000Y-109300075D01*
X160477000Y-109139925D01*
X160508242Y-108982858D01*
X160569530Y-108834898D01*
X160658502Y-108701742D01*
X160771742Y-108588502D01*
X160904898Y-108499530D01*
X161052858Y-108438242D01*
X161209925Y-108407000D01*
X161370075Y-108407000D01*
X161527142Y-108438242D01*
X161527142Y-108438242D01*
G37*
G36*
X163305142Y-104374242D02*
X163453102Y-104435530D01*
X163586258Y-104524502D01*
X163699498Y-104637742D01*
X163788470Y-104770898D01*
X163849758Y-104918858D01*
X163881000Y-105075925D01*
X163881000Y-105236075D01*
X163849758Y-105393142D01*
X163788470Y-105541102D01*
X163699498Y-105674258D01*
X163586258Y-105787498D01*
X163453102Y-105876470D01*
X163305142Y-105937758D01*
X163148075Y-105969000D01*
X162987925Y-105969000D01*
X162830858Y-105937758D01*
X162682898Y-105876470D01*
X162549742Y-105787498D01*
X162436502Y-105674258D01*
X162347530Y-105541102D01*
X162286242Y-105393142D01*
X162255000Y-105236075D01*
X162255000Y-105075925D01*
X162286242Y-104918858D01*
X162347530Y-104770898D01*
X162436502Y-104637742D01*
X162549742Y-104524502D01*
X162682898Y-104435530D01*
X162830858Y-104374242D01*
X162987925Y-104343000D01*
X163148075Y-104343000D01*
X163305142Y-104374242D01*
X163305142Y-104374242D01*
G37*
G36*
X160790542Y-104374242D02*
X160938502Y-104435530D01*
X161071658Y-104524502D01*
X161184898Y-104637742D01*
X161273870Y-104770898D01*
X161335158Y-104918858D01*
X161366400Y-105075925D01*
X161366400Y-105236075D01*
X161335158Y-105393142D01*
X161273870Y-105541102D01*
X161184898Y-105674258D01*
X161071658Y-105787498D01*
X160938502Y-105876470D01*
X160790542Y-105937758D01*
X160633475Y-105969000D01*
X160473325Y-105969000D01*
X160316258Y-105937758D01*
X160168298Y-105876470D01*
X160035142Y-105787498D01*
X159921902Y-105674258D01*
X159832930Y-105541102D01*
X159771642Y-105393142D01*
X159740400Y-105236075D01*
X159740400Y-105075925D01*
X159771642Y-104918858D01*
X159832930Y-104770898D01*
X159921902Y-104637742D01*
X160035142Y-104524502D01*
X160168298Y-104435530D01*
X160316258Y-104374242D01*
X160473325Y-104343000D01*
X160633475Y-104343000D01*
X160790542Y-104374242D01*
X160790542Y-104374242D01*
G37*
G36*
X155662142Y-99568242D02*
X155810102Y-99629530D01*
X155943258Y-99718502D01*
X156056498Y-99831742D01*
X156145470Y-99964898D01*
X156206758Y-100112858D01*
X156238000Y-100269925D01*
X156238000Y-100430075D01*
X156206758Y-100587142D01*
X156145470Y-100735102D01*
X156056498Y-100868258D01*
X155943258Y-100981498D01*
X155810102Y-101070470D01*
X155662142Y-101131758D01*
X155505075Y-101163000D01*
X155344925Y-101163000D01*
X155187858Y-101131758D01*
X155039898Y-101070470D01*
X154906742Y-100981498D01*
X154793502Y-100868258D01*
X154704530Y-100735102D01*
X154643242Y-100587142D01*
X154612000Y-100430075D01*
X154612000Y-100269925D01*
X154643242Y-100112858D01*
X154704530Y-99964898D01*
X154793502Y-99831742D01*
X154906742Y-99718502D01*
X155039898Y-99629530D01*
X155187858Y-99568242D01*
X155344925Y-99537000D01*
X155505075Y-99537000D01*
X155662142Y-99568242D01*
X155662142Y-99568242D01*
G37*
G36*
X145017142Y-98913242D02*
X145165102Y-98974530D01*
X145298258Y-99063502D01*
X145411498Y-99176742D01*
X145500470Y-99309898D01*
X145561758Y-99457858D01*
X145593000Y-99614925D01*
X145593000Y-99775075D01*
X145561758Y-99932142D01*
X145500470Y-100080102D01*
X145411498Y-100213258D01*
X145298258Y-100326498D01*
X145165102Y-100415470D01*
X145017142Y-100476758D01*
X144860075Y-100508000D01*
X144699925Y-100508000D01*
X144542858Y-100476758D01*
X144394898Y-100415470D01*
X144261742Y-100326498D01*
X144148502Y-100213258D01*
X144059530Y-100080102D01*
X143998242Y-99932142D01*
X143967000Y-99775075D01*
X143967000Y-99614925D01*
X143998242Y-99457858D01*
X144059530Y-99309898D01*
X144148502Y-99176742D01*
X144261742Y-99063502D01*
X144394898Y-98974530D01*
X144542858Y-98913242D01*
X144699925Y-98882000D01*
X144860075Y-98882000D01*
X145017142Y-98913242D01*
X145017142Y-98913242D01*
G37*
G36*
X142477142Y-98913242D02*
X142625102Y-98974530D01*
X142758258Y-99063502D01*
X142871498Y-99176742D01*
X142960470Y-99309898D01*
X143021758Y-99457858D01*
X143053000Y-99614925D01*
X143053000Y-99775075D01*
X143021758Y-99932142D01*
X142960470Y-100080102D01*
X142871498Y-100213258D01*
X142758258Y-100326498D01*
X142625102Y-100415470D01*
X142477142Y-100476758D01*
X142320075Y-100508000D01*
X142159925Y-100508000D01*
X142002858Y-100476758D01*
X141854898Y-100415470D01*
X141721742Y-100326498D01*
X141608502Y-100213258D01*
X141519530Y-100080102D01*
X141458242Y-99932142D01*
X141427000Y-99775075D01*
X141427000Y-99614925D01*
X141458242Y-99457858D01*
X141519530Y-99309898D01*
X141608502Y-99176742D01*
X141721742Y-99063502D01*
X141854898Y-98974530D01*
X142002858Y-98913242D01*
X142159925Y-98882000D01*
X142320075Y-98882000D01*
X142477142Y-98913242D01*
X142477142Y-98913242D01*
G37*
G36*
X150097142Y-98913242D02*
X150245102Y-98974530D01*
X150378258Y-99063502D01*
X150491498Y-99176742D01*
X150580470Y-99309898D01*
X150641758Y-99457858D01*
X150673000Y-99614925D01*
X150673000Y-99775075D01*
X150641758Y-99932142D01*
X150580470Y-100080102D01*
X150491498Y-100213258D01*
X150378258Y-100326498D01*
X150245102Y-100415470D01*
X150097142Y-100476758D01*
X149940075Y-100508000D01*
X149779925Y-100508000D01*
X149622858Y-100476758D01*
X149474898Y-100415470D01*
X149341742Y-100326498D01*
X149228502Y-100213258D01*
X149139530Y-100080102D01*
X149078242Y-99932142D01*
X149047000Y-99775075D01*
X149047000Y-99614925D01*
X149078242Y-99457858D01*
X149139530Y-99309898D01*
X149228502Y-99176742D01*
X149341742Y-99063502D01*
X149474898Y-98974530D01*
X149622858Y-98913242D01*
X149779925Y-98882000D01*
X149940075Y-98882000D01*
X150097142Y-98913242D01*
X150097142Y-98913242D01*
G37*
G36*
X147557142Y-98913242D02*
X147705102Y-98974530D01*
X147838258Y-99063502D01*
X147951498Y-99176742D01*
X148040470Y-99309898D01*
X148101758Y-99457858D01*
X148133000Y-99614925D01*
X148133000Y-99775075D01*
X148101758Y-99932142D01*
X148040470Y-100080102D01*
X147951498Y-100213258D01*
X147838258Y-100326498D01*
X147705102Y-100415470D01*
X147557142Y-100476758D01*
X147400075Y-100508000D01*
X147239925Y-100508000D01*
X147082858Y-100476758D01*
X146934898Y-100415470D01*
X146801742Y-100326498D01*
X146688502Y-100213258D01*
X146599530Y-100080102D01*
X146538242Y-99932142D01*
X146507000Y-99775075D01*
X146507000Y-99614925D01*
X146538242Y-99457858D01*
X146599530Y-99309898D01*
X146688502Y-99176742D01*
X146801742Y-99063502D01*
X146934898Y-98974530D01*
X147082858Y-98913242D01*
X147239925Y-98882000D01*
X147400075Y-98882000D01*
X147557142Y-98913242D01*
X147557142Y-98913242D01*
G37*
G36*
X161273142Y-96754242D02*
X161421102Y-96815530D01*
X161554258Y-96904502D01*
X161667498Y-97017742D01*
X161756470Y-97150898D01*
X161817758Y-97298858D01*
X161849000Y-97455925D01*
X161849000Y-97616075D01*
X161817758Y-97773142D01*
X161756470Y-97921102D01*
X161667498Y-98054258D01*
X161554258Y-98167498D01*
X161421102Y-98256470D01*
X161273142Y-98317758D01*
X161116075Y-98349000D01*
X160955925Y-98349000D01*
X160798858Y-98317758D01*
X160650898Y-98256470D01*
X160517742Y-98167498D01*
X160404502Y-98054258D01*
X160315530Y-97921102D01*
X160254242Y-97773142D01*
X160223000Y-97616075D01*
X160223000Y-97455925D01*
X160254242Y-97298858D01*
X160315530Y-97150898D01*
X160404502Y-97017742D01*
X160517742Y-96904502D01*
X160650898Y-96815530D01*
X160798858Y-96754242D01*
X160955925Y-96723000D01*
X161116075Y-96723000D01*
X161273142Y-96754242D01*
X161273142Y-96754242D01*
G37*
G36*
X169401142Y-89134242D02*
X169549102Y-89195530D01*
X169682258Y-89284502D01*
X169795498Y-89397742D01*
X169884470Y-89530898D01*
X169945758Y-89678858D01*
X169977000Y-89835925D01*
X169977000Y-89996075D01*
X169945758Y-90153142D01*
X169884470Y-90301102D01*
X169795498Y-90434258D01*
X169682258Y-90547498D01*
X169549102Y-90636470D01*
X169401142Y-90697758D01*
X169244075Y-90729000D01*
X169083925Y-90729000D01*
X168926858Y-90697758D01*
X168778898Y-90636470D01*
X168645742Y-90547498D01*
X168532502Y-90434258D01*
X168443530Y-90301102D01*
X168382242Y-90153142D01*
X168351000Y-89996075D01*
X168351000Y-89835925D01*
X168382242Y-89678858D01*
X168443530Y-89530898D01*
X168532502Y-89397742D01*
X168645742Y-89284502D01*
X168778898Y-89195530D01*
X168926858Y-89134242D01*
X169083925Y-89103000D01*
X169244075Y-89103000D01*
X169401142Y-89134242D01*
X169401142Y-89134242D01*
G37*
G36*
X171941142Y-89134242D02*
X172089102Y-89195530D01*
X172222258Y-89284502D01*
X172335498Y-89397742D01*
X172424470Y-89530898D01*
X172485758Y-89678858D01*
X172517000Y-89835925D01*
X172517000Y-89996075D01*
X172485758Y-90153142D01*
X172424470Y-90301102D01*
X172335498Y-90434258D01*
X172222258Y-90547498D01*
X172089102Y-90636470D01*
X171941142Y-90697758D01*
X171784075Y-90729000D01*
X171623925Y-90729000D01*
X171466858Y-90697758D01*
X171318898Y-90636470D01*
X171185742Y-90547498D01*
X171072502Y-90434258D01*
X170983530Y-90301102D01*
X170922242Y-90153142D01*
X170891000Y-89996075D01*
X170891000Y-89835925D01*
X170922242Y-89678858D01*
X170983530Y-89530898D01*
X171072502Y-89397742D01*
X171185742Y-89284502D01*
X171318898Y-89195530D01*
X171466858Y-89134242D01*
X171623925Y-89103000D01*
X171784075Y-89103000D01*
X171941142Y-89134242D01*
X171941142Y-89134242D01*
G37*
G36*
X151367142Y-86949842D02*
X151515102Y-87011130D01*
X151648258Y-87100102D01*
X151761498Y-87213342D01*
X151850470Y-87346498D01*
X151911758Y-87494458D01*
X151943000Y-87651525D01*
X151943000Y-87811675D01*
X151911758Y-87968742D01*
X151850470Y-88116702D01*
X151761498Y-88249858D01*
X151648258Y-88363098D01*
X151515102Y-88452070D01*
X151367142Y-88513358D01*
X151210075Y-88544600D01*
X151049925Y-88544600D01*
X150892858Y-88513358D01*
X150744898Y-88452070D01*
X150611742Y-88363098D01*
X150498502Y-88249858D01*
X150409530Y-88116702D01*
X150348242Y-87968742D01*
X150317000Y-87811675D01*
X150317000Y-87651525D01*
X150348242Y-87494458D01*
X150409530Y-87346498D01*
X150498502Y-87213342D01*
X150611742Y-87100102D01*
X150744898Y-87011130D01*
X150892858Y-86949842D01*
X151049925Y-86918600D01*
X151210075Y-86918600D01*
X151367142Y-86949842D01*
X151367142Y-86949842D01*
G37*
G36*
X142477142Y-83038242D02*
X142625102Y-83099530D01*
X142758258Y-83188502D01*
X142871498Y-83301742D01*
X142960470Y-83434898D01*
X143021758Y-83582858D01*
X143053000Y-83739925D01*
X143053000Y-83900075D01*
X143021758Y-84057142D01*
X142960470Y-84205102D01*
X142871498Y-84338258D01*
X142758258Y-84451498D01*
X142625102Y-84540470D01*
X142477142Y-84601758D01*
X142320075Y-84633000D01*
X142159925Y-84633000D01*
X142002858Y-84601758D01*
X141854898Y-84540470D01*
X141721742Y-84451498D01*
X141608502Y-84338258D01*
X141519530Y-84205102D01*
X141458242Y-84057142D01*
X141427000Y-83900075D01*
X141427000Y-83739925D01*
X141458242Y-83582858D01*
X141519530Y-83434898D01*
X141608502Y-83301742D01*
X141721742Y-83188502D01*
X141854898Y-83099530D01*
X142002858Y-83038242D01*
X142159925Y-83007000D01*
X142320075Y-83007000D01*
X142477142Y-83038242D01*
X142477142Y-83038242D01*
G37*
G36*
X139937142Y-83038242D02*
X140085102Y-83099530D01*
X140218258Y-83188502D01*
X140331498Y-83301742D01*
X140420470Y-83434898D01*
X140481758Y-83582858D01*
X140513000Y-83739925D01*
X140513000Y-83900075D01*
X140481758Y-84057142D01*
X140420470Y-84205102D01*
X140331498Y-84338258D01*
X140218258Y-84451498D01*
X140085102Y-84540470D01*
X139937142Y-84601758D01*
X139780075Y-84633000D01*
X139619925Y-84633000D01*
X139462858Y-84601758D01*
X139314898Y-84540470D01*
X139181742Y-84451498D01*
X139068502Y-84338258D01*
X138979530Y-84205102D01*
X138918242Y-84057142D01*
X138887000Y-83900075D01*
X138887000Y-83739925D01*
X138918242Y-83582858D01*
X138979530Y-83434898D01*
X139068502Y-83301742D01*
X139181742Y-83188502D01*
X139314898Y-83099530D01*
X139462858Y-83038242D01*
X139619925Y-83007000D01*
X139780075Y-83007000D01*
X139937142Y-83038242D01*
X139937142Y-83038242D01*
G37*
G36*
X137397142Y-83038242D02*
X137545102Y-83099530D01*
X137678258Y-83188502D01*
X137791498Y-83301742D01*
X137880470Y-83434898D01*
X137941758Y-83582858D01*
X137973000Y-83739925D01*
X137973000Y-83900075D01*
X137941758Y-84057142D01*
X137880470Y-84205102D01*
X137791498Y-84338258D01*
X137678258Y-84451498D01*
X137545102Y-84540470D01*
X137397142Y-84601758D01*
X137240075Y-84633000D01*
X137079925Y-84633000D01*
X136922858Y-84601758D01*
X136774898Y-84540470D01*
X136641742Y-84451498D01*
X136528502Y-84338258D01*
X136439530Y-84205102D01*
X136378242Y-84057142D01*
X136347000Y-83900075D01*
X136347000Y-83739925D01*
X136378242Y-83582858D01*
X136439530Y-83434898D01*
X136528502Y-83301742D01*
X136641742Y-83188502D01*
X136774898Y-83099530D01*
X136922858Y-83038242D01*
X137079925Y-83007000D01*
X137240075Y-83007000D01*
X137397142Y-83038242D01*
X137397142Y-83038242D01*
G37*
G36*
X145017142Y-83038242D02*
X145165102Y-83099530D01*
X145298258Y-83188502D01*
X145411498Y-83301742D01*
X145500470Y-83434898D01*
X145561758Y-83582858D01*
X145593000Y-83739925D01*
X145593000Y-83900075D01*
X145561758Y-84057142D01*
X145500470Y-84205102D01*
X145411498Y-84338258D01*
X145298258Y-84451498D01*
X145165102Y-84540470D01*
X145017142Y-84601758D01*
X144860075Y-84633000D01*
X144699925Y-84633000D01*
X144542858Y-84601758D01*
X144394898Y-84540470D01*
X144261742Y-84451498D01*
X144148502Y-84338258D01*
X144059530Y-84205102D01*
X143998242Y-84057142D01*
X143967000Y-83900075D01*
X143967000Y-83739925D01*
X143998242Y-83582858D01*
X144059530Y-83434898D01*
X144148502Y-83301742D01*
X144261742Y-83188502D01*
X144394898Y-83099530D01*
X144542858Y-83038242D01*
X144699925Y-83007000D01*
X144860075Y-83007000D01*
X145017142Y-83038242D01*
X145017142Y-83038242D01*
G37*
G36*
X147557142Y-83038242D02*
X147705102Y-83099530D01*
X147838258Y-83188502D01*
X147951498Y-83301742D01*
X148040470Y-83434898D01*
X148101758Y-83582858D01*
X148133000Y-83739925D01*
X148133000Y-83900075D01*
X148101758Y-84057142D01*
X148040470Y-84205102D01*
X147951498Y-84338258D01*
X147838258Y-84451498D01*
X147705102Y-84540470D01*
X147557142Y-84601758D01*
X147400075Y-84633000D01*
X147239925Y-84633000D01*
X147082858Y-84601758D01*
X146934898Y-84540470D01*
X146801742Y-84451498D01*
X146688502Y-84338258D01*
X146599530Y-84205102D01*
X146538242Y-84057142D01*
X146507000Y-83900075D01*
X146507000Y-83739925D01*
X146538242Y-83582858D01*
X146599530Y-83434898D01*
X146688502Y-83301742D01*
X146801742Y-83188502D01*
X146934898Y-83099530D01*
X147082858Y-83038242D01*
X147239925Y-83007000D01*
X147400075Y-83007000D01*
X147557142Y-83038242D01*
X147557142Y-83038242D01*
G37*
G36*
X171687142Y-80498242D02*
X171835102Y-80559530D01*
X171968258Y-80648502D01*
X172081498Y-80761742D01*
X172170470Y-80894898D01*
X172231758Y-81042858D01*
X172263000Y-81199925D01*
X172263000Y-81360075D01*
X172231758Y-81517142D01*
X172170470Y-81665102D01*
X172081498Y-81798258D01*
X171968258Y-81911498D01*
X171835102Y-82000470D01*
X171687142Y-82061758D01*
X171530075Y-82093000D01*
X171369925Y-82093000D01*
X171212858Y-82061758D01*
X171064898Y-82000470D01*
X170931742Y-81911498D01*
X170818502Y-81798258D01*
X170729530Y-81665102D01*
X170668242Y-81517142D01*
X170637000Y-81360075D01*
X170637000Y-81199925D01*
X170668242Y-81042858D01*
X170729530Y-80894898D01*
X170818502Y-80761742D01*
X170931742Y-80648502D01*
X171064898Y-80559530D01*
X171212858Y-80498242D01*
X171369925Y-80467000D01*
X171530075Y-80467000D01*
X171687142Y-80498242D01*
X171687142Y-80498242D01*
G37*
G36*
X158987142Y-79863242D02*
X159135102Y-79924530D01*
X159268258Y-80013502D01*
X159381498Y-80126742D01*
X159470470Y-80259898D01*
X159531758Y-80407858D01*
X159563000Y-80564925D01*
X159563000Y-80725075D01*
X159531758Y-80882142D01*
X159470470Y-81030102D01*
X159381498Y-81163258D01*
X159268258Y-81276498D01*
X159135102Y-81365470D01*
X158987142Y-81426758D01*
X158830075Y-81458000D01*
X158669925Y-81458000D01*
X158512858Y-81426758D01*
X158364898Y-81365470D01*
X158231742Y-81276498D01*
X158118502Y-81163258D01*
X158029530Y-81030102D01*
X157968242Y-80882142D01*
X157937000Y-80725075D01*
X157937000Y-80564925D01*
X157968242Y-80407858D01*
X158029530Y-80259898D01*
X158118502Y-80126742D01*
X158231742Y-80013502D01*
X158364898Y-79924530D01*
X158512858Y-79863242D01*
X158669925Y-79832000D01*
X158830075Y-79832000D01*
X158987142Y-79863242D01*
X158987142Y-79863242D01*
G37*
G36*
X158987142Y-77323242D02*
X159135102Y-77384530D01*
X159268258Y-77473502D01*
X159381498Y-77586742D01*
X159470470Y-77719898D01*
X159531758Y-77867858D01*
X159563000Y-78024925D01*
X159563000Y-78185075D01*
X159531758Y-78342142D01*
X159470470Y-78490102D01*
X159381498Y-78623258D01*
X159268258Y-78736498D01*
X159135102Y-78825470D01*
X158987142Y-78886758D01*
X158830075Y-78918000D01*
X158669925Y-78918000D01*
X158512858Y-78886758D01*
X158364898Y-78825470D01*
X158231742Y-78736498D01*
X158118502Y-78623258D01*
X158029530Y-78490102D01*
X157968242Y-78342142D01*
X157937000Y-78185075D01*
X157937000Y-78024925D01*
X157968242Y-77867858D01*
X158029530Y-77719898D01*
X158118502Y-77586742D01*
X158231742Y-77473502D01*
X158364898Y-77384530D01*
X158512858Y-77323242D01*
X158669925Y-77292000D01*
X158830075Y-77292000D01*
X158987142Y-77323242D01*
X158987142Y-77323242D01*
G37*
G36*
X134628718Y-75700763D02*
X134628720Y-75700764D01*
X134628721Y-75700764D01*
X134865488Y-75798836D01*
X135078575Y-75941216D01*
X135259784Y-76122425D01*
X135402164Y-76335512D01*
X135500237Y-76572282D01*
X135550233Y-76823628D01*
X135550233Y-77079906D01*
X135500237Y-77331252D01*
X135402164Y-77568022D01*
X135259784Y-77781109D01*
X135078575Y-77962318D01*
X135078572Y-77962320D01*
X134865488Y-78104698D01*
X134628721Y-78202770D01*
X134628720Y-78202770D01*
X134628718Y-78202771D01*
X134377372Y-78252767D01*
X134121094Y-78252767D01*
X133869748Y-78202771D01*
X133869746Y-78202770D01*
X133869745Y-78202770D01*
X133632978Y-78104698D01*
X133419894Y-77962320D01*
X133419891Y-77962318D01*
X133238682Y-77781109D01*
X133096302Y-77568022D01*
X132998229Y-77331252D01*
X132948233Y-77079906D01*
X132948233Y-76823628D01*
X132998229Y-76572282D01*
X133096302Y-76335512D01*
X133238682Y-76122425D01*
X133419891Y-75941216D01*
X133632978Y-75798836D01*
X133869745Y-75700764D01*
X133869746Y-75700764D01*
X133869748Y-75700763D01*
X134121094Y-75650767D01*
X134377372Y-75650767D01*
X134628718Y-75700763D01*
X134628718Y-75700763D01*
G37*
G36*
X138164252Y-72165229D02*
X138164254Y-72165230D01*
X138164255Y-72165230D01*
X138401022Y-72263302D01*
X138614109Y-72405682D01*
X138795318Y-72586891D01*
X138937698Y-72799978D01*
X139035771Y-73036748D01*
X139085767Y-73288094D01*
X139085767Y-73544372D01*
X139035771Y-73795718D01*
X138937698Y-74032488D01*
X138795318Y-74245575D01*
X138614109Y-74426784D01*
X138614106Y-74426786D01*
X138401022Y-74569164D01*
X138164255Y-74667236D01*
X138164254Y-74667236D01*
X138164252Y-74667237D01*
X137912906Y-74717233D01*
X137656628Y-74717233D01*
X137405282Y-74667237D01*
X137405280Y-74667236D01*
X137405279Y-74667236D01*
X137168512Y-74569164D01*
X136955428Y-74426786D01*
X136955425Y-74426784D01*
X136774216Y-74245575D01*
X136631836Y-74032488D01*
X136533763Y-73795718D01*
X136483767Y-73544372D01*
X136483767Y-73288094D01*
X136533763Y-73036748D01*
X136631836Y-72799978D01*
X136774216Y-72586891D01*
X136955425Y-72405682D01*
X137168512Y-72263302D01*
X137405279Y-72165230D01*
X137405280Y-72165230D01*
X137405282Y-72165229D01*
X137656628Y-72115233D01*
X137912906Y-72115233D01*
X138164252Y-72165229D01*
X138164252Y-72165229D01*
G37*
G36*
X179738942Y-71100242D02*
X179886902Y-71161530D01*
X180020058Y-71250502D01*
X180133298Y-71363742D01*
X180222270Y-71496898D01*
X180283558Y-71644858D01*
X180314800Y-71801925D01*
X180314800Y-71962075D01*
X180283558Y-72119142D01*
X180222270Y-72267102D01*
X180133298Y-72400258D01*
X180020058Y-72513498D01*
X179886902Y-72602470D01*
X179738942Y-72663758D01*
X179581875Y-72695000D01*
X179421725Y-72695000D01*
X179264658Y-72663758D01*
X179116698Y-72602470D01*
X178983542Y-72513498D01*
X178870302Y-72400258D01*
X178781330Y-72267102D01*
X178720042Y-72119142D01*
X178688800Y-71962075D01*
X178688800Y-71801925D01*
X178720042Y-71644858D01*
X178781330Y-71496898D01*
X178870302Y-71363742D01*
X178983542Y-71250502D01*
X179116698Y-71161530D01*
X179264658Y-71100242D01*
X179421725Y-71069000D01*
X179581875Y-71069000D01*
X179738942Y-71100242D01*
X179738942Y-71100242D01*
G37*
G36*
X160257142Y-69068242D02*
X160405102Y-69129530D01*
X160538258Y-69218502D01*
X160651498Y-69331742D01*
X160740470Y-69464898D01*
X160801758Y-69612858D01*
X160833000Y-69769925D01*
X160833000Y-69930075D01*
X160801758Y-70087142D01*
X160740470Y-70235102D01*
X160651498Y-70368258D01*
X160538258Y-70481498D01*
X160405102Y-70570470D01*
X160257142Y-70631758D01*
X160100075Y-70663000D01*
X159939925Y-70663000D01*
X159782858Y-70631758D01*
X159634898Y-70570470D01*
X159501742Y-70481498D01*
X159388502Y-70368258D01*
X159299530Y-70235102D01*
X159238242Y-70087142D01*
X159207000Y-69930075D01*
X159207000Y-69769925D01*
X159238242Y-69612858D01*
X159299530Y-69464898D01*
X159388502Y-69331742D01*
X159501742Y-69218502D01*
X159634898Y-69129530D01*
X159782858Y-69068242D01*
X159939925Y-69037000D01*
X160100075Y-69037000D01*
X160257142Y-69068242D01*
X160257142Y-69068242D01*
G37*
G36*
X162797142Y-69068242D02*
X162945102Y-69129530D01*
X163078258Y-69218502D01*
X163191498Y-69331742D01*
X163280470Y-69464898D01*
X163341758Y-69612858D01*
X163373000Y-69769925D01*
X163373000Y-69930075D01*
X163341758Y-70087142D01*
X163280470Y-70235102D01*
X163191498Y-70368258D01*
X163078258Y-70481498D01*
X162945102Y-70570470D01*
X162797142Y-70631758D01*
X162640075Y-70663000D01*
X162479925Y-70663000D01*
X162322858Y-70631758D01*
X162174898Y-70570470D01*
X162041742Y-70481498D01*
X161928502Y-70368258D01*
X161839530Y-70235102D01*
X161778242Y-70087142D01*
X161747000Y-69930075D01*
X161747000Y-69769925D01*
X161778242Y-69612858D01*
X161839530Y-69464898D01*
X161928502Y-69331742D01*
X162041742Y-69218502D01*
X162174898Y-69129530D01*
X162322858Y-69068242D01*
X162479925Y-69037000D01*
X162640075Y-69037000D01*
X162797142Y-69068242D01*
X162797142Y-69068242D01*
G37*
G36*
X177318213Y-68420249D02*
X177412652Y-68448897D01*
X177499687Y-68495418D01*
X177575975Y-68558025D01*
X177638582Y-68634313D01*
X177685103Y-68721348D01*
X177713751Y-68815787D01*
X177721000Y-68889388D01*
X177721000Y-69638612D01*
X177713751Y-69712213D01*
X177685103Y-69806652D01*
X177638582Y-69893687D01*
X177575975Y-69969975D01*
X177499687Y-70032582D01*
X177412651Y-70079103D01*
X177318212Y-70107751D01*
X177220000Y-70117424D01*
X177121787Y-70107751D01*
X177027348Y-70079103D01*
X176940313Y-70032582D01*
X176864025Y-69969975D01*
X176801418Y-69893687D01*
X176754897Y-69806651D01*
X176726249Y-69712212D01*
X176719000Y-69638611D01*
X176719000Y-68889398D01*
X176726250Y-68815789D01*
X176726250Y-68815787D01*
X176754898Y-68721348D01*
X176754898Y-68721347D01*
X176801420Y-68634312D01*
X176864026Y-68558025D01*
X176940314Y-68495418D01*
X177027349Y-68448897D01*
X177121788Y-68420249D01*
X177220000Y-68410576D01*
X177318213Y-68420249D01*
X177318213Y-68420249D01*
G37*
G36*
X170718213Y-68420249D02*
X170812652Y-68448897D01*
X170899687Y-68495418D01*
X170975975Y-68558025D01*
X171038582Y-68634313D01*
X171085103Y-68721348D01*
X171113751Y-68815787D01*
X171121000Y-68889388D01*
X171121000Y-69638612D01*
X171113751Y-69712213D01*
X171085103Y-69806652D01*
X171038582Y-69893687D01*
X170975975Y-69969975D01*
X170899687Y-70032582D01*
X170812651Y-70079103D01*
X170718212Y-70107751D01*
X170620000Y-70117424D01*
X170521787Y-70107751D01*
X170427348Y-70079103D01*
X170340313Y-70032582D01*
X170264025Y-69969975D01*
X170201418Y-69893687D01*
X170154897Y-69806651D01*
X170126249Y-69712212D01*
X170119000Y-69638611D01*
X170119000Y-68889398D01*
X170126250Y-68815789D01*
X170126250Y-68815787D01*
X170154898Y-68721348D01*
X170154898Y-68721347D01*
X170201420Y-68634312D01*
X170264026Y-68558025D01*
X170340314Y-68495418D01*
X170427349Y-68448897D01*
X170521788Y-68420249D01*
X170620000Y-68410576D01*
X170718213Y-68420249D01*
X170718213Y-68420249D01*
G37*
M02*
