M48
;DRILL file {KiCad (5.0.1-3-g963ef8bb5)} date Friday, March 08, 2019 at 12:38:07 PM
;FORMAT={2:4/ absolute / inch / suppress leading zeros}
FMAT,2
INCH,TZ
T1C0.0120
T2C0.0197
T3C0.0276
T4C0.0394
%
G90
G05
M72
T1
X57125Y-40650
X57630Y-35430
X57850Y-40650
X58060Y-37870
X58228Y-36506
X58680Y-36634
X59360Y-33620
X59450Y-40350
X60487Y-39313
X60700Y-35850
X60900Y-38150
X61191Y-36024
X61427Y-33620
X61840Y-39920
X62278Y-34572
X63270Y-36016
X63307Y-35551
X63359Y-34274
X63868Y-29665
X63868Y-30000
X64200Y-33240
X64370Y-36610
X64370Y-38550
X64860Y-31750
X65230Y-31750
X65570Y-31750
X65800Y-39870
X65810Y-40700
X65850Y-29900
X65860Y-29560
X65920Y-39110
X66500Y-27575
X67020Y-34440
X67210Y-28820
X69000Y-31700
X69300Y-31700
X69630Y-28790
X70050Y-30500
X70350Y-28950
T3
X52854Y-30296
X54246Y-28904
T4
X63500Y-43000
X66600Y-35400
X56000Y-39250
X59500Y-34540
X63210Y-41400
X70670Y-28300
X58000Y-33000
X64200Y-41400
X67500Y-32000
X56000Y-33000
X63400Y-38400
X62500Y-31750
X63000Y-27500
X55000Y-33000
X67600Y-35400
X62500Y-30750
X64000Y-27500
X59000Y-39250
X54000Y-33000
X57000Y-33000
X63500Y-44000
X58000Y-39250
X57000Y-39250
X68679Y-46379
X70447Y-44612
X61191Y-39508
T2
X67173Y-27131G85X67173Y-27407
G05
X69772Y-27131G85X69772Y-27407
G05
T0
M30
