G04 #@! TF.GenerationSoftware,KiCad,Pcbnew,(5.0.1-3-g963ef8bb5)*
G04 #@! TF.CreationDate,2019-03-08T12:42:58-05:00*
G04 #@! TF.ProjectId,badge,62616467652E6B696361645F70636200,rev?*
G04 #@! TF.SameCoordinates,Original*
G04 #@! TF.FileFunction,Profile,NP*
%FSLAX46Y46*%
G04 Gerber Fmt 4.6, Leading zero omitted, Abs format (unit mm)*
G04 Created by KiCad (PCBNEW (5.0.1-3-g963ef8bb5)) date Friday, March 08, 2019 at 12:42:58 PM*
%MOMM*%
%LPD*%
G01*
G04 APERTURE LIST*
%ADD10C,0.200000*%
G04 #@! TA.AperFunction,NonConductor*
%ADD11C,0.100000*%
G04 #@! TD*
G04 APERTURE END LIST*
D10*
X128016000Y-70612000D02*
G75*
G02X131318000Y-67310000I3302000J0D01*
G01*
X181610000Y-117348000D02*
G75*
G02X178308000Y-120650000I-3302000J0D01*
G01*
X131318000Y-120650000D02*
G75*
G02X128016000Y-117348000I0J3302000D01*
G01*
X178308000Y-67310000D02*
G75*
G02X181610000Y-70612000I0J-3302000D01*
G01*
X142747999Y-114300001D02*
G75*
G02X140208001Y-116839999I-1269999J-1269999D01*
G01*
X132080001Y-108711999D02*
G75*
G02X134619999Y-106172001I1269999J1269999D01*
G01*
X132080000Y-108712000D02*
X140208000Y-116840000D01*
X142748000Y-114300000D02*
X134620000Y-106172000D01*
X128016000Y-117348000D02*
X128016000Y-70612000D01*
X178308000Y-120650000D02*
X131318000Y-120650000D01*
X181610000Y-70612000D02*
X181610000Y-117348000D01*
X131318000Y-67310000D02*
X178308000Y-67310000D01*
D11*
G04 #@! TO.C,J1*
X177470000Y-69614000D02*
G75*
G02X177220000Y-69864000I-250000J0D01*
G01*
X177220000Y-69864000D02*
G75*
G02X176970000Y-69614000I0J250000D01*
G01*
X176970000Y-69614000D02*
X176970000Y-68914000D01*
X176970000Y-68914000D02*
G75*
G02X177220000Y-68664000I250000J0D01*
G01*
X177220000Y-68664000D02*
G75*
G02X177470000Y-68914000I0J-250000D01*
G01*
X177470000Y-68914000D02*
X177470000Y-69614000D01*
X170870000Y-69614000D02*
G75*
G02X170620000Y-69864000I-250000J0D01*
G01*
X170620000Y-69864000D02*
G75*
G02X170370000Y-69614000I0J250000D01*
G01*
X170370000Y-69614000D02*
X170370000Y-68914000D01*
X170370000Y-68914000D02*
G75*
G02X170620000Y-68664000I250000J0D01*
G01*
X170620000Y-68664000D02*
G75*
G02X170870000Y-68914000I0J-250000D01*
G01*
X170870000Y-68914000D02*
X170870000Y-69614000D01*
G04 #@! TD*
M02*
