G04 #@! TF.GenerationSoftware,KiCad,Pcbnew,(5.0.1-3-g963ef8bb5)*
G04 #@! TF.CreationDate,2019-03-08T12:42:58-05:00*
G04 #@! TF.ProjectId,badge,62616467652E6B696361645F70636200,rev?*
G04 #@! TF.SameCoordinates,Original*
G04 #@! TF.FileFunction,Legend,Bot*
G04 #@! TF.FilePolarity,Positive*
%FSLAX46Y46*%
G04 Gerber Fmt 4.6, Leading zero omitted, Abs format (unit mm)*
G04 Created by KiCad (PCBNEW (5.0.1-3-g963ef8bb5)) date Friday, March 08, 2019 at 12:42:58 PM*
%MOMM*%
%LPD*%
G01*
G04 APERTURE LIST*
%ADD10C,0.150000*%
%ADD11C,0.250000*%
%ADD12C,0.500000*%
%ADD13C,0.300000*%
%ADD14C,0.010000*%
G04 APERTURE END LIST*
D10*
X168674294Y-72406035D02*
X168808981Y-72473378D01*
X168876324Y-72473378D01*
X168977339Y-72439707D01*
X169078355Y-72338691D01*
X169112026Y-72237676D01*
X169112026Y-72170333D01*
X169078355Y-72069317D01*
X168808981Y-71799943D01*
X168101874Y-72507050D01*
X168337576Y-72742752D01*
X168438591Y-72776424D01*
X168505935Y-72776424D01*
X168606950Y-72742752D01*
X168674294Y-72675409D01*
X168707965Y-72574394D01*
X168707965Y-72507050D01*
X168674294Y-72406035D01*
X168438591Y-72170333D01*
X169819133Y-72810096D02*
X169448744Y-73180485D01*
X169347729Y-73214157D01*
X169246713Y-73180485D01*
X169112026Y-73045798D01*
X169078355Y-72944783D01*
X169785461Y-72843768D02*
X169751790Y-72742752D01*
X169583431Y-72574394D01*
X169482416Y-72540722D01*
X169381400Y-72574394D01*
X169314057Y-72641737D01*
X169280385Y-72742752D01*
X169314057Y-72843768D01*
X169482416Y-73012126D01*
X169516087Y-73113142D01*
X169583431Y-73517203D02*
X169852805Y-73786577D01*
X169448744Y-73853920D02*
X170054835Y-73247829D01*
X170155851Y-73214157D01*
X170256866Y-73247829D01*
X170324209Y-73315172D01*
X169987492Y-73921264D02*
X170256866Y-74190638D01*
X169852805Y-74257981D02*
X170458896Y-73651890D01*
X170559912Y-73618218D01*
X170660927Y-73651890D01*
X170728270Y-73719233D01*
X171199675Y-74257981D02*
X171166003Y-74156966D01*
X171031316Y-74022279D01*
X170930301Y-73988607D01*
X170829286Y-74022279D01*
X170559912Y-74291653D01*
X170526240Y-74392668D01*
X170559912Y-74493683D01*
X170694599Y-74628370D01*
X170795614Y-74662042D01*
X170896629Y-74628370D01*
X170963973Y-74561027D01*
X170694599Y-74156966D01*
X171570064Y-74561027D02*
X171098660Y-75032431D01*
X171233347Y-74897744D02*
X171199675Y-74998760D01*
X171199675Y-75066103D01*
X171233347Y-75167118D01*
X171300690Y-75234462D01*
X172007797Y-74998760D02*
X171536392Y-75470164D01*
X171300690Y-75705866D02*
X171300690Y-75638523D01*
X171368034Y-75638523D01*
X171368034Y-75705866D01*
X171300690Y-75705866D01*
X171368034Y-75638523D01*
X172580217Y-75638523D02*
X172546545Y-75537508D01*
X172411858Y-75402821D01*
X172310843Y-75369149D01*
X172209827Y-75402821D01*
X171940453Y-75672195D01*
X171906782Y-75773210D01*
X171940453Y-75874225D01*
X172075140Y-76008912D01*
X172176156Y-76042584D01*
X172277171Y-76008912D01*
X172344514Y-75941569D01*
X172075140Y-75537508D01*
X172883262Y-75941569D02*
X172984278Y-75975240D01*
X173118965Y-76109927D01*
X173152637Y-76210943D01*
X173118965Y-76311958D01*
X173085293Y-76345630D01*
X172984278Y-76379301D01*
X172883262Y-76345630D01*
X172782247Y-76244614D01*
X172681232Y-76210943D01*
X172580217Y-76244614D01*
X172546545Y-76278286D01*
X172512873Y-76379301D01*
X172546545Y-76480317D01*
X172647560Y-76581332D01*
X172748575Y-76615004D01*
X173489354Y-77894530D02*
X173624041Y-78029217D01*
X173725056Y-78062889D01*
X173859743Y-78062889D01*
X174028102Y-77961874D01*
X174263804Y-77726172D01*
X174364820Y-77557813D01*
X174364820Y-77423126D01*
X174331148Y-77322111D01*
X174196461Y-77187424D01*
X174095446Y-77153752D01*
X173960759Y-77153752D01*
X173792400Y-77254767D01*
X173556698Y-77490469D01*
X173455682Y-77658828D01*
X173455682Y-77793515D01*
X173489354Y-77894530D01*
X174331148Y-78264920D02*
X175038255Y-77557813D01*
X174364820Y-78231248D02*
X174398491Y-78332263D01*
X174533178Y-78466950D01*
X174634194Y-78500622D01*
X174701537Y-78500622D01*
X174802552Y-78466950D01*
X175004583Y-78264920D01*
X175038255Y-78163904D01*
X175038255Y-78096561D01*
X175004583Y-77995546D01*
X174869896Y-77860859D01*
X174768881Y-77827187D01*
X174869896Y-78803668D02*
X175139270Y-79073042D01*
X174735209Y-79140385D02*
X175341300Y-78534294D01*
X175442316Y-78500622D01*
X175543331Y-78534294D01*
X175610674Y-78601637D01*
X175846377Y-78837339D02*
X175374972Y-79308744D01*
X175139270Y-79544446D02*
X175139270Y-79477103D01*
X175206613Y-79477103D01*
X175206613Y-79544446D01*
X175139270Y-79544446D01*
X175206613Y-79477103D01*
X176284109Y-79275072D02*
X176183094Y-79241400D01*
X176115751Y-79241400D01*
X176014735Y-79275072D01*
X175812705Y-79477103D01*
X175779033Y-79578118D01*
X175779033Y-79645461D01*
X175812705Y-79746477D01*
X175913720Y-79847492D01*
X176014735Y-79881164D01*
X176082079Y-79881164D01*
X176183094Y-79847492D01*
X176385125Y-79645461D01*
X176418796Y-79544446D01*
X176418796Y-79477103D01*
X176385125Y-79376087D01*
X176284109Y-79275072D01*
X176351453Y-80285225D02*
X176822857Y-79813820D01*
X176418796Y-80217881D02*
X176418796Y-80285225D01*
X176452468Y-80386240D01*
X176553483Y-80487255D01*
X176654499Y-80520927D01*
X176755514Y-80487255D01*
X177125903Y-80116866D01*
X177765666Y-80756629D02*
X177395277Y-81127018D01*
X177294262Y-81160690D01*
X177193247Y-81127018D01*
X177058560Y-80992331D01*
X177024888Y-80891316D01*
X177731995Y-80790301D02*
X177698323Y-80689286D01*
X177529964Y-80520927D01*
X177428949Y-80487255D01*
X177327934Y-80520927D01*
X177260590Y-80588270D01*
X177226918Y-80689286D01*
X177260590Y-80790301D01*
X177428949Y-80958660D01*
X177462621Y-81059675D01*
X178203399Y-81194362D02*
X178102384Y-81160690D01*
X178001369Y-81194362D01*
X177395277Y-81800453D01*
X170733321Y-71525519D02*
X170733321Y-71458175D01*
X170665977Y-71323488D01*
X170598634Y-71256145D01*
X170463947Y-71188801D01*
X170329260Y-71188801D01*
X170228245Y-71222473D01*
X170059886Y-71323488D01*
X169958871Y-71424503D01*
X169857855Y-71592862D01*
X169824184Y-71693877D01*
X169824184Y-71828564D01*
X169891527Y-71963251D01*
X169958871Y-72030595D01*
X170093558Y-72097938D01*
X170160901Y-72097938D01*
X171204725Y-71862236D02*
X171103710Y-71828564D01*
X171036367Y-71828564D01*
X170935351Y-71862236D01*
X170733321Y-72064267D01*
X170699649Y-72165282D01*
X170699649Y-72232625D01*
X170733321Y-72333641D01*
X170834336Y-72434656D01*
X170935351Y-72468328D01*
X171002695Y-72468328D01*
X171103710Y-72434656D01*
X171305741Y-72232625D01*
X171339412Y-72131610D01*
X171339412Y-72064267D01*
X171305741Y-71963251D01*
X171204725Y-71862236D01*
X171272069Y-72872389D02*
X171743474Y-72400984D01*
X171339412Y-72805045D02*
X171339412Y-72872389D01*
X171373084Y-72973404D01*
X171474099Y-73074419D01*
X171575115Y-73108091D01*
X171676130Y-73074419D01*
X172046519Y-72704030D01*
X171911832Y-73512152D02*
X172383237Y-73040748D01*
X171979176Y-73444809D02*
X171979176Y-73512152D01*
X172012848Y-73613167D01*
X172113863Y-73714183D01*
X172214878Y-73747854D01*
X172315893Y-73714183D01*
X172686283Y-73343793D01*
X173258702Y-73983557D02*
X173225031Y-73882541D01*
X173090344Y-73747854D01*
X172989328Y-73714183D01*
X172888313Y-73747854D01*
X172618939Y-74017228D01*
X172585267Y-74118244D01*
X172618939Y-74219259D01*
X172753626Y-74353946D01*
X172854641Y-74387618D01*
X172955657Y-74353946D01*
X173023000Y-74286602D01*
X172753626Y-73882541D01*
X173898466Y-74623320D02*
X173864794Y-74522305D01*
X173730107Y-74387618D01*
X173629092Y-74353946D01*
X173561748Y-74353946D01*
X173460733Y-74387618D01*
X173258702Y-74589648D01*
X173225031Y-74690663D01*
X173225031Y-74758007D01*
X173258702Y-74859022D01*
X173393389Y-74993709D01*
X173494405Y-75027381D01*
X173662763Y-75263083D02*
X173932137Y-75532457D01*
X173528076Y-75599801D02*
X174134168Y-74993709D01*
X174235183Y-74960037D01*
X174336198Y-74993709D01*
X174403542Y-75061053D01*
X174605572Y-76205892D02*
X174874946Y-76475266D01*
X174470885Y-76542610D02*
X175076977Y-75936518D01*
X175177992Y-75902846D01*
X175279007Y-75936518D01*
X175346351Y-76003862D01*
X175683068Y-76340579D02*
X175582053Y-76306907D01*
X175514710Y-76306907D01*
X175413694Y-76340579D01*
X175211664Y-76542610D01*
X175177992Y-76643625D01*
X175177992Y-76710968D01*
X175211664Y-76811984D01*
X175312679Y-76912999D01*
X175413694Y-76946671D01*
X175481038Y-76946671D01*
X175582053Y-76912999D01*
X175784084Y-76710968D01*
X175817755Y-76609953D01*
X175817755Y-76542610D01*
X175784084Y-76441594D01*
X175683068Y-76340579D01*
X176053458Y-78125182D02*
X176625877Y-77552762D01*
X176726893Y-77519090D01*
X176794236Y-77519090D01*
X176895251Y-77552762D01*
X177029938Y-77687449D01*
X177063610Y-77788464D01*
X177063610Y-77855808D01*
X177029938Y-77956823D01*
X176457519Y-78529243D01*
X177434000Y-78158854D02*
X177568687Y-78226197D01*
X177737045Y-78394556D01*
X177770717Y-78495571D01*
X177770717Y-78562915D01*
X177737045Y-78663930D01*
X177669702Y-78731274D01*
X177568687Y-78764945D01*
X177501343Y-78764945D01*
X177400328Y-78731274D01*
X177231969Y-78630258D01*
X177130954Y-78596587D01*
X177063610Y-78596587D01*
X176962595Y-78630258D01*
X176895251Y-78697602D01*
X176861580Y-78798617D01*
X176861580Y-78865961D01*
X176895251Y-78966976D01*
X177063610Y-79135335D01*
X177198297Y-79202678D01*
X178040091Y-79438380D02*
X178174778Y-79505724D01*
X178242122Y-79505724D01*
X178343137Y-79472052D01*
X178444152Y-79371037D01*
X178477824Y-79270022D01*
X178477824Y-79202678D01*
X178444152Y-79101663D01*
X178174778Y-78832289D01*
X177467671Y-79539396D01*
X177703374Y-79775098D01*
X177804389Y-79808770D01*
X177871732Y-79808770D01*
X177972748Y-79775098D01*
X178040091Y-79707754D01*
X178073763Y-79606739D01*
X178073763Y-79539396D01*
X178040091Y-79438380D01*
X177804389Y-79202678D01*
X178814541Y-79606739D02*
X178881885Y-79606739D01*
X178881885Y-79539396D01*
X178814541Y-79539396D01*
X178814541Y-79606739D01*
X178881885Y-79539396D01*
X178612511Y-79808770D02*
X178174778Y-80179159D01*
X178174778Y-80246502D01*
X178242122Y-80246502D01*
X178612511Y-79808770D01*
X178174778Y-80246502D01*
D11*
X180860450Y-115689312D02*
X180759435Y-115116893D01*
X181264511Y-115285251D02*
X180557404Y-114578145D01*
X180288030Y-114847519D01*
X180254358Y-114948534D01*
X180254358Y-115015877D01*
X180288030Y-115116893D01*
X180389045Y-115217908D01*
X180490061Y-115251580D01*
X180557404Y-115251580D01*
X180658419Y-115217908D01*
X180927793Y-114948534D01*
X180187015Y-115621969D02*
X179951312Y-115857671D01*
X180220687Y-116329076D02*
X180557404Y-115992358D01*
X179850297Y-115285251D01*
X179513580Y-115621969D01*
X179917641Y-116632122D02*
X179210534Y-115925015D01*
X179042175Y-116093374D01*
X178974832Y-116228061D01*
X178974832Y-116362748D01*
X179008503Y-116463763D01*
X179109519Y-116632122D01*
X179210534Y-116733137D01*
X179378893Y-116834152D01*
X179479908Y-116867824D01*
X179614595Y-116867824D01*
X179749282Y-116800480D01*
X179917641Y-116632122D01*
X177322748Y-118486236D02*
X177255404Y-118620923D01*
X177255404Y-118688267D01*
X177289076Y-118789282D01*
X177390091Y-118890297D01*
X177491106Y-118923969D01*
X177558450Y-118923969D01*
X177659465Y-118890297D01*
X177928839Y-118620923D01*
X177221732Y-117913816D01*
X176986030Y-118149519D01*
X176952358Y-118250534D01*
X176952358Y-118317877D01*
X176986030Y-118418893D01*
X177053374Y-118486236D01*
X177154389Y-118519908D01*
X177221732Y-118519908D01*
X177322748Y-118486236D01*
X177558450Y-118250534D01*
X176885015Y-119664748D02*
X177221732Y-119328030D01*
X176514625Y-118620923D01*
X176649312Y-119900450D02*
X175942206Y-119193343D01*
X176245251Y-120304511D02*
X176144236Y-119597404D01*
X175538145Y-119597404D02*
X176346267Y-119597404D01*
D12*
X149457400Y-70657244D02*
X151073644Y-69041000D01*
X151073644Y-70657244D02*
X149457400Y-69041000D01*
X130661400Y-91256644D02*
X132277644Y-89640400D01*
X157839400Y-118663244D02*
X159455644Y-117047000D01*
X159455644Y-118663244D02*
X157839400Y-117047000D01*
D13*
X131031228Y-97203705D02*
X129970568Y-98264365D01*
X131485797Y-97658274D02*
X130930213Y-98213858D01*
X130778690Y-98264365D01*
X130627167Y-98213858D01*
X130475644Y-98062335D01*
X130425136Y-97910812D01*
X130425136Y-97809796D01*
X131132243Y-98718934D02*
X131536304Y-99122995D01*
X130930213Y-99224010D02*
X131839350Y-98314873D01*
X131990873Y-98264365D01*
X132142396Y-98314873D01*
X132243411Y-98415888D01*
X131738335Y-99325025D02*
X132142396Y-99729086D01*
X131536304Y-99830102D02*
X132445441Y-98920964D01*
X132596964Y-98870457D01*
X132748487Y-98920964D01*
X132849502Y-99021980D01*
X132495949Y-100082640D02*
X133556609Y-99021980D01*
X132546457Y-100032132D02*
X132596964Y-100183655D01*
X132798995Y-100385685D01*
X132950518Y-100436193D01*
X133051533Y-100436193D01*
X133203056Y-100385685D01*
X133506102Y-100082640D01*
X133556609Y-99931117D01*
X133556609Y-99830102D01*
X133506102Y-99678579D01*
X133304071Y-99476548D01*
X133152548Y-99426041D01*
X134061686Y-100335178D02*
X134213208Y-100385685D01*
X134415239Y-100587716D01*
X134465747Y-100739239D01*
X134415239Y-100890762D01*
X134364731Y-100941269D01*
X134213208Y-100991777D01*
X134061686Y-100941269D01*
X133910163Y-100789747D01*
X133758640Y-100739239D01*
X133607117Y-100789747D01*
X133556609Y-100840254D01*
X133506102Y-100991777D01*
X133556609Y-101143300D01*
X133708132Y-101294823D01*
X133859655Y-101345330D01*
X134920315Y-101294823D02*
X135021330Y-101294823D01*
X135021330Y-101193808D01*
X134920315Y-101193808D01*
X134920315Y-101294823D01*
X135021330Y-101193808D01*
X134364731Y-101850407D02*
X134465747Y-101850407D01*
X134465747Y-101749391D01*
X134364731Y-101749391D01*
X134364731Y-101850407D01*
X134465747Y-101749391D01*
X135172853Y-103567666D02*
X135627422Y-101294823D01*
X136284021Y-104678834D02*
X136738590Y-102405991D01*
X136940620Y-104527311D02*
X137849758Y-104022235D01*
X137546712Y-104729341D01*
X138253819Y-104426296D01*
X137748742Y-105335433D01*
X138051788Y-105638479D02*
X138960925Y-105133402D01*
X138657880Y-105840509D01*
X139364986Y-105537463D01*
X138859910Y-106446601D01*
X139162956Y-106749647D02*
X140072093Y-106244570D01*
X139769047Y-106951677D01*
X140476154Y-106648631D01*
X139971078Y-107557769D01*
X140981230Y-107355738D02*
X141082246Y-107355738D01*
X141082246Y-107254723D01*
X140981230Y-107254723D01*
X140981230Y-107355738D01*
X141082246Y-107254723D01*
X141587322Y-107759799D02*
X140880215Y-108466906D01*
X140981230Y-108365891D02*
X140981230Y-108466906D01*
X141031738Y-108618429D01*
X141183261Y-108769952D01*
X141334784Y-108820459D01*
X141486307Y-108769952D01*
X142041891Y-108214368D01*
X141486307Y-108769952D02*
X141435799Y-108921474D01*
X141486307Y-109072997D01*
X141637830Y-109224520D01*
X141789352Y-109275028D01*
X141940875Y-109224520D01*
X142496459Y-108668936D01*
X143456104Y-109628581D02*
X142900520Y-110184165D01*
X142748997Y-110234673D01*
X142597475Y-110184165D01*
X142395444Y-109982135D01*
X142344936Y-109830612D01*
X143405597Y-109679089D02*
X143355089Y-109527566D01*
X143102551Y-109275028D01*
X142951028Y-109224520D01*
X142799505Y-109275028D01*
X142698490Y-109376043D01*
X142647982Y-109527566D01*
X142698490Y-109679089D01*
X142951028Y-109931627D01*
X143001536Y-110083150D01*
X143961180Y-110133658D02*
X142900520Y-111194318D01*
X143658135Y-110638734D02*
X144365241Y-110537719D01*
X143658135Y-111244825D02*
X143658135Y-110436703D01*
X145173364Y-111446856D02*
X145122856Y-111295333D01*
X144920825Y-111093302D01*
X144769302Y-111042795D01*
X144617780Y-111093302D01*
X144213719Y-111497363D01*
X144163211Y-111648886D01*
X144213719Y-111800409D01*
X144415749Y-112002440D01*
X144567272Y-112052947D01*
X144718795Y-112002440D01*
X144819810Y-111901424D01*
X144415749Y-111295333D01*
X144567272Y-112861069D02*
X145274379Y-113568176D01*
X145880470Y-112052947D01*
X147294684Y-113467161D02*
X146688592Y-112861069D01*
X146991638Y-113164115D02*
X145930978Y-114224775D01*
X145981486Y-113972237D01*
X145981486Y-113770207D01*
X145930978Y-113618684D01*
X146587577Y-114881374D02*
X147294684Y-115588481D01*
X147900775Y-114073252D01*
X148658390Y-115032897D02*
X148759405Y-115032897D01*
X148759405Y-114931882D01*
X148658390Y-114931882D01*
X148658390Y-115032897D01*
X148759405Y-114931882D01*
X149416004Y-115588481D02*
X149264481Y-115537974D01*
X149163466Y-115537974D01*
X149011943Y-115588481D01*
X148708897Y-115891527D01*
X148658390Y-116043050D01*
X148658390Y-116144065D01*
X148708897Y-116295588D01*
X148860420Y-116447111D01*
X149011943Y-116497619D01*
X149112958Y-116497619D01*
X149264481Y-116447111D01*
X149567527Y-116144065D01*
X149618035Y-115992542D01*
X149618035Y-115891527D01*
X149567527Y-115740004D01*
X149416004Y-115588481D01*
X150224126Y-116396603D02*
X149517019Y-117103710D01*
X149719050Y-116901680D02*
X149668542Y-117053202D01*
X149668542Y-117154218D01*
X149719050Y-117305741D01*
X149820065Y-117406756D01*
X150628187Y-118214878D02*
X151486817Y-117356248D01*
X151537325Y-117204725D01*
X151537325Y-117103710D01*
X151486817Y-116952187D01*
X151335294Y-116800664D01*
X151183771Y-116750157D01*
X151284786Y-117558279D02*
X151234279Y-117406756D01*
X151032248Y-117204725D01*
X150880725Y-117154218D01*
X150779710Y-117154218D01*
X150628187Y-117204725D01*
X150325141Y-117507771D01*
X150274634Y-117659294D01*
X150274634Y-117760309D01*
X150325141Y-117911832D01*
X150527172Y-118113863D01*
X150678695Y-118164370D01*
X130409984Y-92976217D02*
X129349324Y-94036877D01*
X130864552Y-93430786D02*
X130308969Y-93986369D01*
X130157446Y-94036877D01*
X130005923Y-93986369D01*
X129854400Y-93834847D01*
X129803892Y-93683324D01*
X129803892Y-93582308D01*
X130510999Y-94491446D02*
X130915060Y-94895507D01*
X130308969Y-94996522D02*
X131218106Y-94087385D01*
X131369629Y-94036877D01*
X131521152Y-94087385D01*
X131622167Y-94188400D01*
X131117091Y-95097537D02*
X131521152Y-95501598D01*
X130915060Y-95602613D02*
X131824197Y-94693476D01*
X131975720Y-94642969D01*
X132127243Y-94693476D01*
X132228258Y-94794491D01*
X131874705Y-95855152D02*
X132935365Y-94794491D01*
X131925213Y-95804644D02*
X131975720Y-95956167D01*
X132177751Y-96158197D01*
X132329274Y-96208705D01*
X132430289Y-96208705D01*
X132581812Y-96158197D01*
X132884858Y-95855152D01*
X132935365Y-95703629D01*
X132935365Y-95602613D01*
X132884858Y-95451091D01*
X132682827Y-95249060D01*
X132531304Y-95198552D01*
X133440441Y-96107690D02*
X133591964Y-96158197D01*
X133793995Y-96360228D01*
X133844502Y-96511751D01*
X133793995Y-96663274D01*
X133743487Y-96713781D01*
X133591964Y-96764289D01*
X133440441Y-96713781D01*
X133288919Y-96562258D01*
X133137396Y-96511751D01*
X132985873Y-96562258D01*
X132935365Y-96612766D01*
X132884858Y-96764289D01*
X132935365Y-96915812D01*
X133086888Y-97067335D01*
X133238411Y-97117842D01*
X134299071Y-97067335D02*
X134400086Y-97067335D01*
X134400086Y-96966319D01*
X134299071Y-96966319D01*
X134299071Y-97067335D01*
X134400086Y-96966319D01*
X133743487Y-97622919D02*
X133844502Y-97622919D01*
X133844502Y-97521903D01*
X133743487Y-97521903D01*
X133743487Y-97622919D01*
X133844502Y-97521903D01*
X134551609Y-99340178D02*
X135006178Y-97067335D01*
X135662777Y-100451346D02*
X136117346Y-98178502D01*
X136874960Y-100855407D02*
X137733590Y-99996777D01*
X137784097Y-99845254D01*
X137784097Y-99744239D01*
X137733590Y-99592716D01*
X137582067Y-99441193D01*
X137430544Y-99390686D01*
X137531559Y-100198808D02*
X137481052Y-100047285D01*
X137279021Y-99845254D01*
X137127498Y-99794747D01*
X137026483Y-99794747D01*
X136874960Y-99845254D01*
X136571914Y-100148300D01*
X136521407Y-100299823D01*
X136521407Y-100400838D01*
X136571914Y-100552361D01*
X136773945Y-100754391D01*
X136925468Y-100804899D01*
X138087143Y-100653376D02*
X137380036Y-101360483D01*
X137026483Y-101714036D02*
X137026483Y-101613021D01*
X137127498Y-101613021D01*
X137127498Y-101714036D01*
X137026483Y-101714036D01*
X137127498Y-101613021D01*
X137733590Y-101714036D02*
X138137651Y-102118097D01*
X137531559Y-102219113D02*
X138440697Y-101309975D01*
X138592219Y-101259468D01*
X138743742Y-101309975D01*
X138844758Y-101410991D01*
X139198311Y-101764544D02*
X138137651Y-102825204D01*
X139652880Y-102219113D02*
X139097296Y-102774697D01*
X138945773Y-102825204D01*
X138794250Y-102774697D01*
X138642727Y-102623174D01*
X138592219Y-102471651D01*
X138592219Y-102370636D01*
X139905418Y-103885864D02*
X140612524Y-103178758D01*
X139450849Y-103431296D02*
X140006433Y-102875712D01*
X140157956Y-102825204D01*
X140309479Y-102875712D01*
X140461002Y-103027235D01*
X140511509Y-103178758D01*
X140511509Y-103279773D01*
X141117601Y-103683834D02*
X140056941Y-104744494D01*
X140461002Y-104340433D02*
X140511509Y-104491956D01*
X140713540Y-104693986D01*
X140865063Y-104744494D01*
X140966078Y-104744494D01*
X141117601Y-104693986D01*
X141420647Y-104390941D01*
X141471154Y-104239418D01*
X141471154Y-104138402D01*
X141420647Y-103986880D01*
X141218616Y-103784849D01*
X141067093Y-103734341D01*
X141976230Y-104744494D02*
X142077246Y-104744494D01*
X142077246Y-104643479D01*
X141976230Y-104643479D01*
X141976230Y-104744494D01*
X142077246Y-104643479D01*
X142986383Y-105653631D02*
X142935875Y-105502108D01*
X142733845Y-105300078D01*
X142582322Y-105249570D01*
X142481307Y-105249570D01*
X142329784Y-105300078D01*
X142026738Y-105603124D01*
X141976230Y-105754647D01*
X141976230Y-105855662D01*
X142026738Y-106007185D01*
X142228769Y-106209215D01*
X142380291Y-106259723D01*
X143642982Y-106209215D02*
X143491459Y-106158708D01*
X143390444Y-106158708D01*
X143238921Y-106209215D01*
X142935875Y-106512261D01*
X142885368Y-106663784D01*
X142885368Y-106764799D01*
X142935875Y-106916322D01*
X143087398Y-107067845D01*
X143238921Y-107118352D01*
X143339936Y-107118352D01*
X143491459Y-107067845D01*
X143794505Y-106764799D01*
X143845013Y-106613276D01*
X143845013Y-106512261D01*
X143794505Y-106360738D01*
X143642982Y-106209215D01*
X144451104Y-107017337D02*
X143743997Y-107724444D01*
X143845013Y-107623429D02*
X143845013Y-107724444D01*
X143895520Y-107875967D01*
X144047043Y-108027490D01*
X144198566Y-108077997D01*
X144350089Y-108027490D01*
X144905673Y-107471906D01*
X144350089Y-108027490D02*
X144299581Y-108179013D01*
X144350089Y-108330536D01*
X144501612Y-108482058D01*
X144653135Y-108532566D01*
X144804658Y-108482058D01*
X145360241Y-107926475D01*
X145511764Y-110300333D02*
X145966333Y-108027490D01*
X146976486Y-109542719D02*
X146269379Y-110249825D01*
X146370394Y-110148810D02*
X146370394Y-110249825D01*
X146420902Y-110401348D01*
X146572424Y-110552871D01*
X146723947Y-110603379D01*
X146875470Y-110552871D01*
X147431054Y-109997287D01*
X146875470Y-110552871D02*
X146824963Y-110704394D01*
X146875470Y-110855917D01*
X147026993Y-111007440D01*
X147178516Y-111057947D01*
X147330039Y-111007440D01*
X147885623Y-110451856D01*
X148845268Y-111411501D02*
X148289684Y-111967085D01*
X148138161Y-112017592D01*
X147986638Y-111967085D01*
X147784608Y-111765054D01*
X147734100Y-111613531D01*
X148794760Y-111462008D02*
X148744252Y-111310486D01*
X148491714Y-111057947D01*
X148340191Y-111007440D01*
X148188669Y-111057947D01*
X148087653Y-111158963D01*
X148037146Y-111310486D01*
X148087653Y-111462008D01*
X148340191Y-111714547D01*
X148390699Y-111866069D01*
X149350344Y-111916577D02*
X148289684Y-112977237D01*
X149047298Y-112421653D02*
X149754405Y-112320638D01*
X149047298Y-113027745D02*
X149047298Y-112219623D01*
X150562527Y-113229775D02*
X150512019Y-113078252D01*
X150309989Y-112876222D01*
X150158466Y-112825714D01*
X150006943Y-112876222D01*
X149602882Y-113280283D01*
X149552374Y-113431806D01*
X149602882Y-113583329D01*
X149804913Y-113785359D01*
X149956436Y-113835867D01*
X150107958Y-113785359D01*
X150208974Y-113684344D01*
X149804913Y-113078252D01*
X149956436Y-114643989D02*
X150663542Y-115351096D01*
X151269634Y-113835867D01*
X152683847Y-115250080D02*
X152077756Y-114643989D01*
X152380802Y-114947035D02*
X151320141Y-116007695D01*
X151370649Y-115755157D01*
X151370649Y-115553126D01*
X151320141Y-115401603D01*
X151976741Y-116664294D02*
X152683847Y-117371401D01*
X153289939Y-115856172D01*
X153896030Y-117876477D02*
X154754660Y-117017847D01*
X154805168Y-116866325D01*
X154805168Y-116765309D01*
X154754660Y-116613786D01*
X154603137Y-116462264D01*
X154451614Y-116411756D01*
X154552630Y-117219878D02*
X154502122Y-117068355D01*
X154300091Y-116866325D01*
X154148569Y-116815817D01*
X154047553Y-116815817D01*
X153896030Y-116866325D01*
X153592985Y-117169370D01*
X153542477Y-117320893D01*
X153542477Y-117421908D01*
X153592985Y-117573431D01*
X153795015Y-117775462D01*
X153946538Y-117825969D01*
X155108213Y-117674447D02*
X154047553Y-118735107D01*
X155562782Y-118129015D02*
X155007198Y-118684599D01*
X154855675Y-118735107D01*
X154704152Y-118684599D01*
X154552630Y-118533076D01*
X154502122Y-118381553D01*
X154502122Y-118280538D01*
D12*
X176889400Y-97733644D02*
X178505644Y-96117400D01*
D14*
G04 #@! TO.C,REF\002A\002A*
G36*
X130315970Y-118547847D02*
X130391145Y-118622203D01*
X130446360Y-118675203D01*
X130485456Y-118709986D01*
X130512266Y-118729691D01*
X130530628Y-118737455D01*
X130544377Y-118736419D01*
X130557349Y-118729721D01*
X130558928Y-118728752D01*
X130586667Y-118710543D01*
X130640819Y-118674033D01*
X130715638Y-118623130D01*
X130805384Y-118561742D01*
X130904313Y-118493774D01*
X130907785Y-118491384D01*
X131005071Y-118425112D01*
X131091834Y-118367366D01*
X131162803Y-118321544D01*
X131212711Y-118291043D01*
X131236285Y-118279259D01*
X131236880Y-118279227D01*
X131262880Y-118287961D01*
X131313073Y-118309381D01*
X131376620Y-118338861D01*
X131376970Y-118339028D01*
X131457580Y-118375594D01*
X131554706Y-118416613D01*
X131648021Y-118453515D01*
X131652496Y-118455202D01*
X131806673Y-118513118D01*
X131881139Y-118908300D01*
X131904290Y-119029223D01*
X131925840Y-119138181D01*
X131944495Y-119228910D01*
X131958959Y-119295143D01*
X131967938Y-119330614D01*
X131969065Y-119333707D01*
X131989591Y-119345484D01*
X132040860Y-119354547D01*
X132125047Y-119361076D01*
X132244322Y-119365252D01*
X132368562Y-119367038D01*
X132489640Y-119367449D01*
X132599063Y-119366760D01*
X132690157Y-119365097D01*
X132756248Y-119362587D01*
X132790665Y-119359358D01*
X132792213Y-119358969D01*
X132806855Y-119347775D01*
X132821455Y-119320187D01*
X132837259Y-119271749D01*
X132855511Y-119198007D01*
X132877454Y-119094510D01*
X132903838Y-118959409D01*
X132926663Y-118840099D01*
X132947278Y-118733235D01*
X132964474Y-118645007D01*
X132977044Y-118581611D01*
X132983778Y-118549238D01*
X132984299Y-118547104D01*
X133004598Y-118529934D01*
X133052876Y-118505386D01*
X133119888Y-118477978D01*
X133142021Y-118469958D01*
X133239982Y-118433587D01*
X133349046Y-118390230D01*
X133441675Y-118350977D01*
X133509848Y-118321266D01*
X133562316Y-118299347D01*
X133590582Y-118288735D01*
X133593177Y-118288333D01*
X133611892Y-118302087D01*
X133656958Y-118333556D01*
X133722318Y-118378621D01*
X133801916Y-118433162D01*
X133889697Y-118493058D01*
X133979606Y-118554189D01*
X134065586Y-118612433D01*
X134141581Y-118663672D01*
X134201537Y-118703785D01*
X134239395Y-118728651D01*
X134248925Y-118734507D01*
X134261404Y-118737919D01*
X134277640Y-118733679D01*
X134301360Y-118718599D01*
X134336288Y-118689494D01*
X134386152Y-118643179D01*
X134454676Y-118576465D01*
X134545586Y-118486168D01*
X134582740Y-118449046D01*
X134884776Y-118147010D01*
X134826560Y-118060161D01*
X134793969Y-118012044D01*
X134745082Y-117940494D01*
X134685855Y-117854202D01*
X134622245Y-117761858D01*
X134604638Y-117736358D01*
X134546673Y-117650413D01*
X134497746Y-117573970D01*
X134461844Y-117513569D01*
X134442955Y-117475742D01*
X134441053Y-117468196D01*
X134449438Y-117436611D01*
X134471533Y-117381254D01*
X134502926Y-117312975D01*
X134510002Y-117298581D01*
X134552387Y-117207850D01*
X134597480Y-117102747D01*
X134635555Y-117005946D01*
X134635723Y-117005488D01*
X134692615Y-116850800D01*
X135487378Y-116699324D01*
X135487722Y-116286012D01*
X135486827Y-116162004D01*
X135484129Y-116050780D01*
X135479930Y-115958437D01*
X135474533Y-115891070D01*
X135468240Y-115854776D01*
X135466137Y-115850770D01*
X135440707Y-115840331D01*
X135383275Y-115824573D01*
X135300308Y-115805023D01*
X135198276Y-115783207D01*
X135086409Y-115761174D01*
X134972643Y-115739040D01*
X134872191Y-115718323D01*
X134791355Y-115700418D01*
X134736433Y-115686719D01*
X134713775Y-115678671D01*
X134701226Y-115653759D01*
X134681997Y-115601951D01*
X134660030Y-115533959D01*
X134657820Y-115526633D01*
X134627626Y-115435682D01*
X134600988Y-115379249D01*
X134575313Y-115353257D01*
X134548008Y-115353635D01*
X134547735Y-115353750D01*
X134524613Y-115363412D01*
X134469650Y-115386274D01*
X134387102Y-115420567D01*
X134281225Y-115464527D01*
X134156277Y-115516383D01*
X134016513Y-115574372D01*
X133881184Y-115630503D01*
X133732022Y-115692629D01*
X133594200Y-115750537D01*
X133471915Y-115802425D01*
X133369366Y-115846489D01*
X133290749Y-115880928D01*
X133240263Y-115903941D01*
X133222315Y-115913422D01*
X133217199Y-115939771D01*
X133219893Y-115992615D01*
X133229278Y-116057289D01*
X133247304Y-116250170D01*
X133229518Y-116432811D01*
X133177043Y-116602110D01*
X133091001Y-116754970D01*
X132972517Y-116888291D01*
X132909013Y-116941011D01*
X132759066Y-117032199D01*
X132601995Y-117088069D01*
X132441993Y-117110712D01*
X132283243Y-117102216D01*
X132129936Y-117064668D01*
X131986261Y-117000158D01*
X131856406Y-116910773D01*
X131744558Y-116798602D01*
X131654908Y-116665732D01*
X131591643Y-116514252D01*
X131558951Y-116346251D01*
X131555331Y-116266105D01*
X131573255Y-116087527D01*
X131624692Y-115924229D01*
X131706141Y-115778971D01*
X131814099Y-115654509D01*
X131945063Y-115553601D01*
X132095534Y-115479004D01*
X132262006Y-115433476D01*
X132440980Y-115419774D01*
X132608711Y-115436722D01*
X132675993Y-115446367D01*
X132727966Y-115448736D01*
X132752602Y-115443661D01*
X132763679Y-115422341D01*
X132787814Y-115369076D01*
X132823204Y-115288065D01*
X132868047Y-115183507D01*
X132920540Y-115059598D01*
X132978885Y-114920538D01*
X133035411Y-114784683D01*
X133097384Y-114635188D01*
X133154832Y-114496674D01*
X133205984Y-114373397D01*
X133249075Y-114269612D01*
X133282339Y-114189574D01*
X133304007Y-114137540D01*
X133312140Y-114118155D01*
X133312828Y-114090886D01*
X133287081Y-114065220D01*
X133230852Y-114038582D01*
X133140103Y-114008401D01*
X133139367Y-114008180D01*
X133070338Y-113986155D01*
X133016417Y-113966472D01*
X132988312Y-113953072D01*
X132987328Y-113952224D01*
X132979164Y-113929144D01*
X132965413Y-113873915D01*
X132947471Y-113792839D01*
X132926731Y-113692214D01*
X132904826Y-113579591D01*
X132882270Y-113465183D01*
X132860490Y-113363521D01*
X132841011Y-113281074D01*
X132825360Y-113224313D01*
X132815230Y-113199863D01*
X132789898Y-113193353D01*
X132731588Y-113187644D01*
X132646394Y-113183038D01*
X132540410Y-113179838D01*
X132419731Y-113178346D01*
X132379846Y-113178277D01*
X131966392Y-113178622D01*
X131892875Y-113566581D01*
X131869798Y-113685218D01*
X131848140Y-113790746D01*
X131829230Y-113877128D01*
X131814403Y-113938327D01*
X131804987Y-113968307D01*
X131803887Y-113970010D01*
X131779899Y-113983156D01*
X131727972Y-114005924D01*
X131656885Y-114034578D01*
X131608606Y-114053074D01*
X131516841Y-114089152D01*
X131426041Y-114127509D01*
X131351147Y-114161744D01*
X131329001Y-114172844D01*
X131268923Y-114201544D01*
X131219288Y-114220505D01*
X131197900Y-114225043D01*
X131171377Y-114214387D01*
X131119556Y-114185059D01*
X131048979Y-114141051D01*
X130966183Y-114086353D01*
X130929642Y-114061362D01*
X130837158Y-113997591D01*
X130748318Y-113936552D01*
X130671811Y-113884203D01*
X130616329Y-113846498D01*
X130605839Y-113839440D01*
X130518990Y-113781224D01*
X130216954Y-114083260D01*
X130117800Y-114182739D01*
X130043327Y-114258550D01*
X129990347Y-114314418D01*
X129955676Y-114354068D01*
X129936128Y-114381226D01*
X129928516Y-114399619D01*
X129929653Y-114412971D01*
X129931493Y-114417075D01*
X129945406Y-114439020D01*
X129977001Y-114486641D01*
X130022159Y-114553884D01*
X130076759Y-114634692D01*
X130136682Y-114723009D01*
X130197805Y-114812781D01*
X130256011Y-114897950D01*
X130307176Y-114972460D01*
X130347183Y-115030257D01*
X130371909Y-115065284D01*
X130377666Y-115072822D01*
X130371772Y-115090761D01*
X130353359Y-115135837D01*
X130325940Y-115199550D01*
X130315023Y-115224325D01*
X130274024Y-115321220D01*
X130230761Y-115430306D01*
X130196041Y-115523978D01*
X130168644Y-115594754D01*
X130142737Y-115649519D01*
X130122853Y-115679037D01*
X130118774Y-115681580D01*
X130092964Y-115687029D01*
X130034958Y-115698546D01*
X129950950Y-115714923D01*
X129847138Y-115734954D01*
X129729720Y-115757432D01*
X129706527Y-115761853D01*
X129569641Y-115788578D01*
X129466860Y-115810383D01*
X129393700Y-115828522D01*
X129345679Y-115844247D01*
X129318315Y-115858812D01*
X129307126Y-115873471D01*
X129307088Y-115873598D01*
X129303771Y-115904233D01*
X129301161Y-115967263D01*
X129299387Y-116056012D01*
X129298577Y-116163802D01*
X129298860Y-116283958D01*
X129298962Y-116297438D01*
X129301360Y-116446820D01*
X129305964Y-116559349D01*
X129312955Y-116637197D01*
X129322512Y-116682536D01*
X129332292Y-116696935D01*
X129360010Y-116704506D01*
X129419894Y-116717853D01*
X129505678Y-116735681D01*
X129611095Y-116756695D01*
X129729881Y-116779600D01*
X129757699Y-116784861D01*
X130152882Y-116859327D01*
X130210798Y-117013504D01*
X130247240Y-117106045D01*
X130288256Y-117203479D01*
X130325275Y-117285482D01*
X130326971Y-117289029D01*
X130356481Y-117352618D01*
X130377956Y-117402910D01*
X130386768Y-117429066D01*
X130386773Y-117429120D01*
X130376646Y-117450342D01*
X130347527Y-117498322D01*
X130302815Y-117567789D01*
X130245905Y-117653474D01*
X130180194Y-117750107D01*
X130174616Y-117758215D01*
X130106492Y-117857356D01*
X130044814Y-117947511D01*
X129993489Y-118022935D01*
X129956424Y-118077887D01*
X129937525Y-118106623D01*
X129937248Y-118107072D01*
X129930109Y-118120198D01*
X129928280Y-118133668D01*
X129934899Y-118151320D01*
X129953106Y-118176989D01*
X129986038Y-118214513D01*
X130036834Y-118267727D01*
X130108633Y-118340467D01*
X130204575Y-118436570D01*
X130217002Y-118448998D01*
X130315970Y-118547847D01*
X130315970Y-118547847D01*
G37*
X130315970Y-118547847D02*
X130391145Y-118622203D01*
X130446360Y-118675203D01*
X130485456Y-118709986D01*
X130512266Y-118729691D01*
X130530628Y-118737455D01*
X130544377Y-118736419D01*
X130557349Y-118729721D01*
X130558928Y-118728752D01*
X130586667Y-118710543D01*
X130640819Y-118674033D01*
X130715638Y-118623130D01*
X130805384Y-118561742D01*
X130904313Y-118493774D01*
X130907785Y-118491384D01*
X131005071Y-118425112D01*
X131091834Y-118367366D01*
X131162803Y-118321544D01*
X131212711Y-118291043D01*
X131236285Y-118279259D01*
X131236880Y-118279227D01*
X131262880Y-118287961D01*
X131313073Y-118309381D01*
X131376620Y-118338861D01*
X131376970Y-118339028D01*
X131457580Y-118375594D01*
X131554706Y-118416613D01*
X131648021Y-118453515D01*
X131652496Y-118455202D01*
X131806673Y-118513118D01*
X131881139Y-118908300D01*
X131904290Y-119029223D01*
X131925840Y-119138181D01*
X131944495Y-119228910D01*
X131958959Y-119295143D01*
X131967938Y-119330614D01*
X131969065Y-119333707D01*
X131989591Y-119345484D01*
X132040860Y-119354547D01*
X132125047Y-119361076D01*
X132244322Y-119365252D01*
X132368562Y-119367038D01*
X132489640Y-119367449D01*
X132599063Y-119366760D01*
X132690157Y-119365097D01*
X132756248Y-119362587D01*
X132790665Y-119359358D01*
X132792213Y-119358969D01*
X132806855Y-119347775D01*
X132821455Y-119320187D01*
X132837259Y-119271749D01*
X132855511Y-119198007D01*
X132877454Y-119094510D01*
X132903838Y-118959409D01*
X132926663Y-118840099D01*
X132947278Y-118733235D01*
X132964474Y-118645007D01*
X132977044Y-118581611D01*
X132983778Y-118549238D01*
X132984299Y-118547104D01*
X133004598Y-118529934D01*
X133052876Y-118505386D01*
X133119888Y-118477978D01*
X133142021Y-118469958D01*
X133239982Y-118433587D01*
X133349046Y-118390230D01*
X133441675Y-118350977D01*
X133509848Y-118321266D01*
X133562316Y-118299347D01*
X133590582Y-118288735D01*
X133593177Y-118288333D01*
X133611892Y-118302087D01*
X133656958Y-118333556D01*
X133722318Y-118378621D01*
X133801916Y-118433162D01*
X133889697Y-118493058D01*
X133979606Y-118554189D01*
X134065586Y-118612433D01*
X134141581Y-118663672D01*
X134201537Y-118703785D01*
X134239395Y-118728651D01*
X134248925Y-118734507D01*
X134261404Y-118737919D01*
X134277640Y-118733679D01*
X134301360Y-118718599D01*
X134336288Y-118689494D01*
X134386152Y-118643179D01*
X134454676Y-118576465D01*
X134545586Y-118486168D01*
X134582740Y-118449046D01*
X134884776Y-118147010D01*
X134826560Y-118060161D01*
X134793969Y-118012044D01*
X134745082Y-117940494D01*
X134685855Y-117854202D01*
X134622245Y-117761858D01*
X134604638Y-117736358D01*
X134546673Y-117650413D01*
X134497746Y-117573970D01*
X134461844Y-117513569D01*
X134442955Y-117475742D01*
X134441053Y-117468196D01*
X134449438Y-117436611D01*
X134471533Y-117381254D01*
X134502926Y-117312975D01*
X134510002Y-117298581D01*
X134552387Y-117207850D01*
X134597480Y-117102747D01*
X134635555Y-117005946D01*
X134635723Y-117005488D01*
X134692615Y-116850800D01*
X135487378Y-116699324D01*
X135487722Y-116286012D01*
X135486827Y-116162004D01*
X135484129Y-116050780D01*
X135479930Y-115958437D01*
X135474533Y-115891070D01*
X135468240Y-115854776D01*
X135466137Y-115850770D01*
X135440707Y-115840331D01*
X135383275Y-115824573D01*
X135300308Y-115805023D01*
X135198276Y-115783207D01*
X135086409Y-115761174D01*
X134972643Y-115739040D01*
X134872191Y-115718323D01*
X134791355Y-115700418D01*
X134736433Y-115686719D01*
X134713775Y-115678671D01*
X134701226Y-115653759D01*
X134681997Y-115601951D01*
X134660030Y-115533959D01*
X134657820Y-115526633D01*
X134627626Y-115435682D01*
X134600988Y-115379249D01*
X134575313Y-115353257D01*
X134548008Y-115353635D01*
X134547735Y-115353750D01*
X134524613Y-115363412D01*
X134469650Y-115386274D01*
X134387102Y-115420567D01*
X134281225Y-115464527D01*
X134156277Y-115516383D01*
X134016513Y-115574372D01*
X133881184Y-115630503D01*
X133732022Y-115692629D01*
X133594200Y-115750537D01*
X133471915Y-115802425D01*
X133369366Y-115846489D01*
X133290749Y-115880928D01*
X133240263Y-115903941D01*
X133222315Y-115913422D01*
X133217199Y-115939771D01*
X133219893Y-115992615D01*
X133229278Y-116057289D01*
X133247304Y-116250170D01*
X133229518Y-116432811D01*
X133177043Y-116602110D01*
X133091001Y-116754970D01*
X132972517Y-116888291D01*
X132909013Y-116941011D01*
X132759066Y-117032199D01*
X132601995Y-117088069D01*
X132441993Y-117110712D01*
X132283243Y-117102216D01*
X132129936Y-117064668D01*
X131986261Y-117000158D01*
X131856406Y-116910773D01*
X131744558Y-116798602D01*
X131654908Y-116665732D01*
X131591643Y-116514252D01*
X131558951Y-116346251D01*
X131555331Y-116266105D01*
X131573255Y-116087527D01*
X131624692Y-115924229D01*
X131706141Y-115778971D01*
X131814099Y-115654509D01*
X131945063Y-115553601D01*
X132095534Y-115479004D01*
X132262006Y-115433476D01*
X132440980Y-115419774D01*
X132608711Y-115436722D01*
X132675993Y-115446367D01*
X132727966Y-115448736D01*
X132752602Y-115443661D01*
X132763679Y-115422341D01*
X132787814Y-115369076D01*
X132823204Y-115288065D01*
X132868047Y-115183507D01*
X132920540Y-115059598D01*
X132978885Y-114920538D01*
X133035411Y-114784683D01*
X133097384Y-114635188D01*
X133154832Y-114496674D01*
X133205984Y-114373397D01*
X133249075Y-114269612D01*
X133282339Y-114189574D01*
X133304007Y-114137540D01*
X133312140Y-114118155D01*
X133312828Y-114090886D01*
X133287081Y-114065220D01*
X133230852Y-114038582D01*
X133140103Y-114008401D01*
X133139367Y-114008180D01*
X133070338Y-113986155D01*
X133016417Y-113966472D01*
X132988312Y-113953072D01*
X132987328Y-113952224D01*
X132979164Y-113929144D01*
X132965413Y-113873915D01*
X132947471Y-113792839D01*
X132926731Y-113692214D01*
X132904826Y-113579591D01*
X132882270Y-113465183D01*
X132860490Y-113363521D01*
X132841011Y-113281074D01*
X132825360Y-113224313D01*
X132815230Y-113199863D01*
X132789898Y-113193353D01*
X132731588Y-113187644D01*
X132646394Y-113183038D01*
X132540410Y-113179838D01*
X132419731Y-113178346D01*
X132379846Y-113178277D01*
X131966392Y-113178622D01*
X131892875Y-113566581D01*
X131869798Y-113685218D01*
X131848140Y-113790746D01*
X131829230Y-113877128D01*
X131814403Y-113938327D01*
X131804987Y-113968307D01*
X131803887Y-113970010D01*
X131779899Y-113983156D01*
X131727972Y-114005924D01*
X131656885Y-114034578D01*
X131608606Y-114053074D01*
X131516841Y-114089152D01*
X131426041Y-114127509D01*
X131351147Y-114161744D01*
X131329001Y-114172844D01*
X131268923Y-114201544D01*
X131219288Y-114220505D01*
X131197900Y-114225043D01*
X131171377Y-114214387D01*
X131119556Y-114185059D01*
X131048979Y-114141051D01*
X130966183Y-114086353D01*
X130929642Y-114061362D01*
X130837158Y-113997591D01*
X130748318Y-113936552D01*
X130671811Y-113884203D01*
X130616329Y-113846498D01*
X130605839Y-113839440D01*
X130518990Y-113781224D01*
X130216954Y-114083260D01*
X130117800Y-114182739D01*
X130043327Y-114258550D01*
X129990347Y-114314418D01*
X129955676Y-114354068D01*
X129936128Y-114381226D01*
X129928516Y-114399619D01*
X129929653Y-114412971D01*
X129931493Y-114417075D01*
X129945406Y-114439020D01*
X129977001Y-114486641D01*
X130022159Y-114553884D01*
X130076759Y-114634692D01*
X130136682Y-114723009D01*
X130197805Y-114812781D01*
X130256011Y-114897950D01*
X130307176Y-114972460D01*
X130347183Y-115030257D01*
X130371909Y-115065284D01*
X130377666Y-115072822D01*
X130371772Y-115090761D01*
X130353359Y-115135837D01*
X130325940Y-115199550D01*
X130315023Y-115224325D01*
X130274024Y-115321220D01*
X130230761Y-115430306D01*
X130196041Y-115523978D01*
X130168644Y-115594754D01*
X130142737Y-115649519D01*
X130122853Y-115679037D01*
X130118774Y-115681580D01*
X130092964Y-115687029D01*
X130034958Y-115698546D01*
X129950950Y-115714923D01*
X129847138Y-115734954D01*
X129729720Y-115757432D01*
X129706527Y-115761853D01*
X129569641Y-115788578D01*
X129466860Y-115810383D01*
X129393700Y-115828522D01*
X129345679Y-115844247D01*
X129318315Y-115858812D01*
X129307126Y-115873471D01*
X129307088Y-115873598D01*
X129303771Y-115904233D01*
X129301161Y-115967263D01*
X129299387Y-116056012D01*
X129298577Y-116163802D01*
X129298860Y-116283958D01*
X129298962Y-116297438D01*
X129301360Y-116446820D01*
X129305964Y-116559349D01*
X129312955Y-116637197D01*
X129322512Y-116682536D01*
X129332292Y-116696935D01*
X129360010Y-116704506D01*
X129419894Y-116717853D01*
X129505678Y-116735681D01*
X129611095Y-116756695D01*
X129729881Y-116779600D01*
X129757699Y-116784861D01*
X130152882Y-116859327D01*
X130210798Y-117013504D01*
X130247240Y-117106045D01*
X130288256Y-117203479D01*
X130325275Y-117285482D01*
X130326971Y-117289029D01*
X130356481Y-117352618D01*
X130377956Y-117402910D01*
X130386768Y-117429066D01*
X130386773Y-117429120D01*
X130376646Y-117450342D01*
X130347527Y-117498322D01*
X130302815Y-117567789D01*
X130245905Y-117653474D01*
X130180194Y-117750107D01*
X130174616Y-117758215D01*
X130106492Y-117857356D01*
X130044814Y-117947511D01*
X129993489Y-118022935D01*
X129956424Y-118077887D01*
X129937525Y-118106623D01*
X129937248Y-118107072D01*
X129930109Y-118120198D01*
X129928280Y-118133668D01*
X129934899Y-118151320D01*
X129953106Y-118176989D01*
X129986038Y-118214513D01*
X130036834Y-118267727D01*
X130108633Y-118340467D01*
X130204575Y-118436570D01*
X130217002Y-118448998D01*
X130315970Y-118547847D01*
G36*
X137716131Y-116953522D02*
X137806518Y-116972459D01*
X137864865Y-116966843D01*
X137943787Y-116929696D01*
X137991368Y-116885432D01*
X138049014Y-116820271D01*
X137969385Y-116616675D01*
X137932197Y-116516153D01*
X137912681Y-116445688D01*
X137911352Y-116400230D01*
X137928725Y-116374726D01*
X137965316Y-116364126D01*
X137995285Y-116362815D01*
X138062062Y-116379430D01*
X138109170Y-116423022D01*
X138131273Y-116484219D01*
X138123039Y-116553647D01*
X138114799Y-116572832D01*
X138098186Y-116641869D01*
X138110091Y-116690278D01*
X138135843Y-116747257D01*
X138195037Y-116688063D01*
X138231661Y-116644125D01*
X138251305Y-116595831D01*
X138260282Y-116526805D01*
X138260888Y-116517274D01*
X138262189Y-116449178D01*
X138252103Y-116401848D01*
X138224753Y-116357366D01*
X138197784Y-116324785D01*
X138145225Y-116270829D01*
X138098456Y-116241773D01*
X138061655Y-116231272D01*
X137995566Y-116223015D01*
X137938562Y-116228558D01*
X137882947Y-116251604D01*
X137821026Y-116295861D01*
X137745104Y-116365034D01*
X137708013Y-116401586D01*
X137664786Y-116446645D01*
X137748203Y-116530062D01*
X137772851Y-116507349D01*
X137779141Y-116505881D01*
X137789785Y-116527063D01*
X137810086Y-116575251D01*
X137836031Y-116640843D01*
X137841340Y-116654674D01*
X137869770Y-116741929D01*
X137875787Y-116799648D01*
X137858578Y-116830864D01*
X137817326Y-116838612D01*
X137792666Y-116835602D01*
X137721094Y-116807330D01*
X137677946Y-116757027D01*
X137665253Y-116691484D01*
X137685051Y-116617489D01*
X137713587Y-116571577D01*
X137748203Y-116530062D01*
X137664786Y-116446645D01*
X137623774Y-116489395D01*
X137566705Y-116559619D01*
X137533390Y-116618995D01*
X137520411Y-116674259D01*
X137524353Y-116732146D01*
X137529115Y-116754341D01*
X137567638Y-116838267D01*
X137633241Y-116906726D01*
X137716131Y-116953522D01*
X137716131Y-116953522D01*
G37*
X137716131Y-116953522D02*
X137806518Y-116972459D01*
X137864865Y-116966843D01*
X137943787Y-116929696D01*
X137991368Y-116885432D01*
X138049014Y-116820271D01*
X137969385Y-116616675D01*
X137932197Y-116516153D01*
X137912681Y-116445688D01*
X137911352Y-116400230D01*
X137928725Y-116374726D01*
X137965316Y-116364126D01*
X137995285Y-116362815D01*
X138062062Y-116379430D01*
X138109170Y-116423022D01*
X138131273Y-116484219D01*
X138123039Y-116553647D01*
X138114799Y-116572832D01*
X138098186Y-116641869D01*
X138110091Y-116690278D01*
X138135843Y-116747257D01*
X138195037Y-116688063D01*
X138231661Y-116644125D01*
X138251305Y-116595831D01*
X138260282Y-116526805D01*
X138260888Y-116517274D01*
X138262189Y-116449178D01*
X138252103Y-116401848D01*
X138224753Y-116357366D01*
X138197784Y-116324785D01*
X138145225Y-116270829D01*
X138098456Y-116241773D01*
X138061655Y-116231272D01*
X137995566Y-116223015D01*
X137938562Y-116228558D01*
X137882947Y-116251604D01*
X137821026Y-116295861D01*
X137745104Y-116365034D01*
X137708013Y-116401586D01*
X137664786Y-116446645D01*
X137748203Y-116530062D01*
X137772851Y-116507349D01*
X137779141Y-116505881D01*
X137789785Y-116527063D01*
X137810086Y-116575251D01*
X137836031Y-116640843D01*
X137841340Y-116654674D01*
X137869770Y-116741929D01*
X137875787Y-116799648D01*
X137858578Y-116830864D01*
X137817326Y-116838612D01*
X137792666Y-116835602D01*
X137721094Y-116807330D01*
X137677946Y-116757027D01*
X137665253Y-116691484D01*
X137685051Y-116617489D01*
X137713587Y-116571577D01*
X137748203Y-116530062D01*
X137664786Y-116446645D01*
X137623774Y-116489395D01*
X137566705Y-116559619D01*
X137533390Y-116618995D01*
X137520411Y-116674259D01*
X137524353Y-116732146D01*
X137529115Y-116754341D01*
X137567638Y-116838267D01*
X137633241Y-116906726D01*
X137716131Y-116953522D01*
G36*
X137231428Y-116484455D02*
X137255159Y-116493752D01*
X137325790Y-116501951D01*
X137404632Y-116490520D01*
X137473645Y-116463197D01*
X137500784Y-116442843D01*
X137522563Y-116398315D01*
X137515156Y-116355822D01*
X137499027Y-116318449D01*
X137488735Y-116304243D01*
X137468566Y-116312484D01*
X137425877Y-116331617D01*
X137406743Y-116340418D01*
X137329454Y-116359759D01*
X137263406Y-116341907D01*
X137210358Y-116287376D01*
X137207323Y-116282443D01*
X137192221Y-116240110D01*
X137197653Y-116192454D01*
X137225966Y-116135301D01*
X137279510Y-116064476D01*
X137360634Y-115975807D01*
X137405454Y-115930280D01*
X137476487Y-115858895D01*
X137523881Y-115809202D01*
X137551666Y-115775300D01*
X137563872Y-115751290D01*
X137564531Y-115731271D01*
X137557673Y-115709345D01*
X137557221Y-115708133D01*
X137541223Y-115668699D01*
X137531807Y-115650653D01*
X137516650Y-115661589D01*
X137478785Y-115695843D01*
X137422955Y-115748928D01*
X137353908Y-115816358D01*
X137303811Y-115866133D01*
X137208000Y-115963588D01*
X137137907Y-116040112D01*
X137090373Y-116101109D01*
X137062244Y-116151981D01*
X137050364Y-116198131D01*
X137051576Y-116244963D01*
X137059378Y-116284604D01*
X137095230Y-116362832D01*
X137156836Y-116433995D01*
X137231428Y-116484455D01*
X137231428Y-116484455D01*
G37*
X137231428Y-116484455D02*
X137255159Y-116493752D01*
X137325790Y-116501951D01*
X137404632Y-116490520D01*
X137473645Y-116463197D01*
X137500784Y-116442843D01*
X137522563Y-116398315D01*
X137515156Y-116355822D01*
X137499027Y-116318449D01*
X137488735Y-116304243D01*
X137468566Y-116312484D01*
X137425877Y-116331617D01*
X137406743Y-116340418D01*
X137329454Y-116359759D01*
X137263406Y-116341907D01*
X137210358Y-116287376D01*
X137207323Y-116282443D01*
X137192221Y-116240110D01*
X137197653Y-116192454D01*
X137225966Y-116135301D01*
X137279510Y-116064476D01*
X137360634Y-115975807D01*
X137405454Y-115930280D01*
X137476487Y-115858895D01*
X137523881Y-115809202D01*
X137551666Y-115775300D01*
X137563872Y-115751290D01*
X137564531Y-115731271D01*
X137557673Y-115709345D01*
X137557221Y-115708133D01*
X137541223Y-115668699D01*
X137531807Y-115650653D01*
X137516650Y-115661589D01*
X137478785Y-115695843D01*
X137422955Y-115748928D01*
X137353908Y-115816358D01*
X137303811Y-115866133D01*
X137208000Y-115963588D01*
X137137907Y-116040112D01*
X137090373Y-116101109D01*
X137062244Y-116151981D01*
X137050364Y-116198131D01*
X137051576Y-116244963D01*
X137059378Y-116284604D01*
X137095230Y-116362832D01*
X137156836Y-116433995D01*
X137231428Y-116484455D01*
G36*
X136745838Y-116003467D02*
X136803712Y-116025153D01*
X136856861Y-116034451D01*
X136904255Y-116032813D01*
X136951675Y-116016982D01*
X137004906Y-115983703D01*
X137069729Y-115929720D01*
X137151929Y-115851775D01*
X137204882Y-115799272D01*
X137410587Y-115593567D01*
X137391432Y-115542344D01*
X137375433Y-115502909D01*
X137366017Y-115484863D01*
X137350550Y-115495077D01*
X137313844Y-115527614D01*
X137262014Y-115576893D01*
X137221602Y-115616763D01*
X137162445Y-115673591D01*
X137113300Y-115716458D01*
X137080544Y-115740047D01*
X137070916Y-115742393D01*
X137052554Y-115711804D01*
X137029814Y-115657701D01*
X137006582Y-115591953D01*
X136986749Y-115526432D01*
X136974204Y-115473008D01*
X136972838Y-115443552D01*
X136972928Y-115443339D01*
X137000247Y-115418672D01*
X137036947Y-115405746D01*
X137077971Y-115406461D01*
X137115171Y-115430180D01*
X137140419Y-115456999D01*
X137176711Y-115494447D01*
X137204702Y-115505162D01*
X137239148Y-115493964D01*
X137244917Y-115491126D01*
X137282503Y-115463617D01*
X137288790Y-115430380D01*
X137263086Y-115385838D01*
X137226887Y-115346156D01*
X137145701Y-115290793D01*
X137091917Y-115273891D01*
X137004948Y-115273561D01*
X136928625Y-115303584D01*
X136870362Y-115357693D01*
X136837571Y-115429616D01*
X136834195Y-115491856D01*
X136845212Y-115539609D01*
X136868145Y-115609050D01*
X136898385Y-115686454D01*
X136903754Y-115699029D01*
X136936783Y-115784238D01*
X136947869Y-115841313D01*
X136935970Y-115875132D01*
X136900046Y-115890578D01*
X136862391Y-115893079D01*
X136796126Y-115876255D01*
X136748560Y-115832398D01*
X136725689Y-115771427D01*
X136733511Y-115703262D01*
X136739353Y-115689501D01*
X136752349Y-115630392D01*
X136745454Y-115569967D01*
X136724943Y-115505527D01*
X136662660Y-115567810D01*
X136627106Y-115608365D01*
X136607832Y-115649077D01*
X136599599Y-115704845D01*
X136597766Y-115752310D01*
X136598343Y-115822690D01*
X136607160Y-115869005D01*
X136629246Y-115906133D01*
X136661518Y-115940889D01*
X136745838Y-116003467D01*
X136745838Y-116003467D01*
G37*
X136745838Y-116003467D02*
X136803712Y-116025153D01*
X136856861Y-116034451D01*
X136904255Y-116032813D01*
X136951675Y-116016982D01*
X137004906Y-115983703D01*
X137069729Y-115929720D01*
X137151929Y-115851775D01*
X137204882Y-115799272D01*
X137410587Y-115593567D01*
X137391432Y-115542344D01*
X137375433Y-115502909D01*
X137366017Y-115484863D01*
X137350550Y-115495077D01*
X137313844Y-115527614D01*
X137262014Y-115576893D01*
X137221602Y-115616763D01*
X137162445Y-115673591D01*
X137113300Y-115716458D01*
X137080544Y-115740047D01*
X137070916Y-115742393D01*
X137052554Y-115711804D01*
X137029814Y-115657701D01*
X137006582Y-115591953D01*
X136986749Y-115526432D01*
X136974204Y-115473008D01*
X136972838Y-115443552D01*
X136972928Y-115443339D01*
X137000247Y-115418672D01*
X137036947Y-115405746D01*
X137077971Y-115406461D01*
X137115171Y-115430180D01*
X137140419Y-115456999D01*
X137176711Y-115494447D01*
X137204702Y-115505162D01*
X137239148Y-115493964D01*
X137244917Y-115491126D01*
X137282503Y-115463617D01*
X137288790Y-115430380D01*
X137263086Y-115385838D01*
X137226887Y-115346156D01*
X137145701Y-115290793D01*
X137091917Y-115273891D01*
X137004948Y-115273561D01*
X136928625Y-115303584D01*
X136870362Y-115357693D01*
X136837571Y-115429616D01*
X136834195Y-115491856D01*
X136845212Y-115539609D01*
X136868145Y-115609050D01*
X136898385Y-115686454D01*
X136903754Y-115699029D01*
X136936783Y-115784238D01*
X136947869Y-115841313D01*
X136935970Y-115875132D01*
X136900046Y-115890578D01*
X136862391Y-115893079D01*
X136796126Y-115876255D01*
X136748560Y-115832398D01*
X136725689Y-115771427D01*
X136733511Y-115703262D01*
X136739353Y-115689501D01*
X136752349Y-115630392D01*
X136745454Y-115569967D01*
X136724943Y-115505527D01*
X136662660Y-115567810D01*
X136627106Y-115608365D01*
X136607832Y-115649077D01*
X136599599Y-115704845D01*
X136597766Y-115752310D01*
X136598343Y-115822690D01*
X136607160Y-115869005D01*
X136629246Y-115906133D01*
X136661518Y-115940889D01*
X136745838Y-116003467D01*
G36*
X136400579Y-115653776D02*
X136439037Y-115619535D01*
X136495931Y-115565945D01*
X136566760Y-115497240D01*
X136640276Y-115424405D01*
X136887898Y-115176784D01*
X136887898Y-115089343D01*
X136884710Y-115032274D01*
X136869175Y-114994914D01*
X136832337Y-114959457D01*
X136816231Y-114946866D01*
X136766269Y-114907133D01*
X136726244Y-114872970D01*
X136716931Y-114864199D01*
X136688219Y-114831945D01*
X136649067Y-114783904D01*
X136634264Y-114764899D01*
X136595995Y-114720131D01*
X136561035Y-114699289D01*
X136511577Y-114693414D01*
X136491787Y-114693232D01*
X136404346Y-114693232D01*
X135941170Y-115156408D01*
X135960326Y-115207630D01*
X135978751Y-115249807D01*
X135992321Y-115271692D01*
X136010006Y-115263098D01*
X136050967Y-115230634D01*
X136110862Y-115178076D01*
X136185349Y-115109198D01*
X136247263Y-115049990D01*
X136489366Y-114815448D01*
X136527006Y-114843763D01*
X136553738Y-114877016D01*
X136557879Y-114902267D01*
X136542252Y-114926111D01*
X136503721Y-114971657D01*
X136447334Y-115033299D01*
X136378139Y-115105432D01*
X136341986Y-115142010D01*
X136132859Y-115351560D01*
X136161200Y-115410236D01*
X136181682Y-115451343D01*
X136193625Y-115472904D01*
X136194062Y-115473433D01*
X136208815Y-115462041D01*
X136246911Y-115427638D01*
X136303743Y-115374525D01*
X136374702Y-115306997D01*
X136440683Y-115243411D01*
X136682786Y-115008869D01*
X136765681Y-115091763D01*
X136552061Y-115312992D01*
X136338439Y-115534221D01*
X136357953Y-115595530D01*
X136373440Y-115639717D01*
X136384587Y-115663887D01*
X136385061Y-115664432D01*
X136400579Y-115653776D01*
X136400579Y-115653776D01*
G37*
X136400579Y-115653776D02*
X136439037Y-115619535D01*
X136495931Y-115565945D01*
X136566760Y-115497240D01*
X136640276Y-115424405D01*
X136887898Y-115176784D01*
X136887898Y-115089343D01*
X136884710Y-115032274D01*
X136869175Y-114994914D01*
X136832337Y-114959457D01*
X136816231Y-114946866D01*
X136766269Y-114907133D01*
X136726244Y-114872970D01*
X136716931Y-114864199D01*
X136688219Y-114831945D01*
X136649067Y-114783904D01*
X136634264Y-114764899D01*
X136595995Y-114720131D01*
X136561035Y-114699289D01*
X136511577Y-114693414D01*
X136491787Y-114693232D01*
X136404346Y-114693232D01*
X135941170Y-115156408D01*
X135960326Y-115207630D01*
X135978751Y-115249807D01*
X135992321Y-115271692D01*
X136010006Y-115263098D01*
X136050967Y-115230634D01*
X136110862Y-115178076D01*
X136185349Y-115109198D01*
X136247263Y-115049990D01*
X136489366Y-114815448D01*
X136527006Y-114843763D01*
X136553738Y-114877016D01*
X136557879Y-114902267D01*
X136542252Y-114926111D01*
X136503721Y-114971657D01*
X136447334Y-115033299D01*
X136378139Y-115105432D01*
X136341986Y-115142010D01*
X136132859Y-115351560D01*
X136161200Y-115410236D01*
X136181682Y-115451343D01*
X136193625Y-115472904D01*
X136194062Y-115473433D01*
X136208815Y-115462041D01*
X136246911Y-115427638D01*
X136303743Y-115374525D01*
X136374702Y-115306997D01*
X136440683Y-115243411D01*
X136682786Y-115008869D01*
X136765681Y-115091763D01*
X136552061Y-115312992D01*
X136338439Y-115534221D01*
X136357953Y-115595530D01*
X136373440Y-115639717D01*
X136384587Y-115663887D01*
X136385061Y-115664432D01*
X136400579Y-115653776D01*
G36*
X135940804Y-114990881D02*
X136043888Y-114887446D01*
X136122641Y-114807334D01*
X136180585Y-114746451D01*
X136221236Y-114700707D01*
X136248115Y-114666011D01*
X136264738Y-114638270D01*
X136274628Y-114613394D01*
X136278876Y-114597798D01*
X136285692Y-114497001D01*
X136259839Y-114403695D01*
X136206024Y-114325676D01*
X136128948Y-114270737D01*
X136069752Y-114251320D01*
X135994082Y-114244463D01*
X135923938Y-114258362D01*
X135851939Y-114296425D01*
X135770704Y-114362063D01*
X135715725Y-114414833D01*
X135712001Y-114418854D01*
X135808521Y-114515373D01*
X135870889Y-114454183D01*
X135914487Y-114415987D01*
X135947454Y-114395444D01*
X135977928Y-114387213D01*
X136005814Y-114385903D01*
X136078615Y-114402351D01*
X136128938Y-114447858D01*
X136150697Y-114516668D01*
X136151034Y-114523381D01*
X136149496Y-114555006D01*
X136139200Y-114584168D01*
X136114944Y-114618637D01*
X136071526Y-114666188D01*
X136021566Y-114716802D01*
X135957683Y-114779267D01*
X135912608Y-114818480D01*
X135878546Y-114839811D01*
X135847704Y-114848636D01*
X135828144Y-114850143D01*
X135759646Y-114834775D01*
X135708157Y-114789675D01*
X135682351Y-114723287D01*
X135680987Y-114706858D01*
X135682571Y-114674985D01*
X135693051Y-114645602D01*
X135717670Y-114610832D01*
X135761671Y-114562804D01*
X135808521Y-114515373D01*
X135712001Y-114418854D01*
X135632305Y-114504933D01*
X135578460Y-114581461D01*
X135550783Y-114651800D01*
X135545863Y-114723330D01*
X135552211Y-114768860D01*
X135578194Y-114837175D01*
X135623016Y-114901646D01*
X135676442Y-114949813D01*
X135715475Y-114967629D01*
X135729649Y-114975763D01*
X135725794Y-114994422D01*
X135700794Y-115029754D01*
X135658753Y-115079614D01*
X135611857Y-115135069D01*
X135587010Y-115171805D01*
X135580220Y-115200229D01*
X135587490Y-115230751D01*
X135594214Y-115247772D01*
X135620305Y-115311483D01*
X135940804Y-114990881D01*
X135940804Y-114990881D01*
G37*
X135940804Y-114990881D02*
X136043888Y-114887446D01*
X136122641Y-114807334D01*
X136180585Y-114746451D01*
X136221236Y-114700707D01*
X136248115Y-114666011D01*
X136264738Y-114638270D01*
X136274628Y-114613394D01*
X136278876Y-114597798D01*
X136285692Y-114497001D01*
X136259839Y-114403695D01*
X136206024Y-114325676D01*
X136128948Y-114270737D01*
X136069752Y-114251320D01*
X135994082Y-114244463D01*
X135923938Y-114258362D01*
X135851939Y-114296425D01*
X135770704Y-114362063D01*
X135715725Y-114414833D01*
X135712001Y-114418854D01*
X135808521Y-114515373D01*
X135870889Y-114454183D01*
X135914487Y-114415987D01*
X135947454Y-114395444D01*
X135977928Y-114387213D01*
X136005814Y-114385903D01*
X136078615Y-114402351D01*
X136128938Y-114447858D01*
X136150697Y-114516668D01*
X136151034Y-114523381D01*
X136149496Y-114555006D01*
X136139200Y-114584168D01*
X136114944Y-114618637D01*
X136071526Y-114666188D01*
X136021566Y-114716802D01*
X135957683Y-114779267D01*
X135912608Y-114818480D01*
X135878546Y-114839811D01*
X135847704Y-114848636D01*
X135828144Y-114850143D01*
X135759646Y-114834775D01*
X135708157Y-114789675D01*
X135682351Y-114723287D01*
X135680987Y-114706858D01*
X135682571Y-114674985D01*
X135693051Y-114645602D01*
X135717670Y-114610832D01*
X135761671Y-114562804D01*
X135808521Y-114515373D01*
X135712001Y-114418854D01*
X135632305Y-114504933D01*
X135578460Y-114581461D01*
X135550783Y-114651800D01*
X135545863Y-114723330D01*
X135552211Y-114768860D01*
X135578194Y-114837175D01*
X135623016Y-114901646D01*
X135676442Y-114949813D01*
X135715475Y-114967629D01*
X135729649Y-114975763D01*
X135725794Y-114994422D01*
X135700794Y-115029754D01*
X135658753Y-115079614D01*
X135611857Y-115135069D01*
X135587010Y-115171805D01*
X135580220Y-115200229D01*
X135587490Y-115230751D01*
X135594214Y-115247772D01*
X135620305Y-115311483D01*
X135940804Y-114990881D01*
G36*
X135202345Y-114472501D02*
X135288263Y-114512102D01*
X135380069Y-114521984D01*
X135428789Y-114513035D01*
X135503377Y-114481804D01*
X135541184Y-114443096D01*
X135544161Y-114394613D01*
X135540117Y-114381819D01*
X135517409Y-114331828D01*
X135495350Y-114316759D01*
X135466156Y-114333379D01*
X135453182Y-114345712D01*
X135395119Y-114380751D01*
X135332552Y-114383311D01*
X135275120Y-114357336D01*
X135232471Y-114306771D01*
X135215138Y-114248330D01*
X135214066Y-114223809D01*
X135219219Y-114200515D01*
X135234593Y-114172887D01*
X135264183Y-114135364D01*
X135311984Y-114082385D01*
X135381991Y-114008390D01*
X135404271Y-113985076D01*
X135480378Y-113905202D01*
X135533127Y-113848171D01*
X135566232Y-113808642D01*
X135583408Y-113781279D01*
X135588370Y-113760742D01*
X135584830Y-113741692D01*
X135581025Y-113731035D01*
X135562033Y-113688612D01*
X135547823Y-113666669D01*
X135528936Y-113673609D01*
X135486251Y-113709003D01*
X135419295Y-113773282D01*
X135327598Y-113866878D01*
X135313604Y-113881463D01*
X135231166Y-113968075D01*
X135171915Y-114032261D01*
X135131686Y-114079513D01*
X135106318Y-114115317D01*
X135091649Y-114145162D01*
X135083517Y-114174536D01*
X135081037Y-114188128D01*
X135077338Y-114255539D01*
X135085311Y-114318824D01*
X135087258Y-114325599D01*
X135132086Y-114408546D01*
X135202345Y-114472501D01*
X135202345Y-114472501D01*
G37*
X135202345Y-114472501D02*
X135288263Y-114512102D01*
X135380069Y-114521984D01*
X135428789Y-114513035D01*
X135503377Y-114481804D01*
X135541184Y-114443096D01*
X135544161Y-114394613D01*
X135540117Y-114381819D01*
X135517409Y-114331828D01*
X135495350Y-114316759D01*
X135466156Y-114333379D01*
X135453182Y-114345712D01*
X135395119Y-114380751D01*
X135332552Y-114383311D01*
X135275120Y-114357336D01*
X135232471Y-114306771D01*
X135215138Y-114248330D01*
X135214066Y-114223809D01*
X135219219Y-114200515D01*
X135234593Y-114172887D01*
X135264183Y-114135364D01*
X135311984Y-114082385D01*
X135381991Y-114008390D01*
X135404271Y-113985076D01*
X135480378Y-113905202D01*
X135533127Y-113848171D01*
X135566232Y-113808642D01*
X135583408Y-113781279D01*
X135588370Y-113760742D01*
X135584830Y-113741692D01*
X135581025Y-113731035D01*
X135562033Y-113688612D01*
X135547823Y-113666669D01*
X135528936Y-113673609D01*
X135486251Y-113709003D01*
X135419295Y-113773282D01*
X135327598Y-113866878D01*
X135313604Y-113881463D01*
X135231166Y-113968075D01*
X135171915Y-114032261D01*
X135131686Y-114079513D01*
X135106318Y-114115317D01*
X135091649Y-114145162D01*
X135083517Y-114174536D01*
X135081037Y-114188128D01*
X135077338Y-114255539D01*
X135085311Y-114318824D01*
X135087258Y-114325599D01*
X135132086Y-114408546D01*
X135202345Y-114472501D01*
G36*
X134736908Y-114004754D02*
X134811146Y-114038787D01*
X134812152Y-114039020D01*
X134870274Y-114047859D01*
X134923788Y-114043780D01*
X134978700Y-114023635D01*
X135041014Y-113984284D01*
X135116739Y-113922578D01*
X135211878Y-113835374D01*
X135225215Y-113822732D01*
X135426071Y-113631866D01*
X135405773Y-113568094D01*
X135390047Y-113522989D01*
X135378644Y-113497664D01*
X135377881Y-113496728D01*
X135361860Y-113506392D01*
X135324692Y-113538512D01*
X135272523Y-113587575D01*
X135231199Y-113628222D01*
X135164795Y-113694610D01*
X135120064Y-113733271D01*
X135089597Y-113742577D01*
X135065984Y-113720906D01*
X135041818Y-113666629D01*
X135010276Y-113579737D01*
X134989718Y-113513208D01*
X134987264Y-113470870D01*
X135002415Y-113442552D01*
X135003481Y-113441466D01*
X135051787Y-113414889D01*
X135104181Y-113426828D01*
X135156339Y-113473127D01*
X135191289Y-113509094D01*
X135220199Y-113517578D01*
X135256389Y-113504707D01*
X135294352Y-113480165D01*
X135302413Y-113452763D01*
X135301310Y-113446583D01*
X135277220Y-113402109D01*
X135230655Y-113352658D01*
X135174459Y-113309973D01*
X135127079Y-113287287D01*
X135037520Y-113279975D01*
X134952743Y-113309688D01*
X134902568Y-113348959D01*
X134866389Y-113393459D01*
X134848517Y-113441445D01*
X134849084Y-113500507D01*
X134868224Y-113578232D01*
X134906071Y-113682210D01*
X134908522Y-113688399D01*
X134942890Y-113781786D01*
X134958106Y-113845405D01*
X134953254Y-113884048D01*
X134927416Y-113902509D01*
X134879677Y-113905580D01*
X134867153Y-113904747D01*
X134799749Y-113882680D01*
X134754350Y-113835373D01*
X134736205Y-113772778D01*
X134750564Y-113704850D01*
X134756152Y-113694285D01*
X134771084Y-113630882D01*
X134759198Y-113581263D01*
X134733428Y-113518099D01*
X134685053Y-113566473D01*
X134628266Y-113650313D01*
X134603921Y-113754955D01*
X134603238Y-113797424D01*
X134623039Y-113872607D01*
X134670901Y-113945540D01*
X134736908Y-114004754D01*
X134736908Y-114004754D01*
G37*
X134736908Y-114004754D02*
X134811146Y-114038787D01*
X134812152Y-114039020D01*
X134870274Y-114047859D01*
X134923788Y-114043780D01*
X134978700Y-114023635D01*
X135041014Y-113984284D01*
X135116739Y-113922578D01*
X135211878Y-113835374D01*
X135225215Y-113822732D01*
X135426071Y-113631866D01*
X135405773Y-113568094D01*
X135390047Y-113522989D01*
X135378644Y-113497664D01*
X135377881Y-113496728D01*
X135361860Y-113506392D01*
X135324692Y-113538512D01*
X135272523Y-113587575D01*
X135231199Y-113628222D01*
X135164795Y-113694610D01*
X135120064Y-113733271D01*
X135089597Y-113742577D01*
X135065984Y-113720906D01*
X135041818Y-113666629D01*
X135010276Y-113579737D01*
X134989718Y-113513208D01*
X134987264Y-113470870D01*
X135002415Y-113442552D01*
X135003481Y-113441466D01*
X135051787Y-113414889D01*
X135104181Y-113426828D01*
X135156339Y-113473127D01*
X135191289Y-113509094D01*
X135220199Y-113517578D01*
X135256389Y-113504707D01*
X135294352Y-113480165D01*
X135302413Y-113452763D01*
X135301310Y-113446583D01*
X135277220Y-113402109D01*
X135230655Y-113352658D01*
X135174459Y-113309973D01*
X135127079Y-113287287D01*
X135037520Y-113279975D01*
X134952743Y-113309688D01*
X134902568Y-113348959D01*
X134866389Y-113393459D01*
X134848517Y-113441445D01*
X134849084Y-113500507D01*
X134868224Y-113578232D01*
X134906071Y-113682210D01*
X134908522Y-113688399D01*
X134942890Y-113781786D01*
X134958106Y-113845405D01*
X134953254Y-113884048D01*
X134927416Y-113902509D01*
X134879677Y-113905580D01*
X134867153Y-113904747D01*
X134799749Y-113882680D01*
X134754350Y-113835373D01*
X134736205Y-113772778D01*
X134750564Y-113704850D01*
X134756152Y-113694285D01*
X134771084Y-113630882D01*
X134759198Y-113581263D01*
X134733428Y-113518099D01*
X134685053Y-113566473D01*
X134628266Y-113650313D01*
X134603921Y-113754955D01*
X134603238Y-113797424D01*
X134623039Y-113872607D01*
X134670901Y-113945540D01*
X134736908Y-114004754D01*
G36*
X134010116Y-113467726D02*
X134070635Y-113415306D01*
X134108561Y-113386681D01*
X134129520Y-113378610D01*
X134139136Y-113387854D01*
X134140461Y-113392645D01*
X134168589Y-113445864D01*
X134222230Y-113498040D01*
X134288917Y-113538934D01*
X134339244Y-113555893D01*
X134400393Y-113563736D01*
X134455773Y-113558790D01*
X134511410Y-113537774D01*
X134573330Y-113497409D01*
X134647561Y-113434411D01*
X134740128Y-113345502D01*
X134757566Y-113328128D01*
X134953111Y-113132626D01*
X134924770Y-113073949D01*
X134904186Y-113032729D01*
X134892035Y-113010971D01*
X134891582Y-113010428D01*
X134876884Y-113021785D01*
X134839529Y-113056299D01*
X134784347Y-113109352D01*
X134716175Y-113176326D01*
X134674999Y-113217317D01*
X134593802Y-113298130D01*
X134534756Y-113355197D01*
X134492558Y-113392582D01*
X134461906Y-113414351D01*
X134437497Y-113424564D01*
X134414030Y-113427287D01*
X134401247Y-113427117D01*
X134331347Y-113408045D01*
X134280899Y-113361402D01*
X134258348Y-113295866D01*
X134257962Y-113279961D01*
X134260606Y-113253422D01*
X134269627Y-113227828D01*
X134289363Y-113197513D01*
X134324152Y-113156813D01*
X134378333Y-113100063D01*
X134454531Y-113023312D01*
X134649164Y-112828679D01*
X134620823Y-112770002D01*
X134600239Y-112728782D01*
X134588088Y-112707024D01*
X134587634Y-112706480D01*
X134573135Y-112718427D01*
X134534688Y-112754575D01*
X134475893Y-112811414D01*
X134400355Y-112885432D01*
X134311675Y-112973119D01*
X134213456Y-113070966D01*
X133835402Y-113449020D01*
X133887325Y-113576702D01*
X134010116Y-113467726D01*
X134010116Y-113467726D01*
G37*
X134010116Y-113467726D02*
X134070635Y-113415306D01*
X134108561Y-113386681D01*
X134129520Y-113378610D01*
X134139136Y-113387854D01*
X134140461Y-113392645D01*
X134168589Y-113445864D01*
X134222230Y-113498040D01*
X134288917Y-113538934D01*
X134339244Y-113555893D01*
X134400393Y-113563736D01*
X134455773Y-113558790D01*
X134511410Y-113537774D01*
X134573330Y-113497409D01*
X134647561Y-113434411D01*
X134740128Y-113345502D01*
X134757566Y-113328128D01*
X134953111Y-113132626D01*
X134924770Y-113073949D01*
X134904186Y-113032729D01*
X134892035Y-113010971D01*
X134891582Y-113010428D01*
X134876884Y-113021785D01*
X134839529Y-113056299D01*
X134784347Y-113109352D01*
X134716175Y-113176326D01*
X134674999Y-113217317D01*
X134593802Y-113298130D01*
X134534756Y-113355197D01*
X134492558Y-113392582D01*
X134461906Y-113414351D01*
X134437497Y-113424564D01*
X134414030Y-113427287D01*
X134401247Y-113427117D01*
X134331347Y-113408045D01*
X134280899Y-113361402D01*
X134258348Y-113295866D01*
X134257962Y-113279961D01*
X134260606Y-113253422D01*
X134269627Y-113227828D01*
X134289363Y-113197513D01*
X134324152Y-113156813D01*
X134378333Y-113100063D01*
X134454531Y-113023312D01*
X134649164Y-112828679D01*
X134620823Y-112770002D01*
X134600239Y-112728782D01*
X134588088Y-112707024D01*
X134587634Y-112706480D01*
X134573135Y-112718427D01*
X134534688Y-112754575D01*
X134475893Y-112811414D01*
X134400355Y-112885432D01*
X134311675Y-112973119D01*
X134213456Y-113070966D01*
X133835402Y-113449020D01*
X133887325Y-113576702D01*
X134010116Y-113467726D01*
G36*
X132936752Y-112242157D02*
X133027865Y-112259983D01*
X133122883Y-112249154D01*
X133215375Y-112206954D01*
X133270031Y-112162470D01*
X133290138Y-112141208D01*
X133301139Y-112120533D01*
X133302034Y-112093049D01*
X133291820Y-112051356D01*
X133269496Y-111988054D01*
X133234063Y-111895744D01*
X133233883Y-111895278D01*
X133202018Y-111809559D01*
X133177719Y-111737438D01*
X133163336Y-111686416D01*
X133161225Y-111663994D01*
X133161305Y-111663909D01*
X133194230Y-111652606D01*
X133243886Y-111653512D01*
X133290470Y-111664976D01*
X133308662Y-111676192D01*
X133336715Y-111728372D01*
X133341048Y-111793134D01*
X133324685Y-111843208D01*
X133316411Y-111883913D01*
X133320286Y-111943566D01*
X133333533Y-112004997D01*
X133353373Y-112051041D01*
X133359541Y-112058649D01*
X133379142Y-112054557D01*
X133409890Y-112024744D01*
X133445021Y-111978215D01*
X133477771Y-111923979D01*
X133501374Y-111871045D01*
X133502118Y-111868818D01*
X133519607Y-111763058D01*
X133504322Y-111663940D01*
X133459934Y-111578405D01*
X133390112Y-111513392D01*
X133298527Y-111475838D01*
X133293756Y-111474867D01*
X133196931Y-111470106D01*
X133103473Y-111496767D01*
X133006017Y-111557256D01*
X132981349Y-111576963D01*
X132872228Y-111677297D01*
X132828656Y-111731402D01*
X132961234Y-111863980D01*
X132993421Y-111835238D01*
X133011734Y-111835768D01*
X133028571Y-111865908D01*
X133049873Y-111918657D01*
X133071551Y-111979753D01*
X133072058Y-111981304D01*
X133088686Y-112034835D01*
X133090451Y-112061228D01*
X133074070Y-112070665D01*
X133042490Y-112073008D01*
X132980752Y-112060363D01*
X132938897Y-112022114D01*
X132920834Y-111968323D01*
X132930475Y-111909053D01*
X132961234Y-111863980D01*
X132828656Y-111731402D01*
X132797472Y-111770126D01*
X132754201Y-111859764D01*
X132739919Y-111938594D01*
X132751125Y-112043893D01*
X132791952Y-112131396D01*
X132855971Y-112198389D01*
X132936752Y-112242157D01*
X132936752Y-112242157D01*
G37*
X132936752Y-112242157D02*
X133027865Y-112259983D01*
X133122883Y-112249154D01*
X133215375Y-112206954D01*
X133270031Y-112162470D01*
X133290138Y-112141208D01*
X133301139Y-112120533D01*
X133302034Y-112093049D01*
X133291820Y-112051356D01*
X133269496Y-111988054D01*
X133234063Y-111895744D01*
X133233883Y-111895278D01*
X133202018Y-111809559D01*
X133177719Y-111737438D01*
X133163336Y-111686416D01*
X133161225Y-111663994D01*
X133161305Y-111663909D01*
X133194230Y-111652606D01*
X133243886Y-111653512D01*
X133290470Y-111664976D01*
X133308662Y-111676192D01*
X133336715Y-111728372D01*
X133341048Y-111793134D01*
X133324685Y-111843208D01*
X133316411Y-111883913D01*
X133320286Y-111943566D01*
X133333533Y-112004997D01*
X133353373Y-112051041D01*
X133359541Y-112058649D01*
X133379142Y-112054557D01*
X133409890Y-112024744D01*
X133445021Y-111978215D01*
X133477771Y-111923979D01*
X133501374Y-111871045D01*
X133502118Y-111868818D01*
X133519607Y-111763058D01*
X133504322Y-111663940D01*
X133459934Y-111578405D01*
X133390112Y-111513392D01*
X133298527Y-111475838D01*
X133293756Y-111474867D01*
X133196931Y-111470106D01*
X133103473Y-111496767D01*
X133006017Y-111557256D01*
X132981349Y-111576963D01*
X132872228Y-111677297D01*
X132828656Y-111731402D01*
X132961234Y-111863980D01*
X132993421Y-111835238D01*
X133011734Y-111835768D01*
X133028571Y-111865908D01*
X133049873Y-111918657D01*
X133071551Y-111979753D01*
X133072058Y-111981304D01*
X133088686Y-112034835D01*
X133090451Y-112061228D01*
X133074070Y-112070665D01*
X133042490Y-112073008D01*
X132980752Y-112060363D01*
X132938897Y-112022114D01*
X132920834Y-111968323D01*
X132930475Y-111909053D01*
X132961234Y-111863980D01*
X132828656Y-111731402D01*
X132797472Y-111770126D01*
X132754201Y-111859764D01*
X132739919Y-111938594D01*
X132751125Y-112043893D01*
X132791952Y-112131396D01*
X132855971Y-112198389D01*
X132936752Y-112242157D01*
G36*
X131854979Y-111178047D02*
X131953784Y-111208753D01*
X132056372Y-111201745D01*
X132108578Y-111183492D01*
X132174683Y-111143805D01*
X132248280Y-111083732D01*
X132321865Y-111011430D01*
X132387936Y-110935054D01*
X132438989Y-110862762D01*
X132467520Y-110802710D01*
X132470305Y-110790238D01*
X132469876Y-110675928D01*
X132435839Y-110573683D01*
X132371881Y-110489764D01*
X132281686Y-110430429D01*
X132251629Y-110418873D01*
X132182603Y-110406862D01*
X132109243Y-110409100D01*
X132101088Y-110410533D01*
X132064323Y-110419977D01*
X132030596Y-110435644D01*
X131992749Y-110462822D01*
X131943626Y-110506797D01*
X131876071Y-110572855D01*
X131861080Y-110587820D01*
X131856347Y-110592620D01*
X131994471Y-110730745D01*
X132058326Y-110668498D01*
X132103329Y-110629821D01*
X132137005Y-110609445D01*
X132166875Y-110602103D01*
X132178843Y-110601636D01*
X132235528Y-110611065D01*
X132266545Y-110644238D01*
X132278501Y-110697185D01*
X132275976Y-110738419D01*
X132255502Y-110781820D01*
X132211576Y-110838619D01*
X132206145Y-110844934D01*
X132115972Y-110937303D01*
X132036702Y-110993607D01*
X131968906Y-111013584D01*
X131913156Y-110996972D01*
X131899174Y-110985125D01*
X131870628Y-110945845D01*
X131866024Y-110904054D01*
X131887399Y-110854312D01*
X131936792Y-110791177D01*
X131994471Y-110730745D01*
X131856347Y-110592620D01*
X131790407Y-110659522D01*
X131742827Y-110711422D01*
X131713093Y-110750621D01*
X131695955Y-110784218D01*
X131686164Y-110819314D01*
X131684789Y-110826282D01*
X131675536Y-110929522D01*
X131694093Y-111013380D01*
X131743473Y-111088683D01*
X131764009Y-111110486D01*
X131854979Y-111178047D01*
X131854979Y-111178047D01*
G37*
X131854979Y-111178047D02*
X131953784Y-111208753D01*
X132056372Y-111201745D01*
X132108578Y-111183492D01*
X132174683Y-111143805D01*
X132248280Y-111083732D01*
X132321865Y-111011430D01*
X132387936Y-110935054D01*
X132438989Y-110862762D01*
X132467520Y-110802710D01*
X132470305Y-110790238D01*
X132469876Y-110675928D01*
X132435839Y-110573683D01*
X132371881Y-110489764D01*
X132281686Y-110430429D01*
X132251629Y-110418873D01*
X132182603Y-110406862D01*
X132109243Y-110409100D01*
X132101088Y-110410533D01*
X132064323Y-110419977D01*
X132030596Y-110435644D01*
X131992749Y-110462822D01*
X131943626Y-110506797D01*
X131876071Y-110572855D01*
X131861080Y-110587820D01*
X131856347Y-110592620D01*
X131994471Y-110730745D01*
X132058326Y-110668498D01*
X132103329Y-110629821D01*
X132137005Y-110609445D01*
X132166875Y-110602103D01*
X132178843Y-110601636D01*
X132235528Y-110611065D01*
X132266545Y-110644238D01*
X132278501Y-110697185D01*
X132275976Y-110738419D01*
X132255502Y-110781820D01*
X132211576Y-110838619D01*
X132206145Y-110844934D01*
X132115972Y-110937303D01*
X132036702Y-110993607D01*
X131968906Y-111013584D01*
X131913156Y-110996972D01*
X131899174Y-110985125D01*
X131870628Y-110945845D01*
X131866024Y-110904054D01*
X131887399Y-110854312D01*
X131936792Y-110791177D01*
X131994471Y-110730745D01*
X131856347Y-110592620D01*
X131790407Y-110659522D01*
X131742827Y-110711422D01*
X131713093Y-110750621D01*
X131695955Y-110784218D01*
X131686164Y-110819314D01*
X131684789Y-110826282D01*
X131675536Y-110929522D01*
X131694093Y-111013380D01*
X131743473Y-111088683D01*
X131764009Y-111110486D01*
X131854979Y-111178047D01*
G36*
X133454887Y-112766877D02*
X133524871Y-112785569D01*
X133581152Y-112790938D01*
X133630367Y-112786814D01*
X133678514Y-112769731D01*
X133731590Y-112736226D01*
X133795593Y-112682835D01*
X133876523Y-112606097D01*
X133933436Y-112549671D01*
X134142034Y-112341072D01*
X134077245Y-112170994D01*
X133841861Y-112392561D01*
X133753678Y-112475036D01*
X133688750Y-112533976D01*
X133642266Y-112573039D01*
X133609418Y-112595886D01*
X133585394Y-112606172D01*
X133565387Y-112607558D01*
X133560085Y-112606885D01*
X133496741Y-112579706D01*
X133458145Y-112526800D01*
X133449894Y-112480581D01*
X133452268Y-112456051D01*
X133462251Y-112430730D01*
X133484139Y-112399096D01*
X133522223Y-112355625D01*
X133580798Y-112294793D01*
X133642829Y-112232383D01*
X133720853Y-112154286D01*
X133774769Y-112097695D01*
X133807561Y-112055955D01*
X133822209Y-112022411D01*
X133821694Y-111990402D01*
X133808998Y-111953274D01*
X133788416Y-111907307D01*
X133765892Y-111857149D01*
X133524999Y-112106694D01*
X133438340Y-112196836D01*
X133375052Y-112264202D01*
X133331162Y-112313934D01*
X133302699Y-112351177D01*
X133285697Y-112381076D01*
X133276183Y-112408773D01*
X133270728Y-112436149D01*
X133271171Y-112541470D01*
X133305376Y-112636323D01*
X133368296Y-112713770D01*
X133454887Y-112766877D01*
X133454887Y-112766877D01*
G37*
X133454887Y-112766877D02*
X133524871Y-112785569D01*
X133581152Y-112790938D01*
X133630367Y-112786814D01*
X133678514Y-112769731D01*
X133731590Y-112736226D01*
X133795593Y-112682835D01*
X133876523Y-112606097D01*
X133933436Y-112549671D01*
X134142034Y-112341072D01*
X134077245Y-112170994D01*
X133841861Y-112392561D01*
X133753678Y-112475036D01*
X133688750Y-112533976D01*
X133642266Y-112573039D01*
X133609418Y-112595886D01*
X133585394Y-112606172D01*
X133565387Y-112607558D01*
X133560085Y-112606885D01*
X133496741Y-112579706D01*
X133458145Y-112526800D01*
X133449894Y-112480581D01*
X133452268Y-112456051D01*
X133462251Y-112430730D01*
X133484139Y-112399096D01*
X133522223Y-112355625D01*
X133580798Y-112294793D01*
X133642829Y-112232383D01*
X133720853Y-112154286D01*
X133774769Y-112097695D01*
X133807561Y-112055955D01*
X133822209Y-112022411D01*
X133821694Y-111990402D01*
X133808998Y-111953274D01*
X133788416Y-111907307D01*
X133765892Y-111857149D01*
X133524999Y-112106694D01*
X133438340Y-112196836D01*
X133375052Y-112264202D01*
X133331162Y-112313934D01*
X133302699Y-112351177D01*
X133285697Y-112381076D01*
X133276183Y-112408773D01*
X133270728Y-112436149D01*
X133271171Y-112541470D01*
X133305376Y-112636323D01*
X133368296Y-112713770D01*
X133454887Y-112766877D01*
G36*
X132384778Y-111711736D02*
X132463886Y-111738204D01*
X132558939Y-111736336D01*
X132589722Y-111731216D01*
X132627189Y-111721705D01*
X132661771Y-111705264D01*
X132701009Y-111676403D01*
X132752444Y-111629638D01*
X132817777Y-111565331D01*
X132904291Y-111474185D01*
X132962937Y-111399437D01*
X132997255Y-111334238D01*
X133010790Y-111271741D01*
X133007080Y-111205095D01*
X133006358Y-111200647D01*
X132990748Y-111146919D01*
X132958430Y-111095742D01*
X132907661Y-111040323D01*
X132821349Y-110954011D01*
X132905103Y-110870185D01*
X132950965Y-110822716D01*
X132973443Y-110790449D01*
X132977069Y-110761242D01*
X132966377Y-110722952D01*
X132963315Y-110714252D01*
X132949002Y-110673517D01*
X132936035Y-110643863D01*
X132920910Y-110627297D01*
X132900120Y-110625826D01*
X132870160Y-110641459D01*
X132827523Y-110676205D01*
X132768706Y-110732070D01*
X132690202Y-110811063D01*
X132588504Y-110915193D01*
X132558101Y-110946355D01*
X132453358Y-111053834D01*
X132385171Y-111124471D01*
X132517957Y-111257257D01*
X132577621Y-111199086D01*
X132619486Y-111163854D01*
X132652416Y-111145933D01*
X132685273Y-111139693D01*
X132703842Y-111139195D01*
X132768678Y-111148237D01*
X132803654Y-111178672D01*
X132814363Y-111235455D01*
X132814368Y-111237162D01*
X132810295Y-111268695D01*
X132794450Y-111301246D01*
X132761399Y-111342723D01*
X132705706Y-111401039D01*
X132693101Y-111413692D01*
X132611374Y-111489078D01*
X132546596Y-111533215D01*
X132494667Y-111547774D01*
X132451488Y-111534431D01*
X132433651Y-111519601D01*
X132401941Y-111473782D01*
X132398580Y-111423962D01*
X132425076Y-111365456D01*
X132482934Y-111293573D01*
X132517957Y-111257257D01*
X132385171Y-111124471D01*
X132372681Y-111137411D01*
X132312767Y-111201073D01*
X132270312Y-111248808D01*
X132242012Y-111284604D01*
X132224564Y-111312449D01*
X132214663Y-111336329D01*
X132209005Y-111360234D01*
X132207355Y-111369709D01*
X132206710Y-111474144D01*
X132242534Y-111569546D01*
X132310127Y-111653749D01*
X132384778Y-111711736D01*
X132384778Y-111711736D01*
G37*
X132384778Y-111711736D02*
X132463886Y-111738204D01*
X132558939Y-111736336D01*
X132589722Y-111731216D01*
X132627189Y-111721705D01*
X132661771Y-111705264D01*
X132701009Y-111676403D01*
X132752444Y-111629638D01*
X132817777Y-111565331D01*
X132904291Y-111474185D01*
X132962937Y-111399437D01*
X132997255Y-111334238D01*
X133010790Y-111271741D01*
X133007080Y-111205095D01*
X133006358Y-111200647D01*
X132990748Y-111146919D01*
X132958430Y-111095742D01*
X132907661Y-111040323D01*
X132821349Y-110954011D01*
X132905103Y-110870185D01*
X132950965Y-110822716D01*
X132973443Y-110790449D01*
X132977069Y-110761242D01*
X132966377Y-110722952D01*
X132963315Y-110714252D01*
X132949002Y-110673517D01*
X132936035Y-110643863D01*
X132920910Y-110627297D01*
X132900120Y-110625826D01*
X132870160Y-110641459D01*
X132827523Y-110676205D01*
X132768706Y-110732070D01*
X132690202Y-110811063D01*
X132588504Y-110915193D01*
X132558101Y-110946355D01*
X132453358Y-111053834D01*
X132385171Y-111124471D01*
X132517957Y-111257257D01*
X132577621Y-111199086D01*
X132619486Y-111163854D01*
X132652416Y-111145933D01*
X132685273Y-111139693D01*
X132703842Y-111139195D01*
X132768678Y-111148237D01*
X132803654Y-111178672D01*
X132814363Y-111235455D01*
X132814368Y-111237162D01*
X132810295Y-111268695D01*
X132794450Y-111301246D01*
X132761399Y-111342723D01*
X132705706Y-111401039D01*
X132693101Y-111413692D01*
X132611374Y-111489078D01*
X132546596Y-111533215D01*
X132494667Y-111547774D01*
X132451488Y-111534431D01*
X132433651Y-111519601D01*
X132401941Y-111473782D01*
X132398580Y-111423962D01*
X132425076Y-111365456D01*
X132482934Y-111293573D01*
X132517957Y-111257257D01*
X132385171Y-111124471D01*
X132372681Y-111137411D01*
X132312767Y-111201073D01*
X132270312Y-111248808D01*
X132242012Y-111284604D01*
X132224564Y-111312449D01*
X132214663Y-111336329D01*
X132209005Y-111360234D01*
X132207355Y-111369709D01*
X132206710Y-111474144D01*
X132242534Y-111569546D01*
X132310127Y-111653749D01*
X132384778Y-111711736D01*
G04 #@! TO.C,G\002A\002A\002A*
G36*
X170475511Y-86515258D02*
X170653547Y-86692988D01*
X170814395Y-86853475D01*
X170958804Y-86997456D01*
X171087528Y-87125663D01*
X171201317Y-87238837D01*
X171300924Y-87337710D01*
X171387101Y-87423021D01*
X171460600Y-87495503D01*
X171522171Y-87555893D01*
X171572570Y-87604928D01*
X171612545Y-87643343D01*
X171642849Y-87671876D01*
X171664234Y-87691260D01*
X171677453Y-87702231D01*
X171683257Y-87705528D01*
X171682396Y-87701884D01*
X171675625Y-87692037D01*
X171669154Y-87683604D01*
X171543500Y-87510901D01*
X171425470Y-87324313D01*
X171318155Y-87129687D01*
X171224648Y-86932874D01*
X171148037Y-86739721D01*
X171111728Y-86628892D01*
X171054093Y-86417284D01*
X171011905Y-86216223D01*
X170983906Y-86017131D01*
X170968830Y-85811427D01*
X170965224Y-85633923D01*
X170977131Y-85339299D01*
X171012842Y-85053480D01*
X171072351Y-84776498D01*
X171155650Y-84508387D01*
X171262732Y-84249178D01*
X171275073Y-84223068D01*
X171325922Y-84116763D01*
X171351398Y-84142240D01*
X171391727Y-84165790D01*
X171445515Y-84173247D01*
X171505899Y-84163755D01*
X171511034Y-84162166D01*
X171559926Y-84146430D01*
X171547238Y-84204480D01*
X171535951Y-84313275D01*
X171549326Y-84419327D01*
X171586630Y-84519695D01*
X171647128Y-84611440D01*
X171649887Y-84614731D01*
X171718118Y-84683355D01*
X171790516Y-84730219D01*
X171873258Y-84758883D01*
X171913216Y-84766448D01*
X172004468Y-84780316D01*
X171989527Y-84861379D01*
X171983120Y-84964327D01*
X172001035Y-85066032D01*
X172042255Y-85163510D01*
X172105760Y-85253776D01*
X172133638Y-85283691D01*
X172207513Y-85346976D01*
X172281874Y-85387803D01*
X172361882Y-85408679D01*
X172397746Y-85412066D01*
X172437387Y-85413283D01*
X172473722Y-85411590D01*
X172509328Y-85405692D01*
X172546778Y-85394287D01*
X172588647Y-85376082D01*
X172637513Y-85349776D01*
X172695947Y-85314073D01*
X172766525Y-85267676D01*
X172851824Y-85209286D01*
X172954417Y-85137608D01*
X172984716Y-85116301D01*
X173093055Y-85039784D01*
X173182342Y-84975993D01*
X173254506Y-84923335D01*
X173311478Y-84880225D01*
X173355187Y-84845072D01*
X173387564Y-84816287D01*
X173410540Y-84792281D01*
X173426043Y-84771464D01*
X173436004Y-84752249D01*
X173439897Y-84741546D01*
X173443613Y-84691334D01*
X173427756Y-84638781D01*
X173396667Y-84590104D01*
X173354691Y-84551517D01*
X173306168Y-84529233D01*
X173289638Y-84526531D01*
X173247145Y-84527602D01*
X173208760Y-84535822D01*
X173205795Y-84536981D01*
X173186973Y-84547771D01*
X173150290Y-84571400D01*
X173098563Y-84605953D01*
X173034611Y-84649521D01*
X172961252Y-84700193D01*
X172881304Y-84756056D01*
X172842158Y-84783629D01*
X172728783Y-84862975D01*
X172635384Y-84926775D01*
X172561891Y-84975076D01*
X172508229Y-85007924D01*
X172474325Y-85025369D01*
X172467319Y-85027791D01*
X172402990Y-85032476D01*
X172341693Y-85014295D01*
X172287230Y-84975774D01*
X172243410Y-84919436D01*
X172218396Y-84862687D01*
X172208467Y-84792095D01*
X172221926Y-84722315D01*
X172257277Y-84659269D01*
X172274650Y-84639787D01*
X172294956Y-84622519D01*
X172333111Y-84592957D01*
X172386111Y-84553315D01*
X172450955Y-84505808D01*
X172524641Y-84452649D01*
X172604167Y-84396053D01*
X172625551Y-84380962D01*
X172723046Y-84311985D01*
X172801516Y-84255423D01*
X172862892Y-84209337D01*
X172909107Y-84171790D01*
X172942091Y-84140842D01*
X172963775Y-84114557D01*
X172976093Y-84090996D01*
X172980974Y-84068223D01*
X172980351Y-84044296D01*
X172977938Y-84027379D01*
X172960050Y-83976705D01*
X172927275Y-83927306D01*
X172886606Y-83888392D01*
X172861488Y-83873977D01*
X172839970Y-83866561D01*
X172818271Y-83863527D01*
X172794044Y-83866092D01*
X172764939Y-83875474D01*
X172728611Y-83892893D01*
X172682712Y-83919567D01*
X172624894Y-83956715D01*
X172552811Y-84005554D01*
X172464114Y-84067304D01*
X172394084Y-84116605D01*
X172300832Y-84181832D01*
X172216411Y-84239728D01*
X172143096Y-84288795D01*
X172083165Y-84327536D01*
X172038895Y-84354452D01*
X172012564Y-84368048D01*
X172010676Y-84368727D01*
X171950358Y-84375924D01*
X171888898Y-84361930D01*
X171834046Y-84329346D01*
X171806113Y-84300101D01*
X171767747Y-84231421D01*
X171751471Y-84159428D01*
X171757156Y-84088665D01*
X171784675Y-84023673D01*
X171814890Y-83985995D01*
X171833984Y-83969919D01*
X171870955Y-83941479D01*
X171922854Y-83902846D01*
X171986726Y-83856188D01*
X172059619Y-83803676D01*
X172138581Y-83747482D01*
X172159704Y-83732562D01*
X172256786Y-83663453D01*
X172339331Y-83603364D01*
X172405897Y-83553391D01*
X172455043Y-83514629D01*
X172485327Y-83488174D01*
X172493795Y-83478736D01*
X172512033Y-83431450D01*
X172512585Y-83375117D01*
X172496197Y-83318166D01*
X172476529Y-83284416D01*
X172434664Y-83240081D01*
X172388174Y-83217954D01*
X172330464Y-83214917D01*
X172329682Y-83214983D01*
X172314342Y-83216541D01*
X172299757Y-83219320D01*
X172283659Y-83224738D01*
X172263785Y-83234211D01*
X172237868Y-83249155D01*
X172203645Y-83270987D01*
X172158849Y-83301121D01*
X172101217Y-83340977D01*
X172028482Y-83391968D01*
X171938380Y-83455512D01*
X171887266Y-83491616D01*
X171813302Y-83543672D01*
X171746162Y-83590553D01*
X171688619Y-83630351D01*
X171643447Y-83661162D01*
X171613416Y-83681080D01*
X171601298Y-83688199D01*
X171601286Y-83688199D01*
X171599318Y-83679532D01*
X171613078Y-83655155D01*
X171640518Y-83617501D01*
X171679592Y-83569003D01*
X171728251Y-83512094D01*
X171784449Y-83449209D01*
X171846139Y-83382781D01*
X171911274Y-83315242D01*
X171936202Y-83290093D01*
X172144324Y-83096494D01*
X172359100Y-82926335D01*
X172583201Y-82777972D01*
X172819299Y-82649758D01*
X173070061Y-82540048D01*
X173268839Y-82469091D01*
X173540684Y-82393461D01*
X173817392Y-82342297D01*
X174100418Y-82315373D01*
X174279934Y-82310754D01*
X174416036Y-82312555D01*
X174538388Y-82318575D01*
X174655878Y-82329709D01*
X174777394Y-82346857D01*
X174911823Y-82370914D01*
X174949690Y-82378352D01*
X175218883Y-82444686D01*
X175484084Y-82535052D01*
X175742485Y-82648107D01*
X175991281Y-82782512D01*
X176227669Y-82936925D01*
X176407531Y-83075259D01*
X176408703Y-83074706D01*
X176392782Y-83057091D01*
X176360641Y-83023299D01*
X176313158Y-82974219D01*
X176251208Y-82910739D01*
X176175666Y-82833746D01*
X176087407Y-82744128D01*
X175987308Y-82642773D01*
X175876244Y-82530568D01*
X175755090Y-82408401D01*
X175624722Y-82277161D01*
X175486016Y-82137735D01*
X175339847Y-81991009D01*
X175192438Y-81843232D01*
X173893770Y-80542116D01*
X171371940Y-83063946D01*
X171426675Y-83139424D01*
X171460104Y-83185842D01*
X171480046Y-83216844D01*
X171487627Y-83237789D01*
X171483971Y-83254041D01*
X171470203Y-83270958D01*
X171457037Y-83284176D01*
X171409188Y-83338406D01*
X171353658Y-83412044D01*
X171292816Y-83501179D01*
X171229034Y-83601896D01*
X171164681Y-83710277D01*
X171102130Y-83822409D01*
X171043749Y-83934376D01*
X170991910Y-84042263D01*
X170974605Y-84080953D01*
X170925555Y-84199442D01*
X170877513Y-84327117D01*
X170832632Y-84457460D01*
X170793069Y-84583953D01*
X170760978Y-84700078D01*
X170740598Y-84788675D01*
X170707458Y-84989711D01*
X170684233Y-85209980D01*
X170670944Y-85445324D01*
X170667614Y-85691586D01*
X170674265Y-85944605D01*
X170690921Y-86200220D01*
X170717603Y-86454274D01*
X170731140Y-86554896D01*
X170738906Y-86614368D01*
X170743797Y-86662980D01*
X170745470Y-86696238D01*
X170743582Y-86709647D01*
X170742902Y-86709638D01*
X170731594Y-86694198D01*
X170714919Y-86658346D01*
X170694293Y-86606150D01*
X170671132Y-86541676D01*
X170646854Y-86468991D01*
X170622874Y-86392159D01*
X170600608Y-86315248D01*
X170584874Y-86255964D01*
X170526239Y-85976329D01*
X170489156Y-85689433D01*
X170473932Y-85400239D01*
X170480873Y-85113713D01*
X170501007Y-84902019D01*
X170540077Y-84678753D01*
X170600494Y-84448558D01*
X170680562Y-84215195D01*
X170778587Y-83982425D01*
X170892872Y-83754012D01*
X171021726Y-83533716D01*
X171163451Y-83325301D01*
X171277209Y-83179005D01*
X171279697Y-83174172D01*
X171264780Y-83186869D01*
X171232953Y-83216611D01*
X171184712Y-83262910D01*
X171120554Y-83325278D01*
X171040975Y-83403228D01*
X170946470Y-83496274D01*
X170837536Y-83603926D01*
X170714670Y-83725698D01*
X170578366Y-83861103D01*
X170429124Y-84009654D01*
X170273695Y-84164617D01*
X169197096Y-85238790D01*
X170475511Y-86515258D01*
X170475511Y-86515258D01*
G37*
X170475511Y-86515258D02*
X170653547Y-86692988D01*
X170814395Y-86853475D01*
X170958804Y-86997456D01*
X171087528Y-87125663D01*
X171201317Y-87238837D01*
X171300924Y-87337710D01*
X171387101Y-87423021D01*
X171460600Y-87495503D01*
X171522171Y-87555893D01*
X171572570Y-87604928D01*
X171612545Y-87643343D01*
X171642849Y-87671876D01*
X171664234Y-87691260D01*
X171677453Y-87702231D01*
X171683257Y-87705528D01*
X171682396Y-87701884D01*
X171675625Y-87692037D01*
X171669154Y-87683604D01*
X171543500Y-87510901D01*
X171425470Y-87324313D01*
X171318155Y-87129687D01*
X171224648Y-86932874D01*
X171148037Y-86739721D01*
X171111728Y-86628892D01*
X171054093Y-86417284D01*
X171011905Y-86216223D01*
X170983906Y-86017131D01*
X170968830Y-85811427D01*
X170965224Y-85633923D01*
X170977131Y-85339299D01*
X171012842Y-85053480D01*
X171072351Y-84776498D01*
X171155650Y-84508387D01*
X171262732Y-84249178D01*
X171275073Y-84223068D01*
X171325922Y-84116763D01*
X171351398Y-84142240D01*
X171391727Y-84165790D01*
X171445515Y-84173247D01*
X171505899Y-84163755D01*
X171511034Y-84162166D01*
X171559926Y-84146430D01*
X171547238Y-84204480D01*
X171535951Y-84313275D01*
X171549326Y-84419327D01*
X171586630Y-84519695D01*
X171647128Y-84611440D01*
X171649887Y-84614731D01*
X171718118Y-84683355D01*
X171790516Y-84730219D01*
X171873258Y-84758883D01*
X171913216Y-84766448D01*
X172004468Y-84780316D01*
X171989527Y-84861379D01*
X171983120Y-84964327D01*
X172001035Y-85066032D01*
X172042255Y-85163510D01*
X172105760Y-85253776D01*
X172133638Y-85283691D01*
X172207513Y-85346976D01*
X172281874Y-85387803D01*
X172361882Y-85408679D01*
X172397746Y-85412066D01*
X172437387Y-85413283D01*
X172473722Y-85411590D01*
X172509328Y-85405692D01*
X172546778Y-85394287D01*
X172588647Y-85376082D01*
X172637513Y-85349776D01*
X172695947Y-85314073D01*
X172766525Y-85267676D01*
X172851824Y-85209286D01*
X172954417Y-85137608D01*
X172984716Y-85116301D01*
X173093055Y-85039784D01*
X173182342Y-84975993D01*
X173254506Y-84923335D01*
X173311478Y-84880225D01*
X173355187Y-84845072D01*
X173387564Y-84816287D01*
X173410540Y-84792281D01*
X173426043Y-84771464D01*
X173436004Y-84752249D01*
X173439897Y-84741546D01*
X173443613Y-84691334D01*
X173427756Y-84638781D01*
X173396667Y-84590104D01*
X173354691Y-84551517D01*
X173306168Y-84529233D01*
X173289638Y-84526531D01*
X173247145Y-84527602D01*
X173208760Y-84535822D01*
X173205795Y-84536981D01*
X173186973Y-84547771D01*
X173150290Y-84571400D01*
X173098563Y-84605953D01*
X173034611Y-84649521D01*
X172961252Y-84700193D01*
X172881304Y-84756056D01*
X172842158Y-84783629D01*
X172728783Y-84862975D01*
X172635384Y-84926775D01*
X172561891Y-84975076D01*
X172508229Y-85007924D01*
X172474325Y-85025369D01*
X172467319Y-85027791D01*
X172402990Y-85032476D01*
X172341693Y-85014295D01*
X172287230Y-84975774D01*
X172243410Y-84919436D01*
X172218396Y-84862687D01*
X172208467Y-84792095D01*
X172221926Y-84722315D01*
X172257277Y-84659269D01*
X172274650Y-84639787D01*
X172294956Y-84622519D01*
X172333111Y-84592957D01*
X172386111Y-84553315D01*
X172450955Y-84505808D01*
X172524641Y-84452649D01*
X172604167Y-84396053D01*
X172625551Y-84380962D01*
X172723046Y-84311985D01*
X172801516Y-84255423D01*
X172862892Y-84209337D01*
X172909107Y-84171790D01*
X172942091Y-84140842D01*
X172963775Y-84114557D01*
X172976093Y-84090996D01*
X172980974Y-84068223D01*
X172980351Y-84044296D01*
X172977938Y-84027379D01*
X172960050Y-83976705D01*
X172927275Y-83927306D01*
X172886606Y-83888392D01*
X172861488Y-83873977D01*
X172839970Y-83866561D01*
X172818271Y-83863527D01*
X172794044Y-83866092D01*
X172764939Y-83875474D01*
X172728611Y-83892893D01*
X172682712Y-83919567D01*
X172624894Y-83956715D01*
X172552811Y-84005554D01*
X172464114Y-84067304D01*
X172394084Y-84116605D01*
X172300832Y-84181832D01*
X172216411Y-84239728D01*
X172143096Y-84288795D01*
X172083165Y-84327536D01*
X172038895Y-84354452D01*
X172012564Y-84368048D01*
X172010676Y-84368727D01*
X171950358Y-84375924D01*
X171888898Y-84361930D01*
X171834046Y-84329346D01*
X171806113Y-84300101D01*
X171767747Y-84231421D01*
X171751471Y-84159428D01*
X171757156Y-84088665D01*
X171784675Y-84023673D01*
X171814890Y-83985995D01*
X171833984Y-83969919D01*
X171870955Y-83941479D01*
X171922854Y-83902846D01*
X171986726Y-83856188D01*
X172059619Y-83803676D01*
X172138581Y-83747482D01*
X172159704Y-83732562D01*
X172256786Y-83663453D01*
X172339331Y-83603364D01*
X172405897Y-83553391D01*
X172455043Y-83514629D01*
X172485327Y-83488174D01*
X172493795Y-83478736D01*
X172512033Y-83431450D01*
X172512585Y-83375117D01*
X172496197Y-83318166D01*
X172476529Y-83284416D01*
X172434664Y-83240081D01*
X172388174Y-83217954D01*
X172330464Y-83214917D01*
X172329682Y-83214983D01*
X172314342Y-83216541D01*
X172299757Y-83219320D01*
X172283659Y-83224738D01*
X172263785Y-83234211D01*
X172237868Y-83249155D01*
X172203645Y-83270987D01*
X172158849Y-83301121D01*
X172101217Y-83340977D01*
X172028482Y-83391968D01*
X171938380Y-83455512D01*
X171887266Y-83491616D01*
X171813302Y-83543672D01*
X171746162Y-83590553D01*
X171688619Y-83630351D01*
X171643447Y-83661162D01*
X171613416Y-83681080D01*
X171601298Y-83688199D01*
X171601286Y-83688199D01*
X171599318Y-83679532D01*
X171613078Y-83655155D01*
X171640518Y-83617501D01*
X171679592Y-83569003D01*
X171728251Y-83512094D01*
X171784449Y-83449209D01*
X171846139Y-83382781D01*
X171911274Y-83315242D01*
X171936202Y-83290093D01*
X172144324Y-83096494D01*
X172359100Y-82926335D01*
X172583201Y-82777972D01*
X172819299Y-82649758D01*
X173070061Y-82540048D01*
X173268839Y-82469091D01*
X173540684Y-82393461D01*
X173817392Y-82342297D01*
X174100418Y-82315373D01*
X174279934Y-82310754D01*
X174416036Y-82312555D01*
X174538388Y-82318575D01*
X174655878Y-82329709D01*
X174777394Y-82346857D01*
X174911823Y-82370914D01*
X174949690Y-82378352D01*
X175218883Y-82444686D01*
X175484084Y-82535052D01*
X175742485Y-82648107D01*
X175991281Y-82782512D01*
X176227669Y-82936925D01*
X176407531Y-83075259D01*
X176408703Y-83074706D01*
X176392782Y-83057091D01*
X176360641Y-83023299D01*
X176313158Y-82974219D01*
X176251208Y-82910739D01*
X176175666Y-82833746D01*
X176087407Y-82744128D01*
X175987308Y-82642773D01*
X175876244Y-82530568D01*
X175755090Y-82408401D01*
X175624722Y-82277161D01*
X175486016Y-82137735D01*
X175339847Y-81991009D01*
X175192438Y-81843232D01*
X173893770Y-80542116D01*
X171371940Y-83063946D01*
X171426675Y-83139424D01*
X171460104Y-83185842D01*
X171480046Y-83216844D01*
X171487627Y-83237789D01*
X171483971Y-83254041D01*
X171470203Y-83270958D01*
X171457037Y-83284176D01*
X171409188Y-83338406D01*
X171353658Y-83412044D01*
X171292816Y-83501179D01*
X171229034Y-83601896D01*
X171164681Y-83710277D01*
X171102130Y-83822409D01*
X171043749Y-83934376D01*
X170991910Y-84042263D01*
X170974605Y-84080953D01*
X170925555Y-84199442D01*
X170877513Y-84327117D01*
X170832632Y-84457460D01*
X170793069Y-84583953D01*
X170760978Y-84700078D01*
X170740598Y-84788675D01*
X170707458Y-84989711D01*
X170684233Y-85209980D01*
X170670944Y-85445324D01*
X170667614Y-85691586D01*
X170674265Y-85944605D01*
X170690921Y-86200220D01*
X170717603Y-86454274D01*
X170731140Y-86554896D01*
X170738906Y-86614368D01*
X170743797Y-86662980D01*
X170745470Y-86696238D01*
X170743582Y-86709647D01*
X170742902Y-86709638D01*
X170731594Y-86694198D01*
X170714919Y-86658346D01*
X170694293Y-86606150D01*
X170671132Y-86541676D01*
X170646854Y-86468991D01*
X170622874Y-86392159D01*
X170600608Y-86315248D01*
X170584874Y-86255964D01*
X170526239Y-85976329D01*
X170489156Y-85689433D01*
X170473932Y-85400239D01*
X170480873Y-85113713D01*
X170501007Y-84902019D01*
X170540077Y-84678753D01*
X170600494Y-84448558D01*
X170680562Y-84215195D01*
X170778587Y-83982425D01*
X170892872Y-83754012D01*
X171021726Y-83533716D01*
X171163451Y-83325301D01*
X171277209Y-83179005D01*
X171279697Y-83174172D01*
X171264780Y-83186869D01*
X171232953Y-83216611D01*
X171184712Y-83262910D01*
X171120554Y-83325278D01*
X171040975Y-83403228D01*
X170946470Y-83496274D01*
X170837536Y-83603926D01*
X170714670Y-83725698D01*
X170578366Y-83861103D01*
X170429124Y-84009654D01*
X170273695Y-84164617D01*
X169197096Y-85238790D01*
X170475511Y-86515258D01*
G36*
X177142426Y-88105688D02*
X177081935Y-88022908D01*
X177055587Y-87987249D01*
X177039108Y-87961447D01*
X177033418Y-87940104D01*
X177039443Y-87917821D01*
X177058105Y-87889202D01*
X177090325Y-87848847D01*
X177117340Y-87815782D01*
X177212113Y-87688005D01*
X177306761Y-87539587D01*
X177399148Y-87375205D01*
X177487140Y-87199539D01*
X177568599Y-87017269D01*
X177641390Y-86833072D01*
X177703379Y-86651627D01*
X177752429Y-86477614D01*
X177775911Y-86372973D01*
X177808537Y-86173317D01*
X177831329Y-85954489D01*
X177844263Y-85720749D01*
X177847313Y-85476352D01*
X177840453Y-85225559D01*
X177823659Y-84972628D01*
X177796907Y-84721818D01*
X177786160Y-84642154D01*
X177777385Y-84580268D01*
X177769990Y-84527882D01*
X177764666Y-84489901D01*
X177762102Y-84471226D01*
X177761983Y-84470262D01*
X177770495Y-84463500D01*
X177770895Y-84463495D01*
X177780303Y-84474902D01*
X177795589Y-84506241D01*
X177815106Y-84553180D01*
X177837203Y-84611392D01*
X177860235Y-84676547D01*
X177882552Y-84744315D01*
X177901129Y-84805573D01*
X177961402Y-85048970D01*
X178004978Y-85300861D01*
X178031693Y-85556810D01*
X178041382Y-85812383D01*
X178033880Y-86063141D01*
X178009022Y-86304651D01*
X177966644Y-86532476D01*
X177965393Y-86537813D01*
X177896122Y-86788587D01*
X177807644Y-87032832D01*
X177698848Y-87272732D01*
X177568624Y-87510467D01*
X177415865Y-87748220D01*
X177239458Y-87988171D01*
X177206212Y-88030377D01*
X177211903Y-88025497D01*
X177234492Y-88003733D01*
X177272901Y-87966152D01*
X177326056Y-87913820D01*
X177392882Y-87847803D01*
X177472304Y-87769167D01*
X177563247Y-87678977D01*
X177664634Y-87578301D01*
X177775392Y-87468204D01*
X177894444Y-87349752D01*
X178020715Y-87224010D01*
X178153131Y-87092046D01*
X178241113Y-87004310D01*
X179299884Y-85948230D01*
X178034689Y-84685483D01*
X177883422Y-84534609D01*
X177738750Y-84390511D01*
X177601565Y-84254067D01*
X177472755Y-84126155D01*
X177353211Y-84007653D01*
X177243824Y-83899436D01*
X177145484Y-83802384D01*
X177059080Y-83717375D01*
X176985504Y-83645285D01*
X176925644Y-83586993D01*
X176880394Y-83543375D01*
X176850640Y-83515310D01*
X176837275Y-83503676D01*
X176838583Y-83506311D01*
X177008766Y-83731394D01*
X177159819Y-83970947D01*
X177290719Y-84222501D01*
X177400446Y-84483592D01*
X177487979Y-84751752D01*
X177552295Y-85024515D01*
X177592375Y-85299414D01*
X177595775Y-85335434D01*
X177603244Y-85457236D01*
X177606001Y-85593203D01*
X177604242Y-85735002D01*
X177598161Y-85874299D01*
X177587953Y-86002759D01*
X177578255Y-86083188D01*
X177568457Y-86145991D01*
X177556345Y-86215125D01*
X177542848Y-86286198D01*
X177528895Y-86354810D01*
X177515416Y-86416569D01*
X177503340Y-86467076D01*
X177493598Y-86501936D01*
X177487116Y-86516754D01*
X177486543Y-86516980D01*
X177477659Y-86507250D01*
X177457044Y-86480643D01*
X177427613Y-86441029D01*
X177392283Y-86392282D01*
X177385977Y-86383473D01*
X177343863Y-86325592D01*
X177313138Y-86286185D01*
X177291332Y-86262433D01*
X177275977Y-86251522D01*
X177268936Y-86249967D01*
X177256669Y-86251896D01*
X177252056Y-86259440D01*
X177256459Y-86275236D01*
X177271240Y-86301918D01*
X177297758Y-86342121D01*
X177337376Y-86398482D01*
X177366777Y-86439452D01*
X177405629Y-86493505D01*
X177438691Y-86539752D01*
X177463360Y-86574529D01*
X177477027Y-86594168D01*
X177478917Y-86597153D01*
X177468600Y-86602821D01*
X177440986Y-86613844D01*
X177414385Y-86623481D01*
X177334909Y-86655982D01*
X177245158Y-86700256D01*
X177154022Y-86751409D01*
X177070389Y-86804545D01*
X177022112Y-86839491D01*
X176928566Y-86921965D01*
X176857189Y-87008867D01*
X176805081Y-87105165D01*
X176769341Y-87215823D01*
X176753212Y-87299776D01*
X176724195Y-87436847D01*
X176678859Y-87563743D01*
X176646305Y-87632114D01*
X176609494Y-87691486D01*
X176556611Y-87760581D01*
X176492283Y-87834404D01*
X176421144Y-87907959D01*
X176347817Y-87976253D01*
X176276935Y-88034290D01*
X176266181Y-88042253D01*
X176224611Y-88073403D01*
X176191842Y-88099604D01*
X176172688Y-88116931D01*
X176169746Y-88120933D01*
X176175411Y-88137140D01*
X176187781Y-88152439D01*
X176197839Y-88161240D01*
X176208604Y-88164929D01*
X176223307Y-88161770D01*
X176245177Y-88150030D01*
X176277442Y-88127972D01*
X176323330Y-88093863D01*
X176386070Y-88045965D01*
X176386454Y-88045670D01*
X176518294Y-87934501D01*
X176626247Y-87820574D01*
X176711827Y-87701496D01*
X176776547Y-87574874D01*
X176821917Y-87438315D01*
X176845436Y-87319371D01*
X176861167Y-87231318D01*
X176882022Y-87159611D01*
X176911698Y-87096625D01*
X176953889Y-87034739D01*
X177012290Y-86966329D01*
X177021349Y-86956469D01*
X177141054Y-86843630D01*
X177271042Y-86752418D01*
X177380309Y-86696396D01*
X177442509Y-86669398D01*
X177424670Y-86724397D01*
X177403978Y-86782402D01*
X177375037Y-86855750D01*
X177340955Y-86937062D01*
X177304840Y-87018961D01*
X177269801Y-87094072D01*
X177262905Y-87108222D01*
X177128617Y-87352950D01*
X176972305Y-87586833D01*
X176795743Y-87807902D01*
X176600706Y-88014194D01*
X176388966Y-88203745D01*
X176162298Y-88374586D01*
X176058157Y-88443407D01*
X176013217Y-88470547D01*
X175955511Y-88503435D01*
X175889374Y-88539806D01*
X175819144Y-88577397D01*
X175749156Y-88613946D01*
X175683748Y-88647188D01*
X175627256Y-88674861D01*
X175584018Y-88694700D01*
X175558369Y-88704443D01*
X175557668Y-88704615D01*
X175541395Y-88702256D01*
X175524335Y-88683700D01*
X175512662Y-88664885D01*
X175498525Y-88642757D01*
X175471920Y-88603189D01*
X175435096Y-88549448D01*
X175390303Y-88484798D01*
X175339789Y-88412502D01*
X175289961Y-88341707D01*
X175224602Y-88249201D01*
X175172458Y-88175295D01*
X175132157Y-88117797D01*
X175102324Y-88074513D01*
X175081588Y-88043249D01*
X175068574Y-88021814D01*
X175061910Y-88008014D01*
X175060221Y-87999656D01*
X175062137Y-87994549D01*
X175066281Y-87990498D01*
X175068659Y-87988287D01*
X175093124Y-87973008D01*
X175134122Y-87955740D01*
X175183224Y-87939202D01*
X175232001Y-87926109D01*
X175272024Y-87919183D01*
X175284222Y-87918767D01*
X175355064Y-87933790D01*
X175423612Y-87970638D01*
X175485238Y-88025841D01*
X175535315Y-88095929D01*
X175544913Y-88114198D01*
X175559636Y-88152699D01*
X175568405Y-88199292D01*
X175572123Y-88260442D01*
X175572270Y-88310058D01*
X175573503Y-88387383D01*
X175580411Y-88443834D01*
X175594766Y-88483633D01*
X175618338Y-88511005D01*
X175652896Y-88530171D01*
X175666685Y-88535302D01*
X175711593Y-88543747D01*
X175754693Y-88533678D01*
X175766736Y-88528207D01*
X175798230Y-88510839D01*
X175818616Y-88491405D01*
X175836267Y-88460801D01*
X175844162Y-88443988D01*
X175860341Y-88389862D01*
X175869159Y-88319593D01*
X175870595Y-88241355D01*
X175864629Y-88163323D01*
X175851235Y-88093671D01*
X175845166Y-88073871D01*
X175799673Y-87968294D01*
X175739539Y-87868885D01*
X175668368Y-87779806D01*
X175589769Y-87705217D01*
X175507348Y-87649284D01*
X175457377Y-87626341D01*
X175334958Y-87593194D01*
X175211521Y-87584693D01*
X175086306Y-87600940D01*
X174958550Y-87642039D01*
X174827492Y-87708093D01*
X174819419Y-87712904D01*
X174738172Y-87768406D01*
X174658047Y-87835149D01*
X174584207Y-87907943D01*
X174582926Y-87909454D01*
X174829281Y-88155809D01*
X174849877Y-88138507D01*
X174863942Y-88141058D01*
X174876965Y-88157517D01*
X174890423Y-88176831D01*
X174915911Y-88213089D01*
X174950765Y-88262513D01*
X174992320Y-88321326D01*
X175037914Y-88385750D01*
X175040197Y-88388974D01*
X175183367Y-88591103D01*
X175154686Y-88608696D01*
X175092469Y-88637006D01*
X175022908Y-88653534D01*
X174981774Y-88656029D01*
X174911587Y-88642063D01*
X174847567Y-88607009D01*
X174793501Y-88555068D01*
X174753176Y-88490439D01*
X174730377Y-88417325D01*
X174726677Y-88373065D01*
X174739370Y-88294931D01*
X174776775Y-88219132D01*
X174829281Y-88155809D01*
X174582926Y-87909454D01*
X174521815Y-87981593D01*
X174476034Y-88050910D01*
X174468136Y-88066231D01*
X174435544Y-88148144D01*
X174412504Y-88235496D01*
X174401592Y-88317576D01*
X174401151Y-88344750D01*
X174410942Y-88424415D01*
X174434584Y-88512067D01*
X174468769Y-88596965D01*
X174492424Y-88641212D01*
X174526706Y-88691595D01*
X174570833Y-88746804D01*
X174619456Y-88801026D01*
X174667225Y-88848446D01*
X174708791Y-88883251D01*
X174724623Y-88893575D01*
X174745707Y-88909609D01*
X174747406Y-88920183D01*
X174729765Y-88926108D01*
X174691178Y-88932293D01*
X174636087Y-88938408D01*
X174568940Y-88944121D01*
X174494181Y-88949099D01*
X174416255Y-88953012D01*
X174339609Y-88955530D01*
X174268687Y-88956320D01*
X174262909Y-88956295D01*
X173984742Y-88942571D01*
X173706527Y-88905042D01*
X173431820Y-88844548D01*
X173164177Y-88761929D01*
X172907156Y-88658025D01*
X172816591Y-88614914D01*
X172668799Y-88537094D01*
X172526178Y-88452348D01*
X172382763Y-88356819D01*
X172232586Y-88246653D01*
X172161988Y-88191887D01*
X172167159Y-88197840D01*
X172189291Y-88220765D01*
X172227392Y-88259662D01*
X172280471Y-88313533D01*
X172347537Y-88381379D01*
X172427598Y-88462202D01*
X172519666Y-88555004D01*
X172622746Y-88658785D01*
X172735849Y-88772546D01*
X172857984Y-88895291D01*
X172988159Y-89026018D01*
X173125383Y-89163732D01*
X173268664Y-89307432D01*
X173367525Y-89406529D01*
X174603210Y-90644904D01*
X177142426Y-88105688D01*
X177142426Y-88105688D01*
G37*
X177142426Y-88105688D02*
X177081935Y-88022908D01*
X177055587Y-87987249D01*
X177039108Y-87961447D01*
X177033418Y-87940104D01*
X177039443Y-87917821D01*
X177058105Y-87889202D01*
X177090325Y-87848847D01*
X177117340Y-87815782D01*
X177212113Y-87688005D01*
X177306761Y-87539587D01*
X177399148Y-87375205D01*
X177487140Y-87199539D01*
X177568599Y-87017269D01*
X177641390Y-86833072D01*
X177703379Y-86651627D01*
X177752429Y-86477614D01*
X177775911Y-86372973D01*
X177808537Y-86173317D01*
X177831329Y-85954489D01*
X177844263Y-85720749D01*
X177847313Y-85476352D01*
X177840453Y-85225559D01*
X177823659Y-84972628D01*
X177796907Y-84721818D01*
X177786160Y-84642154D01*
X177777385Y-84580268D01*
X177769990Y-84527882D01*
X177764666Y-84489901D01*
X177762102Y-84471226D01*
X177761983Y-84470262D01*
X177770495Y-84463500D01*
X177770895Y-84463495D01*
X177780303Y-84474902D01*
X177795589Y-84506241D01*
X177815106Y-84553180D01*
X177837203Y-84611392D01*
X177860235Y-84676547D01*
X177882552Y-84744315D01*
X177901129Y-84805573D01*
X177961402Y-85048970D01*
X178004978Y-85300861D01*
X178031693Y-85556810D01*
X178041382Y-85812383D01*
X178033880Y-86063141D01*
X178009022Y-86304651D01*
X177966644Y-86532476D01*
X177965393Y-86537813D01*
X177896122Y-86788587D01*
X177807644Y-87032832D01*
X177698848Y-87272732D01*
X177568624Y-87510467D01*
X177415865Y-87748220D01*
X177239458Y-87988171D01*
X177206212Y-88030377D01*
X177211903Y-88025497D01*
X177234492Y-88003733D01*
X177272901Y-87966152D01*
X177326056Y-87913820D01*
X177392882Y-87847803D01*
X177472304Y-87769167D01*
X177563247Y-87678977D01*
X177664634Y-87578301D01*
X177775392Y-87468204D01*
X177894444Y-87349752D01*
X178020715Y-87224010D01*
X178153131Y-87092046D01*
X178241113Y-87004310D01*
X179299884Y-85948230D01*
X178034689Y-84685483D01*
X177883422Y-84534609D01*
X177738750Y-84390511D01*
X177601565Y-84254067D01*
X177472755Y-84126155D01*
X177353211Y-84007653D01*
X177243824Y-83899436D01*
X177145484Y-83802384D01*
X177059080Y-83717375D01*
X176985504Y-83645285D01*
X176925644Y-83586993D01*
X176880394Y-83543375D01*
X176850640Y-83515310D01*
X176837275Y-83503676D01*
X176838583Y-83506311D01*
X177008766Y-83731394D01*
X177159819Y-83970947D01*
X177290719Y-84222501D01*
X177400446Y-84483592D01*
X177487979Y-84751752D01*
X177552295Y-85024515D01*
X177592375Y-85299414D01*
X177595775Y-85335434D01*
X177603244Y-85457236D01*
X177606001Y-85593203D01*
X177604242Y-85735002D01*
X177598161Y-85874299D01*
X177587953Y-86002759D01*
X177578255Y-86083188D01*
X177568457Y-86145991D01*
X177556345Y-86215125D01*
X177542848Y-86286198D01*
X177528895Y-86354810D01*
X177515416Y-86416569D01*
X177503340Y-86467076D01*
X177493598Y-86501936D01*
X177487116Y-86516754D01*
X177486543Y-86516980D01*
X177477659Y-86507250D01*
X177457044Y-86480643D01*
X177427613Y-86441029D01*
X177392283Y-86392282D01*
X177385977Y-86383473D01*
X177343863Y-86325592D01*
X177313138Y-86286185D01*
X177291332Y-86262433D01*
X177275977Y-86251522D01*
X177268936Y-86249967D01*
X177256669Y-86251896D01*
X177252056Y-86259440D01*
X177256459Y-86275236D01*
X177271240Y-86301918D01*
X177297758Y-86342121D01*
X177337376Y-86398482D01*
X177366777Y-86439452D01*
X177405629Y-86493505D01*
X177438691Y-86539752D01*
X177463360Y-86574529D01*
X177477027Y-86594168D01*
X177478917Y-86597153D01*
X177468600Y-86602821D01*
X177440986Y-86613844D01*
X177414385Y-86623481D01*
X177334909Y-86655982D01*
X177245158Y-86700256D01*
X177154022Y-86751409D01*
X177070389Y-86804545D01*
X177022112Y-86839491D01*
X176928566Y-86921965D01*
X176857189Y-87008867D01*
X176805081Y-87105165D01*
X176769341Y-87215823D01*
X176753212Y-87299776D01*
X176724195Y-87436847D01*
X176678859Y-87563743D01*
X176646305Y-87632114D01*
X176609494Y-87691486D01*
X176556611Y-87760581D01*
X176492283Y-87834404D01*
X176421144Y-87907959D01*
X176347817Y-87976253D01*
X176276935Y-88034290D01*
X176266181Y-88042253D01*
X176224611Y-88073403D01*
X176191842Y-88099604D01*
X176172688Y-88116931D01*
X176169746Y-88120933D01*
X176175411Y-88137140D01*
X176187781Y-88152439D01*
X176197839Y-88161240D01*
X176208604Y-88164929D01*
X176223307Y-88161770D01*
X176245177Y-88150030D01*
X176277442Y-88127972D01*
X176323330Y-88093863D01*
X176386070Y-88045965D01*
X176386454Y-88045670D01*
X176518294Y-87934501D01*
X176626247Y-87820574D01*
X176711827Y-87701496D01*
X176776547Y-87574874D01*
X176821917Y-87438315D01*
X176845436Y-87319371D01*
X176861167Y-87231318D01*
X176882022Y-87159611D01*
X176911698Y-87096625D01*
X176953889Y-87034739D01*
X177012290Y-86966329D01*
X177021349Y-86956469D01*
X177141054Y-86843630D01*
X177271042Y-86752418D01*
X177380309Y-86696396D01*
X177442509Y-86669398D01*
X177424670Y-86724397D01*
X177403978Y-86782402D01*
X177375037Y-86855750D01*
X177340955Y-86937062D01*
X177304840Y-87018961D01*
X177269801Y-87094072D01*
X177262905Y-87108222D01*
X177128617Y-87352950D01*
X176972305Y-87586833D01*
X176795743Y-87807902D01*
X176600706Y-88014194D01*
X176388966Y-88203745D01*
X176162298Y-88374586D01*
X176058157Y-88443407D01*
X176013217Y-88470547D01*
X175955511Y-88503435D01*
X175889374Y-88539806D01*
X175819144Y-88577397D01*
X175749156Y-88613946D01*
X175683748Y-88647188D01*
X175627256Y-88674861D01*
X175584018Y-88694700D01*
X175558369Y-88704443D01*
X175557668Y-88704615D01*
X175541395Y-88702256D01*
X175524335Y-88683700D01*
X175512662Y-88664885D01*
X175498525Y-88642757D01*
X175471920Y-88603189D01*
X175435096Y-88549448D01*
X175390303Y-88484798D01*
X175339789Y-88412502D01*
X175289961Y-88341707D01*
X175224602Y-88249201D01*
X175172458Y-88175295D01*
X175132157Y-88117797D01*
X175102324Y-88074513D01*
X175081588Y-88043249D01*
X175068574Y-88021814D01*
X175061910Y-88008014D01*
X175060221Y-87999656D01*
X175062137Y-87994549D01*
X175066281Y-87990498D01*
X175068659Y-87988287D01*
X175093124Y-87973008D01*
X175134122Y-87955740D01*
X175183224Y-87939202D01*
X175232001Y-87926109D01*
X175272024Y-87919183D01*
X175284222Y-87918767D01*
X175355064Y-87933790D01*
X175423612Y-87970638D01*
X175485238Y-88025841D01*
X175535315Y-88095929D01*
X175544913Y-88114198D01*
X175559636Y-88152699D01*
X175568405Y-88199292D01*
X175572123Y-88260442D01*
X175572270Y-88310058D01*
X175573503Y-88387383D01*
X175580411Y-88443834D01*
X175594766Y-88483633D01*
X175618338Y-88511005D01*
X175652896Y-88530171D01*
X175666685Y-88535302D01*
X175711593Y-88543747D01*
X175754693Y-88533678D01*
X175766736Y-88528207D01*
X175798230Y-88510839D01*
X175818616Y-88491405D01*
X175836267Y-88460801D01*
X175844162Y-88443988D01*
X175860341Y-88389862D01*
X175869159Y-88319593D01*
X175870595Y-88241355D01*
X175864629Y-88163323D01*
X175851235Y-88093671D01*
X175845166Y-88073871D01*
X175799673Y-87968294D01*
X175739539Y-87868885D01*
X175668368Y-87779806D01*
X175589769Y-87705217D01*
X175507348Y-87649284D01*
X175457377Y-87626341D01*
X175334958Y-87593194D01*
X175211521Y-87584693D01*
X175086306Y-87600940D01*
X174958550Y-87642039D01*
X174827492Y-87708093D01*
X174819419Y-87712904D01*
X174738172Y-87768406D01*
X174658047Y-87835149D01*
X174584207Y-87907943D01*
X174582926Y-87909454D01*
X174829281Y-88155809D01*
X174849877Y-88138507D01*
X174863942Y-88141058D01*
X174876965Y-88157517D01*
X174890423Y-88176831D01*
X174915911Y-88213089D01*
X174950765Y-88262513D01*
X174992320Y-88321326D01*
X175037914Y-88385750D01*
X175040197Y-88388974D01*
X175183367Y-88591103D01*
X175154686Y-88608696D01*
X175092469Y-88637006D01*
X175022908Y-88653534D01*
X174981774Y-88656029D01*
X174911587Y-88642063D01*
X174847567Y-88607009D01*
X174793501Y-88555068D01*
X174753176Y-88490439D01*
X174730377Y-88417325D01*
X174726677Y-88373065D01*
X174739370Y-88294931D01*
X174776775Y-88219132D01*
X174829281Y-88155809D01*
X174582926Y-87909454D01*
X174521815Y-87981593D01*
X174476034Y-88050910D01*
X174468136Y-88066231D01*
X174435544Y-88148144D01*
X174412504Y-88235496D01*
X174401592Y-88317576D01*
X174401151Y-88344750D01*
X174410942Y-88424415D01*
X174434584Y-88512067D01*
X174468769Y-88596965D01*
X174492424Y-88641212D01*
X174526706Y-88691595D01*
X174570833Y-88746804D01*
X174619456Y-88801026D01*
X174667225Y-88848446D01*
X174708791Y-88883251D01*
X174724623Y-88893575D01*
X174745707Y-88909609D01*
X174747406Y-88920183D01*
X174729765Y-88926108D01*
X174691178Y-88932293D01*
X174636087Y-88938408D01*
X174568940Y-88944121D01*
X174494181Y-88949099D01*
X174416255Y-88953012D01*
X174339609Y-88955530D01*
X174268687Y-88956320D01*
X174262909Y-88956295D01*
X173984742Y-88942571D01*
X173706527Y-88905042D01*
X173431820Y-88844548D01*
X173164177Y-88761929D01*
X172907156Y-88658025D01*
X172816591Y-88614914D01*
X172668799Y-88537094D01*
X172526178Y-88452348D01*
X172382763Y-88356819D01*
X172232586Y-88246653D01*
X172161988Y-88191887D01*
X172167159Y-88197840D01*
X172189291Y-88220765D01*
X172227392Y-88259662D01*
X172280471Y-88313533D01*
X172347537Y-88381379D01*
X172427598Y-88462202D01*
X172519666Y-88555004D01*
X172622746Y-88658785D01*
X172735849Y-88772546D01*
X172857984Y-88895291D01*
X172988159Y-89026018D01*
X173125383Y-89163732D01*
X173268664Y-89307432D01*
X173367525Y-89406529D01*
X174603210Y-90644904D01*
X177142426Y-88105688D01*
G36*
X174727630Y-85842803D02*
X174836769Y-85756504D01*
X174940862Y-85660724D01*
X175034387Y-85561071D01*
X175111825Y-85463152D01*
X175134848Y-85429178D01*
X175173244Y-85368603D01*
X175200359Y-85321377D01*
X175218878Y-85279994D01*
X175231482Y-85236948D01*
X175240857Y-85184731D01*
X175249685Y-85115837D01*
X175251081Y-85104003D01*
X175266659Y-85002521D01*
X175288759Y-84918639D01*
X175320168Y-84844827D01*
X175363677Y-84773560D01*
X175383831Y-84745755D01*
X175451290Y-84670659D01*
X175539751Y-84595171D01*
X175645031Y-84522197D01*
X175762949Y-84454649D01*
X175884721Y-84397368D01*
X175923835Y-84380284D01*
X175951501Y-84367109D01*
X175961657Y-84360755D01*
X175954454Y-84349669D01*
X175934867Y-84321435D01*
X175905342Y-84279532D01*
X175868323Y-84227432D01*
X175837420Y-84184185D01*
X175795469Y-84125392D01*
X175758300Y-84072883D01*
X175728631Y-84030535D01*
X175709183Y-84002221D01*
X175703114Y-83992837D01*
X175684348Y-83981325D01*
X175671359Y-83983573D01*
X175655159Y-83998408D01*
X175653734Y-84007795D01*
X175662099Y-84022892D01*
X175682746Y-84054416D01*
X175712925Y-84098321D01*
X175749882Y-84150562D01*
X175766658Y-84173869D01*
X175815736Y-84243539D01*
X175848240Y-84293964D01*
X175864169Y-84325142D01*
X175864892Y-84336318D01*
X175847777Y-84346552D01*
X175814555Y-84361887D01*
X175779411Y-84376239D01*
X175666306Y-84426591D01*
X175556158Y-84487975D01*
X175454066Y-84556840D01*
X175365130Y-84629642D01*
X175294450Y-84702833D01*
X175276084Y-84726353D01*
X175235151Y-84787389D01*
X175205133Y-84846157D01*
X175182985Y-84910590D01*
X175165663Y-84988621D01*
X175158054Y-85033961D01*
X175130788Y-85165987D01*
X175091130Y-85283224D01*
X175036254Y-85391034D01*
X174963336Y-85494786D01*
X174869553Y-85599843D01*
X174849628Y-85619912D01*
X174796019Y-85671209D01*
X174739277Y-85722302D01*
X174686553Y-85766916D01*
X174648707Y-85796161D01*
X174610024Y-85824092D01*
X174580857Y-85845647D01*
X174566067Y-85857219D01*
X174565160Y-85858209D01*
X174571624Y-85868951D01*
X174587010Y-85892117D01*
X174588205Y-85893874D01*
X174611032Y-85927409D01*
X174727630Y-85842803D01*
X174727630Y-85842803D01*
G37*
X174727630Y-85842803D02*
X174836769Y-85756504D01*
X174940862Y-85660724D01*
X175034387Y-85561071D01*
X175111825Y-85463152D01*
X175134848Y-85429178D01*
X175173244Y-85368603D01*
X175200359Y-85321377D01*
X175218878Y-85279994D01*
X175231482Y-85236948D01*
X175240857Y-85184731D01*
X175249685Y-85115837D01*
X175251081Y-85104003D01*
X175266659Y-85002521D01*
X175288759Y-84918639D01*
X175320168Y-84844827D01*
X175363677Y-84773560D01*
X175383831Y-84745755D01*
X175451290Y-84670659D01*
X175539751Y-84595171D01*
X175645031Y-84522197D01*
X175762949Y-84454649D01*
X175884721Y-84397368D01*
X175923835Y-84380284D01*
X175951501Y-84367109D01*
X175961657Y-84360755D01*
X175954454Y-84349669D01*
X175934867Y-84321435D01*
X175905342Y-84279532D01*
X175868323Y-84227432D01*
X175837420Y-84184185D01*
X175795469Y-84125392D01*
X175758300Y-84072883D01*
X175728631Y-84030535D01*
X175709183Y-84002221D01*
X175703114Y-83992837D01*
X175684348Y-83981325D01*
X175671359Y-83983573D01*
X175655159Y-83998408D01*
X175653734Y-84007795D01*
X175662099Y-84022892D01*
X175682746Y-84054416D01*
X175712925Y-84098321D01*
X175749882Y-84150562D01*
X175766658Y-84173869D01*
X175815736Y-84243539D01*
X175848240Y-84293964D01*
X175864169Y-84325142D01*
X175864892Y-84336318D01*
X175847777Y-84346552D01*
X175814555Y-84361887D01*
X175779411Y-84376239D01*
X175666306Y-84426591D01*
X175556158Y-84487975D01*
X175454066Y-84556840D01*
X175365130Y-84629642D01*
X175294450Y-84702833D01*
X175276084Y-84726353D01*
X175235151Y-84787389D01*
X175205133Y-84846157D01*
X175182985Y-84910590D01*
X175165663Y-84988621D01*
X175158054Y-85033961D01*
X175130788Y-85165987D01*
X175091130Y-85283224D01*
X175036254Y-85391034D01*
X174963336Y-85494786D01*
X174869553Y-85599843D01*
X174849628Y-85619912D01*
X174796019Y-85671209D01*
X174739277Y-85722302D01*
X174686553Y-85766916D01*
X174648707Y-85796161D01*
X174610024Y-85824092D01*
X174580857Y-85845647D01*
X174566067Y-85857219D01*
X174565160Y-85858209D01*
X174571624Y-85868951D01*
X174587010Y-85892117D01*
X174588205Y-85893874D01*
X174611032Y-85927409D01*
X174727630Y-85842803D01*
G36*
X174552607Y-85809463D02*
X174580460Y-85790388D01*
X174619698Y-85762431D01*
X174654217Y-85737284D01*
X174730004Y-85676358D01*
X174806798Y-85605360D01*
X174879299Y-85529889D01*
X174942199Y-85455541D01*
X174990194Y-85387917D01*
X174998634Y-85373786D01*
X175045828Y-85275851D01*
X175084350Y-85165895D01*
X175110021Y-85056545D01*
X175115035Y-85022119D01*
X175124569Y-84963309D01*
X175138276Y-84903520D01*
X175151976Y-84859216D01*
X175203564Y-84756818D01*
X175278774Y-84657940D01*
X175375903Y-84564095D01*
X175493253Y-84476794D01*
X175629125Y-84397546D01*
X175720376Y-84353807D01*
X175762894Y-84333951D01*
X175793757Y-84317645D01*
X175807884Y-84307645D01*
X175808071Y-84306254D01*
X175799010Y-84294160D01*
X175778315Y-84265229D01*
X175748843Y-84223486D01*
X175713447Y-84172958D01*
X175704287Y-84159827D01*
X175667665Y-84108508D01*
X175635682Y-84065972D01*
X175611292Y-84035979D01*
X175597449Y-84022292D01*
X175595962Y-84021863D01*
X175572536Y-84032028D01*
X175533428Y-84053830D01*
X175483595Y-84084093D01*
X175427991Y-84119642D01*
X175371570Y-84157303D01*
X175319289Y-84193901D01*
X175276099Y-84226260D01*
X175272463Y-84229148D01*
X175157279Y-84334515D01*
X175065821Y-84447377D01*
X174998433Y-84567268D01*
X174971702Y-84636193D01*
X174959773Y-84677805D01*
X174945147Y-84736883D01*
X174929594Y-84805890D01*
X174914878Y-84877288D01*
X174913438Y-84884694D01*
X174897831Y-84959035D01*
X174879800Y-85034755D01*
X174861542Y-85103143D01*
X174845255Y-85155489D01*
X174844772Y-85156854D01*
X174825843Y-85206739D01*
X174807078Y-85245226D01*
X174783313Y-85280529D01*
X174749386Y-85320862D01*
X174724568Y-85348120D01*
X174639635Y-85440161D01*
X174607951Y-85402337D01*
X174586287Y-85378816D01*
X174570673Y-85373600D01*
X174551597Y-85384920D01*
X174544627Y-85390577D01*
X174521459Y-85406549D01*
X174506371Y-85403941D01*
X174493407Y-85387915D01*
X174480838Y-85369839D01*
X174455855Y-85334212D01*
X174420701Y-85284222D01*
X174377621Y-85223060D01*
X174328862Y-85153915D01*
X174289645Y-85098356D01*
X174233017Y-85018254D01*
X174189127Y-84956660D01*
X174156082Y-84911317D01*
X174131989Y-84879970D01*
X174114953Y-84860363D01*
X174103083Y-84850241D01*
X174094484Y-84847349D01*
X174087266Y-84849430D01*
X174082922Y-84852054D01*
X174043836Y-84878176D01*
X174004072Y-84906226D01*
X173969128Y-84932133D01*
X173944504Y-84951823D01*
X173935677Y-84961085D01*
X173942725Y-84972781D01*
X173962620Y-85002406D01*
X173993487Y-85047309D01*
X174033450Y-85104838D01*
X174080634Y-85172341D01*
X174133165Y-85247168D01*
X174189167Y-85326667D01*
X174246767Y-85408186D01*
X174304088Y-85489077D01*
X174359255Y-85566684D01*
X174410394Y-85638359D01*
X174455629Y-85701449D01*
X174493088Y-85753304D01*
X174520891Y-85791271D01*
X174537166Y-85812702D01*
X174540638Y-85816519D01*
X174552607Y-85809463D01*
X174552607Y-85809463D01*
G37*
X174552607Y-85809463D02*
X174580460Y-85790388D01*
X174619698Y-85762431D01*
X174654217Y-85737284D01*
X174730004Y-85676358D01*
X174806798Y-85605360D01*
X174879299Y-85529889D01*
X174942199Y-85455541D01*
X174990194Y-85387917D01*
X174998634Y-85373786D01*
X175045828Y-85275851D01*
X175084350Y-85165895D01*
X175110021Y-85056545D01*
X175115035Y-85022119D01*
X175124569Y-84963309D01*
X175138276Y-84903520D01*
X175151976Y-84859216D01*
X175203564Y-84756818D01*
X175278774Y-84657940D01*
X175375903Y-84564095D01*
X175493253Y-84476794D01*
X175629125Y-84397546D01*
X175720376Y-84353807D01*
X175762894Y-84333951D01*
X175793757Y-84317645D01*
X175807884Y-84307645D01*
X175808071Y-84306254D01*
X175799010Y-84294160D01*
X175778315Y-84265229D01*
X175748843Y-84223486D01*
X175713447Y-84172958D01*
X175704287Y-84159827D01*
X175667665Y-84108508D01*
X175635682Y-84065972D01*
X175611292Y-84035979D01*
X175597449Y-84022292D01*
X175595962Y-84021863D01*
X175572536Y-84032028D01*
X175533428Y-84053830D01*
X175483595Y-84084093D01*
X175427991Y-84119642D01*
X175371570Y-84157303D01*
X175319289Y-84193901D01*
X175276099Y-84226260D01*
X175272463Y-84229148D01*
X175157279Y-84334515D01*
X175065821Y-84447377D01*
X174998433Y-84567268D01*
X174971702Y-84636193D01*
X174959773Y-84677805D01*
X174945147Y-84736883D01*
X174929594Y-84805890D01*
X174914878Y-84877288D01*
X174913438Y-84884694D01*
X174897831Y-84959035D01*
X174879800Y-85034755D01*
X174861542Y-85103143D01*
X174845255Y-85155489D01*
X174844772Y-85156854D01*
X174825843Y-85206739D01*
X174807078Y-85245226D01*
X174783313Y-85280529D01*
X174749386Y-85320862D01*
X174724568Y-85348120D01*
X174639635Y-85440161D01*
X174607951Y-85402337D01*
X174586287Y-85378816D01*
X174570673Y-85373600D01*
X174551597Y-85384920D01*
X174544627Y-85390577D01*
X174521459Y-85406549D01*
X174506371Y-85403941D01*
X174493407Y-85387915D01*
X174480838Y-85369839D01*
X174455855Y-85334212D01*
X174420701Y-85284222D01*
X174377621Y-85223060D01*
X174328862Y-85153915D01*
X174289645Y-85098356D01*
X174233017Y-85018254D01*
X174189127Y-84956660D01*
X174156082Y-84911317D01*
X174131989Y-84879970D01*
X174114953Y-84860363D01*
X174103083Y-84850241D01*
X174094484Y-84847349D01*
X174087266Y-84849430D01*
X174082922Y-84852054D01*
X174043836Y-84878176D01*
X174004072Y-84906226D01*
X173969128Y-84932133D01*
X173944504Y-84951823D01*
X173935677Y-84961085D01*
X173942725Y-84972781D01*
X173962620Y-85002406D01*
X173993487Y-85047309D01*
X174033450Y-85104838D01*
X174080634Y-85172341D01*
X174133165Y-85247168D01*
X174189167Y-85326667D01*
X174246767Y-85408186D01*
X174304088Y-85489077D01*
X174359255Y-85566684D01*
X174410394Y-85638359D01*
X174455629Y-85701449D01*
X174493088Y-85753304D01*
X174520891Y-85791271D01*
X174537166Y-85812702D01*
X174540638Y-85816519D01*
X174552607Y-85809463D01*
G36*
X175290380Y-86905031D02*
X175302052Y-86900825D01*
X175320692Y-86891146D01*
X175347583Y-86875125D01*
X175384007Y-86851898D01*
X175431246Y-86820593D01*
X175490583Y-86780348D01*
X175563299Y-86730292D01*
X175650677Y-86669561D01*
X175754000Y-86597286D01*
X175874548Y-86512599D01*
X176013604Y-86414636D01*
X176121714Y-86338352D01*
X176250129Y-86247620D01*
X176372365Y-86161107D01*
X176486856Y-86079931D01*
X176592036Y-86005207D01*
X176686343Y-85938050D01*
X176768209Y-85879581D01*
X176836072Y-85830911D01*
X176888366Y-85793160D01*
X176923525Y-85767443D01*
X176939987Y-85754877D01*
X176941050Y-85753814D01*
X176934103Y-85741859D01*
X176914966Y-85712939D01*
X176886172Y-85670784D01*
X176850257Y-85619124D01*
X176829600Y-85589733D01*
X176789065Y-85532127D01*
X176752389Y-85479752D01*
X176722715Y-85437114D01*
X176703186Y-85408722D01*
X176698624Y-85401911D01*
X176682290Y-85382486D01*
X176668108Y-85383983D01*
X176660402Y-85390741D01*
X176646051Y-85406928D01*
X176643407Y-85412226D01*
X176650857Y-85423052D01*
X176670339Y-85451114D01*
X176699352Y-85492821D01*
X176735395Y-85544575D01*
X176759439Y-85579072D01*
X176873792Y-85743107D01*
X176844681Y-85766454D01*
X176829727Y-85777465D01*
X176795724Y-85801897D01*
X176744380Y-85838536D01*
X176677406Y-85886170D01*
X176596514Y-85943584D01*
X176503413Y-86009566D01*
X176399814Y-86082903D01*
X176287428Y-86162382D01*
X176167964Y-86246789D01*
X176057432Y-86324821D01*
X175933502Y-86412342D01*
X175815432Y-86495847D01*
X175704896Y-86574145D01*
X175603567Y-86646045D01*
X175513119Y-86710356D01*
X175435226Y-86765884D01*
X175371563Y-86811440D01*
X175323805Y-86845831D01*
X175293624Y-86867864D01*
X175282862Y-86876157D01*
X175275959Y-86894641D01*
X175284394Y-86904630D01*
X175290380Y-86905031D01*
X175290380Y-86905031D01*
G37*
X175290380Y-86905031D02*
X175302052Y-86900825D01*
X175320692Y-86891146D01*
X175347583Y-86875125D01*
X175384007Y-86851898D01*
X175431246Y-86820593D01*
X175490583Y-86780348D01*
X175563299Y-86730292D01*
X175650677Y-86669561D01*
X175754000Y-86597286D01*
X175874548Y-86512599D01*
X176013604Y-86414636D01*
X176121714Y-86338352D01*
X176250129Y-86247620D01*
X176372365Y-86161107D01*
X176486856Y-86079931D01*
X176592036Y-86005207D01*
X176686343Y-85938050D01*
X176768209Y-85879581D01*
X176836072Y-85830911D01*
X176888366Y-85793160D01*
X176923525Y-85767443D01*
X176939987Y-85754877D01*
X176941050Y-85753814D01*
X176934103Y-85741859D01*
X176914966Y-85712939D01*
X176886172Y-85670784D01*
X176850257Y-85619124D01*
X176829600Y-85589733D01*
X176789065Y-85532127D01*
X176752389Y-85479752D01*
X176722715Y-85437114D01*
X176703186Y-85408722D01*
X176698624Y-85401911D01*
X176682290Y-85382486D01*
X176668108Y-85383983D01*
X176660402Y-85390741D01*
X176646051Y-85406928D01*
X176643407Y-85412226D01*
X176650857Y-85423052D01*
X176670339Y-85451114D01*
X176699352Y-85492821D01*
X176735395Y-85544575D01*
X176759439Y-85579072D01*
X176873792Y-85743107D01*
X176844681Y-85766454D01*
X176829727Y-85777465D01*
X176795724Y-85801897D01*
X176744380Y-85838536D01*
X176677406Y-85886170D01*
X176596514Y-85943584D01*
X176503413Y-86009566D01*
X176399814Y-86082903D01*
X176287428Y-86162382D01*
X176167964Y-86246789D01*
X176057432Y-86324821D01*
X175933502Y-86412342D01*
X175815432Y-86495847D01*
X175704896Y-86574145D01*
X175603567Y-86646045D01*
X175513119Y-86710356D01*
X175435226Y-86765884D01*
X175371563Y-86811440D01*
X175323805Y-86845831D01*
X175293624Y-86867864D01*
X175282862Y-86876157D01*
X175275959Y-86894641D01*
X175284394Y-86904630D01*
X175290380Y-86905031D01*
G36*
X175242064Y-86840269D02*
X175254639Y-86833131D01*
X175285820Y-86812643D01*
X175333647Y-86780192D01*
X175396162Y-86737167D01*
X175471402Y-86684955D01*
X175557408Y-86624945D01*
X175652220Y-86558524D01*
X175753878Y-86487081D01*
X175860420Y-86412002D01*
X175969888Y-86334678D01*
X176080320Y-86256495D01*
X176189756Y-86178841D01*
X176296236Y-86103105D01*
X176397801Y-86030673D01*
X176492489Y-85962935D01*
X176578341Y-85901278D01*
X176653395Y-85847090D01*
X176715692Y-85801761D01*
X176763273Y-85766676D01*
X176794176Y-85743223D01*
X176806440Y-85732793D01*
X176806568Y-85732502D01*
X176799711Y-85718625D01*
X176781227Y-85689072D01*
X176754467Y-85648682D01*
X176722785Y-85602291D01*
X176689530Y-85554740D01*
X176658054Y-85510865D01*
X176631711Y-85475503D01*
X176613849Y-85453494D01*
X176611716Y-85451244D01*
X176591010Y-85445800D01*
X176572435Y-85452375D01*
X176557810Y-85462398D01*
X176524360Y-85485767D01*
X176473981Y-85521145D01*
X176408573Y-85567193D01*
X176330033Y-85622572D01*
X176240261Y-85685945D01*
X176141153Y-85755972D01*
X176034610Y-85831316D01*
X175932522Y-85903563D01*
X175820845Y-85982586D01*
X175714864Y-86057508D01*
X175616481Y-86126989D01*
X175527593Y-86189691D01*
X175450099Y-86244277D01*
X175385899Y-86289411D01*
X175336891Y-86323752D01*
X175304974Y-86345965D01*
X175292374Y-86354516D01*
X175265268Y-86360608D01*
X175250617Y-86353170D01*
X175230371Y-86345881D01*
X175200955Y-86358903D01*
X175198054Y-86360851D01*
X175162281Y-86385322D01*
X175072131Y-86241611D01*
X175038449Y-86188701D01*
X175009415Y-86144565D01*
X174987711Y-86113174D01*
X174976021Y-86098496D01*
X174975013Y-86097900D01*
X174961736Y-86105331D01*
X174937548Y-86123754D01*
X174930678Y-86129460D01*
X174893316Y-86161019D01*
X174996288Y-86407661D01*
X175041481Y-86513215D01*
X175080531Y-86598213D01*
X175115215Y-86666236D01*
X175147313Y-86720860D01*
X175165072Y-86747285D01*
X175195432Y-86788532D01*
X175221106Y-86820391D01*
X175238182Y-86838142D01*
X175242064Y-86840269D01*
X175242064Y-86840269D01*
G37*
X175242064Y-86840269D02*
X175254639Y-86833131D01*
X175285820Y-86812643D01*
X175333647Y-86780192D01*
X175396162Y-86737167D01*
X175471402Y-86684955D01*
X175557408Y-86624945D01*
X175652220Y-86558524D01*
X175753878Y-86487081D01*
X175860420Y-86412002D01*
X175969888Y-86334678D01*
X176080320Y-86256495D01*
X176189756Y-86178841D01*
X176296236Y-86103105D01*
X176397801Y-86030673D01*
X176492489Y-85962935D01*
X176578341Y-85901278D01*
X176653395Y-85847090D01*
X176715692Y-85801761D01*
X176763273Y-85766676D01*
X176794176Y-85743223D01*
X176806440Y-85732793D01*
X176806568Y-85732502D01*
X176799711Y-85718625D01*
X176781227Y-85689072D01*
X176754467Y-85648682D01*
X176722785Y-85602291D01*
X176689530Y-85554740D01*
X176658054Y-85510865D01*
X176631711Y-85475503D01*
X176613849Y-85453494D01*
X176611716Y-85451244D01*
X176591010Y-85445800D01*
X176572435Y-85452375D01*
X176557810Y-85462398D01*
X176524360Y-85485767D01*
X176473981Y-85521145D01*
X176408573Y-85567193D01*
X176330033Y-85622572D01*
X176240261Y-85685945D01*
X176141153Y-85755972D01*
X176034610Y-85831316D01*
X175932522Y-85903563D01*
X175820845Y-85982586D01*
X175714864Y-86057508D01*
X175616481Y-86126989D01*
X175527593Y-86189691D01*
X175450099Y-86244277D01*
X175385899Y-86289411D01*
X175336891Y-86323752D01*
X175304974Y-86345965D01*
X175292374Y-86354516D01*
X175265268Y-86360608D01*
X175250617Y-86353170D01*
X175230371Y-86345881D01*
X175200955Y-86358903D01*
X175198054Y-86360851D01*
X175162281Y-86385322D01*
X175072131Y-86241611D01*
X175038449Y-86188701D01*
X175009415Y-86144565D01*
X174987711Y-86113174D01*
X174976021Y-86098496D01*
X174975013Y-86097900D01*
X174961736Y-86105331D01*
X174937548Y-86123754D01*
X174930678Y-86129460D01*
X174893316Y-86161019D01*
X174996288Y-86407661D01*
X175041481Y-86513215D01*
X175080531Y-86598213D01*
X175115215Y-86666236D01*
X175147313Y-86720860D01*
X175165072Y-86747285D01*
X175195432Y-86788532D01*
X175221106Y-86820391D01*
X175238182Y-86838142D01*
X175242064Y-86840269D01*
G36*
X176154731Y-88071889D02*
X176183906Y-88051323D01*
X176223637Y-88021206D01*
X176269556Y-87985028D01*
X176317299Y-87946277D01*
X176362498Y-87908440D01*
X176400786Y-87875005D01*
X176425724Y-87851566D01*
X176519178Y-87746340D01*
X176593185Y-87636328D01*
X176650004Y-87516857D01*
X176691893Y-87383254D01*
X176719065Y-87244635D01*
X176738753Y-87153184D01*
X176770042Y-87072926D01*
X176816653Y-86996367D01*
X176882214Y-86916116D01*
X176969315Y-86829916D01*
X177067409Y-86753765D01*
X177181790Y-86683900D01*
X177277378Y-86635295D01*
X177327227Y-86610880D01*
X177367195Y-86589937D01*
X177392525Y-86575044D01*
X177399063Y-86569309D01*
X177392141Y-86556478D01*
X177373182Y-86527029D01*
X177344888Y-86485033D01*
X177309963Y-86434555D01*
X177300867Y-86421592D01*
X177202671Y-86282016D01*
X177172717Y-86295468D01*
X177083887Y-86341569D01*
X176988857Y-86401494D01*
X176894829Y-86469933D01*
X176809004Y-86541577D01*
X176738586Y-86611119D01*
X176727623Y-86623562D01*
X176673235Y-86692793D01*
X176629027Y-86763482D01*
X176592761Y-86840858D01*
X176562199Y-86930146D01*
X176535105Y-87036572D01*
X176520078Y-87108304D01*
X176503394Y-87187783D01*
X176484985Y-87267062D01*
X176466608Y-87339112D01*
X176450011Y-87396909D01*
X176442534Y-87419364D01*
X176423753Y-87468630D01*
X176405883Y-87505389D01*
X176383629Y-87537783D01*
X176351696Y-87573955D01*
X176322224Y-87604382D01*
X176237617Y-87690400D01*
X176203935Y-87656717D01*
X176180706Y-87635834D01*
X176164566Y-87633092D01*
X176145415Y-87647936D01*
X176140099Y-87653201D01*
X176118522Y-87671895D01*
X176105169Y-87671878D01*
X176094634Y-87658267D01*
X176080345Y-87636541D01*
X176054534Y-87598935D01*
X176019691Y-87548947D01*
X175978302Y-87490075D01*
X175932857Y-87425815D01*
X175885845Y-87359665D01*
X175839753Y-87295121D01*
X175797068Y-87235681D01*
X175760281Y-87184842D01*
X175731879Y-87146101D01*
X175714350Y-87122956D01*
X175710492Y-87118374D01*
X175698457Y-87111764D01*
X175681030Y-87115210D01*
X175653308Y-87130716D01*
X175613742Y-87157889D01*
X175575997Y-87185494D01*
X175547937Y-87207390D01*
X175534615Y-87219595D01*
X175534163Y-87220554D01*
X175541199Y-87231938D01*
X175561065Y-87261300D01*
X175591891Y-87305995D01*
X175631809Y-87363376D01*
X175678951Y-87430797D01*
X175731449Y-87505611D01*
X175787434Y-87585173D01*
X175845039Y-87666835D01*
X175902395Y-87747953D01*
X175957634Y-87825878D01*
X176008888Y-87897965D01*
X176054288Y-87961567D01*
X176091967Y-88014038D01*
X176120056Y-88052733D01*
X176136688Y-88075003D01*
X176140479Y-88079419D01*
X176154731Y-88071889D01*
X176154731Y-88071889D01*
G37*
X176154731Y-88071889D02*
X176183906Y-88051323D01*
X176223637Y-88021206D01*
X176269556Y-87985028D01*
X176317299Y-87946277D01*
X176362498Y-87908440D01*
X176400786Y-87875005D01*
X176425724Y-87851566D01*
X176519178Y-87746340D01*
X176593185Y-87636328D01*
X176650004Y-87516857D01*
X176691893Y-87383254D01*
X176719065Y-87244635D01*
X176738753Y-87153184D01*
X176770042Y-87072926D01*
X176816653Y-86996367D01*
X176882214Y-86916116D01*
X176969315Y-86829916D01*
X177067409Y-86753765D01*
X177181790Y-86683900D01*
X177277378Y-86635295D01*
X177327227Y-86610880D01*
X177367195Y-86589937D01*
X177392525Y-86575044D01*
X177399063Y-86569309D01*
X177392141Y-86556478D01*
X177373182Y-86527029D01*
X177344888Y-86485033D01*
X177309963Y-86434555D01*
X177300867Y-86421592D01*
X177202671Y-86282016D01*
X177172717Y-86295468D01*
X177083887Y-86341569D01*
X176988857Y-86401494D01*
X176894829Y-86469933D01*
X176809004Y-86541577D01*
X176738586Y-86611119D01*
X176727623Y-86623562D01*
X176673235Y-86692793D01*
X176629027Y-86763482D01*
X176592761Y-86840858D01*
X176562199Y-86930146D01*
X176535105Y-87036572D01*
X176520078Y-87108304D01*
X176503394Y-87187783D01*
X176484985Y-87267062D01*
X176466608Y-87339112D01*
X176450011Y-87396909D01*
X176442534Y-87419364D01*
X176423753Y-87468630D01*
X176405883Y-87505389D01*
X176383629Y-87537783D01*
X176351696Y-87573955D01*
X176322224Y-87604382D01*
X176237617Y-87690400D01*
X176203935Y-87656717D01*
X176180706Y-87635834D01*
X176164566Y-87633092D01*
X176145415Y-87647936D01*
X176140099Y-87653201D01*
X176118522Y-87671895D01*
X176105169Y-87671878D01*
X176094634Y-87658267D01*
X176080345Y-87636541D01*
X176054534Y-87598935D01*
X176019691Y-87548947D01*
X175978302Y-87490075D01*
X175932857Y-87425815D01*
X175885845Y-87359665D01*
X175839753Y-87295121D01*
X175797068Y-87235681D01*
X175760281Y-87184842D01*
X175731879Y-87146101D01*
X175714350Y-87122956D01*
X175710492Y-87118374D01*
X175698457Y-87111764D01*
X175681030Y-87115210D01*
X175653308Y-87130716D01*
X175613742Y-87157889D01*
X175575997Y-87185494D01*
X175547937Y-87207390D01*
X175534615Y-87219595D01*
X175534163Y-87220554D01*
X175541199Y-87231938D01*
X175561065Y-87261300D01*
X175591891Y-87305995D01*
X175631809Y-87363376D01*
X175678951Y-87430797D01*
X175731449Y-87505611D01*
X175787434Y-87585173D01*
X175845039Y-87666835D01*
X175902395Y-87747953D01*
X175957634Y-87825878D01*
X176008888Y-87897965D01*
X176054288Y-87961567D01*
X176091967Y-88014038D01*
X176120056Y-88052733D01*
X176136688Y-88075003D01*
X176140479Y-88079419D01*
X176154731Y-88071889D01*
G36*
X174536276Y-85341620D02*
X174537417Y-85340504D01*
X174541409Y-85333444D01*
X174540555Y-85322439D01*
X174533357Y-85305002D01*
X174518313Y-85278647D01*
X174493924Y-85240887D01*
X174458692Y-85189236D01*
X174411115Y-85121209D01*
X174370170Y-85063229D01*
X174319556Y-84991821D01*
X174273788Y-84927450D01*
X174234904Y-84872969D01*
X174204946Y-84831231D01*
X174185951Y-84805089D01*
X174180012Y-84797313D01*
X174164928Y-84796663D01*
X174156271Y-84799630D01*
X174150234Y-84802234D01*
X174146523Y-84805655D01*
X174146608Y-84812271D01*
X174151954Y-84824461D01*
X174164032Y-84844602D01*
X174184305Y-84875075D01*
X174214246Y-84918256D01*
X174255318Y-84976525D01*
X174308992Y-85052262D01*
X174333334Y-85086594D01*
X174380727Y-85153602D01*
X174423822Y-85214835D01*
X174460193Y-85266820D01*
X174487414Y-85306086D01*
X174503058Y-85329161D01*
X174505121Y-85332389D01*
X174520352Y-85348467D01*
X174536276Y-85341620D01*
X174536276Y-85341620D01*
G37*
X174536276Y-85341620D02*
X174537417Y-85340504D01*
X174541409Y-85333444D01*
X174540555Y-85322439D01*
X174533357Y-85305002D01*
X174518313Y-85278647D01*
X174493924Y-85240887D01*
X174458692Y-85189236D01*
X174411115Y-85121209D01*
X174370170Y-85063229D01*
X174319556Y-84991821D01*
X174273788Y-84927450D01*
X174234904Y-84872969D01*
X174204946Y-84831231D01*
X174185951Y-84805089D01*
X174180012Y-84797313D01*
X174164928Y-84796663D01*
X174156271Y-84799630D01*
X174150234Y-84802234D01*
X174146523Y-84805655D01*
X174146608Y-84812271D01*
X174151954Y-84824461D01*
X174164032Y-84844602D01*
X174184305Y-84875075D01*
X174214246Y-84918256D01*
X174255318Y-84976525D01*
X174308992Y-85052262D01*
X174333334Y-85086594D01*
X174380727Y-85153602D01*
X174423822Y-85214835D01*
X174460193Y-85266820D01*
X174487414Y-85306086D01*
X174503058Y-85329161D01*
X174505121Y-85332389D01*
X174520352Y-85348467D01*
X174536276Y-85341620D01*
G36*
X175187179Y-86311032D02*
X175205125Y-86305459D01*
X175207880Y-86299953D01*
X175201529Y-86285172D01*
X175184722Y-86254601D01*
X175160830Y-86213758D01*
X175133221Y-86168162D01*
X175105268Y-86123330D01*
X175080338Y-86084781D01*
X175061802Y-86058033D01*
X175055264Y-86050054D01*
X175038357Y-86046943D01*
X175029495Y-86055075D01*
X175030286Y-86073688D01*
X175043239Y-86106983D01*
X175065008Y-86149526D01*
X175092245Y-86195881D01*
X175121601Y-86240617D01*
X175149730Y-86278299D01*
X175173285Y-86303494D01*
X175187179Y-86311032D01*
X175187179Y-86311032D01*
G37*
X175187179Y-86311032D02*
X175205125Y-86305459D01*
X175207880Y-86299953D01*
X175201529Y-86285172D01*
X175184722Y-86254601D01*
X175160830Y-86213758D01*
X175133221Y-86168162D01*
X175105268Y-86123330D01*
X175080338Y-86084781D01*
X175061802Y-86058033D01*
X175055264Y-86050054D01*
X175038357Y-86046943D01*
X175029495Y-86055075D01*
X175030286Y-86073688D01*
X175043239Y-86106983D01*
X175065008Y-86149526D01*
X175092245Y-86195881D01*
X175121601Y-86240617D01*
X175149730Y-86278299D01*
X175173285Y-86303494D01*
X175187179Y-86311032D01*
G36*
X176127961Y-87610988D02*
X176134173Y-87605258D01*
X176138823Y-87600320D01*
X176141044Y-87594556D01*
X176139310Y-87585480D01*
X176132089Y-87570604D01*
X176117853Y-87547441D01*
X176095072Y-87513506D01*
X176062218Y-87466311D01*
X176017762Y-87403369D01*
X175960173Y-87322194D01*
X175959788Y-87321651D01*
X175912426Y-87254760D01*
X175869420Y-87193736D01*
X175833182Y-87142024D01*
X175806125Y-87103070D01*
X175790663Y-87080325D01*
X175788644Y-87077171D01*
X175770379Y-87059713D01*
X175757383Y-87057241D01*
X175742037Y-87066519D01*
X175740708Y-87070449D01*
X175747612Y-87081924D01*
X175766765Y-87110816D01*
X175795830Y-87153752D01*
X175832469Y-87207354D01*
X175874343Y-87268248D01*
X175919115Y-87333057D01*
X175964449Y-87398407D01*
X176008005Y-87460921D01*
X176047446Y-87517224D01*
X176080435Y-87563940D01*
X176104633Y-87597694D01*
X176117704Y-87615109D01*
X176118693Y-87616248D01*
X176127961Y-87610988D01*
X176127961Y-87610988D01*
G37*
X176127961Y-87610988D02*
X176134173Y-87605258D01*
X176138823Y-87600320D01*
X176141044Y-87594556D01*
X176139310Y-87585480D01*
X176132089Y-87570604D01*
X176117853Y-87547441D01*
X176095072Y-87513506D01*
X176062218Y-87466311D01*
X176017762Y-87403369D01*
X175960173Y-87322194D01*
X175959788Y-87321651D01*
X175912426Y-87254760D01*
X175869420Y-87193736D01*
X175833182Y-87142024D01*
X175806125Y-87103070D01*
X175790663Y-87080325D01*
X175788644Y-87077171D01*
X175770379Y-87059713D01*
X175757383Y-87057241D01*
X175742037Y-87066519D01*
X175740708Y-87070449D01*
X175747612Y-87081924D01*
X175766765Y-87110816D01*
X175795830Y-87153752D01*
X175832469Y-87207354D01*
X175874343Y-87268248D01*
X175919115Y-87333057D01*
X175964449Y-87398407D01*
X176008005Y-87460921D01*
X176047446Y-87517224D01*
X176080435Y-87563940D01*
X176104633Y-87597694D01*
X176117704Y-87615109D01*
X176118693Y-87616248D01*
X176127961Y-87610988D01*
G36*
X173097558Y-86561744D02*
X173189519Y-86603655D01*
X173215040Y-86610964D01*
X173250960Y-86619245D01*
X173283308Y-86624018D01*
X173314584Y-86624119D01*
X173347283Y-86618378D01*
X173383907Y-86605628D01*
X173426953Y-86584702D01*
X173478919Y-86554431D01*
X173542305Y-86513649D01*
X173619608Y-86461187D01*
X173713329Y-86395878D01*
X173788495Y-86342982D01*
X173875927Y-86281594D01*
X173959232Y-86223582D01*
X174035522Y-86170921D01*
X174101908Y-86125587D01*
X174155506Y-86089552D01*
X174193428Y-86064791D01*
X174209724Y-86054874D01*
X174270545Y-86016649D01*
X174309251Y-85980138D01*
X174328447Y-85941244D01*
X174330744Y-85895869D01*
X174326717Y-85871090D01*
X174309817Y-85832814D01*
X174278242Y-85790308D01*
X174239448Y-85751708D01*
X174200891Y-85725151D01*
X174188289Y-85720039D01*
X174153265Y-85717359D01*
X174108510Y-85723599D01*
X174065431Y-85736241D01*
X174035435Y-85752761D01*
X174033986Y-85754133D01*
X174017975Y-85764010D01*
X174011814Y-85751432D01*
X174015417Y-85715980D01*
X174020759Y-85689964D01*
X174031802Y-85587009D01*
X174018253Y-85483948D01*
X173979912Y-85380118D01*
X173916576Y-85274863D01*
X173879371Y-85226248D01*
X173844496Y-85189824D01*
X173804717Y-85156720D01*
X173797228Y-85151545D01*
X173711945Y-85109651D01*
X173621631Y-85091672D01*
X173528540Y-85097188D01*
X173434922Y-85125781D01*
X173343026Y-85177030D01*
X173255103Y-85250514D01*
X173252515Y-85253094D01*
X173247543Y-85258860D01*
X173489608Y-85500924D01*
X173541254Y-85464362D01*
X173597713Y-85445575D01*
X173651272Y-85447067D01*
X173653657Y-85447697D01*
X173691528Y-85467742D01*
X173733282Y-85504640D01*
X173773102Y-85551767D01*
X173805177Y-85602498D01*
X173820162Y-85637387D01*
X173833469Y-85710296D01*
X173829641Y-85785512D01*
X173809286Y-85852232D01*
X173807899Y-85855045D01*
X173787314Y-85884525D01*
X173752700Y-85923339D01*
X173710240Y-85965601D01*
X173666117Y-86005417D01*
X173626514Y-86036896D01*
X173599894Y-86053210D01*
X173587261Y-86055981D01*
X173577654Y-86047624D01*
X173567800Y-86023249D01*
X173557998Y-85990514D01*
X173542745Y-85943085D01*
X173521410Y-85884111D01*
X173498240Y-85825254D01*
X173494909Y-85817255D01*
X173461747Y-85731823D01*
X173442364Y-85663862D01*
X173436698Y-85609546D01*
X173444684Y-85565049D01*
X173466256Y-85526547D01*
X173489608Y-85500924D01*
X173247543Y-85258860D01*
X173199844Y-85314172D01*
X173163491Y-85377297D01*
X173143530Y-85444997D01*
X173140042Y-85519802D01*
X173153102Y-85604237D01*
X173182790Y-85700835D01*
X173229181Y-85812121D01*
X173272423Y-85901678D01*
X173304382Y-85965609D01*
X173333019Y-86023900D01*
X173355995Y-86071716D01*
X173370973Y-86104221D01*
X173374795Y-86113389D01*
X173379914Y-86159412D01*
X173360933Y-86201705D01*
X173319121Y-86237741D01*
X173309526Y-86243229D01*
X173260252Y-86263024D01*
X173216466Y-86263589D01*
X173172801Y-86243689D01*
X173123889Y-86202090D01*
X173121856Y-86200065D01*
X173059471Y-86125672D01*
X173021545Y-86051031D01*
X173007189Y-85974227D01*
X173007257Y-85952472D01*
X173010819Y-85866863D01*
X173013049Y-85802830D01*
X173013536Y-85756567D01*
X173011869Y-85724263D01*
X173007636Y-85702114D01*
X173000426Y-85686310D01*
X172989829Y-85673045D01*
X172975526Y-85658604D01*
X172925941Y-85625363D01*
X172870034Y-85614992D01*
X172813579Y-85628029D01*
X172790004Y-85641352D01*
X172740251Y-85690135D01*
X172706614Y-85755121D01*
X172688919Y-85833024D01*
X172686994Y-85920557D01*
X172700664Y-86014436D01*
X172729757Y-86111374D01*
X172774098Y-86208085D01*
X172824128Y-86288333D01*
X172915268Y-86404418D01*
X173006276Y-86495443D01*
X173097558Y-86561744D01*
X173097558Y-86561744D01*
G37*
X173097558Y-86561744D02*
X173189519Y-86603655D01*
X173215040Y-86610964D01*
X173250960Y-86619245D01*
X173283308Y-86624018D01*
X173314584Y-86624119D01*
X173347283Y-86618378D01*
X173383907Y-86605628D01*
X173426953Y-86584702D01*
X173478919Y-86554431D01*
X173542305Y-86513649D01*
X173619608Y-86461187D01*
X173713329Y-86395878D01*
X173788495Y-86342982D01*
X173875927Y-86281594D01*
X173959232Y-86223582D01*
X174035522Y-86170921D01*
X174101908Y-86125587D01*
X174155506Y-86089552D01*
X174193428Y-86064791D01*
X174209724Y-86054874D01*
X174270545Y-86016649D01*
X174309251Y-85980138D01*
X174328447Y-85941244D01*
X174330744Y-85895869D01*
X174326717Y-85871090D01*
X174309817Y-85832814D01*
X174278242Y-85790308D01*
X174239448Y-85751708D01*
X174200891Y-85725151D01*
X174188289Y-85720039D01*
X174153265Y-85717359D01*
X174108510Y-85723599D01*
X174065431Y-85736241D01*
X174035435Y-85752761D01*
X174033986Y-85754133D01*
X174017975Y-85764010D01*
X174011814Y-85751432D01*
X174015417Y-85715980D01*
X174020759Y-85689964D01*
X174031802Y-85587009D01*
X174018253Y-85483948D01*
X173979912Y-85380118D01*
X173916576Y-85274863D01*
X173879371Y-85226248D01*
X173844496Y-85189824D01*
X173804717Y-85156720D01*
X173797228Y-85151545D01*
X173711945Y-85109651D01*
X173621631Y-85091672D01*
X173528540Y-85097188D01*
X173434922Y-85125781D01*
X173343026Y-85177030D01*
X173255103Y-85250514D01*
X173252515Y-85253094D01*
X173247543Y-85258860D01*
X173489608Y-85500924D01*
X173541254Y-85464362D01*
X173597713Y-85445575D01*
X173651272Y-85447067D01*
X173653657Y-85447697D01*
X173691528Y-85467742D01*
X173733282Y-85504640D01*
X173773102Y-85551767D01*
X173805177Y-85602498D01*
X173820162Y-85637387D01*
X173833469Y-85710296D01*
X173829641Y-85785512D01*
X173809286Y-85852232D01*
X173807899Y-85855045D01*
X173787314Y-85884525D01*
X173752700Y-85923339D01*
X173710240Y-85965601D01*
X173666117Y-86005417D01*
X173626514Y-86036896D01*
X173599894Y-86053210D01*
X173587261Y-86055981D01*
X173577654Y-86047624D01*
X173567800Y-86023249D01*
X173557998Y-85990514D01*
X173542745Y-85943085D01*
X173521410Y-85884111D01*
X173498240Y-85825254D01*
X173494909Y-85817255D01*
X173461747Y-85731823D01*
X173442364Y-85663862D01*
X173436698Y-85609546D01*
X173444684Y-85565049D01*
X173466256Y-85526547D01*
X173489608Y-85500924D01*
X173247543Y-85258860D01*
X173199844Y-85314172D01*
X173163491Y-85377297D01*
X173143530Y-85444997D01*
X173140042Y-85519802D01*
X173153102Y-85604237D01*
X173182790Y-85700835D01*
X173229181Y-85812121D01*
X173272423Y-85901678D01*
X173304382Y-85965609D01*
X173333019Y-86023900D01*
X173355995Y-86071716D01*
X173370973Y-86104221D01*
X173374795Y-86113389D01*
X173379914Y-86159412D01*
X173360933Y-86201705D01*
X173319121Y-86237741D01*
X173309526Y-86243229D01*
X173260252Y-86263024D01*
X173216466Y-86263589D01*
X173172801Y-86243689D01*
X173123889Y-86202090D01*
X173121856Y-86200065D01*
X173059471Y-86125672D01*
X173021545Y-86051031D01*
X173007189Y-85974227D01*
X173007257Y-85952472D01*
X173010819Y-85866863D01*
X173013049Y-85802830D01*
X173013536Y-85756567D01*
X173011869Y-85724263D01*
X173007636Y-85702114D01*
X173000426Y-85686310D01*
X172989829Y-85673045D01*
X172975526Y-85658604D01*
X172925941Y-85625363D01*
X172870034Y-85614992D01*
X172813579Y-85628029D01*
X172790004Y-85641352D01*
X172740251Y-85690135D01*
X172706614Y-85755121D01*
X172688919Y-85833024D01*
X172686994Y-85920557D01*
X172700664Y-86014436D01*
X172729757Y-86111374D01*
X172774098Y-86208085D01*
X172824128Y-86288333D01*
X172915268Y-86404418D01*
X173006276Y-86495443D01*
X173097558Y-86561744D01*
G36*
X173137762Y-87520467D02*
X173188031Y-87542668D01*
X173242978Y-87546670D01*
X173277227Y-87538461D01*
X173298469Y-87527148D01*
X173337370Y-87502959D01*
X173390979Y-87467865D01*
X173456347Y-87423837D01*
X173530525Y-87372848D01*
X173610562Y-87316868D01*
X173641813Y-87294759D01*
X173738223Y-87226337D01*
X173815909Y-87171322D01*
X173876879Y-87128449D01*
X173923142Y-87096457D01*
X173956707Y-87074079D01*
X173979585Y-87060051D01*
X173993785Y-87053113D01*
X174001316Y-87051996D01*
X174004187Y-87055440D01*
X174004407Y-87062178D01*
X174004126Y-87066862D01*
X174000953Y-87085483D01*
X173992740Y-87124999D01*
X173980335Y-87181596D01*
X173964578Y-87251462D01*
X173946315Y-87330781D01*
X173935578Y-87376750D01*
X173916448Y-87460913D01*
X173899870Y-87538995D01*
X173886628Y-87606877D01*
X173877502Y-87660440D01*
X173873275Y-87695567D01*
X173873258Y-87705071D01*
X173890696Y-87753889D01*
X173926474Y-87795997D01*
X173973963Y-87827057D01*
X174026533Y-87842728D01*
X174077419Y-87838716D01*
X174105645Y-87828121D01*
X174128218Y-87814193D01*
X174146747Y-87793551D01*
X174162845Y-87762815D01*
X174178119Y-87718606D01*
X174194181Y-87657545D01*
X174212642Y-87576249D01*
X174221088Y-87537168D01*
X174236757Y-87465839D01*
X174248994Y-87415710D01*
X174259151Y-87383039D01*
X174268585Y-87364081D01*
X174278647Y-87355092D01*
X174287841Y-87352589D01*
X174307515Y-87350607D01*
X174348904Y-87346697D01*
X174408422Y-87341189D01*
X174482484Y-87334414D01*
X174567505Y-87326700D01*
X174659900Y-87318377D01*
X174663360Y-87318066D01*
X174767598Y-87308035D01*
X174860461Y-87297764D01*
X174938942Y-87287663D01*
X175000036Y-87278142D01*
X175040737Y-87269608D01*
X175054796Y-87264803D01*
X175104014Y-87227378D01*
X175134445Y-87177382D01*
X175145517Y-87119950D01*
X175136651Y-87060221D01*
X175107273Y-87003329D01*
X175086777Y-86979593D01*
X175062127Y-86958186D01*
X175034499Y-86942287D01*
X175000633Y-86931645D01*
X174957276Y-86926007D01*
X174901167Y-86925123D01*
X174829052Y-86928740D01*
X174737674Y-86936605D01*
X174648935Y-86945743D01*
X174564534Y-86954571D01*
X174488856Y-86962023D01*
X174425449Y-86967788D01*
X174377862Y-86971555D01*
X174349647Y-86973011D01*
X174343368Y-86972564D01*
X174343558Y-86958555D01*
X174348879Y-86926152D01*
X174358254Y-86881595D01*
X174361453Y-86867815D01*
X174384971Y-86768499D01*
X174506179Y-86684762D01*
X174557924Y-86647415D01*
X174604511Y-86610901D01*
X174640225Y-86579868D01*
X174657328Y-86561849D01*
X174681237Y-86512974D01*
X174689554Y-86456141D01*
X174683814Y-86415422D01*
X174668831Y-86386584D01*
X174642654Y-86350616D01*
X174613035Y-86317299D01*
X174591104Y-86298476D01*
X174553065Y-86285552D01*
X174504005Y-86284637D01*
X174455129Y-86295446D01*
X174439376Y-86302338D01*
X174422585Y-86312963D01*
X174386964Y-86336968D01*
X174334398Y-86373040D01*
X174266774Y-86419865D01*
X174185978Y-86476127D01*
X174093899Y-86540513D01*
X173992420Y-86611710D01*
X173883430Y-86688400D01*
X173768814Y-86769273D01*
X173751342Y-86781621D01*
X173601716Y-86887625D01*
X173472312Y-86979832D01*
X173362394Y-87058784D01*
X173271221Y-87125027D01*
X173198053Y-87179106D01*
X173142152Y-87221563D01*
X173102777Y-87252943D01*
X173079190Y-87273791D01*
X173072283Y-87281507D01*
X173049579Y-87332546D01*
X173048081Y-87386105D01*
X173064482Y-87438041D01*
X173095478Y-87484210D01*
X173137762Y-87520467D01*
X173137762Y-87520467D01*
G37*
X173137762Y-87520467D02*
X173188031Y-87542668D01*
X173242978Y-87546670D01*
X173277227Y-87538461D01*
X173298469Y-87527148D01*
X173337370Y-87502959D01*
X173390979Y-87467865D01*
X173456347Y-87423837D01*
X173530525Y-87372848D01*
X173610562Y-87316868D01*
X173641813Y-87294759D01*
X173738223Y-87226337D01*
X173815909Y-87171322D01*
X173876879Y-87128449D01*
X173923142Y-87096457D01*
X173956707Y-87074079D01*
X173979585Y-87060051D01*
X173993785Y-87053113D01*
X174001316Y-87051996D01*
X174004187Y-87055440D01*
X174004407Y-87062178D01*
X174004126Y-87066862D01*
X174000953Y-87085483D01*
X173992740Y-87124999D01*
X173980335Y-87181596D01*
X173964578Y-87251462D01*
X173946315Y-87330781D01*
X173935578Y-87376750D01*
X173916448Y-87460913D01*
X173899870Y-87538995D01*
X173886628Y-87606877D01*
X173877502Y-87660440D01*
X173873275Y-87695567D01*
X173873258Y-87705071D01*
X173890696Y-87753889D01*
X173926474Y-87795997D01*
X173973963Y-87827057D01*
X174026533Y-87842728D01*
X174077419Y-87838716D01*
X174105645Y-87828121D01*
X174128218Y-87814193D01*
X174146747Y-87793551D01*
X174162845Y-87762815D01*
X174178119Y-87718606D01*
X174194181Y-87657545D01*
X174212642Y-87576249D01*
X174221088Y-87537168D01*
X174236757Y-87465839D01*
X174248994Y-87415710D01*
X174259151Y-87383039D01*
X174268585Y-87364081D01*
X174278647Y-87355092D01*
X174287841Y-87352589D01*
X174307515Y-87350607D01*
X174348904Y-87346697D01*
X174408422Y-87341189D01*
X174482484Y-87334414D01*
X174567505Y-87326700D01*
X174659900Y-87318377D01*
X174663360Y-87318066D01*
X174767598Y-87308035D01*
X174860461Y-87297764D01*
X174938942Y-87287663D01*
X175000036Y-87278142D01*
X175040737Y-87269608D01*
X175054796Y-87264803D01*
X175104014Y-87227378D01*
X175134445Y-87177382D01*
X175145517Y-87119950D01*
X175136651Y-87060221D01*
X175107273Y-87003329D01*
X175086777Y-86979593D01*
X175062127Y-86958186D01*
X175034499Y-86942287D01*
X175000633Y-86931645D01*
X174957276Y-86926007D01*
X174901167Y-86925123D01*
X174829052Y-86928740D01*
X174737674Y-86936605D01*
X174648935Y-86945743D01*
X174564534Y-86954571D01*
X174488856Y-86962023D01*
X174425449Y-86967788D01*
X174377862Y-86971555D01*
X174349647Y-86973011D01*
X174343368Y-86972564D01*
X174343558Y-86958555D01*
X174348879Y-86926152D01*
X174358254Y-86881595D01*
X174361453Y-86867815D01*
X174384971Y-86768499D01*
X174506179Y-86684762D01*
X174557924Y-86647415D01*
X174604511Y-86610901D01*
X174640225Y-86579868D01*
X174657328Y-86561849D01*
X174681237Y-86512974D01*
X174689554Y-86456141D01*
X174683814Y-86415422D01*
X174668831Y-86386584D01*
X174642654Y-86350616D01*
X174613035Y-86317299D01*
X174591104Y-86298476D01*
X174553065Y-86285552D01*
X174504005Y-86284637D01*
X174455129Y-86295446D01*
X174439376Y-86302338D01*
X174422585Y-86312963D01*
X174386964Y-86336968D01*
X174334398Y-86373040D01*
X174266774Y-86419865D01*
X174185978Y-86476127D01*
X174093899Y-86540513D01*
X173992420Y-86611710D01*
X173883430Y-86688400D01*
X173768814Y-86769273D01*
X173751342Y-86781621D01*
X173601716Y-86887625D01*
X173472312Y-86979832D01*
X173362394Y-87058784D01*
X173271221Y-87125027D01*
X173198053Y-87179106D01*
X173142152Y-87221563D01*
X173102777Y-87252943D01*
X173079190Y-87273791D01*
X173072283Y-87281507D01*
X173049579Y-87332546D01*
X173048081Y-87386105D01*
X173064482Y-87438041D01*
X173095478Y-87484210D01*
X173137762Y-87520467D01*
G36*
X160991123Y-79727659D02*
X161415839Y-79877600D01*
X161843549Y-79889460D01*
X161970775Y-79862287D01*
X162294275Y-79726724D01*
X162603708Y-79498112D01*
X162909768Y-79162538D01*
X163223149Y-78706086D01*
X163554546Y-78114843D01*
X163914651Y-77374895D01*
X163962245Y-77271189D01*
X164127491Y-76919201D01*
X164271085Y-76632090D01*
X164377178Y-76440315D01*
X164428909Y-76374175D01*
X164489325Y-76445433D01*
X164594800Y-76633100D01*
X164723512Y-76898021D01*
X164735500Y-76924336D01*
X164905860Y-77251330D01*
X165101823Y-77556124D01*
X165260698Y-77750435D01*
X165464995Y-77926505D01*
X165661792Y-78003276D01*
X165937986Y-78014626D01*
X165938325Y-78014616D01*
X166225030Y-78032144D01*
X166470911Y-78090126D01*
X166536785Y-78120673D01*
X166762110Y-78192986D01*
X167032696Y-78201019D01*
X167268460Y-78147550D01*
X167354901Y-78092307D01*
X167473299Y-78072164D01*
X167541622Y-78115124D01*
X167793605Y-78259731D01*
X168120274Y-78307515D01*
X168453714Y-78252960D01*
X168577480Y-78199262D01*
X168923191Y-77924598D01*
X169141005Y-77552961D01*
X169227096Y-77102623D01*
X169177635Y-76591856D01*
X169016858Y-76102061D01*
X168901531Y-75861786D01*
X168762976Y-75640667D01*
X168572802Y-75401441D01*
X168302617Y-75106842D01*
X168097380Y-74895224D01*
X167798015Y-74579646D01*
X167527635Y-74275596D01*
X167318291Y-74020261D01*
X167210525Y-73866290D01*
X167007066Y-73544163D01*
X166795680Y-73259055D01*
X166613071Y-73059017D01*
X166562375Y-73017731D01*
X166425561Y-72920597D01*
X166228241Y-72779235D01*
X166197727Y-72757286D01*
X165928695Y-72620657D01*
X165631027Y-72544518D01*
X165616348Y-72543091D01*
X165360690Y-72484525D01*
X165157952Y-72377533D01*
X165139233Y-72360552D01*
X164963547Y-72229622D01*
X164714462Y-72092196D01*
X164635144Y-72056110D01*
X164376288Y-71920213D01*
X164202976Y-71747282D01*
X164106147Y-71595907D01*
X163982118Y-71404674D01*
X163885633Y-71295916D01*
X163864543Y-71286355D01*
X163834490Y-71362758D01*
X163825746Y-71556913D01*
X163831862Y-71698924D01*
X164000602Y-71867664D01*
X164070418Y-71895623D01*
X164113934Y-71933938D01*
X164162289Y-72044955D01*
X164145747Y-72081730D01*
X164068923Y-72070786D01*
X164032416Y-72015456D01*
X163996137Y-71894190D01*
X164000602Y-71867664D01*
X163831862Y-71698924D01*
X163832201Y-71706790D01*
X163826057Y-72020463D01*
X163744280Y-72232111D01*
X163681898Y-72306106D01*
X163576523Y-72465879D01*
X163679364Y-72568720D01*
X163860297Y-72424336D01*
X164128126Y-72423767D01*
X164156429Y-72431015D01*
X164379848Y-72453502D01*
X164542245Y-72402907D01*
X164550184Y-72395713D01*
X164692222Y-72292998D01*
X164768864Y-72300525D01*
X164743475Y-72404240D01*
X164707371Y-72456020D01*
X164629712Y-72609115D01*
X164642191Y-72701668D01*
X164632764Y-72802375D01*
X164473723Y-72976197D01*
X164420868Y-73022455D01*
X164214604Y-73175859D01*
X164048215Y-73222689D01*
X163849348Y-73183180D01*
X163847831Y-73182698D01*
X163660077Y-73111983D01*
X163589784Y-73026790D01*
X163591173Y-72867619D01*
X163592863Y-72851302D01*
X163679364Y-72568720D01*
X163576523Y-72465879D01*
X163550296Y-72505646D01*
X163449049Y-72775403D01*
X163433563Y-72843566D01*
X163378962Y-73061599D01*
X163322368Y-73188233D01*
X163303517Y-73201152D01*
X163205359Y-73275050D01*
X163112999Y-73455109D01*
X163085334Y-73550080D01*
X163204106Y-73668852D01*
X163289411Y-73583700D01*
X163492186Y-73440551D01*
X163589268Y-73354994D01*
X163717628Y-73273035D01*
X163784658Y-73280976D01*
X163783157Y-73379761D01*
X163724790Y-73460582D01*
X163662316Y-73578581D01*
X163688068Y-73633399D01*
X163722190Y-73736398D01*
X163662142Y-73885929D01*
X163546242Y-74023078D01*
X163412811Y-74088926D01*
X163391827Y-74088857D01*
X163237520Y-74006331D01*
X163170101Y-73842423D01*
X163204106Y-73668852D01*
X163085334Y-73550080D01*
X163047818Y-73678871D01*
X163031199Y-73883885D01*
X163045631Y-73954384D01*
X163062926Y-74170372D01*
X163049978Y-74204053D01*
X163135385Y-74289460D01*
X163224425Y-74276099D01*
X163294698Y-74375926D01*
X163316595Y-74533144D01*
X163303327Y-74605952D01*
X163233110Y-74754214D01*
X163176454Y-74797642D01*
X163124922Y-74726491D01*
X163097351Y-74565258D01*
X163100068Y-74392276D01*
X163135385Y-74289460D01*
X163049978Y-74204053D01*
X163005145Y-74320683D01*
X162944361Y-74529492D01*
X162983982Y-74755298D01*
X163016335Y-74904320D01*
X163007764Y-75085892D01*
X162951340Y-75332842D01*
X162840133Y-75677996D01*
X162717136Y-76019631D01*
X162522872Y-76538088D01*
X162371373Y-76917213D01*
X162251029Y-77178041D01*
X162150227Y-77341607D01*
X162057359Y-77428945D01*
X161960814Y-77461091D01*
X161920337Y-77463210D01*
X161716679Y-77409934D01*
X161623198Y-77345827D01*
X161466507Y-77234519D01*
X161241486Y-77120133D01*
X161217862Y-77110207D01*
X160929909Y-76991971D01*
X161063653Y-76679812D01*
X161135575Y-76465366D01*
X161174232Y-76260129D01*
X161176229Y-76109102D01*
X161138176Y-76057289D01*
X161109157Y-76076215D01*
X161050163Y-76183771D01*
X160964180Y-76392941D01*
X160919289Y-76516445D01*
X160785375Y-76900722D01*
X160505825Y-76873826D01*
X160188744Y-76890363D01*
X159934051Y-76990407D01*
X159870778Y-77060181D01*
X159952985Y-77142389D01*
X160032320Y-77118288D01*
X160187642Y-77229763D01*
X160250969Y-77290702D01*
X160406345Y-77425193D01*
X160504147Y-77470465D01*
X160518019Y-77457979D01*
X160470552Y-77356774D01*
X160329393Y-77218972D01*
X160313400Y-77206520D01*
X160089725Y-77035778D01*
X160351924Y-77030926D01*
X160613243Y-77086228D01*
X160926879Y-77270013D01*
X161009141Y-77331604D01*
X161185923Y-77460285D01*
X161266136Y-77501241D01*
X161234223Y-77447858D01*
X161149838Y-77325399D01*
X161188123Y-77293655D01*
X161331062Y-77349098D01*
X161560643Y-77488202D01*
X161608893Y-77521236D01*
X161823564Y-77635177D01*
X161994563Y-77626206D01*
X162058489Y-77594056D01*
X162181207Y-77507367D01*
X162291238Y-77387104D01*
X162421682Y-77191334D01*
X162556997Y-76962521D01*
X162632224Y-76848754D01*
X162647994Y-76882216D01*
X162641965Y-76927754D01*
X162645275Y-77047667D01*
X162745732Y-77054723D01*
X162755928Y-77052574D01*
X162916028Y-76956143D01*
X162935526Y-76784828D01*
X162854664Y-76625506D01*
X162765112Y-76495516D01*
X162788786Y-76478344D01*
X162905744Y-76533583D01*
X163061090Y-76575118D01*
X163174004Y-76484529D01*
X163208186Y-76431187D01*
X163295936Y-76199892D01*
X163240765Y-75991876D01*
X163131558Y-75849865D01*
X162989173Y-75692908D01*
X163218868Y-75792489D01*
X163422423Y-75847664D01*
X163543210Y-75777562D01*
X163613635Y-75561372D01*
X163618272Y-75535967D01*
X163583049Y-75271121D01*
X163476536Y-75108953D01*
X163294939Y-74908195D01*
X163520778Y-75084753D01*
X163680936Y-75193346D01*
X163782558Y-75181310D01*
X163894264Y-75039837D01*
X163896464Y-75036539D01*
X164007744Y-74810482D01*
X163980767Y-74631978D01*
X163805246Y-74454128D01*
X163761636Y-74421838D01*
X163606656Y-74279212D01*
X163597220Y-74186835D01*
X163695368Y-74196627D01*
X163857372Y-74313782D01*
X163904396Y-74358607D01*
X164081005Y-74506086D01*
X164210199Y-74518094D01*
X164326279Y-74384239D01*
X164415627Y-74203703D01*
X164466187Y-74049010D01*
X164426430Y-73933468D01*
X164271789Y-73795133D01*
X164245616Y-73775029D01*
X164089117Y-73634542D01*
X164024625Y-73532776D01*
X164029829Y-73514754D01*
X164115659Y-73535964D01*
X164270448Y-73651997D01*
X164353408Y-73729989D01*
X164523511Y-73890967D01*
X164632157Y-73939100D01*
X164736783Y-73882116D01*
X164828320Y-73793893D01*
X164963852Y-73585380D01*
X164933624Y-73390862D01*
X164735996Y-73203270D01*
X164683703Y-73170403D01*
X164553165Y-73058296D01*
X164556457Y-72988125D01*
X164652877Y-73001949D01*
X164823192Y-73127053D01*
X164911070Y-73210020D01*
X165096308Y-73381146D01*
X165235409Y-73446512D01*
X165395544Y-73426194D01*
X165508784Y-73388656D01*
X165818246Y-73279040D01*
X165546273Y-73007067D01*
X165391759Y-72829707D01*
X165352088Y-72727336D01*
X165371171Y-72712227D01*
X165480717Y-72754849D01*
X165658172Y-72888847D01*
X165790249Y-73011569D01*
X165986699Y-73187764D01*
X166145735Y-73294776D01*
X166207793Y-73311273D01*
X166392711Y-73342092D01*
X166625558Y-73479328D01*
X166863939Y-73686163D01*
X167065454Y-73925786D01*
X167187709Y-74161381D01*
X167188031Y-74162429D01*
X167147259Y-74227295D01*
X166959610Y-74220393D01*
X166851465Y-74199654D01*
X166515810Y-74177217D01*
X166152537Y-74226220D01*
X166070040Y-74249254D01*
X165856430Y-74327333D01*
X165743073Y-74390831D01*
X165854699Y-74502458D01*
X165885701Y-74483993D01*
X166149142Y-74384666D01*
X166427593Y-74349068D01*
X166647903Y-74384453D01*
X166684703Y-74404802D01*
X166877902Y-74476304D01*
X166972379Y-74479421D01*
X167087657Y-74483985D01*
X167076858Y-74572129D01*
X167070219Y-74587362D01*
X167088307Y-74745658D01*
X167225211Y-74925478D01*
X167376601Y-75057297D01*
X167484861Y-75065862D01*
X167616235Y-74957291D01*
X167759682Y-74848525D01*
X167854949Y-74836823D01*
X167855708Y-74837554D01*
X167845719Y-74931613D01*
X167738201Y-75074788D01*
X167735971Y-75077028D01*
X167630264Y-75201649D01*
X167630314Y-75304090D01*
X167744701Y-75444401D01*
X167795840Y-75496106D01*
X167956484Y-75642566D01*
X168063179Y-75672392D01*
X168175973Y-75594164D01*
X168214918Y-75555974D01*
X168358366Y-75447209D01*
X168453632Y-75435507D01*
X168454392Y-75436238D01*
X168441999Y-75528846D01*
X168332877Y-75676814D01*
X168311703Y-75698664D01*
X168180473Y-75867726D01*
X168178686Y-76012167D01*
X168207751Y-76072023D01*
X168365036Y-76303346D01*
X168498474Y-76387032D01*
X168636638Y-76336459D01*
X168685026Y-76295490D01*
X168792334Y-76200563D01*
X168801845Y-76217766D01*
X168716998Y-76361901D01*
X168704982Y-76381391D01*
X168604994Y-76556186D01*
X168561276Y-76658169D01*
X168561305Y-76662483D01*
X168594563Y-76759211D01*
X168662369Y-76934509D01*
X168737026Y-77090751D01*
X168811632Y-77102788D01*
X168920571Y-77007416D01*
X169033299Y-76914047D01*
X169059174Y-76952054D01*
X169052900Y-76986924D01*
X168983281Y-77120059D01*
X168938089Y-77148432D01*
X168873728Y-77235768D01*
X168804857Y-77434996D01*
X168775826Y-77558068D01*
X168692551Y-77869152D01*
X168576348Y-78046192D01*
X168389611Y-78124413D01*
X168155049Y-78139525D01*
X167842089Y-78099179D01*
X167653183Y-77964689D01*
X167571789Y-77715874D01*
X167572351Y-77428707D01*
X167534909Y-76967045D01*
X167350244Y-76474821D01*
X167014345Y-75944634D01*
X166523205Y-75369084D01*
X166372800Y-75214329D01*
X166091666Y-74929135D01*
X165915154Y-74739138D01*
X165827399Y-74620550D01*
X165812535Y-74549586D01*
X165854699Y-74502458D01*
X165743073Y-74390831D01*
X165680130Y-74426090D01*
X165498646Y-74577677D01*
X165269488Y-74814244D01*
X165149854Y-74945514D01*
X164916255Y-75219340D01*
X164997721Y-75300806D01*
X165165315Y-75133212D01*
X165321220Y-75027657D01*
X165466430Y-75066661D01*
X165486743Y-75081192D01*
X165673382Y-75133962D01*
X165813182Y-75070027D01*
X165985787Y-74943290D01*
X165878040Y-75164818D01*
X165824724Y-75343449D01*
X165888048Y-75495195D01*
X165974842Y-75590898D01*
X166126217Y-75718597D01*
X166235233Y-75721994D01*
X166329064Y-75645777D01*
X166475330Y-75548290D01*
X166546163Y-75581039D01*
X166505822Y-75715638D01*
X166474572Y-75761350D01*
X166418741Y-75890826D01*
X166471294Y-76035383D01*
X166572497Y-76166806D01*
X166715225Y-76320667D01*
X166799838Y-76352384D01*
X166869555Y-76275480D01*
X166877444Y-76262213D01*
X166970512Y-76160039D01*
X167023155Y-76160263D01*
X167017419Y-76254728D01*
X166959788Y-76332158D01*
X166879069Y-76499326D01*
X166902586Y-76683758D01*
X167001246Y-76837453D01*
X167145953Y-76912409D01*
X167288707Y-76874828D01*
X167383029Y-76820908D01*
X167379021Y-76870016D01*
X167298653Y-77008763D01*
X167220833Y-77193542D01*
X167195970Y-77374032D01*
X167219864Y-77505106D01*
X167288317Y-77541636D01*
X167344720Y-77503803D01*
X167452899Y-77427641D01*
X167487516Y-77467600D01*
X167451382Y-77588670D01*
X167347305Y-77755839D01*
X167321949Y-77787666D01*
X167149147Y-77965099D01*
X166989449Y-78029621D01*
X166841217Y-78025354D01*
X166559891Y-77942369D01*
X166418841Y-77783938D01*
X166421484Y-77582854D01*
X166426868Y-77286502D01*
X166292476Y-76914831D01*
X166024058Y-76479099D01*
X165627362Y-75990568D01*
X165583592Y-75942236D01*
X164997721Y-75300806D01*
X164916255Y-75219340D01*
X164892488Y-75247202D01*
X164779481Y-75403760D01*
X164911992Y-75536272D01*
X164967468Y-75492969D01*
X164957304Y-75567883D01*
X164944967Y-75608718D01*
X164948840Y-75836919D01*
X165051043Y-75984202D01*
X165199491Y-76090391D01*
X165318920Y-76055542D01*
X165341236Y-76034922D01*
X165463591Y-75962709D01*
X165520842Y-75975053D01*
X165520625Y-76074482D01*
X165467955Y-76147676D01*
X165414598Y-76306680D01*
X165453805Y-76431233D01*
X165596341Y-76639538D01*
X165726245Y-76713653D01*
X165888407Y-76678650D01*
X165893152Y-76676641D01*
X166082001Y-76596082D01*
X165954486Y-76731185D01*
X165875698Y-76917166D01*
X165878158Y-77158889D01*
X165957952Y-77365741D01*
X165983175Y-77395281D01*
X166096596Y-77407007D01*
X166201853Y-77344552D01*
X166242613Y-77328309D01*
X166191680Y-77425623D01*
X166119517Y-77531624D01*
X165918463Y-77767293D01*
X165741353Y-77848864D01*
X165553588Y-77781126D01*
X165383308Y-77633571D01*
X165251824Y-77466590D01*
X165084713Y-77206444D01*
X164906269Y-76897613D01*
X164740786Y-76584580D01*
X164612559Y-76311827D01*
X164545883Y-76123836D01*
X164541550Y-76092381D01*
X164588115Y-75981278D01*
X164708373Y-75795899D01*
X164774244Y-75707403D01*
X164911992Y-75536272D01*
X164779481Y-75403760D01*
X164676662Y-75546206D01*
X164471260Y-75891442D01*
X164245167Y-76331823D01*
X164172226Y-76482359D01*
X163840090Y-77170349D01*
X163568197Y-77723612D01*
X163345981Y-78161238D01*
X163162870Y-78502314D01*
X163008298Y-78765929D01*
X162871694Y-78971172D01*
X162742490Y-79137133D01*
X162637520Y-79254269D01*
X162242329Y-79576445D01*
X161830503Y-79733635D01*
X161414697Y-79725424D01*
X161007563Y-79551396D01*
X160720979Y-79317290D01*
X160555031Y-79127582D01*
X160462304Y-78936088D01*
X160415314Y-78674088D01*
X160402144Y-78520148D01*
X160360994Y-78208070D01*
X160293469Y-77939616D01*
X160236071Y-77810847D01*
X160039167Y-77489856D01*
X159948067Y-77273146D01*
X159952985Y-77142389D01*
X159870778Y-77060181D01*
X159786278Y-77153366D01*
X159768977Y-77214529D01*
X159800385Y-77379727D01*
X159908023Y-77608800D01*
X159980386Y-77724129D01*
X160180879Y-78143958D01*
X160226609Y-78435800D01*
X160262708Y-78830085D01*
X160361587Y-79123653D01*
X160547994Y-79380798D01*
X160618731Y-79454515D01*
X160991123Y-79727659D01*
X160991123Y-79727659D01*
G37*
X160991123Y-79727659D02*
X161415839Y-79877600D01*
X161843549Y-79889460D01*
X161970775Y-79862287D01*
X162294275Y-79726724D01*
X162603708Y-79498112D01*
X162909768Y-79162538D01*
X163223149Y-78706086D01*
X163554546Y-78114843D01*
X163914651Y-77374895D01*
X163962245Y-77271189D01*
X164127491Y-76919201D01*
X164271085Y-76632090D01*
X164377178Y-76440315D01*
X164428909Y-76374175D01*
X164489325Y-76445433D01*
X164594800Y-76633100D01*
X164723512Y-76898021D01*
X164735500Y-76924336D01*
X164905860Y-77251330D01*
X165101823Y-77556124D01*
X165260698Y-77750435D01*
X165464995Y-77926505D01*
X165661792Y-78003276D01*
X165937986Y-78014626D01*
X165938325Y-78014616D01*
X166225030Y-78032144D01*
X166470911Y-78090126D01*
X166536785Y-78120673D01*
X166762110Y-78192986D01*
X167032696Y-78201019D01*
X167268460Y-78147550D01*
X167354901Y-78092307D01*
X167473299Y-78072164D01*
X167541622Y-78115124D01*
X167793605Y-78259731D01*
X168120274Y-78307515D01*
X168453714Y-78252960D01*
X168577480Y-78199262D01*
X168923191Y-77924598D01*
X169141005Y-77552961D01*
X169227096Y-77102623D01*
X169177635Y-76591856D01*
X169016858Y-76102061D01*
X168901531Y-75861786D01*
X168762976Y-75640667D01*
X168572802Y-75401441D01*
X168302617Y-75106842D01*
X168097380Y-74895224D01*
X167798015Y-74579646D01*
X167527635Y-74275596D01*
X167318291Y-74020261D01*
X167210525Y-73866290D01*
X167007066Y-73544163D01*
X166795680Y-73259055D01*
X166613071Y-73059017D01*
X166562375Y-73017731D01*
X166425561Y-72920597D01*
X166228241Y-72779235D01*
X166197727Y-72757286D01*
X165928695Y-72620657D01*
X165631027Y-72544518D01*
X165616348Y-72543091D01*
X165360690Y-72484525D01*
X165157952Y-72377533D01*
X165139233Y-72360552D01*
X164963547Y-72229622D01*
X164714462Y-72092196D01*
X164635144Y-72056110D01*
X164376288Y-71920213D01*
X164202976Y-71747282D01*
X164106147Y-71595907D01*
X163982118Y-71404674D01*
X163885633Y-71295916D01*
X163864543Y-71286355D01*
X163834490Y-71362758D01*
X163825746Y-71556913D01*
X163831862Y-71698924D01*
X164000602Y-71867664D01*
X164070418Y-71895623D01*
X164113934Y-71933938D01*
X164162289Y-72044955D01*
X164145747Y-72081730D01*
X164068923Y-72070786D01*
X164032416Y-72015456D01*
X163996137Y-71894190D01*
X164000602Y-71867664D01*
X163831862Y-71698924D01*
X163832201Y-71706790D01*
X163826057Y-72020463D01*
X163744280Y-72232111D01*
X163681898Y-72306106D01*
X163576523Y-72465879D01*
X163679364Y-72568720D01*
X163860297Y-72424336D01*
X164128126Y-72423767D01*
X164156429Y-72431015D01*
X164379848Y-72453502D01*
X164542245Y-72402907D01*
X164550184Y-72395713D01*
X164692222Y-72292998D01*
X164768864Y-72300525D01*
X164743475Y-72404240D01*
X164707371Y-72456020D01*
X164629712Y-72609115D01*
X164642191Y-72701668D01*
X164632764Y-72802375D01*
X164473723Y-72976197D01*
X164420868Y-73022455D01*
X164214604Y-73175859D01*
X164048215Y-73222689D01*
X163849348Y-73183180D01*
X163847831Y-73182698D01*
X163660077Y-73111983D01*
X163589784Y-73026790D01*
X163591173Y-72867619D01*
X163592863Y-72851302D01*
X163679364Y-72568720D01*
X163576523Y-72465879D01*
X163550296Y-72505646D01*
X163449049Y-72775403D01*
X163433563Y-72843566D01*
X163378962Y-73061599D01*
X163322368Y-73188233D01*
X163303517Y-73201152D01*
X163205359Y-73275050D01*
X163112999Y-73455109D01*
X163085334Y-73550080D01*
X163204106Y-73668852D01*
X163289411Y-73583700D01*
X163492186Y-73440551D01*
X163589268Y-73354994D01*
X163717628Y-73273035D01*
X163784658Y-73280976D01*
X163783157Y-73379761D01*
X163724790Y-73460582D01*
X163662316Y-73578581D01*
X163688068Y-73633399D01*
X163722190Y-73736398D01*
X163662142Y-73885929D01*
X163546242Y-74023078D01*
X163412811Y-74088926D01*
X163391827Y-74088857D01*
X163237520Y-74006331D01*
X163170101Y-73842423D01*
X163204106Y-73668852D01*
X163085334Y-73550080D01*
X163047818Y-73678871D01*
X163031199Y-73883885D01*
X163045631Y-73954384D01*
X163062926Y-74170372D01*
X163049978Y-74204053D01*
X163135385Y-74289460D01*
X163224425Y-74276099D01*
X163294698Y-74375926D01*
X163316595Y-74533144D01*
X163303327Y-74605952D01*
X163233110Y-74754214D01*
X163176454Y-74797642D01*
X163124922Y-74726491D01*
X163097351Y-74565258D01*
X163100068Y-74392276D01*
X163135385Y-74289460D01*
X163049978Y-74204053D01*
X163005145Y-74320683D01*
X162944361Y-74529492D01*
X162983982Y-74755298D01*
X163016335Y-74904320D01*
X163007764Y-75085892D01*
X162951340Y-75332842D01*
X162840133Y-75677996D01*
X162717136Y-76019631D01*
X162522872Y-76538088D01*
X162371373Y-76917213D01*
X162251029Y-77178041D01*
X162150227Y-77341607D01*
X162057359Y-77428945D01*
X161960814Y-77461091D01*
X161920337Y-77463210D01*
X161716679Y-77409934D01*
X161623198Y-77345827D01*
X161466507Y-77234519D01*
X161241486Y-77120133D01*
X161217862Y-77110207D01*
X160929909Y-76991971D01*
X161063653Y-76679812D01*
X161135575Y-76465366D01*
X161174232Y-76260129D01*
X161176229Y-76109102D01*
X161138176Y-76057289D01*
X161109157Y-76076215D01*
X161050163Y-76183771D01*
X160964180Y-76392941D01*
X160919289Y-76516445D01*
X160785375Y-76900722D01*
X160505825Y-76873826D01*
X160188744Y-76890363D01*
X159934051Y-76990407D01*
X159870778Y-77060181D01*
X159952985Y-77142389D01*
X160032320Y-77118288D01*
X160187642Y-77229763D01*
X160250969Y-77290702D01*
X160406345Y-77425193D01*
X160504147Y-77470465D01*
X160518019Y-77457979D01*
X160470552Y-77356774D01*
X160329393Y-77218972D01*
X160313400Y-77206520D01*
X160089725Y-77035778D01*
X160351924Y-77030926D01*
X160613243Y-77086228D01*
X160926879Y-77270013D01*
X161009141Y-77331604D01*
X161185923Y-77460285D01*
X161266136Y-77501241D01*
X161234223Y-77447858D01*
X161149838Y-77325399D01*
X161188123Y-77293655D01*
X161331062Y-77349098D01*
X161560643Y-77488202D01*
X161608893Y-77521236D01*
X161823564Y-77635177D01*
X161994563Y-77626206D01*
X162058489Y-77594056D01*
X162181207Y-77507367D01*
X162291238Y-77387104D01*
X162421682Y-77191334D01*
X162556997Y-76962521D01*
X162632224Y-76848754D01*
X162647994Y-76882216D01*
X162641965Y-76927754D01*
X162645275Y-77047667D01*
X162745732Y-77054723D01*
X162755928Y-77052574D01*
X162916028Y-76956143D01*
X162935526Y-76784828D01*
X162854664Y-76625506D01*
X162765112Y-76495516D01*
X162788786Y-76478344D01*
X162905744Y-76533583D01*
X163061090Y-76575118D01*
X163174004Y-76484529D01*
X163208186Y-76431187D01*
X163295936Y-76199892D01*
X163240765Y-75991876D01*
X163131558Y-75849865D01*
X162989173Y-75692908D01*
X163218868Y-75792489D01*
X163422423Y-75847664D01*
X163543210Y-75777562D01*
X163613635Y-75561372D01*
X163618272Y-75535967D01*
X163583049Y-75271121D01*
X163476536Y-75108953D01*
X163294939Y-74908195D01*
X163520778Y-75084753D01*
X163680936Y-75193346D01*
X163782558Y-75181310D01*
X163894264Y-75039837D01*
X163896464Y-75036539D01*
X164007744Y-74810482D01*
X163980767Y-74631978D01*
X163805246Y-74454128D01*
X163761636Y-74421838D01*
X163606656Y-74279212D01*
X163597220Y-74186835D01*
X163695368Y-74196627D01*
X163857372Y-74313782D01*
X163904396Y-74358607D01*
X164081005Y-74506086D01*
X164210199Y-74518094D01*
X164326279Y-74384239D01*
X164415627Y-74203703D01*
X164466187Y-74049010D01*
X164426430Y-73933468D01*
X164271789Y-73795133D01*
X164245616Y-73775029D01*
X164089117Y-73634542D01*
X164024625Y-73532776D01*
X164029829Y-73514754D01*
X164115659Y-73535964D01*
X164270448Y-73651997D01*
X164353408Y-73729989D01*
X164523511Y-73890967D01*
X164632157Y-73939100D01*
X164736783Y-73882116D01*
X164828320Y-73793893D01*
X164963852Y-73585380D01*
X164933624Y-73390862D01*
X164735996Y-73203270D01*
X164683703Y-73170403D01*
X164553165Y-73058296D01*
X164556457Y-72988125D01*
X164652877Y-73001949D01*
X164823192Y-73127053D01*
X164911070Y-73210020D01*
X165096308Y-73381146D01*
X165235409Y-73446512D01*
X165395544Y-73426194D01*
X165508784Y-73388656D01*
X165818246Y-73279040D01*
X165546273Y-73007067D01*
X165391759Y-72829707D01*
X165352088Y-72727336D01*
X165371171Y-72712227D01*
X165480717Y-72754849D01*
X165658172Y-72888847D01*
X165790249Y-73011569D01*
X165986699Y-73187764D01*
X166145735Y-73294776D01*
X166207793Y-73311273D01*
X166392711Y-73342092D01*
X166625558Y-73479328D01*
X166863939Y-73686163D01*
X167065454Y-73925786D01*
X167187709Y-74161381D01*
X167188031Y-74162429D01*
X167147259Y-74227295D01*
X166959610Y-74220393D01*
X166851465Y-74199654D01*
X166515810Y-74177217D01*
X166152537Y-74226220D01*
X166070040Y-74249254D01*
X165856430Y-74327333D01*
X165743073Y-74390831D01*
X165854699Y-74502458D01*
X165885701Y-74483993D01*
X166149142Y-74384666D01*
X166427593Y-74349068D01*
X166647903Y-74384453D01*
X166684703Y-74404802D01*
X166877902Y-74476304D01*
X166972379Y-74479421D01*
X167087657Y-74483985D01*
X167076858Y-74572129D01*
X167070219Y-74587362D01*
X167088307Y-74745658D01*
X167225211Y-74925478D01*
X167376601Y-75057297D01*
X167484861Y-75065862D01*
X167616235Y-74957291D01*
X167759682Y-74848525D01*
X167854949Y-74836823D01*
X167855708Y-74837554D01*
X167845719Y-74931613D01*
X167738201Y-75074788D01*
X167735971Y-75077028D01*
X167630264Y-75201649D01*
X167630314Y-75304090D01*
X167744701Y-75444401D01*
X167795840Y-75496106D01*
X167956484Y-75642566D01*
X168063179Y-75672392D01*
X168175973Y-75594164D01*
X168214918Y-75555974D01*
X168358366Y-75447209D01*
X168453632Y-75435507D01*
X168454392Y-75436238D01*
X168441999Y-75528846D01*
X168332877Y-75676814D01*
X168311703Y-75698664D01*
X168180473Y-75867726D01*
X168178686Y-76012167D01*
X168207751Y-76072023D01*
X168365036Y-76303346D01*
X168498474Y-76387032D01*
X168636638Y-76336459D01*
X168685026Y-76295490D01*
X168792334Y-76200563D01*
X168801845Y-76217766D01*
X168716998Y-76361901D01*
X168704982Y-76381391D01*
X168604994Y-76556186D01*
X168561276Y-76658169D01*
X168561305Y-76662483D01*
X168594563Y-76759211D01*
X168662369Y-76934509D01*
X168737026Y-77090751D01*
X168811632Y-77102788D01*
X168920571Y-77007416D01*
X169033299Y-76914047D01*
X169059174Y-76952054D01*
X169052900Y-76986924D01*
X168983281Y-77120059D01*
X168938089Y-77148432D01*
X168873728Y-77235768D01*
X168804857Y-77434996D01*
X168775826Y-77558068D01*
X168692551Y-77869152D01*
X168576348Y-78046192D01*
X168389611Y-78124413D01*
X168155049Y-78139525D01*
X167842089Y-78099179D01*
X167653183Y-77964689D01*
X167571789Y-77715874D01*
X167572351Y-77428707D01*
X167534909Y-76967045D01*
X167350244Y-76474821D01*
X167014345Y-75944634D01*
X166523205Y-75369084D01*
X166372800Y-75214329D01*
X166091666Y-74929135D01*
X165915154Y-74739138D01*
X165827399Y-74620550D01*
X165812535Y-74549586D01*
X165854699Y-74502458D01*
X165743073Y-74390831D01*
X165680130Y-74426090D01*
X165498646Y-74577677D01*
X165269488Y-74814244D01*
X165149854Y-74945514D01*
X164916255Y-75219340D01*
X164997721Y-75300806D01*
X165165315Y-75133212D01*
X165321220Y-75027657D01*
X165466430Y-75066661D01*
X165486743Y-75081192D01*
X165673382Y-75133962D01*
X165813182Y-75070027D01*
X165985787Y-74943290D01*
X165878040Y-75164818D01*
X165824724Y-75343449D01*
X165888048Y-75495195D01*
X165974842Y-75590898D01*
X166126217Y-75718597D01*
X166235233Y-75721994D01*
X166329064Y-75645777D01*
X166475330Y-75548290D01*
X166546163Y-75581039D01*
X166505822Y-75715638D01*
X166474572Y-75761350D01*
X166418741Y-75890826D01*
X166471294Y-76035383D01*
X166572497Y-76166806D01*
X166715225Y-76320667D01*
X166799838Y-76352384D01*
X166869555Y-76275480D01*
X166877444Y-76262213D01*
X166970512Y-76160039D01*
X167023155Y-76160263D01*
X167017419Y-76254728D01*
X166959788Y-76332158D01*
X166879069Y-76499326D01*
X166902586Y-76683758D01*
X167001246Y-76837453D01*
X167145953Y-76912409D01*
X167288707Y-76874828D01*
X167383029Y-76820908D01*
X167379021Y-76870016D01*
X167298653Y-77008763D01*
X167220833Y-77193542D01*
X167195970Y-77374032D01*
X167219864Y-77505106D01*
X167288317Y-77541636D01*
X167344720Y-77503803D01*
X167452899Y-77427641D01*
X167487516Y-77467600D01*
X167451382Y-77588670D01*
X167347305Y-77755839D01*
X167321949Y-77787666D01*
X167149147Y-77965099D01*
X166989449Y-78029621D01*
X166841217Y-78025354D01*
X166559891Y-77942369D01*
X166418841Y-77783938D01*
X166421484Y-77582854D01*
X166426868Y-77286502D01*
X166292476Y-76914831D01*
X166024058Y-76479099D01*
X165627362Y-75990568D01*
X165583592Y-75942236D01*
X164997721Y-75300806D01*
X164916255Y-75219340D01*
X164892488Y-75247202D01*
X164779481Y-75403760D01*
X164911992Y-75536272D01*
X164967468Y-75492969D01*
X164957304Y-75567883D01*
X164944967Y-75608718D01*
X164948840Y-75836919D01*
X165051043Y-75984202D01*
X165199491Y-76090391D01*
X165318920Y-76055542D01*
X165341236Y-76034922D01*
X165463591Y-75962709D01*
X165520842Y-75975053D01*
X165520625Y-76074482D01*
X165467955Y-76147676D01*
X165414598Y-76306680D01*
X165453805Y-76431233D01*
X165596341Y-76639538D01*
X165726245Y-76713653D01*
X165888407Y-76678650D01*
X165893152Y-76676641D01*
X166082001Y-76596082D01*
X165954486Y-76731185D01*
X165875698Y-76917166D01*
X165878158Y-77158889D01*
X165957952Y-77365741D01*
X165983175Y-77395281D01*
X166096596Y-77407007D01*
X166201853Y-77344552D01*
X166242613Y-77328309D01*
X166191680Y-77425623D01*
X166119517Y-77531624D01*
X165918463Y-77767293D01*
X165741353Y-77848864D01*
X165553588Y-77781126D01*
X165383308Y-77633571D01*
X165251824Y-77466590D01*
X165084713Y-77206444D01*
X164906269Y-76897613D01*
X164740786Y-76584580D01*
X164612559Y-76311827D01*
X164545883Y-76123836D01*
X164541550Y-76092381D01*
X164588115Y-75981278D01*
X164708373Y-75795899D01*
X164774244Y-75707403D01*
X164911992Y-75536272D01*
X164779481Y-75403760D01*
X164676662Y-75546206D01*
X164471260Y-75891442D01*
X164245167Y-76331823D01*
X164172226Y-76482359D01*
X163840090Y-77170349D01*
X163568197Y-77723612D01*
X163345981Y-78161238D01*
X163162870Y-78502314D01*
X163008298Y-78765929D01*
X162871694Y-78971172D01*
X162742490Y-79137133D01*
X162637520Y-79254269D01*
X162242329Y-79576445D01*
X161830503Y-79733635D01*
X161414697Y-79725424D01*
X161007563Y-79551396D01*
X160720979Y-79317290D01*
X160555031Y-79127582D01*
X160462304Y-78936088D01*
X160415314Y-78674088D01*
X160402144Y-78520148D01*
X160360994Y-78208070D01*
X160293469Y-77939616D01*
X160236071Y-77810847D01*
X160039167Y-77489856D01*
X159948067Y-77273146D01*
X159952985Y-77142389D01*
X159870778Y-77060181D01*
X159786278Y-77153366D01*
X159768977Y-77214529D01*
X159800385Y-77379727D01*
X159908023Y-77608800D01*
X159980386Y-77724129D01*
X160180879Y-78143958D01*
X160226609Y-78435800D01*
X160262708Y-78830085D01*
X160361587Y-79123653D01*
X160547994Y-79380798D01*
X160618731Y-79454515D01*
X160991123Y-79727659D01*
G36*
X161479726Y-77860907D02*
X161479726Y-77801038D01*
X161419858Y-77801038D01*
X161419857Y-77860907D01*
X161479726Y-77860907D01*
X161479726Y-77860907D01*
G37*
X161479726Y-77860907D02*
X161479726Y-77801038D01*
X161419858Y-77801038D01*
X161419857Y-77860907D01*
X161479726Y-77860907D01*
G36*
X161223502Y-78791850D02*
X161384724Y-78792420D01*
X161506374Y-78737172D01*
X161526965Y-78638953D01*
X161523097Y-78630923D01*
X161350466Y-78338781D01*
X161212177Y-78192824D01*
X161092995Y-78177322D01*
X161086461Y-78180045D01*
X160983724Y-78305244D01*
X160973475Y-78499724D01*
X161056015Y-78690722D01*
X161084199Y-78722616D01*
X161223502Y-78791850D01*
X161223502Y-78791850D01*
G37*
X161223502Y-78791850D02*
X161384724Y-78792420D01*
X161506374Y-78737172D01*
X161526965Y-78638953D01*
X161523097Y-78630923D01*
X161350466Y-78338781D01*
X161212177Y-78192824D01*
X161092995Y-78177322D01*
X161086461Y-78180045D01*
X160983724Y-78305244D01*
X160973475Y-78499724D01*
X161056015Y-78690722D01*
X161084199Y-78722616D01*
X161223502Y-78791850D01*
G36*
X161756446Y-79102314D02*
X161749134Y-79028340D01*
X161690652Y-78868540D01*
X161657497Y-78820635D01*
X161622084Y-78834630D01*
X161629397Y-78908603D01*
X161687878Y-79068404D01*
X161721033Y-79116309D01*
X161756446Y-79102314D01*
X161756446Y-79102314D01*
G37*
X161756446Y-79102314D02*
X161749134Y-79028340D01*
X161690652Y-78868540D01*
X161657497Y-78820635D01*
X161622084Y-78834630D01*
X161629397Y-78908603D01*
X161687878Y-79068404D01*
X161721033Y-79116309D01*
X161756446Y-79102314D01*
G36*
X160806093Y-78744715D02*
X160823147Y-78641169D01*
X160850533Y-78466701D01*
X160863060Y-78391718D01*
X160827254Y-78395267D01*
X160808548Y-78412348D01*
X160767543Y-78538182D01*
X160768636Y-78661800D01*
X160787641Y-78782834D01*
X160806093Y-78744715D01*
X160806093Y-78744715D01*
G37*
X160806093Y-78744715D02*
X160823147Y-78641169D01*
X160850533Y-78466701D01*
X160863060Y-78391718D01*
X160827254Y-78395267D01*
X160808548Y-78412348D01*
X160767543Y-78538182D01*
X160768636Y-78661800D01*
X160787641Y-78782834D01*
X160806093Y-78744715D01*
G36*
X161140827Y-79100878D02*
X161217649Y-79110813D01*
X161374417Y-79119874D01*
X161427188Y-79110812D01*
X161415986Y-79063770D01*
X161259492Y-79061090D01*
X161217649Y-79065605D01*
X161094958Y-79084741D01*
X161140827Y-79100878D01*
X161140827Y-79100878D01*
G37*
X161140827Y-79100878D02*
X161217649Y-79110813D01*
X161374417Y-79119874D01*
X161427188Y-79110812D01*
X161415986Y-79063770D01*
X161259492Y-79061090D01*
X161217649Y-79065605D01*
X161094958Y-79084741D01*
X161140827Y-79100878D01*
G36*
X160978328Y-79048296D02*
X160987684Y-79003230D01*
X160931195Y-78938275D01*
X160852692Y-78889015D01*
X160858854Y-78938275D01*
X160945284Y-79038979D01*
X160978328Y-79048296D01*
X160978328Y-79048296D01*
G37*
X160978328Y-79048296D02*
X160987684Y-79003230D01*
X160931195Y-78938275D01*
X160852692Y-78889015D01*
X160858854Y-78938275D01*
X160945284Y-79038979D01*
X160978328Y-79048296D01*
D10*
G04 #@! TO.C,BH1*
X128645576Y-84576576D02*
X164566600Y-120497600D01*
X145474717Y-67747434D02*
X128645576Y-84576576D01*
X181395741Y-103668459D02*
X145474717Y-67747434D01*
X164566600Y-120497600D02*
X181395741Y-103668459D01*
X170024091Y-117148893D02*
X169956748Y-117283580D01*
X169956748Y-117350923D01*
X169990419Y-117451938D01*
X170091435Y-117552954D01*
X170192450Y-117586625D01*
X170259793Y-117586625D01*
X170360809Y-117552954D01*
X170630183Y-117283580D01*
X169923076Y-116576473D01*
X169687374Y-116812175D01*
X169653702Y-116913190D01*
X169653702Y-116980534D01*
X169687374Y-117081549D01*
X169754717Y-117148893D01*
X169855732Y-117182564D01*
X169923076Y-117182564D01*
X170024091Y-117148893D01*
X170259793Y-116913190D01*
X169923076Y-117990687D02*
X169215969Y-117283580D01*
X169552687Y-117620297D02*
X169148625Y-118024358D01*
X169519015Y-118394748D02*
X168811908Y-117687641D01*
X168811908Y-119101854D02*
X169215969Y-118697793D01*
X169013938Y-118899824D02*
X168306832Y-118192717D01*
X168475190Y-118226389D01*
X168609877Y-118226389D01*
X168710893Y-118192717D01*
G04 #@! TD*
M02*
