G04 #@! TF.GenerationSoftware,KiCad,Pcbnew,(5.0.1-3-g963ef8bb5)*
G04 #@! TF.CreationDate,2019-03-08T12:42:58-05:00*
G04 #@! TF.ProjectId,badge,62616467652E6B696361645F70636200,rev?*
G04 #@! TF.SameCoordinates,Original*
G04 #@! TF.FileFunction,Copper,L2,Bot,Signal*
G04 #@! TF.FilePolarity,Positive*
%FSLAX46Y46*%
G04 Gerber Fmt 4.6, Leading zero omitted, Abs format (unit mm)*
G04 Created by KiCad (PCBNEW (5.0.1-3-g963ef8bb5)) date Friday, March 08, 2019 at 12:42:58 PM*
%MOMM*%
%LPD*%
G01*
G04 APERTURE LIST*
G04 #@! TA.AperFunction,ComponentPad*
%ADD10C,2.500000*%
G04 #@! TD*
G04 #@! TA.AperFunction,ComponentPad*
%ADD11C,3.000000*%
G04 #@! TD*
G04 #@! TA.AperFunction,Conductor*
%ADD12C,0.100000*%
G04 #@! TD*
G04 #@! TA.AperFunction,ComponentPad*
%ADD13C,1.524000*%
G04 #@! TD*
G04 #@! TA.AperFunction,ComponentPad*
%ADD14O,0.900000X1.600000*%
G04 #@! TD*
G04 #@! TA.AperFunction,ViaPad*
%ADD15C,0.609600*%
G04 #@! TD*
G04 #@! TA.AperFunction,Conductor*
%ADD16C,0.500000*%
G04 #@! TD*
G04 #@! TA.AperFunction,Conductor*
%ADD17C,1.000000*%
G04 #@! TD*
G04 #@! TA.AperFunction,Conductor*
%ADD18C,0.254000*%
G04 #@! TD*
G04 APERTURE END LIST*
D10*
G04 #@! TO.P,SP1,1*
G04 #@! TO.N,/BUZZER*
X134249233Y-76951767D03*
G04 #@! TO.P,SP1,2*
G04 #@! TO.N,GND*
X137784767Y-73416233D03*
G04 #@! TD*
D11*
G04 #@! TO.P,BH1,2*
G04 #@! TO.N,GND*
X174444882Y-117803523D03*
G04 #@! TO.P,BH1,1*
G04 #@! TO.N,Net-(BH1-Pad1)*
X178935010Y-113313395D03*
D12*
G04 #@! TD*
G04 #@! TO.N,Net-(BH1-Pad1)*
G04 #@! TO.C,BH1*
G36*
X181056330Y-113313395D02*
X178935010Y-115434715D01*
X176813690Y-113313395D01*
X178935010Y-111192075D01*
X181056330Y-113313395D01*
X181056330Y-113313395D01*
G37*
D13*
G04 #@! TO.P,SWCLK1,1*
G04 #@! TO.N,/SWCLK*
X162560000Y-69850000D03*
G04 #@! TD*
G04 #@! TO.P,SWDIO1,1*
G04 #@! TO.N,/SWDIO*
X160020000Y-69850000D03*
G04 #@! TD*
G04 #@! TO.P,3V3,1*
G04 #@! TO.N,+3V3*
X171450000Y-81280000D03*
G04 #@! TD*
G04 #@! TO.P,5V0,1*
G04 #@! TO.N,/USBVDD_5V*
X179501800Y-71882000D03*
G04 #@! TD*
G04 #@! TO.P,RST1,1*
G04 #@! TO.N,Net-(RST1-Pad1)*
X144780000Y-83820000D03*
G04 #@! TD*
G04 #@! TO.P,PA18,1*
G04 #@! TO.N,/PA18*
X171704000Y-89916000D03*
G04 #@! TD*
G04 #@! TO.P,PA17,1*
G04 #@! TO.N,/PA17*
X161036000Y-97536000D03*
G04 #@! TD*
G04 #@! TO.P,PA13,1*
G04 #@! TO.N,/PA13*
X163068000Y-105156000D03*
G04 #@! TD*
G04 #@! TO.P,PB3,1*
G04 #@! TO.N,/PB03*
X151130000Y-87731600D03*
G04 #@! TD*
G04 #@! TO.P,PA9,1*
G04 #@! TO.N,/PA09*
X161290000Y-109220000D03*
G04 #@! TD*
G04 #@! TO.P,PA8,1*
G04 #@! TO.N,/PA08*
X161290000Y-111760000D03*
G04 #@! TD*
G04 #@! TO.P,PA7,1*
G04 #@! TO.N,/PA07*
X149860000Y-99695000D03*
G04 #@! TD*
G04 #@! TO.P,PA6,1*
G04 #@! TO.N,/PA06*
X147320000Y-99695000D03*
G04 #@! TD*
G04 #@! TO.P,PA4,1*
G04 #@! TO.N,/PA04*
X144780000Y-99695000D03*
G04 #@! TD*
G04 #@! TO.P,PA3,1*
G04 #@! TO.N,/PA03*
X137160000Y-83820000D03*
G04 #@! TD*
G04 #@! TO.P,PA1,1*
G04 #@! TO.N,/PA01*
X139700000Y-83820000D03*
G04 #@! TD*
G04 #@! TO.P,PA0,1*
G04 #@! TO.N,/PA00*
X142240000Y-83820000D03*
G04 #@! TD*
G04 #@! TO.P,GND1,1*
G04 #@! TO.N,GND*
X147320000Y-83820000D03*
G04 #@! TD*
G04 #@! TO.P,PB9,1*
G04 #@! TO.N,/PB09*
X142240000Y-99695000D03*
G04 #@! TD*
G04 #@! TO.P,PB11,1*
G04 #@! TO.N,/PB11*
X155425000Y-100350000D03*
G04 #@! TD*
G04 #@! TO.P,PA12,1*
G04 #@! TO.N,/PA12*
X160553400Y-105156000D03*
G04 #@! TD*
G04 #@! TO.P,PA19,1*
G04 #@! TO.N,/PA19*
X169164000Y-89916000D03*
G04 #@! TD*
D14*
G04 #@! TO.P,J1,S5*
G04 #@! TO.N,Net-(J1-PadS5)*
X177220000Y-69264000D03*
G04 #@! TO.P,J1,S6*
G04 #@! TO.N,Net-(J1-PadS6)*
X170620000Y-69264000D03*
G04 #@! TD*
D13*
G04 #@! TO.P,TP7,1*
G04 #@! TO.N,Net-(TP7-Pad1)*
X158750000Y-78105000D03*
G04 #@! TD*
G04 #@! TO.P,TP8,1*
G04 #@! TO.N,Net-(TP8-Pad1)*
X158750000Y-80645000D03*
G04 #@! TD*
D15*
G04 #@! TO.N,GND*
X160706225Y-91481413D03*
X155425000Y-91500000D03*
X167132000Y-101269800D03*
X167157400Y-103378000D03*
X157073600Y-101396800D03*
X154686000Y-96901000D03*
X147472400Y-96189800D03*
X168910000Y-70040500D03*
X146939000Y-103251000D03*
X163499800Y-92989400D03*
X150774400Y-85394800D03*
X170230800Y-87477600D03*
X167436800Y-99339400D03*
X178689008Y-73533000D03*
X170713400Y-73202800D03*
X177927000Y-77470000D03*
X160933072Y-87054903D03*
X158185199Y-87813801D03*
X176860200Y-73126604D03*
X149047200Y-93050390D03*
G04 #@! TO.N,+3V3*
X154178000Y-91059000D03*
X151003000Y-102489000D03*
X164744400Y-80645000D03*
X163068000Y-84429600D03*
X146380200Y-89992200D03*
X145097500Y-103251000D03*
X160800000Y-90300000D03*
X147900000Y-92725000D03*
X163499800Y-97917000D03*
X165684200Y-80645000D03*
X166547800Y-80645000D03*
X156025345Y-85394800D03*
X153637417Y-99854583D03*
G04 #@! TO.N,Net-(SW1-Pad1)*
X167284400Y-75082400D03*
X167259000Y-75946000D03*
X175260000Y-80518000D03*
X176022000Y-80518000D03*
G04 #@! TO.N,Net-(BH1-Pad1)*
X162225000Y-75350000D03*
X162225000Y-76200000D03*
G04 #@! TD*
D16*
G04 #@! TO.N,GND*
X177164999Y-73431403D02*
X176860200Y-73126604D01*
X177901596Y-74168000D02*
X177164999Y-73431403D01*
X178816008Y-74168000D02*
X177901596Y-74168000D01*
D17*
G04 #@! TO.N,+3V3*
X163068000Y-82321400D02*
X164744400Y-80645000D01*
X163068000Y-84429600D02*
X163068000Y-82321400D01*
X154175000Y-90624948D02*
X154175000Y-89992200D01*
X154178000Y-90627948D02*
X154175000Y-90624948D01*
X154178000Y-91059000D02*
X154178000Y-90627948D01*
X158407800Y-89992200D02*
X154175000Y-89992200D01*
X158410801Y-89995201D02*
X158407800Y-89992200D01*
X160495201Y-89995201D02*
X158410801Y-89995201D01*
X160800000Y-90300000D02*
X160495201Y-89995201D01*
X147900000Y-92725000D02*
X147900000Y-90017200D01*
X147900000Y-90017200D02*
X147875000Y-89992200D01*
X147875000Y-89992200D02*
X146380200Y-89992200D01*
X154175000Y-89992200D02*
X147875000Y-89992200D01*
X151003000Y-102489000D02*
X148142000Y-105350000D01*
X147196500Y-105350000D02*
X145097500Y-103251000D01*
X148142000Y-105350000D02*
X147196500Y-105350000D01*
X160096200Y-88303800D02*
X158407800Y-89992200D01*
X164744400Y-80645000D02*
X165684200Y-80645000D01*
X166547800Y-80645000D02*
X167106600Y-80645000D01*
X165684200Y-80645000D02*
X166547800Y-80645000D01*
X161415377Y-88059704D02*
X160340296Y-88059704D01*
X163068000Y-84429600D02*
X163068000Y-86407081D01*
X160340296Y-88059704D02*
X160096200Y-88303800D01*
X163068000Y-86407081D02*
X161415377Y-88059704D01*
X151003000Y-102489000D02*
X151307799Y-102184201D01*
X151307799Y-102184201D02*
X153637417Y-99854583D01*
X163499800Y-98298000D02*
X163499800Y-97917000D01*
X162102800Y-99695000D02*
X163499800Y-98298000D01*
X154432748Y-98628200D02*
X156260800Y-98628200D01*
X157327600Y-99695000D02*
X162102800Y-99695000D01*
X153637417Y-99423531D02*
X154432748Y-98628200D01*
X156260800Y-98628200D02*
X157327600Y-99695000D01*
X153637417Y-99854583D02*
X153637417Y-99423531D01*
X140487400Y-100761800D02*
X140487400Y-95885000D01*
X143000600Y-103275000D02*
X140487400Y-100761800D01*
X145073500Y-103275000D02*
X143000600Y-103275000D01*
X140487400Y-95885000D02*
X146380200Y-89992200D01*
X145097500Y-103251000D02*
X145073500Y-103275000D01*
X157403800Y-85394800D02*
X156456397Y-85394800D01*
X156456397Y-85394800D02*
X156025345Y-85394800D01*
X160096200Y-88087200D02*
X157403800Y-85394800D01*
X160096200Y-88303800D02*
X160096200Y-88087200D01*
G04 #@! TO.N,Net-(SW1-Pad1)*
X174777400Y-80518000D02*
X171881800Y-77622400D01*
X171450748Y-77622400D02*
X171425348Y-77597000D01*
X171881800Y-77622400D02*
X171450748Y-77622400D01*
X171425348Y-77597000D02*
X168910000Y-77597000D01*
X168910000Y-77597000D02*
X167259000Y-75946000D01*
X167259000Y-75107800D02*
X167284400Y-75082400D01*
X167259000Y-75946000D02*
X167259000Y-75107800D01*
X176154910Y-80492095D02*
X174777400Y-80518000D01*
X176301400Y-80518000D02*
X176154910Y-80492095D01*
G04 #@! TO.N,Net-(BH1-Pad1)*
X162225000Y-76200000D02*
X162225000Y-75350000D01*
X162250000Y-75325000D02*
X162225000Y-75350000D01*
X162250000Y-73875000D02*
X162250000Y-75325000D01*
X168300000Y-73175000D02*
X162950000Y-73175000D01*
X169877200Y-74752200D02*
X168300000Y-73175000D01*
X178460400Y-79635400D02*
X173577200Y-74752200D01*
X173577200Y-74752200D02*
X169877200Y-74752200D01*
X178460400Y-108439950D02*
X178460400Y-79635400D01*
X162950000Y-73175000D02*
X162250000Y-73875000D01*
X178935010Y-108914560D02*
X178935010Y-113313395D01*
X178460400Y-108439950D02*
X178935010Y-108914560D01*
G04 #@! TD*
D18*
G04 #@! TO.N,GND*
G36*
X170020884Y-68314883D02*
X169837216Y-68589760D01*
X169789000Y-68832154D01*
X169789000Y-69695845D01*
X169837215Y-69938239D01*
X170020883Y-70213117D01*
X170295760Y-70396785D01*
X170620000Y-70461280D01*
X170944239Y-70396785D01*
X171219117Y-70213117D01*
X171402785Y-69938240D01*
X171451000Y-69695846D01*
X171451000Y-68832154D01*
X171402785Y-68589760D01*
X171219117Y-68314883D01*
X171045687Y-68199000D01*
X176794314Y-68199000D01*
X176620884Y-68314883D01*
X176437216Y-68589760D01*
X176389000Y-68832154D01*
X176389000Y-69695845D01*
X176437215Y-69938239D01*
X176620883Y-70213117D01*
X176895760Y-70396785D01*
X177220000Y-70461280D01*
X177544239Y-70396785D01*
X177819117Y-70213117D01*
X178002785Y-69938240D01*
X178051000Y-69695846D01*
X178051000Y-68832154D01*
X178002785Y-68589760D01*
X177819117Y-68314883D01*
X177645687Y-68199000D01*
X179731860Y-68199000D01*
X180011862Y-68367242D01*
X180454144Y-68785489D01*
X180721000Y-69178155D01*
X180721000Y-112428693D01*
X179816010Y-111523703D01*
X179816010Y-109001327D01*
X179833269Y-108914560D01*
X179764893Y-108570811D01*
X179735430Y-108526717D01*
X179570175Y-108279395D01*
X179496615Y-108230244D01*
X179341400Y-108075029D01*
X179341400Y-79722167D01*
X179358659Y-79635400D01*
X179290283Y-79291651D01*
X179144714Y-79073792D01*
X179095565Y-79000235D01*
X179022007Y-78951085D01*
X174261517Y-74190596D01*
X174212365Y-74117035D01*
X173920949Y-73922317D01*
X173663967Y-73871200D01*
X173663963Y-73871200D01*
X173577200Y-73853942D01*
X173490437Y-73871200D01*
X170242122Y-73871200D01*
X168984317Y-72613395D01*
X168935165Y-72539835D01*
X168643749Y-72345117D01*
X168386767Y-72294000D01*
X168386763Y-72294000D01*
X168300000Y-72276742D01*
X168213237Y-72294000D01*
X163036761Y-72294000D01*
X162949999Y-72276742D01*
X162863238Y-72294000D01*
X162863233Y-72294000D01*
X162606251Y-72345117D01*
X162314835Y-72539835D01*
X162265685Y-72613393D01*
X161688395Y-73190684D01*
X161614835Y-73239835D01*
X161420117Y-73531252D01*
X161369000Y-73788234D01*
X161369000Y-73788237D01*
X161351742Y-73875000D01*
X161369000Y-73961763D01*
X161369001Y-75137548D01*
X161344000Y-75263233D01*
X161344000Y-75263237D01*
X161326742Y-75350000D01*
X161344000Y-75436763D01*
X161344000Y-76286766D01*
X161395117Y-76543748D01*
X161589835Y-76835165D01*
X161881251Y-77029883D01*
X162225000Y-77098259D01*
X162568748Y-77029883D01*
X162860165Y-76835165D01*
X163054883Y-76543749D01*
X163106000Y-76286767D01*
X163106000Y-75537450D01*
X163131000Y-75411767D01*
X163131000Y-75411762D01*
X163148258Y-75325001D01*
X163131000Y-75238239D01*
X163131000Y-75107800D01*
X166360742Y-75107800D01*
X166378000Y-75194563D01*
X166378000Y-75859237D01*
X166360742Y-75946000D01*
X166378000Y-76032763D01*
X166378000Y-76032766D01*
X166429117Y-76289748D01*
X166623835Y-76581165D01*
X166697395Y-76630317D01*
X168225685Y-78158607D01*
X168274835Y-78232165D01*
X168424783Y-78332357D01*
X168566251Y-78426883D01*
X168910000Y-78495259D01*
X168996767Y-78478000D01*
X171236287Y-78478000D01*
X171363981Y-78503400D01*
X171363985Y-78503400D01*
X171450747Y-78520658D01*
X171520302Y-78506823D01*
X174098995Y-81085517D01*
X174154290Y-81164995D01*
X174294812Y-81255114D01*
X174433651Y-81347883D01*
X174442083Y-81349560D01*
X174449316Y-81354199D01*
X174613612Y-81383679D01*
X174777400Y-81416259D01*
X174872365Y-81397369D01*
X176085835Y-81374549D01*
X176233427Y-81400649D01*
X176495384Y-81395062D01*
X176816255Y-81254065D01*
X177058744Y-81001009D01*
X177185935Y-80674419D01*
X177178462Y-80324016D01*
X177037466Y-80003145D01*
X176784409Y-79760656D01*
X176540255Y-79665570D01*
X176309213Y-79624713D01*
X176225097Y-79609620D01*
X176223979Y-79609641D01*
X176222882Y-79609447D01*
X176137648Y-79611265D01*
X175135434Y-79630112D01*
X172566117Y-77060796D01*
X172516965Y-76987235D01*
X172225549Y-76792517D01*
X171968567Y-76741400D01*
X171968563Y-76741400D01*
X171881800Y-76724142D01*
X171795037Y-76741400D01*
X171639809Y-76741400D01*
X171512115Y-76716000D01*
X171512111Y-76716000D01*
X171425348Y-76698742D01*
X171338585Y-76716000D01*
X169274922Y-76716000D01*
X168140000Y-75581079D01*
X168140000Y-75296859D01*
X168182658Y-75082401D01*
X168114283Y-74738652D01*
X167919565Y-74447235D01*
X167628148Y-74252517D01*
X167284399Y-74184142D01*
X166940652Y-74252517D01*
X166722793Y-74398086D01*
X166697394Y-74423485D01*
X166623836Y-74472635D01*
X166574686Y-74546193D01*
X166429117Y-74764052D01*
X166404248Y-74889076D01*
X166378000Y-75021033D01*
X166378000Y-75021037D01*
X166360742Y-75107800D01*
X163131000Y-75107800D01*
X163131000Y-74239921D01*
X163314922Y-74056000D01*
X167935079Y-74056000D01*
X169192885Y-75313807D01*
X169242035Y-75387365D01*
X169315592Y-75436514D01*
X169533451Y-75582083D01*
X169877200Y-75650459D01*
X169963967Y-75633200D01*
X173212279Y-75633200D01*
X177579401Y-80000323D01*
X177579400Y-108353187D01*
X177562142Y-108439950D01*
X177579400Y-108526713D01*
X177579400Y-108526716D01*
X177630517Y-108783698D01*
X177825235Y-109075115D01*
X177898796Y-109124267D01*
X178054010Y-109279481D01*
X178054011Y-111523702D01*
X176539004Y-113038709D01*
X176454796Y-113164736D01*
X176425226Y-113313395D01*
X176454796Y-113462054D01*
X176539004Y-113588081D01*
X178660324Y-115709401D01*
X178786351Y-115793609D01*
X178935010Y-115823179D01*
X179083669Y-115793609D01*
X179209696Y-115709401D01*
X180721000Y-114198097D01*
X180721000Y-118771858D01*
X180552755Y-119051865D01*
X180134514Y-119494143D01*
X179741846Y-119761000D01*
X129894142Y-119761000D01*
X129614135Y-119592755D01*
X129171857Y-119174514D01*
X129159000Y-119155595D01*
X129159000Y-107263795D01*
X131084168Y-107263795D01*
X131105134Y-107797430D01*
X131111520Y-107830904D01*
X131112590Y-107864963D01*
X131131934Y-107937920D01*
X131308884Y-108441799D01*
X131324829Y-108471914D01*
X131335867Y-108504153D01*
X131375808Y-108568197D01*
X131686354Y-108988643D01*
X131706384Y-109018620D01*
X139901379Y-117213616D01*
X139917193Y-117224183D01*
X140109923Y-117388790D01*
X140124439Y-117397843D01*
X140136536Y-117409940D01*
X140200580Y-117449881D01*
X140674500Y-117696062D01*
X140706738Y-117707099D01*
X140736854Y-117723045D01*
X140809811Y-117742389D01*
X141335168Y-117838337D01*
X141369228Y-117839408D01*
X141402702Y-117845793D01*
X141478121Y-117842830D01*
X142008465Y-117780059D01*
X142041332Y-117771067D01*
X142075204Y-117767328D01*
X142146418Y-117742319D01*
X142634861Y-117526381D01*
X142663633Y-117508122D01*
X142694907Y-117494588D01*
X142755620Y-117449745D01*
X143158975Y-117099731D01*
X143181106Y-117073819D01*
X143207018Y-117051688D01*
X143251861Y-116990976D01*
X143534466Y-116537832D01*
X143547999Y-116506558D01*
X143566259Y-116477786D01*
X143591268Y-116406572D01*
X143728138Y-115890363D01*
X143731877Y-115856492D01*
X143740869Y-115823624D01*
X143743832Y-115748205D01*
X143722866Y-115214571D01*
X143716481Y-115181097D01*
X143715410Y-115147037D01*
X143696066Y-115074080D01*
X143519116Y-114570201D01*
X143503172Y-114540088D01*
X143492133Y-114507846D01*
X143452192Y-114443803D01*
X143141653Y-114023366D01*
X143121616Y-113993379D01*
X140660880Y-111532643D01*
X160147000Y-111532643D01*
X160147000Y-111987357D01*
X160321011Y-112407458D01*
X160642542Y-112728989D01*
X161062643Y-112903000D01*
X161517357Y-112903000D01*
X161937458Y-112728989D01*
X162258989Y-112407458D01*
X162433000Y-111987357D01*
X162433000Y-111532643D01*
X162258989Y-111112542D01*
X161937458Y-110791011D01*
X161517357Y-110617000D01*
X161062643Y-110617000D01*
X160642542Y-110791011D01*
X160321011Y-111112542D01*
X160147000Y-111532643D01*
X140660880Y-111532643D01*
X138120880Y-108992643D01*
X160147000Y-108992643D01*
X160147000Y-109447357D01*
X160321011Y-109867458D01*
X160642542Y-110188989D01*
X161062643Y-110363000D01*
X161517357Y-110363000D01*
X161937458Y-110188989D01*
X162258989Y-109867458D01*
X162433000Y-109447357D01*
X162433000Y-108992643D01*
X162258989Y-108572542D01*
X161937458Y-108251011D01*
X161517357Y-108077000D01*
X161062643Y-108077000D01*
X160642542Y-108251011D01*
X160321011Y-108572542D01*
X160147000Y-108992643D01*
X138120880Y-108992643D01*
X134926620Y-105798384D01*
X134910810Y-105787820D01*
X134718077Y-105623210D01*
X134703561Y-105614157D01*
X134691464Y-105602060D01*
X134627420Y-105562119D01*
X134153500Y-105315938D01*
X134121262Y-105304901D01*
X134091146Y-105288955D01*
X134018190Y-105269611D01*
X133492832Y-105173663D01*
X133458773Y-105172593D01*
X133425299Y-105166207D01*
X133349879Y-105169170D01*
X132819535Y-105231941D01*
X132786668Y-105240933D01*
X132752797Y-105244672D01*
X132681582Y-105269681D01*
X132193139Y-105485619D01*
X132164366Y-105503879D01*
X132133093Y-105517412D01*
X132072380Y-105562255D01*
X131669025Y-105912269D01*
X131646894Y-105938181D01*
X131620982Y-105960312D01*
X131576139Y-106021024D01*
X131293533Y-106474168D01*
X131279999Y-106505445D01*
X131261741Y-106534214D01*
X131236732Y-106605428D01*
X131099862Y-107121637D01*
X131096123Y-107155508D01*
X131087131Y-107188376D01*
X131084168Y-107263795D01*
X129159000Y-107263795D01*
X129159000Y-95885000D01*
X139589142Y-95885000D01*
X139606401Y-95971768D01*
X139606400Y-100675037D01*
X139589142Y-100761800D01*
X139606400Y-100848563D01*
X139606400Y-100848566D01*
X139657517Y-101105548D01*
X139852235Y-101396965D01*
X139925796Y-101446117D01*
X142316285Y-103836607D01*
X142365435Y-103910165D01*
X142656851Y-104104883D01*
X143000600Y-104173259D01*
X143087367Y-104156000D01*
X144756579Y-104156000D01*
X146512185Y-105911607D01*
X146561335Y-105985165D01*
X146852751Y-106179883D01*
X147109733Y-106231000D01*
X147109738Y-106231000D01*
X147196499Y-106248258D01*
X147283261Y-106231000D01*
X148055237Y-106231000D01*
X148142000Y-106248258D01*
X148228763Y-106231000D01*
X148228767Y-106231000D01*
X148485749Y-106179883D01*
X148777165Y-105985165D01*
X148826317Y-105911604D01*
X149809278Y-104928643D01*
X159410400Y-104928643D01*
X159410400Y-105383357D01*
X159584411Y-105803458D01*
X159905942Y-106124989D01*
X160326043Y-106299000D01*
X160780757Y-106299000D01*
X161200858Y-106124989D01*
X161522389Y-105803458D01*
X161696400Y-105383357D01*
X161696400Y-104928643D01*
X161925000Y-104928643D01*
X161925000Y-105383357D01*
X162099011Y-105803458D01*
X162420542Y-106124989D01*
X162840643Y-106299000D01*
X163295357Y-106299000D01*
X163715458Y-106124989D01*
X164036989Y-105803458D01*
X164211000Y-105383357D01*
X164211000Y-104928643D01*
X164036989Y-104508542D01*
X163715458Y-104187011D01*
X163295357Y-104013000D01*
X162840643Y-104013000D01*
X162420542Y-104187011D01*
X162099011Y-104508542D01*
X161925000Y-104928643D01*
X161696400Y-104928643D01*
X161522389Y-104508542D01*
X161200858Y-104187011D01*
X160780757Y-104013000D01*
X160326043Y-104013000D01*
X159905942Y-104187011D01*
X159584411Y-104508542D01*
X159410400Y-104928643D01*
X149809278Y-104928643D01*
X151687314Y-103050608D01*
X151687316Y-103050605D01*
X151992113Y-102745808D01*
X154199025Y-100538897D01*
X154272582Y-100489748D01*
X154282000Y-100475653D01*
X154282000Y-100577357D01*
X154456011Y-100997458D01*
X154777542Y-101318989D01*
X155197643Y-101493000D01*
X155652357Y-101493000D01*
X156072458Y-101318989D01*
X156393989Y-100997458D01*
X156568000Y-100577357D01*
X156568000Y-100181322D01*
X156643285Y-100256607D01*
X156692435Y-100330165D01*
X156983851Y-100524883D01*
X157240833Y-100576000D01*
X157240836Y-100576000D01*
X157327599Y-100593258D01*
X157414362Y-100576000D01*
X162016037Y-100576000D01*
X162102800Y-100593258D01*
X162189563Y-100576000D01*
X162189567Y-100576000D01*
X162446549Y-100524883D01*
X162737965Y-100330165D01*
X162787117Y-100256605D01*
X164061408Y-98982314D01*
X164134965Y-98933165D01*
X164329683Y-98641749D01*
X164380800Y-98384767D01*
X164380800Y-98384762D01*
X164398058Y-98298001D01*
X164380800Y-98211239D01*
X164380800Y-97830234D01*
X164329683Y-97573251D01*
X164134965Y-97281835D01*
X163843549Y-97087117D01*
X163499800Y-97018741D01*
X163156052Y-97087117D01*
X162864636Y-97281835D01*
X162669917Y-97573251D01*
X162618800Y-97830233D01*
X162618800Y-97933078D01*
X161737879Y-98814000D01*
X157692522Y-98814000D01*
X156945116Y-98066595D01*
X156895965Y-97993035D01*
X156604549Y-97798317D01*
X156347567Y-97747200D01*
X156347563Y-97747200D01*
X156260800Y-97729942D01*
X156174037Y-97747200D01*
X154519515Y-97747200D01*
X154432748Y-97729941D01*
X154345981Y-97747200D01*
X154088999Y-97798317D01*
X153797583Y-97993035D01*
X153748433Y-98066593D01*
X153075810Y-98739217D01*
X153002253Y-98788366D01*
X152807534Y-99079782D01*
X152756417Y-99336764D01*
X152756417Y-99336768D01*
X152739159Y-99423531D01*
X152752994Y-99493084D01*
X150746192Y-101499887D01*
X150441395Y-101804684D01*
X150441392Y-101804686D01*
X147777079Y-104469000D01*
X147561422Y-104469000D01*
X145781812Y-102689391D01*
X145732664Y-102615836D01*
X145659109Y-102566688D01*
X145659107Y-102566686D01*
X145441248Y-102421117D01*
X145097500Y-102352742D01*
X145097499Y-102352742D01*
X144890079Y-102394000D01*
X143365522Y-102394000D01*
X141665893Y-100694372D01*
X142012643Y-100838000D01*
X142467357Y-100838000D01*
X142887458Y-100663989D01*
X143208989Y-100342458D01*
X143383000Y-99922357D01*
X143383000Y-99467643D01*
X143637000Y-99467643D01*
X143637000Y-99922357D01*
X143811011Y-100342458D01*
X144132542Y-100663989D01*
X144552643Y-100838000D01*
X145007357Y-100838000D01*
X145427458Y-100663989D01*
X145748989Y-100342458D01*
X145923000Y-99922357D01*
X145923000Y-99467643D01*
X146177000Y-99467643D01*
X146177000Y-99922357D01*
X146351011Y-100342458D01*
X146672542Y-100663989D01*
X147092643Y-100838000D01*
X147547357Y-100838000D01*
X147967458Y-100663989D01*
X148288989Y-100342458D01*
X148463000Y-99922357D01*
X148463000Y-99467643D01*
X148717000Y-99467643D01*
X148717000Y-99922357D01*
X148891011Y-100342458D01*
X149212542Y-100663989D01*
X149632643Y-100838000D01*
X150087357Y-100838000D01*
X150507458Y-100663989D01*
X150828989Y-100342458D01*
X151003000Y-99922357D01*
X151003000Y-99467643D01*
X150828989Y-99047542D01*
X150507458Y-98726011D01*
X150087357Y-98552000D01*
X149632643Y-98552000D01*
X149212542Y-98726011D01*
X148891011Y-99047542D01*
X148717000Y-99467643D01*
X148463000Y-99467643D01*
X148288989Y-99047542D01*
X147967458Y-98726011D01*
X147547357Y-98552000D01*
X147092643Y-98552000D01*
X146672542Y-98726011D01*
X146351011Y-99047542D01*
X146177000Y-99467643D01*
X145923000Y-99467643D01*
X145748989Y-99047542D01*
X145427458Y-98726011D01*
X145007357Y-98552000D01*
X144552643Y-98552000D01*
X144132542Y-98726011D01*
X143811011Y-99047542D01*
X143637000Y-99467643D01*
X143383000Y-99467643D01*
X143208989Y-99047542D01*
X142887458Y-98726011D01*
X142467357Y-98552000D01*
X142012643Y-98552000D01*
X141592542Y-98726011D01*
X141368400Y-98950153D01*
X141368400Y-97308643D01*
X159893000Y-97308643D01*
X159893000Y-97763357D01*
X160067011Y-98183458D01*
X160388542Y-98504989D01*
X160808643Y-98679000D01*
X161263357Y-98679000D01*
X161683458Y-98504989D01*
X162004989Y-98183458D01*
X162179000Y-97763357D01*
X162179000Y-97308643D01*
X162004989Y-96888542D01*
X161683458Y-96567011D01*
X161263357Y-96393000D01*
X160808643Y-96393000D01*
X160388542Y-96567011D01*
X160067011Y-96888542D01*
X159893000Y-97308643D01*
X141368400Y-97308643D01*
X141368400Y-96249921D01*
X146745122Y-90873200D01*
X147019001Y-90873200D01*
X147019000Y-92811766D01*
X147070117Y-93068748D01*
X147264835Y-93360165D01*
X147556251Y-93554883D01*
X147900000Y-93623259D01*
X148243748Y-93554883D01*
X148535165Y-93360165D01*
X148729883Y-93068749D01*
X148781000Y-92811767D01*
X148781000Y-90873200D01*
X153297000Y-90873200D01*
X153297000Y-91145766D01*
X153348117Y-91402748D01*
X153542835Y-91694165D01*
X153834251Y-91888883D01*
X154178000Y-91957259D01*
X154521748Y-91888883D01*
X154813165Y-91694165D01*
X155007883Y-91402749D01*
X155059000Y-91145767D01*
X155059000Y-90873200D01*
X158308947Y-90873200D01*
X158324034Y-90876201D01*
X158324038Y-90876201D01*
X158410800Y-90893459D01*
X158497563Y-90876201D01*
X160130280Y-90876201D01*
X160238393Y-90984314D01*
X160456252Y-91129883D01*
X160800000Y-91198259D01*
X161143748Y-91129883D01*
X161435165Y-90935165D01*
X161629883Y-90643748D01*
X161698259Y-90300000D01*
X161629883Y-89956252D01*
X161484314Y-89738393D01*
X161434564Y-89688643D01*
X168021000Y-89688643D01*
X168021000Y-90143357D01*
X168195011Y-90563458D01*
X168516542Y-90884989D01*
X168936643Y-91059000D01*
X169391357Y-91059000D01*
X169811458Y-90884989D01*
X170132989Y-90563458D01*
X170307000Y-90143357D01*
X170307000Y-89688643D01*
X170561000Y-89688643D01*
X170561000Y-90143357D01*
X170735011Y-90563458D01*
X171056542Y-90884989D01*
X171476643Y-91059000D01*
X171931357Y-91059000D01*
X172351458Y-90884989D01*
X172672989Y-90563458D01*
X172847000Y-90143357D01*
X172847000Y-89688643D01*
X172672989Y-89268542D01*
X172351458Y-88947011D01*
X171931357Y-88773000D01*
X171476643Y-88773000D01*
X171056542Y-88947011D01*
X170735011Y-89268542D01*
X170561000Y-89688643D01*
X170307000Y-89688643D01*
X170132989Y-89268542D01*
X169811458Y-88947011D01*
X169391357Y-88773000D01*
X168936643Y-88773000D01*
X168516542Y-88947011D01*
X168195011Y-89268542D01*
X168021000Y-89688643D01*
X161434564Y-89688643D01*
X161179518Y-89433597D01*
X161130366Y-89360036D01*
X160838950Y-89165318D01*
X160581968Y-89114201D01*
X160581964Y-89114201D01*
X160540057Y-89105865D01*
X160657808Y-88988114D01*
X160728762Y-88940704D01*
X161328614Y-88940704D01*
X161415377Y-88957962D01*
X161502140Y-88940704D01*
X161502144Y-88940704D01*
X161759126Y-88889587D01*
X162050542Y-88694869D01*
X162099694Y-88621309D01*
X163629607Y-87091396D01*
X163703165Y-87042246D01*
X163897883Y-86750830D01*
X163949000Y-86493848D01*
X163966259Y-86407081D01*
X163949000Y-86320314D01*
X163949000Y-82686321D01*
X165109322Y-81526000D01*
X167193367Y-81526000D01*
X167450349Y-81474883D01*
X167741765Y-81280165D01*
X167893790Y-81052643D01*
X170307000Y-81052643D01*
X170307000Y-81507357D01*
X170481011Y-81927458D01*
X170802542Y-82248989D01*
X171222643Y-82423000D01*
X171677357Y-82423000D01*
X172097458Y-82248989D01*
X172418989Y-81927458D01*
X172593000Y-81507357D01*
X172593000Y-81052643D01*
X172418989Y-80632542D01*
X172097458Y-80311011D01*
X171677357Y-80137000D01*
X171222643Y-80137000D01*
X170802542Y-80311011D01*
X170481011Y-80632542D01*
X170307000Y-81052643D01*
X167893790Y-81052643D01*
X167936483Y-80988749D01*
X168004859Y-80645000D01*
X167936483Y-80301251D01*
X167741765Y-80009835D01*
X167450349Y-79815117D01*
X167193367Y-79764000D01*
X164831167Y-79764000D01*
X164744400Y-79746741D01*
X164657633Y-79764000D01*
X164400651Y-79815117D01*
X164109235Y-80009835D01*
X164060085Y-80083393D01*
X162506393Y-81637085D01*
X162432836Y-81686235D01*
X162383686Y-81759793D01*
X162238117Y-81977652D01*
X162169742Y-82321400D01*
X162187001Y-82408167D01*
X162187000Y-84342833D01*
X162187000Y-84342834D01*
X162187001Y-86042158D01*
X161050456Y-87178704D01*
X160433626Y-87178704D01*
X158088117Y-84833196D01*
X158038965Y-84759635D01*
X157747549Y-84564917D01*
X157490567Y-84513800D01*
X157490563Y-84513800D01*
X157403800Y-84496542D01*
X157317037Y-84513800D01*
X155938578Y-84513800D01*
X155681596Y-84564917D01*
X155390180Y-84759635D01*
X155195462Y-85051051D01*
X155127086Y-85394800D01*
X155195462Y-85738549D01*
X155390180Y-86029965D01*
X155681596Y-86224683D01*
X155938578Y-86275800D01*
X157038879Y-86275800D01*
X158958578Y-88195500D01*
X158042879Y-89111200D01*
X154261767Y-89111200D01*
X154175000Y-89093941D01*
X154088233Y-89111200D01*
X147961763Y-89111200D01*
X147875000Y-89093942D01*
X147788237Y-89111200D01*
X146466967Y-89111200D01*
X146380200Y-89093941D01*
X146293433Y-89111200D01*
X146036451Y-89162317D01*
X145745035Y-89357035D01*
X145695885Y-89430593D01*
X139925794Y-95200685D01*
X139852236Y-95249835D01*
X139803086Y-95323393D01*
X139657517Y-95541252D01*
X139589142Y-95885000D01*
X129159000Y-95885000D01*
X129159000Y-87504243D01*
X149987000Y-87504243D01*
X149987000Y-87958957D01*
X150161011Y-88379058D01*
X150482542Y-88700589D01*
X150902643Y-88874600D01*
X151357357Y-88874600D01*
X151777458Y-88700589D01*
X152098989Y-88379058D01*
X152273000Y-87958957D01*
X152273000Y-87504243D01*
X152098989Y-87084142D01*
X151777458Y-86762611D01*
X151357357Y-86588600D01*
X150902643Y-86588600D01*
X150482542Y-86762611D01*
X150161011Y-87084142D01*
X149987000Y-87504243D01*
X129159000Y-87504243D01*
X129159000Y-83592643D01*
X136017000Y-83592643D01*
X136017000Y-84047357D01*
X136191011Y-84467458D01*
X136512542Y-84788989D01*
X136932643Y-84963000D01*
X137387357Y-84963000D01*
X137807458Y-84788989D01*
X138128989Y-84467458D01*
X138303000Y-84047357D01*
X138303000Y-83592643D01*
X138557000Y-83592643D01*
X138557000Y-84047357D01*
X138731011Y-84467458D01*
X139052542Y-84788989D01*
X139472643Y-84963000D01*
X139927357Y-84963000D01*
X140347458Y-84788989D01*
X140668989Y-84467458D01*
X140843000Y-84047357D01*
X140843000Y-83592643D01*
X141097000Y-83592643D01*
X141097000Y-84047357D01*
X141271011Y-84467458D01*
X141592542Y-84788989D01*
X142012643Y-84963000D01*
X142467357Y-84963000D01*
X142887458Y-84788989D01*
X143208989Y-84467458D01*
X143383000Y-84047357D01*
X143383000Y-83592643D01*
X143637000Y-83592643D01*
X143637000Y-84047357D01*
X143811011Y-84467458D01*
X144132542Y-84788989D01*
X144552643Y-84963000D01*
X145007357Y-84963000D01*
X145427458Y-84788989D01*
X145748989Y-84467458D01*
X145923000Y-84047357D01*
X145923000Y-83592643D01*
X145748989Y-83172542D01*
X145427458Y-82851011D01*
X145007357Y-82677000D01*
X144552643Y-82677000D01*
X144132542Y-82851011D01*
X143811011Y-83172542D01*
X143637000Y-83592643D01*
X143383000Y-83592643D01*
X143208989Y-83172542D01*
X142887458Y-82851011D01*
X142467357Y-82677000D01*
X142012643Y-82677000D01*
X141592542Y-82851011D01*
X141271011Y-83172542D01*
X141097000Y-83592643D01*
X140843000Y-83592643D01*
X140668989Y-83172542D01*
X140347458Y-82851011D01*
X139927357Y-82677000D01*
X139472643Y-82677000D01*
X139052542Y-82851011D01*
X138731011Y-83172542D01*
X138557000Y-83592643D01*
X138303000Y-83592643D01*
X138128989Y-83172542D01*
X137807458Y-82851011D01*
X137387357Y-82677000D01*
X136932643Y-82677000D01*
X136512542Y-82851011D01*
X136191011Y-83172542D01*
X136017000Y-83592643D01*
X129159000Y-83592643D01*
X129159000Y-80417643D01*
X157607000Y-80417643D01*
X157607000Y-80872357D01*
X157781011Y-81292458D01*
X158102542Y-81613989D01*
X158522643Y-81788000D01*
X158977357Y-81788000D01*
X159397458Y-81613989D01*
X159718989Y-81292458D01*
X159893000Y-80872357D01*
X159893000Y-80417643D01*
X159718989Y-79997542D01*
X159397458Y-79676011D01*
X158977357Y-79502000D01*
X158522643Y-79502000D01*
X158102542Y-79676011D01*
X157781011Y-79997542D01*
X157607000Y-80417643D01*
X129159000Y-80417643D01*
X129159000Y-76627341D01*
X132618233Y-76627341D01*
X132618233Y-77276193D01*
X132866538Y-77875654D01*
X133325346Y-78334462D01*
X133924807Y-78582767D01*
X134573659Y-78582767D01*
X135173120Y-78334462D01*
X135629939Y-77877643D01*
X157607000Y-77877643D01*
X157607000Y-78332357D01*
X157781011Y-78752458D01*
X158102542Y-79073989D01*
X158522643Y-79248000D01*
X158977357Y-79248000D01*
X159397458Y-79073989D01*
X159718989Y-78752458D01*
X159893000Y-78332357D01*
X159893000Y-77877643D01*
X159718989Y-77457542D01*
X159397458Y-77136011D01*
X158977357Y-76962000D01*
X158522643Y-76962000D01*
X158102542Y-77136011D01*
X157781011Y-77457542D01*
X157607000Y-77877643D01*
X135629939Y-77877643D01*
X135631928Y-77875654D01*
X135880233Y-77276193D01*
X135880233Y-76627341D01*
X135631928Y-76027880D01*
X135173120Y-75569072D01*
X134573659Y-75320767D01*
X133924807Y-75320767D01*
X133325346Y-75569072D01*
X132866538Y-76027880D01*
X132618233Y-76627341D01*
X129159000Y-76627341D01*
X129159000Y-71654643D01*
X178358800Y-71654643D01*
X178358800Y-72109357D01*
X178532811Y-72529458D01*
X178854342Y-72850989D01*
X179274443Y-73025000D01*
X179729157Y-73025000D01*
X180149258Y-72850989D01*
X180470789Y-72529458D01*
X180644800Y-72109357D01*
X180644800Y-71654643D01*
X180470789Y-71234542D01*
X180149258Y-70913011D01*
X179729157Y-70739000D01*
X179274443Y-70739000D01*
X178854342Y-70913011D01*
X178532811Y-71234542D01*
X178358800Y-71654643D01*
X129159000Y-71654643D01*
X129159000Y-69622643D01*
X158877000Y-69622643D01*
X158877000Y-70077357D01*
X159051011Y-70497458D01*
X159372542Y-70818989D01*
X159792643Y-70993000D01*
X160247357Y-70993000D01*
X160667458Y-70818989D01*
X160988989Y-70497458D01*
X161163000Y-70077357D01*
X161163000Y-69622643D01*
X161417000Y-69622643D01*
X161417000Y-70077357D01*
X161591011Y-70497458D01*
X161912542Y-70818989D01*
X162332643Y-70993000D01*
X162787357Y-70993000D01*
X163207458Y-70818989D01*
X163528989Y-70497458D01*
X163703000Y-70077357D01*
X163703000Y-69622643D01*
X163528989Y-69202542D01*
X163207458Y-68881011D01*
X162787357Y-68707000D01*
X162332643Y-68707000D01*
X161912542Y-68881011D01*
X161591011Y-69202542D01*
X161417000Y-69622643D01*
X161163000Y-69622643D01*
X160988989Y-69202542D01*
X160667458Y-68881011D01*
X160247357Y-68707000D01*
X159792643Y-68707000D01*
X159372542Y-68881011D01*
X159051011Y-69202542D01*
X158877000Y-69622643D01*
X129159000Y-69622643D01*
X129159000Y-68817452D01*
X129491489Y-68465856D01*
X129884155Y-68199000D01*
X170194314Y-68199000D01*
X170020884Y-68314883D01*
X170020884Y-68314883D01*
G37*
X170020884Y-68314883D02*
X169837216Y-68589760D01*
X169789000Y-68832154D01*
X169789000Y-69695845D01*
X169837215Y-69938239D01*
X170020883Y-70213117D01*
X170295760Y-70396785D01*
X170620000Y-70461280D01*
X170944239Y-70396785D01*
X171219117Y-70213117D01*
X171402785Y-69938240D01*
X171451000Y-69695846D01*
X171451000Y-68832154D01*
X171402785Y-68589760D01*
X171219117Y-68314883D01*
X171045687Y-68199000D01*
X176794314Y-68199000D01*
X176620884Y-68314883D01*
X176437216Y-68589760D01*
X176389000Y-68832154D01*
X176389000Y-69695845D01*
X176437215Y-69938239D01*
X176620883Y-70213117D01*
X176895760Y-70396785D01*
X177220000Y-70461280D01*
X177544239Y-70396785D01*
X177819117Y-70213117D01*
X178002785Y-69938240D01*
X178051000Y-69695846D01*
X178051000Y-68832154D01*
X178002785Y-68589760D01*
X177819117Y-68314883D01*
X177645687Y-68199000D01*
X179731860Y-68199000D01*
X180011862Y-68367242D01*
X180454144Y-68785489D01*
X180721000Y-69178155D01*
X180721000Y-112428693D01*
X179816010Y-111523703D01*
X179816010Y-109001327D01*
X179833269Y-108914560D01*
X179764893Y-108570811D01*
X179735430Y-108526717D01*
X179570175Y-108279395D01*
X179496615Y-108230244D01*
X179341400Y-108075029D01*
X179341400Y-79722167D01*
X179358659Y-79635400D01*
X179290283Y-79291651D01*
X179144714Y-79073792D01*
X179095565Y-79000235D01*
X179022007Y-78951085D01*
X174261517Y-74190596D01*
X174212365Y-74117035D01*
X173920949Y-73922317D01*
X173663967Y-73871200D01*
X173663963Y-73871200D01*
X173577200Y-73853942D01*
X173490437Y-73871200D01*
X170242122Y-73871200D01*
X168984317Y-72613395D01*
X168935165Y-72539835D01*
X168643749Y-72345117D01*
X168386767Y-72294000D01*
X168386763Y-72294000D01*
X168300000Y-72276742D01*
X168213237Y-72294000D01*
X163036761Y-72294000D01*
X162949999Y-72276742D01*
X162863238Y-72294000D01*
X162863233Y-72294000D01*
X162606251Y-72345117D01*
X162314835Y-72539835D01*
X162265685Y-72613393D01*
X161688395Y-73190684D01*
X161614835Y-73239835D01*
X161420117Y-73531252D01*
X161369000Y-73788234D01*
X161369000Y-73788237D01*
X161351742Y-73875000D01*
X161369000Y-73961763D01*
X161369001Y-75137548D01*
X161344000Y-75263233D01*
X161344000Y-75263237D01*
X161326742Y-75350000D01*
X161344000Y-75436763D01*
X161344000Y-76286766D01*
X161395117Y-76543748D01*
X161589835Y-76835165D01*
X161881251Y-77029883D01*
X162225000Y-77098259D01*
X162568748Y-77029883D01*
X162860165Y-76835165D01*
X163054883Y-76543749D01*
X163106000Y-76286767D01*
X163106000Y-75537450D01*
X163131000Y-75411767D01*
X163131000Y-75411762D01*
X163148258Y-75325001D01*
X163131000Y-75238239D01*
X163131000Y-75107800D01*
X166360742Y-75107800D01*
X166378000Y-75194563D01*
X166378000Y-75859237D01*
X166360742Y-75946000D01*
X166378000Y-76032763D01*
X166378000Y-76032766D01*
X166429117Y-76289748D01*
X166623835Y-76581165D01*
X166697395Y-76630317D01*
X168225685Y-78158607D01*
X168274835Y-78232165D01*
X168424783Y-78332357D01*
X168566251Y-78426883D01*
X168910000Y-78495259D01*
X168996767Y-78478000D01*
X171236287Y-78478000D01*
X171363981Y-78503400D01*
X171363985Y-78503400D01*
X171450747Y-78520658D01*
X171520302Y-78506823D01*
X174098995Y-81085517D01*
X174154290Y-81164995D01*
X174294812Y-81255114D01*
X174433651Y-81347883D01*
X174442083Y-81349560D01*
X174449316Y-81354199D01*
X174613612Y-81383679D01*
X174777400Y-81416259D01*
X174872365Y-81397369D01*
X176085835Y-81374549D01*
X176233427Y-81400649D01*
X176495384Y-81395062D01*
X176816255Y-81254065D01*
X177058744Y-81001009D01*
X177185935Y-80674419D01*
X177178462Y-80324016D01*
X177037466Y-80003145D01*
X176784409Y-79760656D01*
X176540255Y-79665570D01*
X176309213Y-79624713D01*
X176225097Y-79609620D01*
X176223979Y-79609641D01*
X176222882Y-79609447D01*
X176137648Y-79611265D01*
X175135434Y-79630112D01*
X172566117Y-77060796D01*
X172516965Y-76987235D01*
X172225549Y-76792517D01*
X171968567Y-76741400D01*
X171968563Y-76741400D01*
X171881800Y-76724142D01*
X171795037Y-76741400D01*
X171639809Y-76741400D01*
X171512115Y-76716000D01*
X171512111Y-76716000D01*
X171425348Y-76698742D01*
X171338585Y-76716000D01*
X169274922Y-76716000D01*
X168140000Y-75581079D01*
X168140000Y-75296859D01*
X168182658Y-75082401D01*
X168114283Y-74738652D01*
X167919565Y-74447235D01*
X167628148Y-74252517D01*
X167284399Y-74184142D01*
X166940652Y-74252517D01*
X166722793Y-74398086D01*
X166697394Y-74423485D01*
X166623836Y-74472635D01*
X166574686Y-74546193D01*
X166429117Y-74764052D01*
X166404248Y-74889076D01*
X166378000Y-75021033D01*
X166378000Y-75021037D01*
X166360742Y-75107800D01*
X163131000Y-75107800D01*
X163131000Y-74239921D01*
X163314922Y-74056000D01*
X167935079Y-74056000D01*
X169192885Y-75313807D01*
X169242035Y-75387365D01*
X169315592Y-75436514D01*
X169533451Y-75582083D01*
X169877200Y-75650459D01*
X169963967Y-75633200D01*
X173212279Y-75633200D01*
X177579401Y-80000323D01*
X177579400Y-108353187D01*
X177562142Y-108439950D01*
X177579400Y-108526713D01*
X177579400Y-108526716D01*
X177630517Y-108783698D01*
X177825235Y-109075115D01*
X177898796Y-109124267D01*
X178054010Y-109279481D01*
X178054011Y-111523702D01*
X176539004Y-113038709D01*
X176454796Y-113164736D01*
X176425226Y-113313395D01*
X176454796Y-113462054D01*
X176539004Y-113588081D01*
X178660324Y-115709401D01*
X178786351Y-115793609D01*
X178935010Y-115823179D01*
X179083669Y-115793609D01*
X179209696Y-115709401D01*
X180721000Y-114198097D01*
X180721000Y-118771858D01*
X180552755Y-119051865D01*
X180134514Y-119494143D01*
X179741846Y-119761000D01*
X129894142Y-119761000D01*
X129614135Y-119592755D01*
X129171857Y-119174514D01*
X129159000Y-119155595D01*
X129159000Y-107263795D01*
X131084168Y-107263795D01*
X131105134Y-107797430D01*
X131111520Y-107830904D01*
X131112590Y-107864963D01*
X131131934Y-107937920D01*
X131308884Y-108441799D01*
X131324829Y-108471914D01*
X131335867Y-108504153D01*
X131375808Y-108568197D01*
X131686354Y-108988643D01*
X131706384Y-109018620D01*
X139901379Y-117213616D01*
X139917193Y-117224183D01*
X140109923Y-117388790D01*
X140124439Y-117397843D01*
X140136536Y-117409940D01*
X140200580Y-117449881D01*
X140674500Y-117696062D01*
X140706738Y-117707099D01*
X140736854Y-117723045D01*
X140809811Y-117742389D01*
X141335168Y-117838337D01*
X141369228Y-117839408D01*
X141402702Y-117845793D01*
X141478121Y-117842830D01*
X142008465Y-117780059D01*
X142041332Y-117771067D01*
X142075204Y-117767328D01*
X142146418Y-117742319D01*
X142634861Y-117526381D01*
X142663633Y-117508122D01*
X142694907Y-117494588D01*
X142755620Y-117449745D01*
X143158975Y-117099731D01*
X143181106Y-117073819D01*
X143207018Y-117051688D01*
X143251861Y-116990976D01*
X143534466Y-116537832D01*
X143547999Y-116506558D01*
X143566259Y-116477786D01*
X143591268Y-116406572D01*
X143728138Y-115890363D01*
X143731877Y-115856492D01*
X143740869Y-115823624D01*
X143743832Y-115748205D01*
X143722866Y-115214571D01*
X143716481Y-115181097D01*
X143715410Y-115147037D01*
X143696066Y-115074080D01*
X143519116Y-114570201D01*
X143503172Y-114540088D01*
X143492133Y-114507846D01*
X143452192Y-114443803D01*
X143141653Y-114023366D01*
X143121616Y-113993379D01*
X140660880Y-111532643D01*
X160147000Y-111532643D01*
X160147000Y-111987357D01*
X160321011Y-112407458D01*
X160642542Y-112728989D01*
X161062643Y-112903000D01*
X161517357Y-112903000D01*
X161937458Y-112728989D01*
X162258989Y-112407458D01*
X162433000Y-111987357D01*
X162433000Y-111532643D01*
X162258989Y-111112542D01*
X161937458Y-110791011D01*
X161517357Y-110617000D01*
X161062643Y-110617000D01*
X160642542Y-110791011D01*
X160321011Y-111112542D01*
X160147000Y-111532643D01*
X140660880Y-111532643D01*
X138120880Y-108992643D01*
X160147000Y-108992643D01*
X160147000Y-109447357D01*
X160321011Y-109867458D01*
X160642542Y-110188989D01*
X161062643Y-110363000D01*
X161517357Y-110363000D01*
X161937458Y-110188989D01*
X162258989Y-109867458D01*
X162433000Y-109447357D01*
X162433000Y-108992643D01*
X162258989Y-108572542D01*
X161937458Y-108251011D01*
X161517357Y-108077000D01*
X161062643Y-108077000D01*
X160642542Y-108251011D01*
X160321011Y-108572542D01*
X160147000Y-108992643D01*
X138120880Y-108992643D01*
X134926620Y-105798384D01*
X134910810Y-105787820D01*
X134718077Y-105623210D01*
X134703561Y-105614157D01*
X134691464Y-105602060D01*
X134627420Y-105562119D01*
X134153500Y-105315938D01*
X134121262Y-105304901D01*
X134091146Y-105288955D01*
X134018190Y-105269611D01*
X133492832Y-105173663D01*
X133458773Y-105172593D01*
X133425299Y-105166207D01*
X133349879Y-105169170D01*
X132819535Y-105231941D01*
X132786668Y-105240933D01*
X132752797Y-105244672D01*
X132681582Y-105269681D01*
X132193139Y-105485619D01*
X132164366Y-105503879D01*
X132133093Y-105517412D01*
X132072380Y-105562255D01*
X131669025Y-105912269D01*
X131646894Y-105938181D01*
X131620982Y-105960312D01*
X131576139Y-106021024D01*
X131293533Y-106474168D01*
X131279999Y-106505445D01*
X131261741Y-106534214D01*
X131236732Y-106605428D01*
X131099862Y-107121637D01*
X131096123Y-107155508D01*
X131087131Y-107188376D01*
X131084168Y-107263795D01*
X129159000Y-107263795D01*
X129159000Y-95885000D01*
X139589142Y-95885000D01*
X139606401Y-95971768D01*
X139606400Y-100675037D01*
X139589142Y-100761800D01*
X139606400Y-100848563D01*
X139606400Y-100848566D01*
X139657517Y-101105548D01*
X139852235Y-101396965D01*
X139925796Y-101446117D01*
X142316285Y-103836607D01*
X142365435Y-103910165D01*
X142656851Y-104104883D01*
X143000600Y-104173259D01*
X143087367Y-104156000D01*
X144756579Y-104156000D01*
X146512185Y-105911607D01*
X146561335Y-105985165D01*
X146852751Y-106179883D01*
X147109733Y-106231000D01*
X147109738Y-106231000D01*
X147196499Y-106248258D01*
X147283261Y-106231000D01*
X148055237Y-106231000D01*
X148142000Y-106248258D01*
X148228763Y-106231000D01*
X148228767Y-106231000D01*
X148485749Y-106179883D01*
X148777165Y-105985165D01*
X148826317Y-105911604D01*
X149809278Y-104928643D01*
X159410400Y-104928643D01*
X159410400Y-105383357D01*
X159584411Y-105803458D01*
X159905942Y-106124989D01*
X160326043Y-106299000D01*
X160780757Y-106299000D01*
X161200858Y-106124989D01*
X161522389Y-105803458D01*
X161696400Y-105383357D01*
X161696400Y-104928643D01*
X161925000Y-104928643D01*
X161925000Y-105383357D01*
X162099011Y-105803458D01*
X162420542Y-106124989D01*
X162840643Y-106299000D01*
X163295357Y-106299000D01*
X163715458Y-106124989D01*
X164036989Y-105803458D01*
X164211000Y-105383357D01*
X164211000Y-104928643D01*
X164036989Y-104508542D01*
X163715458Y-104187011D01*
X163295357Y-104013000D01*
X162840643Y-104013000D01*
X162420542Y-104187011D01*
X162099011Y-104508542D01*
X161925000Y-104928643D01*
X161696400Y-104928643D01*
X161522389Y-104508542D01*
X161200858Y-104187011D01*
X160780757Y-104013000D01*
X160326043Y-104013000D01*
X159905942Y-104187011D01*
X159584411Y-104508542D01*
X159410400Y-104928643D01*
X149809278Y-104928643D01*
X151687314Y-103050608D01*
X151687316Y-103050605D01*
X151992113Y-102745808D01*
X154199025Y-100538897D01*
X154272582Y-100489748D01*
X154282000Y-100475653D01*
X154282000Y-100577357D01*
X154456011Y-100997458D01*
X154777542Y-101318989D01*
X155197643Y-101493000D01*
X155652357Y-101493000D01*
X156072458Y-101318989D01*
X156393989Y-100997458D01*
X156568000Y-100577357D01*
X156568000Y-100181322D01*
X156643285Y-100256607D01*
X156692435Y-100330165D01*
X156983851Y-100524883D01*
X157240833Y-100576000D01*
X157240836Y-100576000D01*
X157327599Y-100593258D01*
X157414362Y-100576000D01*
X162016037Y-100576000D01*
X162102800Y-100593258D01*
X162189563Y-100576000D01*
X162189567Y-100576000D01*
X162446549Y-100524883D01*
X162737965Y-100330165D01*
X162787117Y-100256605D01*
X164061408Y-98982314D01*
X164134965Y-98933165D01*
X164329683Y-98641749D01*
X164380800Y-98384767D01*
X164380800Y-98384762D01*
X164398058Y-98298001D01*
X164380800Y-98211239D01*
X164380800Y-97830234D01*
X164329683Y-97573251D01*
X164134965Y-97281835D01*
X163843549Y-97087117D01*
X163499800Y-97018741D01*
X163156052Y-97087117D01*
X162864636Y-97281835D01*
X162669917Y-97573251D01*
X162618800Y-97830233D01*
X162618800Y-97933078D01*
X161737879Y-98814000D01*
X157692522Y-98814000D01*
X156945116Y-98066595D01*
X156895965Y-97993035D01*
X156604549Y-97798317D01*
X156347567Y-97747200D01*
X156347563Y-97747200D01*
X156260800Y-97729942D01*
X156174037Y-97747200D01*
X154519515Y-97747200D01*
X154432748Y-97729941D01*
X154345981Y-97747200D01*
X154088999Y-97798317D01*
X153797583Y-97993035D01*
X153748433Y-98066593D01*
X153075810Y-98739217D01*
X153002253Y-98788366D01*
X152807534Y-99079782D01*
X152756417Y-99336764D01*
X152756417Y-99336768D01*
X152739159Y-99423531D01*
X152752994Y-99493084D01*
X150746192Y-101499887D01*
X150441395Y-101804684D01*
X150441392Y-101804686D01*
X147777079Y-104469000D01*
X147561422Y-104469000D01*
X145781812Y-102689391D01*
X145732664Y-102615836D01*
X145659109Y-102566688D01*
X145659107Y-102566686D01*
X145441248Y-102421117D01*
X145097500Y-102352742D01*
X145097499Y-102352742D01*
X144890079Y-102394000D01*
X143365522Y-102394000D01*
X141665893Y-100694372D01*
X142012643Y-100838000D01*
X142467357Y-100838000D01*
X142887458Y-100663989D01*
X143208989Y-100342458D01*
X143383000Y-99922357D01*
X143383000Y-99467643D01*
X143637000Y-99467643D01*
X143637000Y-99922357D01*
X143811011Y-100342458D01*
X144132542Y-100663989D01*
X144552643Y-100838000D01*
X145007357Y-100838000D01*
X145427458Y-100663989D01*
X145748989Y-100342458D01*
X145923000Y-99922357D01*
X145923000Y-99467643D01*
X146177000Y-99467643D01*
X146177000Y-99922357D01*
X146351011Y-100342458D01*
X146672542Y-100663989D01*
X147092643Y-100838000D01*
X147547357Y-100838000D01*
X147967458Y-100663989D01*
X148288989Y-100342458D01*
X148463000Y-99922357D01*
X148463000Y-99467643D01*
X148717000Y-99467643D01*
X148717000Y-99922357D01*
X148891011Y-100342458D01*
X149212542Y-100663989D01*
X149632643Y-100838000D01*
X150087357Y-100838000D01*
X150507458Y-100663989D01*
X150828989Y-100342458D01*
X151003000Y-99922357D01*
X151003000Y-99467643D01*
X150828989Y-99047542D01*
X150507458Y-98726011D01*
X150087357Y-98552000D01*
X149632643Y-98552000D01*
X149212542Y-98726011D01*
X148891011Y-99047542D01*
X148717000Y-99467643D01*
X148463000Y-99467643D01*
X148288989Y-99047542D01*
X147967458Y-98726011D01*
X147547357Y-98552000D01*
X147092643Y-98552000D01*
X146672542Y-98726011D01*
X146351011Y-99047542D01*
X146177000Y-99467643D01*
X145923000Y-99467643D01*
X145748989Y-99047542D01*
X145427458Y-98726011D01*
X145007357Y-98552000D01*
X144552643Y-98552000D01*
X144132542Y-98726011D01*
X143811011Y-99047542D01*
X143637000Y-99467643D01*
X143383000Y-99467643D01*
X143208989Y-99047542D01*
X142887458Y-98726011D01*
X142467357Y-98552000D01*
X142012643Y-98552000D01*
X141592542Y-98726011D01*
X141368400Y-98950153D01*
X141368400Y-97308643D01*
X159893000Y-97308643D01*
X159893000Y-97763357D01*
X160067011Y-98183458D01*
X160388542Y-98504989D01*
X160808643Y-98679000D01*
X161263357Y-98679000D01*
X161683458Y-98504989D01*
X162004989Y-98183458D01*
X162179000Y-97763357D01*
X162179000Y-97308643D01*
X162004989Y-96888542D01*
X161683458Y-96567011D01*
X161263357Y-96393000D01*
X160808643Y-96393000D01*
X160388542Y-96567011D01*
X160067011Y-96888542D01*
X159893000Y-97308643D01*
X141368400Y-97308643D01*
X141368400Y-96249921D01*
X146745122Y-90873200D01*
X147019001Y-90873200D01*
X147019000Y-92811766D01*
X147070117Y-93068748D01*
X147264835Y-93360165D01*
X147556251Y-93554883D01*
X147900000Y-93623259D01*
X148243748Y-93554883D01*
X148535165Y-93360165D01*
X148729883Y-93068749D01*
X148781000Y-92811767D01*
X148781000Y-90873200D01*
X153297000Y-90873200D01*
X153297000Y-91145766D01*
X153348117Y-91402748D01*
X153542835Y-91694165D01*
X153834251Y-91888883D01*
X154178000Y-91957259D01*
X154521748Y-91888883D01*
X154813165Y-91694165D01*
X155007883Y-91402749D01*
X155059000Y-91145767D01*
X155059000Y-90873200D01*
X158308947Y-90873200D01*
X158324034Y-90876201D01*
X158324038Y-90876201D01*
X158410800Y-90893459D01*
X158497563Y-90876201D01*
X160130280Y-90876201D01*
X160238393Y-90984314D01*
X160456252Y-91129883D01*
X160800000Y-91198259D01*
X161143748Y-91129883D01*
X161435165Y-90935165D01*
X161629883Y-90643748D01*
X161698259Y-90300000D01*
X161629883Y-89956252D01*
X161484314Y-89738393D01*
X161434564Y-89688643D01*
X168021000Y-89688643D01*
X168021000Y-90143357D01*
X168195011Y-90563458D01*
X168516542Y-90884989D01*
X168936643Y-91059000D01*
X169391357Y-91059000D01*
X169811458Y-90884989D01*
X170132989Y-90563458D01*
X170307000Y-90143357D01*
X170307000Y-89688643D01*
X170561000Y-89688643D01*
X170561000Y-90143357D01*
X170735011Y-90563458D01*
X171056542Y-90884989D01*
X171476643Y-91059000D01*
X171931357Y-91059000D01*
X172351458Y-90884989D01*
X172672989Y-90563458D01*
X172847000Y-90143357D01*
X172847000Y-89688643D01*
X172672989Y-89268542D01*
X172351458Y-88947011D01*
X171931357Y-88773000D01*
X171476643Y-88773000D01*
X171056542Y-88947011D01*
X170735011Y-89268542D01*
X170561000Y-89688643D01*
X170307000Y-89688643D01*
X170132989Y-89268542D01*
X169811458Y-88947011D01*
X169391357Y-88773000D01*
X168936643Y-88773000D01*
X168516542Y-88947011D01*
X168195011Y-89268542D01*
X168021000Y-89688643D01*
X161434564Y-89688643D01*
X161179518Y-89433597D01*
X161130366Y-89360036D01*
X160838950Y-89165318D01*
X160581968Y-89114201D01*
X160581964Y-89114201D01*
X160540057Y-89105865D01*
X160657808Y-88988114D01*
X160728762Y-88940704D01*
X161328614Y-88940704D01*
X161415377Y-88957962D01*
X161502140Y-88940704D01*
X161502144Y-88940704D01*
X161759126Y-88889587D01*
X162050542Y-88694869D01*
X162099694Y-88621309D01*
X163629607Y-87091396D01*
X163703165Y-87042246D01*
X163897883Y-86750830D01*
X163949000Y-86493848D01*
X163966259Y-86407081D01*
X163949000Y-86320314D01*
X163949000Y-82686321D01*
X165109322Y-81526000D01*
X167193367Y-81526000D01*
X167450349Y-81474883D01*
X167741765Y-81280165D01*
X167893790Y-81052643D01*
X170307000Y-81052643D01*
X170307000Y-81507357D01*
X170481011Y-81927458D01*
X170802542Y-82248989D01*
X171222643Y-82423000D01*
X171677357Y-82423000D01*
X172097458Y-82248989D01*
X172418989Y-81927458D01*
X172593000Y-81507357D01*
X172593000Y-81052643D01*
X172418989Y-80632542D01*
X172097458Y-80311011D01*
X171677357Y-80137000D01*
X171222643Y-80137000D01*
X170802542Y-80311011D01*
X170481011Y-80632542D01*
X170307000Y-81052643D01*
X167893790Y-81052643D01*
X167936483Y-80988749D01*
X168004859Y-80645000D01*
X167936483Y-80301251D01*
X167741765Y-80009835D01*
X167450349Y-79815117D01*
X167193367Y-79764000D01*
X164831167Y-79764000D01*
X164744400Y-79746741D01*
X164657633Y-79764000D01*
X164400651Y-79815117D01*
X164109235Y-80009835D01*
X164060085Y-80083393D01*
X162506393Y-81637085D01*
X162432836Y-81686235D01*
X162383686Y-81759793D01*
X162238117Y-81977652D01*
X162169742Y-82321400D01*
X162187001Y-82408167D01*
X162187000Y-84342833D01*
X162187000Y-84342834D01*
X162187001Y-86042158D01*
X161050456Y-87178704D01*
X160433626Y-87178704D01*
X158088117Y-84833196D01*
X158038965Y-84759635D01*
X157747549Y-84564917D01*
X157490567Y-84513800D01*
X157490563Y-84513800D01*
X157403800Y-84496542D01*
X157317037Y-84513800D01*
X155938578Y-84513800D01*
X155681596Y-84564917D01*
X155390180Y-84759635D01*
X155195462Y-85051051D01*
X155127086Y-85394800D01*
X155195462Y-85738549D01*
X155390180Y-86029965D01*
X155681596Y-86224683D01*
X155938578Y-86275800D01*
X157038879Y-86275800D01*
X158958578Y-88195500D01*
X158042879Y-89111200D01*
X154261767Y-89111200D01*
X154175000Y-89093941D01*
X154088233Y-89111200D01*
X147961763Y-89111200D01*
X147875000Y-89093942D01*
X147788237Y-89111200D01*
X146466967Y-89111200D01*
X146380200Y-89093941D01*
X146293433Y-89111200D01*
X146036451Y-89162317D01*
X145745035Y-89357035D01*
X145695885Y-89430593D01*
X139925794Y-95200685D01*
X139852236Y-95249835D01*
X139803086Y-95323393D01*
X139657517Y-95541252D01*
X139589142Y-95885000D01*
X129159000Y-95885000D01*
X129159000Y-87504243D01*
X149987000Y-87504243D01*
X149987000Y-87958957D01*
X150161011Y-88379058D01*
X150482542Y-88700589D01*
X150902643Y-88874600D01*
X151357357Y-88874600D01*
X151777458Y-88700589D01*
X152098989Y-88379058D01*
X152273000Y-87958957D01*
X152273000Y-87504243D01*
X152098989Y-87084142D01*
X151777458Y-86762611D01*
X151357357Y-86588600D01*
X150902643Y-86588600D01*
X150482542Y-86762611D01*
X150161011Y-87084142D01*
X149987000Y-87504243D01*
X129159000Y-87504243D01*
X129159000Y-83592643D01*
X136017000Y-83592643D01*
X136017000Y-84047357D01*
X136191011Y-84467458D01*
X136512542Y-84788989D01*
X136932643Y-84963000D01*
X137387357Y-84963000D01*
X137807458Y-84788989D01*
X138128989Y-84467458D01*
X138303000Y-84047357D01*
X138303000Y-83592643D01*
X138557000Y-83592643D01*
X138557000Y-84047357D01*
X138731011Y-84467458D01*
X139052542Y-84788989D01*
X139472643Y-84963000D01*
X139927357Y-84963000D01*
X140347458Y-84788989D01*
X140668989Y-84467458D01*
X140843000Y-84047357D01*
X140843000Y-83592643D01*
X141097000Y-83592643D01*
X141097000Y-84047357D01*
X141271011Y-84467458D01*
X141592542Y-84788989D01*
X142012643Y-84963000D01*
X142467357Y-84963000D01*
X142887458Y-84788989D01*
X143208989Y-84467458D01*
X143383000Y-84047357D01*
X143383000Y-83592643D01*
X143637000Y-83592643D01*
X143637000Y-84047357D01*
X143811011Y-84467458D01*
X144132542Y-84788989D01*
X144552643Y-84963000D01*
X145007357Y-84963000D01*
X145427458Y-84788989D01*
X145748989Y-84467458D01*
X145923000Y-84047357D01*
X145923000Y-83592643D01*
X145748989Y-83172542D01*
X145427458Y-82851011D01*
X145007357Y-82677000D01*
X144552643Y-82677000D01*
X144132542Y-82851011D01*
X143811011Y-83172542D01*
X143637000Y-83592643D01*
X143383000Y-83592643D01*
X143208989Y-83172542D01*
X142887458Y-82851011D01*
X142467357Y-82677000D01*
X142012643Y-82677000D01*
X141592542Y-82851011D01*
X141271011Y-83172542D01*
X141097000Y-83592643D01*
X140843000Y-83592643D01*
X140668989Y-83172542D01*
X140347458Y-82851011D01*
X139927357Y-82677000D01*
X139472643Y-82677000D01*
X139052542Y-82851011D01*
X138731011Y-83172542D01*
X138557000Y-83592643D01*
X138303000Y-83592643D01*
X138128989Y-83172542D01*
X137807458Y-82851011D01*
X137387357Y-82677000D01*
X136932643Y-82677000D01*
X136512542Y-82851011D01*
X136191011Y-83172542D01*
X136017000Y-83592643D01*
X129159000Y-83592643D01*
X129159000Y-80417643D01*
X157607000Y-80417643D01*
X157607000Y-80872357D01*
X157781011Y-81292458D01*
X158102542Y-81613989D01*
X158522643Y-81788000D01*
X158977357Y-81788000D01*
X159397458Y-81613989D01*
X159718989Y-81292458D01*
X159893000Y-80872357D01*
X159893000Y-80417643D01*
X159718989Y-79997542D01*
X159397458Y-79676011D01*
X158977357Y-79502000D01*
X158522643Y-79502000D01*
X158102542Y-79676011D01*
X157781011Y-79997542D01*
X157607000Y-80417643D01*
X129159000Y-80417643D01*
X129159000Y-76627341D01*
X132618233Y-76627341D01*
X132618233Y-77276193D01*
X132866538Y-77875654D01*
X133325346Y-78334462D01*
X133924807Y-78582767D01*
X134573659Y-78582767D01*
X135173120Y-78334462D01*
X135629939Y-77877643D01*
X157607000Y-77877643D01*
X157607000Y-78332357D01*
X157781011Y-78752458D01*
X158102542Y-79073989D01*
X158522643Y-79248000D01*
X158977357Y-79248000D01*
X159397458Y-79073989D01*
X159718989Y-78752458D01*
X159893000Y-78332357D01*
X159893000Y-77877643D01*
X159718989Y-77457542D01*
X159397458Y-77136011D01*
X158977357Y-76962000D01*
X158522643Y-76962000D01*
X158102542Y-77136011D01*
X157781011Y-77457542D01*
X157607000Y-77877643D01*
X135629939Y-77877643D01*
X135631928Y-77875654D01*
X135880233Y-77276193D01*
X135880233Y-76627341D01*
X135631928Y-76027880D01*
X135173120Y-75569072D01*
X134573659Y-75320767D01*
X133924807Y-75320767D01*
X133325346Y-75569072D01*
X132866538Y-76027880D01*
X132618233Y-76627341D01*
X129159000Y-76627341D01*
X129159000Y-71654643D01*
X178358800Y-71654643D01*
X178358800Y-72109357D01*
X178532811Y-72529458D01*
X178854342Y-72850989D01*
X179274443Y-73025000D01*
X179729157Y-73025000D01*
X180149258Y-72850989D01*
X180470789Y-72529458D01*
X180644800Y-72109357D01*
X180644800Y-71654643D01*
X180470789Y-71234542D01*
X180149258Y-70913011D01*
X179729157Y-70739000D01*
X179274443Y-70739000D01*
X178854342Y-70913011D01*
X178532811Y-71234542D01*
X178358800Y-71654643D01*
X129159000Y-71654643D01*
X129159000Y-69622643D01*
X158877000Y-69622643D01*
X158877000Y-70077357D01*
X159051011Y-70497458D01*
X159372542Y-70818989D01*
X159792643Y-70993000D01*
X160247357Y-70993000D01*
X160667458Y-70818989D01*
X160988989Y-70497458D01*
X161163000Y-70077357D01*
X161163000Y-69622643D01*
X161417000Y-69622643D01*
X161417000Y-70077357D01*
X161591011Y-70497458D01*
X161912542Y-70818989D01*
X162332643Y-70993000D01*
X162787357Y-70993000D01*
X163207458Y-70818989D01*
X163528989Y-70497458D01*
X163703000Y-70077357D01*
X163703000Y-69622643D01*
X163528989Y-69202542D01*
X163207458Y-68881011D01*
X162787357Y-68707000D01*
X162332643Y-68707000D01*
X161912542Y-68881011D01*
X161591011Y-69202542D01*
X161417000Y-69622643D01*
X161163000Y-69622643D01*
X160988989Y-69202542D01*
X160667458Y-68881011D01*
X160247357Y-68707000D01*
X159792643Y-68707000D01*
X159372542Y-68881011D01*
X159051011Y-69202542D01*
X158877000Y-69622643D01*
X129159000Y-69622643D01*
X129159000Y-68817452D01*
X129491489Y-68465856D01*
X129884155Y-68199000D01*
X170194314Y-68199000D01*
X170020884Y-68314883D01*
G04 #@! TD*
M02*
