G04 #@! TF.GenerationSoftware,KiCad,Pcbnew,(5.0.1-3-g963ef8bb5)*
G04 #@! TF.CreationDate,2019-03-08T12:42:58-05:00*
G04 #@! TF.ProjectId,badge,62616467652E6B696361645F70636200,rev?*
G04 #@! TF.SameCoordinates,Original*
G04 #@! TF.FileFunction,Paste,Top*
G04 #@! TF.FilePolarity,Positive*
%FSLAX46Y46*%
G04 Gerber Fmt 4.6, Leading zero omitted, Abs format (unit mm)*
G04 Created by KiCad (PCBNEW (5.0.1-3-g963ef8bb5)) date Friday, March 08, 2019 at 12:42:58 PM*
%MOMM*%
%LPD*%
G01*
G04 APERTURE LIST*
%ADD10C,0.100000*%
%ADD11C,0.975000*%
%ADD12R,0.400000X1.350000*%
%ADD13R,1.600000X1.400000*%
%ADD14R,1.900000X1.900000*%
%ADD15R,0.650000X1.060000*%
%ADD16R,1.500000X1.000000*%
%ADD17R,1.000000X1.500000*%
%ADD18C,1.200000*%
%ADD19R,1.300000X0.250000*%
%ADD20R,0.250000X1.300000*%
%ADD21R,1.550000X0.600000*%
%ADD22C,4.642382*%
%ADD23R,1.800000X1.000000*%
G04 APERTURE END LIST*
D10*
G04 #@! TO.C,C7*
G36*
X170710942Y-85871374D02*
X170734603Y-85874884D01*
X170757807Y-85880696D01*
X170780329Y-85888754D01*
X170801953Y-85898982D01*
X170822470Y-85911279D01*
X170841683Y-85925529D01*
X170859407Y-85941593D01*
X170875471Y-85959317D01*
X170889721Y-85978530D01*
X170902018Y-85999047D01*
X170912246Y-86020671D01*
X170920304Y-86043193D01*
X170926116Y-86066397D01*
X170929626Y-86090058D01*
X170930800Y-86113950D01*
X170930800Y-86601450D01*
X170929626Y-86625342D01*
X170926116Y-86649003D01*
X170920304Y-86672207D01*
X170912246Y-86694729D01*
X170902018Y-86716353D01*
X170889721Y-86736870D01*
X170875471Y-86756083D01*
X170859407Y-86773807D01*
X170841683Y-86789871D01*
X170822470Y-86804121D01*
X170801953Y-86816418D01*
X170780329Y-86826646D01*
X170757807Y-86834704D01*
X170734603Y-86840516D01*
X170710942Y-86844026D01*
X170687050Y-86845200D01*
X169774550Y-86845200D01*
X169750658Y-86844026D01*
X169726997Y-86840516D01*
X169703793Y-86834704D01*
X169681271Y-86826646D01*
X169659647Y-86816418D01*
X169639130Y-86804121D01*
X169619917Y-86789871D01*
X169602193Y-86773807D01*
X169586129Y-86756083D01*
X169571879Y-86736870D01*
X169559582Y-86716353D01*
X169549354Y-86694729D01*
X169541296Y-86672207D01*
X169535484Y-86649003D01*
X169531974Y-86625342D01*
X169530800Y-86601450D01*
X169530800Y-86113950D01*
X169531974Y-86090058D01*
X169535484Y-86066397D01*
X169541296Y-86043193D01*
X169549354Y-86020671D01*
X169559582Y-85999047D01*
X169571879Y-85978530D01*
X169586129Y-85959317D01*
X169602193Y-85941593D01*
X169619917Y-85925529D01*
X169639130Y-85911279D01*
X169659647Y-85898982D01*
X169681271Y-85888754D01*
X169703793Y-85880696D01*
X169726997Y-85874884D01*
X169750658Y-85871374D01*
X169774550Y-85870200D01*
X170687050Y-85870200D01*
X170710942Y-85871374D01*
X170710942Y-85871374D01*
G37*
D11*
X170230800Y-86357700D03*
D10*
G36*
X170710942Y-83996374D02*
X170734603Y-83999884D01*
X170757807Y-84005696D01*
X170780329Y-84013754D01*
X170801953Y-84023982D01*
X170822470Y-84036279D01*
X170841683Y-84050529D01*
X170859407Y-84066593D01*
X170875471Y-84084317D01*
X170889721Y-84103530D01*
X170902018Y-84124047D01*
X170912246Y-84145671D01*
X170920304Y-84168193D01*
X170926116Y-84191397D01*
X170929626Y-84215058D01*
X170930800Y-84238950D01*
X170930800Y-84726450D01*
X170929626Y-84750342D01*
X170926116Y-84774003D01*
X170920304Y-84797207D01*
X170912246Y-84819729D01*
X170902018Y-84841353D01*
X170889721Y-84861870D01*
X170875471Y-84881083D01*
X170859407Y-84898807D01*
X170841683Y-84914871D01*
X170822470Y-84929121D01*
X170801953Y-84941418D01*
X170780329Y-84951646D01*
X170757807Y-84959704D01*
X170734603Y-84965516D01*
X170710942Y-84969026D01*
X170687050Y-84970200D01*
X169774550Y-84970200D01*
X169750658Y-84969026D01*
X169726997Y-84965516D01*
X169703793Y-84959704D01*
X169681271Y-84951646D01*
X169659647Y-84941418D01*
X169639130Y-84929121D01*
X169619917Y-84914871D01*
X169602193Y-84898807D01*
X169586129Y-84881083D01*
X169571879Y-84861870D01*
X169559582Y-84841353D01*
X169549354Y-84819729D01*
X169541296Y-84797207D01*
X169535484Y-84774003D01*
X169531974Y-84750342D01*
X169530800Y-84726450D01*
X169530800Y-84238950D01*
X169531974Y-84215058D01*
X169535484Y-84191397D01*
X169541296Y-84168193D01*
X169549354Y-84145671D01*
X169559582Y-84124047D01*
X169571879Y-84103530D01*
X169586129Y-84084317D01*
X169602193Y-84066593D01*
X169619917Y-84050529D01*
X169639130Y-84036279D01*
X169659647Y-84023982D01*
X169681271Y-84013754D01*
X169703793Y-84005696D01*
X169726997Y-83999884D01*
X169750658Y-83996374D01*
X169774550Y-83995200D01*
X170687050Y-83995200D01*
X170710942Y-83996374D01*
X170710942Y-83996374D01*
G37*
D11*
X170230800Y-84482700D03*
G04 #@! TD*
D10*
G04 #@! TO.C,C6*
G36*
X166223142Y-69341674D02*
X166246803Y-69345184D01*
X166270007Y-69350996D01*
X166292529Y-69359054D01*
X166314153Y-69369282D01*
X166334670Y-69381579D01*
X166353883Y-69395829D01*
X166371607Y-69411893D01*
X166387671Y-69429617D01*
X166401921Y-69448830D01*
X166414218Y-69469347D01*
X166424446Y-69490971D01*
X166432504Y-69513493D01*
X166438316Y-69536697D01*
X166441826Y-69560358D01*
X166443000Y-69584250D01*
X166443000Y-70496750D01*
X166441826Y-70520642D01*
X166438316Y-70544303D01*
X166432504Y-70567507D01*
X166424446Y-70590029D01*
X166414218Y-70611653D01*
X166401921Y-70632170D01*
X166387671Y-70651383D01*
X166371607Y-70669107D01*
X166353883Y-70685171D01*
X166334670Y-70699421D01*
X166314153Y-70711718D01*
X166292529Y-70721946D01*
X166270007Y-70730004D01*
X166246803Y-70735816D01*
X166223142Y-70739326D01*
X166199250Y-70740500D01*
X165711750Y-70740500D01*
X165687858Y-70739326D01*
X165664197Y-70735816D01*
X165640993Y-70730004D01*
X165618471Y-70721946D01*
X165596847Y-70711718D01*
X165576330Y-70699421D01*
X165557117Y-70685171D01*
X165539393Y-70669107D01*
X165523329Y-70651383D01*
X165509079Y-70632170D01*
X165496782Y-70611653D01*
X165486554Y-70590029D01*
X165478496Y-70567507D01*
X165472684Y-70544303D01*
X165469174Y-70520642D01*
X165468000Y-70496750D01*
X165468000Y-69584250D01*
X165469174Y-69560358D01*
X165472684Y-69536697D01*
X165478496Y-69513493D01*
X165486554Y-69490971D01*
X165496782Y-69469347D01*
X165509079Y-69448830D01*
X165523329Y-69429617D01*
X165539393Y-69411893D01*
X165557117Y-69395829D01*
X165576330Y-69381579D01*
X165596847Y-69369282D01*
X165618471Y-69359054D01*
X165640993Y-69350996D01*
X165664197Y-69345184D01*
X165687858Y-69341674D01*
X165711750Y-69340500D01*
X166199250Y-69340500D01*
X166223142Y-69341674D01*
X166223142Y-69341674D01*
G37*
D11*
X165955500Y-70040500D03*
D10*
G36*
X168098142Y-69341674D02*
X168121803Y-69345184D01*
X168145007Y-69350996D01*
X168167529Y-69359054D01*
X168189153Y-69369282D01*
X168209670Y-69381579D01*
X168228883Y-69395829D01*
X168246607Y-69411893D01*
X168262671Y-69429617D01*
X168276921Y-69448830D01*
X168289218Y-69469347D01*
X168299446Y-69490971D01*
X168307504Y-69513493D01*
X168313316Y-69536697D01*
X168316826Y-69560358D01*
X168318000Y-69584250D01*
X168318000Y-70496750D01*
X168316826Y-70520642D01*
X168313316Y-70544303D01*
X168307504Y-70567507D01*
X168299446Y-70590029D01*
X168289218Y-70611653D01*
X168276921Y-70632170D01*
X168262671Y-70651383D01*
X168246607Y-70669107D01*
X168228883Y-70685171D01*
X168209670Y-70699421D01*
X168189153Y-70711718D01*
X168167529Y-70721946D01*
X168145007Y-70730004D01*
X168121803Y-70735816D01*
X168098142Y-70739326D01*
X168074250Y-70740500D01*
X167586750Y-70740500D01*
X167562858Y-70739326D01*
X167539197Y-70735816D01*
X167515993Y-70730004D01*
X167493471Y-70721946D01*
X167471847Y-70711718D01*
X167451330Y-70699421D01*
X167432117Y-70685171D01*
X167414393Y-70669107D01*
X167398329Y-70651383D01*
X167384079Y-70632170D01*
X167371782Y-70611653D01*
X167361554Y-70590029D01*
X167353496Y-70567507D01*
X167347684Y-70544303D01*
X167344174Y-70520642D01*
X167343000Y-70496750D01*
X167343000Y-69584250D01*
X167344174Y-69560358D01*
X167347684Y-69536697D01*
X167353496Y-69513493D01*
X167361554Y-69490971D01*
X167371782Y-69469347D01*
X167384079Y-69448830D01*
X167398329Y-69429617D01*
X167414393Y-69411893D01*
X167432117Y-69395829D01*
X167451330Y-69381579D01*
X167471847Y-69369282D01*
X167493471Y-69359054D01*
X167515993Y-69350996D01*
X167539197Y-69345184D01*
X167562858Y-69341674D01*
X167586750Y-69340500D01*
X168074250Y-69340500D01*
X168098142Y-69341674D01*
X168098142Y-69341674D01*
G37*
D11*
X167830500Y-70040500D03*
G04 #@! TD*
D10*
G04 #@! TO.C,C5*
G36*
X166404442Y-98411974D02*
X166428103Y-98415484D01*
X166451307Y-98421296D01*
X166473829Y-98429354D01*
X166495453Y-98439582D01*
X166515970Y-98451879D01*
X166535183Y-98466129D01*
X166552907Y-98482193D01*
X166568971Y-98499917D01*
X166583221Y-98519130D01*
X166595518Y-98539647D01*
X166605746Y-98561271D01*
X166613804Y-98583793D01*
X166619616Y-98606997D01*
X166623126Y-98630658D01*
X166624300Y-98654550D01*
X166624300Y-99567050D01*
X166623126Y-99590942D01*
X166619616Y-99614603D01*
X166613804Y-99637807D01*
X166605746Y-99660329D01*
X166595518Y-99681953D01*
X166583221Y-99702470D01*
X166568971Y-99721683D01*
X166552907Y-99739407D01*
X166535183Y-99755471D01*
X166515970Y-99769721D01*
X166495453Y-99782018D01*
X166473829Y-99792246D01*
X166451307Y-99800304D01*
X166428103Y-99806116D01*
X166404442Y-99809626D01*
X166380550Y-99810800D01*
X165893050Y-99810800D01*
X165869158Y-99809626D01*
X165845497Y-99806116D01*
X165822293Y-99800304D01*
X165799771Y-99792246D01*
X165778147Y-99782018D01*
X165757630Y-99769721D01*
X165738417Y-99755471D01*
X165720693Y-99739407D01*
X165704629Y-99721683D01*
X165690379Y-99702470D01*
X165678082Y-99681953D01*
X165667854Y-99660329D01*
X165659796Y-99637807D01*
X165653984Y-99614603D01*
X165650474Y-99590942D01*
X165649300Y-99567050D01*
X165649300Y-98654550D01*
X165650474Y-98630658D01*
X165653984Y-98606997D01*
X165659796Y-98583793D01*
X165667854Y-98561271D01*
X165678082Y-98539647D01*
X165690379Y-98519130D01*
X165704629Y-98499917D01*
X165720693Y-98482193D01*
X165738417Y-98466129D01*
X165757630Y-98451879D01*
X165778147Y-98439582D01*
X165799771Y-98429354D01*
X165822293Y-98421296D01*
X165845497Y-98415484D01*
X165869158Y-98411974D01*
X165893050Y-98410800D01*
X166380550Y-98410800D01*
X166404442Y-98411974D01*
X166404442Y-98411974D01*
G37*
D11*
X166136800Y-99110800D03*
D10*
G36*
X164529442Y-98411974D02*
X164553103Y-98415484D01*
X164576307Y-98421296D01*
X164598829Y-98429354D01*
X164620453Y-98439582D01*
X164640970Y-98451879D01*
X164660183Y-98466129D01*
X164677907Y-98482193D01*
X164693971Y-98499917D01*
X164708221Y-98519130D01*
X164720518Y-98539647D01*
X164730746Y-98561271D01*
X164738804Y-98583793D01*
X164744616Y-98606997D01*
X164748126Y-98630658D01*
X164749300Y-98654550D01*
X164749300Y-99567050D01*
X164748126Y-99590942D01*
X164744616Y-99614603D01*
X164738804Y-99637807D01*
X164730746Y-99660329D01*
X164720518Y-99681953D01*
X164708221Y-99702470D01*
X164693971Y-99721683D01*
X164677907Y-99739407D01*
X164660183Y-99755471D01*
X164640970Y-99769721D01*
X164620453Y-99782018D01*
X164598829Y-99792246D01*
X164576307Y-99800304D01*
X164553103Y-99806116D01*
X164529442Y-99809626D01*
X164505550Y-99810800D01*
X164018050Y-99810800D01*
X163994158Y-99809626D01*
X163970497Y-99806116D01*
X163947293Y-99800304D01*
X163924771Y-99792246D01*
X163903147Y-99782018D01*
X163882630Y-99769721D01*
X163863417Y-99755471D01*
X163845693Y-99739407D01*
X163829629Y-99721683D01*
X163815379Y-99702470D01*
X163803082Y-99681953D01*
X163792854Y-99660329D01*
X163784796Y-99637807D01*
X163778984Y-99614603D01*
X163775474Y-99590942D01*
X163774300Y-99567050D01*
X163774300Y-98654550D01*
X163775474Y-98630658D01*
X163778984Y-98606997D01*
X163784796Y-98583793D01*
X163792854Y-98561271D01*
X163803082Y-98539647D01*
X163815379Y-98519130D01*
X163829629Y-98499917D01*
X163845693Y-98482193D01*
X163863417Y-98466129D01*
X163882630Y-98451879D01*
X163903147Y-98439582D01*
X163924771Y-98429354D01*
X163947293Y-98421296D01*
X163970497Y-98415484D01*
X163994158Y-98411974D01*
X164018050Y-98410800D01*
X164505550Y-98410800D01*
X164529442Y-98411974D01*
X164529442Y-98411974D01*
G37*
D11*
X164261800Y-99110800D03*
G04 #@! TD*
D10*
G04 #@! TO.C,C4*
G36*
X145331642Y-101218674D02*
X145355303Y-101222184D01*
X145378507Y-101227996D01*
X145401029Y-101236054D01*
X145422653Y-101246282D01*
X145443170Y-101258579D01*
X145462383Y-101272829D01*
X145480107Y-101288893D01*
X145496171Y-101306617D01*
X145510421Y-101325830D01*
X145522718Y-101346347D01*
X145532946Y-101367971D01*
X145541004Y-101390493D01*
X145546816Y-101413697D01*
X145550326Y-101437358D01*
X145551500Y-101461250D01*
X145551500Y-102373750D01*
X145550326Y-102397642D01*
X145546816Y-102421303D01*
X145541004Y-102444507D01*
X145532946Y-102467029D01*
X145522718Y-102488653D01*
X145510421Y-102509170D01*
X145496171Y-102528383D01*
X145480107Y-102546107D01*
X145462383Y-102562171D01*
X145443170Y-102576421D01*
X145422653Y-102588718D01*
X145401029Y-102598946D01*
X145378507Y-102607004D01*
X145355303Y-102612816D01*
X145331642Y-102616326D01*
X145307750Y-102617500D01*
X144820250Y-102617500D01*
X144796358Y-102616326D01*
X144772697Y-102612816D01*
X144749493Y-102607004D01*
X144726971Y-102598946D01*
X144705347Y-102588718D01*
X144684830Y-102576421D01*
X144665617Y-102562171D01*
X144647893Y-102546107D01*
X144631829Y-102528383D01*
X144617579Y-102509170D01*
X144605282Y-102488653D01*
X144595054Y-102467029D01*
X144586996Y-102444507D01*
X144581184Y-102421303D01*
X144577674Y-102397642D01*
X144576500Y-102373750D01*
X144576500Y-101461250D01*
X144577674Y-101437358D01*
X144581184Y-101413697D01*
X144586996Y-101390493D01*
X144595054Y-101367971D01*
X144605282Y-101346347D01*
X144617579Y-101325830D01*
X144631829Y-101306617D01*
X144647893Y-101288893D01*
X144665617Y-101272829D01*
X144684830Y-101258579D01*
X144705347Y-101246282D01*
X144726971Y-101236054D01*
X144749493Y-101227996D01*
X144772697Y-101222184D01*
X144796358Y-101218674D01*
X144820250Y-101217500D01*
X145307750Y-101217500D01*
X145331642Y-101218674D01*
X145331642Y-101218674D01*
G37*
D11*
X145064000Y-101917500D03*
D10*
G36*
X147206642Y-101218674D02*
X147230303Y-101222184D01*
X147253507Y-101227996D01*
X147276029Y-101236054D01*
X147297653Y-101246282D01*
X147318170Y-101258579D01*
X147337383Y-101272829D01*
X147355107Y-101288893D01*
X147371171Y-101306617D01*
X147385421Y-101325830D01*
X147397718Y-101346347D01*
X147407946Y-101367971D01*
X147416004Y-101390493D01*
X147421816Y-101413697D01*
X147425326Y-101437358D01*
X147426500Y-101461250D01*
X147426500Y-102373750D01*
X147425326Y-102397642D01*
X147421816Y-102421303D01*
X147416004Y-102444507D01*
X147407946Y-102467029D01*
X147397718Y-102488653D01*
X147385421Y-102509170D01*
X147371171Y-102528383D01*
X147355107Y-102546107D01*
X147337383Y-102562171D01*
X147318170Y-102576421D01*
X147297653Y-102588718D01*
X147276029Y-102598946D01*
X147253507Y-102607004D01*
X147230303Y-102612816D01*
X147206642Y-102616326D01*
X147182750Y-102617500D01*
X146695250Y-102617500D01*
X146671358Y-102616326D01*
X146647697Y-102612816D01*
X146624493Y-102607004D01*
X146601971Y-102598946D01*
X146580347Y-102588718D01*
X146559830Y-102576421D01*
X146540617Y-102562171D01*
X146522893Y-102546107D01*
X146506829Y-102528383D01*
X146492579Y-102509170D01*
X146480282Y-102488653D01*
X146470054Y-102467029D01*
X146461996Y-102444507D01*
X146456184Y-102421303D01*
X146452674Y-102397642D01*
X146451500Y-102373750D01*
X146451500Y-101461250D01*
X146452674Y-101437358D01*
X146456184Y-101413697D01*
X146461996Y-101390493D01*
X146470054Y-101367971D01*
X146480282Y-101346347D01*
X146492579Y-101325830D01*
X146506829Y-101306617D01*
X146522893Y-101288893D01*
X146540617Y-101272829D01*
X146559830Y-101258579D01*
X146580347Y-101246282D01*
X146601971Y-101236054D01*
X146624493Y-101227996D01*
X146647697Y-101222184D01*
X146671358Y-101218674D01*
X146695250Y-101217500D01*
X147182750Y-101217500D01*
X147206642Y-101218674D01*
X147206642Y-101218674D01*
G37*
D11*
X146939000Y-101917500D03*
G04 #@! TD*
D10*
G04 #@! TO.C,C1*
G36*
X179005142Y-74231174D02*
X179028803Y-74234684D01*
X179052007Y-74240496D01*
X179074529Y-74248554D01*
X179096153Y-74258782D01*
X179116670Y-74271079D01*
X179135883Y-74285329D01*
X179153607Y-74301393D01*
X179169671Y-74319117D01*
X179183921Y-74338330D01*
X179196218Y-74358847D01*
X179206446Y-74380471D01*
X179214504Y-74402993D01*
X179220316Y-74426197D01*
X179223826Y-74449858D01*
X179225000Y-74473750D01*
X179225000Y-75386250D01*
X179223826Y-75410142D01*
X179220316Y-75433803D01*
X179214504Y-75457007D01*
X179206446Y-75479529D01*
X179196218Y-75501153D01*
X179183921Y-75521670D01*
X179169671Y-75540883D01*
X179153607Y-75558607D01*
X179135883Y-75574671D01*
X179116670Y-75588921D01*
X179096153Y-75601218D01*
X179074529Y-75611446D01*
X179052007Y-75619504D01*
X179028803Y-75625316D01*
X179005142Y-75628826D01*
X178981250Y-75630000D01*
X178493750Y-75630000D01*
X178469858Y-75628826D01*
X178446197Y-75625316D01*
X178422993Y-75619504D01*
X178400471Y-75611446D01*
X178378847Y-75601218D01*
X178358330Y-75588921D01*
X178339117Y-75574671D01*
X178321393Y-75558607D01*
X178305329Y-75540883D01*
X178291079Y-75521670D01*
X178278782Y-75501153D01*
X178268554Y-75479529D01*
X178260496Y-75457007D01*
X178254684Y-75433803D01*
X178251174Y-75410142D01*
X178250000Y-75386250D01*
X178250000Y-74473750D01*
X178251174Y-74449858D01*
X178254684Y-74426197D01*
X178260496Y-74402993D01*
X178268554Y-74380471D01*
X178278782Y-74358847D01*
X178291079Y-74338330D01*
X178305329Y-74319117D01*
X178321393Y-74301393D01*
X178339117Y-74285329D01*
X178358330Y-74271079D01*
X178378847Y-74258782D01*
X178400471Y-74248554D01*
X178422993Y-74240496D01*
X178446197Y-74234684D01*
X178469858Y-74231174D01*
X178493750Y-74230000D01*
X178981250Y-74230000D01*
X179005142Y-74231174D01*
X179005142Y-74231174D01*
G37*
D11*
X178737500Y-74930000D03*
D10*
G36*
X177130142Y-74231174D02*
X177153803Y-74234684D01*
X177177007Y-74240496D01*
X177199529Y-74248554D01*
X177221153Y-74258782D01*
X177241670Y-74271079D01*
X177260883Y-74285329D01*
X177278607Y-74301393D01*
X177294671Y-74319117D01*
X177308921Y-74338330D01*
X177321218Y-74358847D01*
X177331446Y-74380471D01*
X177339504Y-74402993D01*
X177345316Y-74426197D01*
X177348826Y-74449858D01*
X177350000Y-74473750D01*
X177350000Y-75386250D01*
X177348826Y-75410142D01*
X177345316Y-75433803D01*
X177339504Y-75457007D01*
X177331446Y-75479529D01*
X177321218Y-75501153D01*
X177308921Y-75521670D01*
X177294671Y-75540883D01*
X177278607Y-75558607D01*
X177260883Y-75574671D01*
X177241670Y-75588921D01*
X177221153Y-75601218D01*
X177199529Y-75611446D01*
X177177007Y-75619504D01*
X177153803Y-75625316D01*
X177130142Y-75628826D01*
X177106250Y-75630000D01*
X176618750Y-75630000D01*
X176594858Y-75628826D01*
X176571197Y-75625316D01*
X176547993Y-75619504D01*
X176525471Y-75611446D01*
X176503847Y-75601218D01*
X176483330Y-75588921D01*
X176464117Y-75574671D01*
X176446393Y-75558607D01*
X176430329Y-75540883D01*
X176416079Y-75521670D01*
X176403782Y-75501153D01*
X176393554Y-75479529D01*
X176385496Y-75457007D01*
X176379684Y-75433803D01*
X176376174Y-75410142D01*
X176375000Y-75386250D01*
X176375000Y-74473750D01*
X176376174Y-74449858D01*
X176379684Y-74426197D01*
X176385496Y-74402993D01*
X176393554Y-74380471D01*
X176403782Y-74358847D01*
X176416079Y-74338330D01*
X176430329Y-74319117D01*
X176446393Y-74301393D01*
X176464117Y-74285329D01*
X176483330Y-74271079D01*
X176503847Y-74258782D01*
X176525471Y-74248554D01*
X176547993Y-74240496D01*
X176571197Y-74234684D01*
X176594858Y-74231174D01*
X176618750Y-74230000D01*
X177106250Y-74230000D01*
X177130142Y-74231174D01*
X177130142Y-74231174D01*
G37*
D11*
X176862500Y-74930000D03*
G04 #@! TD*
D10*
G04 #@! TO.C,C8*
G36*
X155461642Y-86804174D02*
X155485303Y-86807684D01*
X155508507Y-86813496D01*
X155531029Y-86821554D01*
X155552653Y-86831782D01*
X155573170Y-86844079D01*
X155592383Y-86858329D01*
X155610107Y-86874393D01*
X155626171Y-86892117D01*
X155640421Y-86911330D01*
X155652718Y-86931847D01*
X155662946Y-86953471D01*
X155671004Y-86975993D01*
X155676816Y-86999197D01*
X155680326Y-87022858D01*
X155681500Y-87046750D01*
X155681500Y-87959250D01*
X155680326Y-87983142D01*
X155676816Y-88006803D01*
X155671004Y-88030007D01*
X155662946Y-88052529D01*
X155652718Y-88074153D01*
X155640421Y-88094670D01*
X155626171Y-88113883D01*
X155610107Y-88131607D01*
X155592383Y-88147671D01*
X155573170Y-88161921D01*
X155552653Y-88174218D01*
X155531029Y-88184446D01*
X155508507Y-88192504D01*
X155485303Y-88198316D01*
X155461642Y-88201826D01*
X155437750Y-88203000D01*
X154950250Y-88203000D01*
X154926358Y-88201826D01*
X154902697Y-88198316D01*
X154879493Y-88192504D01*
X154856971Y-88184446D01*
X154835347Y-88174218D01*
X154814830Y-88161921D01*
X154795617Y-88147671D01*
X154777893Y-88131607D01*
X154761829Y-88113883D01*
X154747579Y-88094670D01*
X154735282Y-88074153D01*
X154725054Y-88052529D01*
X154716996Y-88030007D01*
X154711184Y-88006803D01*
X154707674Y-87983142D01*
X154706500Y-87959250D01*
X154706500Y-87046750D01*
X154707674Y-87022858D01*
X154711184Y-86999197D01*
X154716996Y-86975993D01*
X154725054Y-86953471D01*
X154735282Y-86931847D01*
X154747579Y-86911330D01*
X154761829Y-86892117D01*
X154777893Y-86874393D01*
X154795617Y-86858329D01*
X154814830Y-86844079D01*
X154835347Y-86831782D01*
X154856971Y-86821554D01*
X154879493Y-86813496D01*
X154902697Y-86807684D01*
X154926358Y-86804174D01*
X154950250Y-86803000D01*
X155437750Y-86803000D01*
X155461642Y-86804174D01*
X155461642Y-86804174D01*
G37*
D11*
X155194000Y-87503000D03*
D10*
G36*
X157336642Y-86804174D02*
X157360303Y-86807684D01*
X157383507Y-86813496D01*
X157406029Y-86821554D01*
X157427653Y-86831782D01*
X157448170Y-86844079D01*
X157467383Y-86858329D01*
X157485107Y-86874393D01*
X157501171Y-86892117D01*
X157515421Y-86911330D01*
X157527718Y-86931847D01*
X157537946Y-86953471D01*
X157546004Y-86975993D01*
X157551816Y-86999197D01*
X157555326Y-87022858D01*
X157556500Y-87046750D01*
X157556500Y-87959250D01*
X157555326Y-87983142D01*
X157551816Y-88006803D01*
X157546004Y-88030007D01*
X157537946Y-88052529D01*
X157527718Y-88074153D01*
X157515421Y-88094670D01*
X157501171Y-88113883D01*
X157485107Y-88131607D01*
X157467383Y-88147671D01*
X157448170Y-88161921D01*
X157427653Y-88174218D01*
X157406029Y-88184446D01*
X157383507Y-88192504D01*
X157360303Y-88198316D01*
X157336642Y-88201826D01*
X157312750Y-88203000D01*
X156825250Y-88203000D01*
X156801358Y-88201826D01*
X156777697Y-88198316D01*
X156754493Y-88192504D01*
X156731971Y-88184446D01*
X156710347Y-88174218D01*
X156689830Y-88161921D01*
X156670617Y-88147671D01*
X156652893Y-88131607D01*
X156636829Y-88113883D01*
X156622579Y-88094670D01*
X156610282Y-88074153D01*
X156600054Y-88052529D01*
X156591996Y-88030007D01*
X156586184Y-88006803D01*
X156582674Y-87983142D01*
X156581500Y-87959250D01*
X156581500Y-87046750D01*
X156582674Y-87022858D01*
X156586184Y-86999197D01*
X156591996Y-86975993D01*
X156600054Y-86953471D01*
X156610282Y-86931847D01*
X156622579Y-86911330D01*
X156636829Y-86892117D01*
X156652893Y-86874393D01*
X156670617Y-86858329D01*
X156689830Y-86844079D01*
X156710347Y-86831782D01*
X156731971Y-86821554D01*
X156754493Y-86813496D01*
X156777697Y-86807684D01*
X156801358Y-86804174D01*
X156825250Y-86803000D01*
X157312750Y-86803000D01*
X157336642Y-86804174D01*
X157336642Y-86804174D01*
G37*
D11*
X157069000Y-87503000D03*
G04 #@! TD*
D10*
G04 #@! TO.C,C3*
G36*
X164582642Y-100570974D02*
X164606303Y-100574484D01*
X164629507Y-100580296D01*
X164652029Y-100588354D01*
X164673653Y-100598582D01*
X164694170Y-100610879D01*
X164713383Y-100625129D01*
X164731107Y-100641193D01*
X164747171Y-100658917D01*
X164761421Y-100678130D01*
X164773718Y-100698647D01*
X164783946Y-100720271D01*
X164792004Y-100742793D01*
X164797816Y-100765997D01*
X164801326Y-100789658D01*
X164802500Y-100813550D01*
X164802500Y-101726050D01*
X164801326Y-101749942D01*
X164797816Y-101773603D01*
X164792004Y-101796807D01*
X164783946Y-101819329D01*
X164773718Y-101840953D01*
X164761421Y-101861470D01*
X164747171Y-101880683D01*
X164731107Y-101898407D01*
X164713383Y-101914471D01*
X164694170Y-101928721D01*
X164673653Y-101941018D01*
X164652029Y-101951246D01*
X164629507Y-101959304D01*
X164606303Y-101965116D01*
X164582642Y-101968626D01*
X164558750Y-101969800D01*
X164071250Y-101969800D01*
X164047358Y-101968626D01*
X164023697Y-101965116D01*
X164000493Y-101959304D01*
X163977971Y-101951246D01*
X163956347Y-101941018D01*
X163935830Y-101928721D01*
X163916617Y-101914471D01*
X163898893Y-101898407D01*
X163882829Y-101880683D01*
X163868579Y-101861470D01*
X163856282Y-101840953D01*
X163846054Y-101819329D01*
X163837996Y-101796807D01*
X163832184Y-101773603D01*
X163828674Y-101749942D01*
X163827500Y-101726050D01*
X163827500Y-100813550D01*
X163828674Y-100789658D01*
X163832184Y-100765997D01*
X163837996Y-100742793D01*
X163846054Y-100720271D01*
X163856282Y-100698647D01*
X163868579Y-100678130D01*
X163882829Y-100658917D01*
X163898893Y-100641193D01*
X163916617Y-100625129D01*
X163935830Y-100610879D01*
X163956347Y-100598582D01*
X163977971Y-100588354D01*
X164000493Y-100580296D01*
X164023697Y-100574484D01*
X164047358Y-100570974D01*
X164071250Y-100569800D01*
X164558750Y-100569800D01*
X164582642Y-100570974D01*
X164582642Y-100570974D01*
G37*
D11*
X164315000Y-101269800D03*
D10*
G36*
X166457642Y-100570974D02*
X166481303Y-100574484D01*
X166504507Y-100580296D01*
X166527029Y-100588354D01*
X166548653Y-100598582D01*
X166569170Y-100610879D01*
X166588383Y-100625129D01*
X166606107Y-100641193D01*
X166622171Y-100658917D01*
X166636421Y-100678130D01*
X166648718Y-100698647D01*
X166658946Y-100720271D01*
X166667004Y-100742793D01*
X166672816Y-100765997D01*
X166676326Y-100789658D01*
X166677500Y-100813550D01*
X166677500Y-101726050D01*
X166676326Y-101749942D01*
X166672816Y-101773603D01*
X166667004Y-101796807D01*
X166658946Y-101819329D01*
X166648718Y-101840953D01*
X166636421Y-101861470D01*
X166622171Y-101880683D01*
X166606107Y-101898407D01*
X166588383Y-101914471D01*
X166569170Y-101928721D01*
X166548653Y-101941018D01*
X166527029Y-101951246D01*
X166504507Y-101959304D01*
X166481303Y-101965116D01*
X166457642Y-101968626D01*
X166433750Y-101969800D01*
X165946250Y-101969800D01*
X165922358Y-101968626D01*
X165898697Y-101965116D01*
X165875493Y-101959304D01*
X165852971Y-101951246D01*
X165831347Y-101941018D01*
X165810830Y-101928721D01*
X165791617Y-101914471D01*
X165773893Y-101898407D01*
X165757829Y-101880683D01*
X165743579Y-101861470D01*
X165731282Y-101840953D01*
X165721054Y-101819329D01*
X165712996Y-101796807D01*
X165707184Y-101773603D01*
X165703674Y-101749942D01*
X165702500Y-101726050D01*
X165702500Y-100813550D01*
X165703674Y-100789658D01*
X165707184Y-100765997D01*
X165712996Y-100742793D01*
X165721054Y-100720271D01*
X165731282Y-100698647D01*
X165743579Y-100678130D01*
X165757829Y-100658917D01*
X165773893Y-100641193D01*
X165791617Y-100625129D01*
X165810830Y-100610879D01*
X165831347Y-100598582D01*
X165852971Y-100588354D01*
X165875493Y-100580296D01*
X165898697Y-100574484D01*
X165922358Y-100570974D01*
X165946250Y-100569800D01*
X166433750Y-100569800D01*
X166457642Y-100570974D01*
X166457642Y-100570974D01*
G37*
D11*
X166190000Y-101269800D03*
G04 #@! TD*
D10*
G04 #@! TO.C,C2*
G36*
X166457542Y-102679174D02*
X166481203Y-102682684D01*
X166504407Y-102688496D01*
X166526929Y-102696554D01*
X166548553Y-102706782D01*
X166569070Y-102719079D01*
X166588283Y-102733329D01*
X166606007Y-102749393D01*
X166622071Y-102767117D01*
X166636321Y-102786330D01*
X166648618Y-102806847D01*
X166658846Y-102828471D01*
X166666904Y-102850993D01*
X166672716Y-102874197D01*
X166676226Y-102897858D01*
X166677400Y-102921750D01*
X166677400Y-103834250D01*
X166676226Y-103858142D01*
X166672716Y-103881803D01*
X166666904Y-103905007D01*
X166658846Y-103927529D01*
X166648618Y-103949153D01*
X166636321Y-103969670D01*
X166622071Y-103988883D01*
X166606007Y-104006607D01*
X166588283Y-104022671D01*
X166569070Y-104036921D01*
X166548553Y-104049218D01*
X166526929Y-104059446D01*
X166504407Y-104067504D01*
X166481203Y-104073316D01*
X166457542Y-104076826D01*
X166433650Y-104078000D01*
X165946150Y-104078000D01*
X165922258Y-104076826D01*
X165898597Y-104073316D01*
X165875393Y-104067504D01*
X165852871Y-104059446D01*
X165831247Y-104049218D01*
X165810730Y-104036921D01*
X165791517Y-104022671D01*
X165773793Y-104006607D01*
X165757729Y-103988883D01*
X165743479Y-103969670D01*
X165731182Y-103949153D01*
X165720954Y-103927529D01*
X165712896Y-103905007D01*
X165707084Y-103881803D01*
X165703574Y-103858142D01*
X165702400Y-103834250D01*
X165702400Y-102921750D01*
X165703574Y-102897858D01*
X165707084Y-102874197D01*
X165712896Y-102850993D01*
X165720954Y-102828471D01*
X165731182Y-102806847D01*
X165743479Y-102786330D01*
X165757729Y-102767117D01*
X165773793Y-102749393D01*
X165791517Y-102733329D01*
X165810730Y-102719079D01*
X165831247Y-102706782D01*
X165852871Y-102696554D01*
X165875393Y-102688496D01*
X165898597Y-102682684D01*
X165922258Y-102679174D01*
X165946150Y-102678000D01*
X166433650Y-102678000D01*
X166457542Y-102679174D01*
X166457542Y-102679174D01*
G37*
D11*
X166189900Y-103378000D03*
D10*
G36*
X164582542Y-102679174D02*
X164606203Y-102682684D01*
X164629407Y-102688496D01*
X164651929Y-102696554D01*
X164673553Y-102706782D01*
X164694070Y-102719079D01*
X164713283Y-102733329D01*
X164731007Y-102749393D01*
X164747071Y-102767117D01*
X164761321Y-102786330D01*
X164773618Y-102806847D01*
X164783846Y-102828471D01*
X164791904Y-102850993D01*
X164797716Y-102874197D01*
X164801226Y-102897858D01*
X164802400Y-102921750D01*
X164802400Y-103834250D01*
X164801226Y-103858142D01*
X164797716Y-103881803D01*
X164791904Y-103905007D01*
X164783846Y-103927529D01*
X164773618Y-103949153D01*
X164761321Y-103969670D01*
X164747071Y-103988883D01*
X164731007Y-104006607D01*
X164713283Y-104022671D01*
X164694070Y-104036921D01*
X164673553Y-104049218D01*
X164651929Y-104059446D01*
X164629407Y-104067504D01*
X164606203Y-104073316D01*
X164582542Y-104076826D01*
X164558650Y-104078000D01*
X164071150Y-104078000D01*
X164047258Y-104076826D01*
X164023597Y-104073316D01*
X164000393Y-104067504D01*
X163977871Y-104059446D01*
X163956247Y-104049218D01*
X163935730Y-104036921D01*
X163916517Y-104022671D01*
X163898793Y-104006607D01*
X163882729Y-103988883D01*
X163868479Y-103969670D01*
X163856182Y-103949153D01*
X163845954Y-103927529D01*
X163837896Y-103905007D01*
X163832084Y-103881803D01*
X163828574Y-103858142D01*
X163827400Y-103834250D01*
X163827400Y-102921750D01*
X163828574Y-102897858D01*
X163832084Y-102874197D01*
X163837896Y-102850993D01*
X163845954Y-102828471D01*
X163856182Y-102806847D01*
X163868479Y-102786330D01*
X163882729Y-102767117D01*
X163898793Y-102749393D01*
X163916517Y-102733329D01*
X163935730Y-102719079D01*
X163956247Y-102706782D01*
X163977871Y-102696554D01*
X164000393Y-102688496D01*
X164023597Y-102682684D01*
X164047258Y-102679174D01*
X164071150Y-102678000D01*
X164558650Y-102678000D01*
X164582542Y-102679174D01*
X164582542Y-102679174D01*
G37*
D11*
X164314900Y-103378000D03*
G04 #@! TD*
D12*
G04 #@! TO.C,J1*
X175220000Y-71939000D03*
X174570000Y-71939000D03*
X173920000Y-71939000D03*
X173270000Y-71939000D03*
X172620000Y-71939000D03*
D13*
X177120000Y-71714000D03*
X170720000Y-71714000D03*
D14*
X175120000Y-69264000D03*
X172720000Y-69264000D03*
G04 #@! TD*
D15*
G04 #@! TO.C,U2*
X178877000Y-78910000D03*
X177927000Y-78910000D03*
X176977000Y-78910000D03*
X176977000Y-81110000D03*
X178877000Y-81110000D03*
G04 #@! TD*
D16*
G04 #@! TO.C,U7*
X152236000Y-82220000D03*
X152236000Y-83820000D03*
X152236000Y-85420000D03*
X157136000Y-82220000D03*
X157136000Y-83820000D03*
X157136000Y-85420000D03*
G04 #@! TD*
D17*
G04 #@! TO.C,U3*
X166700000Y-91530000D03*
X165100000Y-91530000D03*
X163500000Y-91530000D03*
X166700000Y-96430000D03*
X165100000Y-96430000D03*
X163500000Y-96430000D03*
G04 #@! TD*
D16*
G04 #@! TO.C,U4*
X157390000Y-105740000D03*
X157390000Y-104140000D03*
X157390000Y-102540000D03*
X152490000Y-105740000D03*
X152490000Y-104140000D03*
X152490000Y-102540000D03*
G04 #@! TD*
D17*
G04 #@! TO.C,U5*
X143180000Y-96176000D03*
X144780000Y-96176000D03*
X146380000Y-96176000D03*
X143180000Y-91276000D03*
X144780000Y-91276000D03*
X146380000Y-91276000D03*
G04 #@! TD*
D10*
G04 #@! TO.C,SW1*
G36*
X167588405Y-77403445D02*
X167617527Y-77407764D01*
X167646085Y-77414918D01*
X167673805Y-77424836D01*
X167700419Y-77437424D01*
X167725671Y-77452559D01*
X167749318Y-77470097D01*
X167771132Y-77489868D01*
X167790903Y-77511682D01*
X167808441Y-77535329D01*
X167823576Y-77560581D01*
X167836164Y-77587195D01*
X167846082Y-77614915D01*
X167853236Y-77643473D01*
X167857555Y-77672595D01*
X167859000Y-77702000D01*
X167859000Y-79602000D01*
X167857555Y-79631405D01*
X167853236Y-79660527D01*
X167846082Y-79689085D01*
X167836164Y-79716805D01*
X167823576Y-79743419D01*
X167808441Y-79768671D01*
X167790903Y-79792318D01*
X167771132Y-79814132D01*
X167749318Y-79833903D01*
X167725671Y-79851441D01*
X167700419Y-79866576D01*
X167673805Y-79879164D01*
X167646085Y-79889082D01*
X167617527Y-79896236D01*
X167588405Y-79900555D01*
X167559000Y-79902000D01*
X166959000Y-79902000D01*
X166929595Y-79900555D01*
X166900473Y-79896236D01*
X166871915Y-79889082D01*
X166844195Y-79879164D01*
X166817581Y-79866576D01*
X166792329Y-79851441D01*
X166768682Y-79833903D01*
X166746868Y-79814132D01*
X166727097Y-79792318D01*
X166709559Y-79768671D01*
X166694424Y-79743419D01*
X166681836Y-79716805D01*
X166671918Y-79689085D01*
X166664764Y-79660527D01*
X166660445Y-79631405D01*
X166659000Y-79602000D01*
X166659000Y-77702000D01*
X166660445Y-77672595D01*
X166664764Y-77643473D01*
X166671918Y-77614915D01*
X166681836Y-77587195D01*
X166694424Y-77560581D01*
X166709559Y-77535329D01*
X166727097Y-77511682D01*
X166746868Y-77489868D01*
X166768682Y-77470097D01*
X166792329Y-77452559D01*
X166817581Y-77437424D01*
X166844195Y-77424836D01*
X166871915Y-77414918D01*
X166900473Y-77407764D01*
X166929595Y-77403445D01*
X166959000Y-77402000D01*
X167559000Y-77402000D01*
X167588405Y-77403445D01*
X167588405Y-77403445D01*
G37*
D18*
X167259000Y-78652000D03*
D10*
G36*
X165088405Y-77403445D02*
X165117527Y-77407764D01*
X165146085Y-77414918D01*
X165173805Y-77424836D01*
X165200419Y-77437424D01*
X165225671Y-77452559D01*
X165249318Y-77470097D01*
X165271132Y-77489868D01*
X165290903Y-77511682D01*
X165308441Y-77535329D01*
X165323576Y-77560581D01*
X165336164Y-77587195D01*
X165346082Y-77614915D01*
X165353236Y-77643473D01*
X165357555Y-77672595D01*
X165359000Y-77702000D01*
X165359000Y-79602000D01*
X165357555Y-79631405D01*
X165353236Y-79660527D01*
X165346082Y-79689085D01*
X165336164Y-79716805D01*
X165323576Y-79743419D01*
X165308441Y-79768671D01*
X165290903Y-79792318D01*
X165271132Y-79814132D01*
X165249318Y-79833903D01*
X165225671Y-79851441D01*
X165200419Y-79866576D01*
X165173805Y-79879164D01*
X165146085Y-79889082D01*
X165117527Y-79896236D01*
X165088405Y-79900555D01*
X165059000Y-79902000D01*
X164459000Y-79902000D01*
X164429595Y-79900555D01*
X164400473Y-79896236D01*
X164371915Y-79889082D01*
X164344195Y-79879164D01*
X164317581Y-79866576D01*
X164292329Y-79851441D01*
X164268682Y-79833903D01*
X164246868Y-79814132D01*
X164227097Y-79792318D01*
X164209559Y-79768671D01*
X164194424Y-79743419D01*
X164181836Y-79716805D01*
X164171918Y-79689085D01*
X164164764Y-79660527D01*
X164160445Y-79631405D01*
X164159000Y-79602000D01*
X164159000Y-77702000D01*
X164160445Y-77672595D01*
X164164764Y-77643473D01*
X164171918Y-77614915D01*
X164181836Y-77587195D01*
X164194424Y-77560581D01*
X164209559Y-77535329D01*
X164227097Y-77511682D01*
X164246868Y-77489868D01*
X164268682Y-77470097D01*
X164292329Y-77452559D01*
X164317581Y-77437424D01*
X164344195Y-77424836D01*
X164371915Y-77414918D01*
X164400473Y-77407764D01*
X164429595Y-77403445D01*
X164459000Y-77402000D01*
X165059000Y-77402000D01*
X165088405Y-77403445D01*
X165088405Y-77403445D01*
G37*
D18*
X164759000Y-78652000D03*
D10*
G36*
X162588405Y-77403445D02*
X162617527Y-77407764D01*
X162646085Y-77414918D01*
X162673805Y-77424836D01*
X162700419Y-77437424D01*
X162725671Y-77452559D01*
X162749318Y-77470097D01*
X162771132Y-77489868D01*
X162790903Y-77511682D01*
X162808441Y-77535329D01*
X162823576Y-77560581D01*
X162836164Y-77587195D01*
X162846082Y-77614915D01*
X162853236Y-77643473D01*
X162857555Y-77672595D01*
X162859000Y-77702000D01*
X162859000Y-79602000D01*
X162857555Y-79631405D01*
X162853236Y-79660527D01*
X162846082Y-79689085D01*
X162836164Y-79716805D01*
X162823576Y-79743419D01*
X162808441Y-79768671D01*
X162790903Y-79792318D01*
X162771132Y-79814132D01*
X162749318Y-79833903D01*
X162725671Y-79851441D01*
X162700419Y-79866576D01*
X162673805Y-79879164D01*
X162646085Y-79889082D01*
X162617527Y-79896236D01*
X162588405Y-79900555D01*
X162559000Y-79902000D01*
X161959000Y-79902000D01*
X161929595Y-79900555D01*
X161900473Y-79896236D01*
X161871915Y-79889082D01*
X161844195Y-79879164D01*
X161817581Y-79866576D01*
X161792329Y-79851441D01*
X161768682Y-79833903D01*
X161746868Y-79814132D01*
X161727097Y-79792318D01*
X161709559Y-79768671D01*
X161694424Y-79743419D01*
X161681836Y-79716805D01*
X161671918Y-79689085D01*
X161664764Y-79660527D01*
X161660445Y-79631405D01*
X161659000Y-79602000D01*
X161659000Y-77702000D01*
X161660445Y-77672595D01*
X161664764Y-77643473D01*
X161671918Y-77614915D01*
X161681836Y-77587195D01*
X161694424Y-77560581D01*
X161709559Y-77535329D01*
X161727097Y-77511682D01*
X161746868Y-77489868D01*
X161768682Y-77470097D01*
X161792329Y-77452559D01*
X161817581Y-77437424D01*
X161844195Y-77424836D01*
X161871915Y-77414918D01*
X161900473Y-77407764D01*
X161929595Y-77403445D01*
X161959000Y-77402000D01*
X162559000Y-77402000D01*
X162588405Y-77403445D01*
X162588405Y-77403445D01*
G37*
D18*
X162259000Y-78652000D03*
D10*
G36*
X162588405Y-71903445D02*
X162617527Y-71907764D01*
X162646085Y-71914918D01*
X162673805Y-71924836D01*
X162700419Y-71937424D01*
X162725671Y-71952559D01*
X162749318Y-71970097D01*
X162771132Y-71989868D01*
X162790903Y-72011682D01*
X162808441Y-72035329D01*
X162823576Y-72060581D01*
X162836164Y-72087195D01*
X162846082Y-72114915D01*
X162853236Y-72143473D01*
X162857555Y-72172595D01*
X162859000Y-72202000D01*
X162859000Y-74102000D01*
X162857555Y-74131405D01*
X162853236Y-74160527D01*
X162846082Y-74189085D01*
X162836164Y-74216805D01*
X162823576Y-74243419D01*
X162808441Y-74268671D01*
X162790903Y-74292318D01*
X162771132Y-74314132D01*
X162749318Y-74333903D01*
X162725671Y-74351441D01*
X162700419Y-74366576D01*
X162673805Y-74379164D01*
X162646085Y-74389082D01*
X162617527Y-74396236D01*
X162588405Y-74400555D01*
X162559000Y-74402000D01*
X161959000Y-74402000D01*
X161929595Y-74400555D01*
X161900473Y-74396236D01*
X161871915Y-74389082D01*
X161844195Y-74379164D01*
X161817581Y-74366576D01*
X161792329Y-74351441D01*
X161768682Y-74333903D01*
X161746868Y-74314132D01*
X161727097Y-74292318D01*
X161709559Y-74268671D01*
X161694424Y-74243419D01*
X161681836Y-74216805D01*
X161671918Y-74189085D01*
X161664764Y-74160527D01*
X161660445Y-74131405D01*
X161659000Y-74102000D01*
X161659000Y-72202000D01*
X161660445Y-72172595D01*
X161664764Y-72143473D01*
X161671918Y-72114915D01*
X161681836Y-72087195D01*
X161694424Y-72060581D01*
X161709559Y-72035329D01*
X161727097Y-72011682D01*
X161746868Y-71989868D01*
X161768682Y-71970097D01*
X161792329Y-71952559D01*
X161817581Y-71937424D01*
X161844195Y-71924836D01*
X161871915Y-71914918D01*
X161900473Y-71907764D01*
X161929595Y-71903445D01*
X161959000Y-71902000D01*
X162559000Y-71902000D01*
X162588405Y-71903445D01*
X162588405Y-71903445D01*
G37*
D18*
X162259000Y-73152000D03*
D10*
G36*
X167588405Y-71903445D02*
X167617527Y-71907764D01*
X167646085Y-71914918D01*
X167673805Y-71924836D01*
X167700419Y-71937424D01*
X167725671Y-71952559D01*
X167749318Y-71970097D01*
X167771132Y-71989868D01*
X167790903Y-72011682D01*
X167808441Y-72035329D01*
X167823576Y-72060581D01*
X167836164Y-72087195D01*
X167846082Y-72114915D01*
X167853236Y-72143473D01*
X167857555Y-72172595D01*
X167859000Y-72202000D01*
X167859000Y-74102000D01*
X167857555Y-74131405D01*
X167853236Y-74160527D01*
X167846082Y-74189085D01*
X167836164Y-74216805D01*
X167823576Y-74243419D01*
X167808441Y-74268671D01*
X167790903Y-74292318D01*
X167771132Y-74314132D01*
X167749318Y-74333903D01*
X167725671Y-74351441D01*
X167700419Y-74366576D01*
X167673805Y-74379164D01*
X167646085Y-74389082D01*
X167617527Y-74396236D01*
X167588405Y-74400555D01*
X167559000Y-74402000D01*
X166959000Y-74402000D01*
X166929595Y-74400555D01*
X166900473Y-74396236D01*
X166871915Y-74389082D01*
X166844195Y-74379164D01*
X166817581Y-74366576D01*
X166792329Y-74351441D01*
X166768682Y-74333903D01*
X166746868Y-74314132D01*
X166727097Y-74292318D01*
X166709559Y-74268671D01*
X166694424Y-74243419D01*
X166681836Y-74216805D01*
X166671918Y-74189085D01*
X166664764Y-74160527D01*
X166660445Y-74131405D01*
X166659000Y-74102000D01*
X166659000Y-72202000D01*
X166660445Y-72172595D01*
X166664764Y-72143473D01*
X166671918Y-72114915D01*
X166681836Y-72087195D01*
X166694424Y-72060581D01*
X166709559Y-72035329D01*
X166727097Y-72011682D01*
X166746868Y-71989868D01*
X166768682Y-71970097D01*
X166792329Y-71952559D01*
X166817581Y-71937424D01*
X166844195Y-71924836D01*
X166871915Y-71914918D01*
X166900473Y-71907764D01*
X166929595Y-71903445D01*
X166959000Y-71902000D01*
X167559000Y-71902000D01*
X167588405Y-71903445D01*
X167588405Y-71903445D01*
G37*
D18*
X167259000Y-73152000D03*
D10*
G36*
X165088405Y-71903445D02*
X165117527Y-71907764D01*
X165146085Y-71914918D01*
X165173805Y-71924836D01*
X165200419Y-71937424D01*
X165225671Y-71952559D01*
X165249318Y-71970097D01*
X165271132Y-71989868D01*
X165290903Y-72011682D01*
X165308441Y-72035329D01*
X165323576Y-72060581D01*
X165336164Y-72087195D01*
X165346082Y-72114915D01*
X165353236Y-72143473D01*
X165357555Y-72172595D01*
X165359000Y-72202000D01*
X165359000Y-74102000D01*
X165357555Y-74131405D01*
X165353236Y-74160527D01*
X165346082Y-74189085D01*
X165336164Y-74216805D01*
X165323576Y-74243419D01*
X165308441Y-74268671D01*
X165290903Y-74292318D01*
X165271132Y-74314132D01*
X165249318Y-74333903D01*
X165225671Y-74351441D01*
X165200419Y-74366576D01*
X165173805Y-74379164D01*
X165146085Y-74389082D01*
X165117527Y-74396236D01*
X165088405Y-74400555D01*
X165059000Y-74402000D01*
X164459000Y-74402000D01*
X164429595Y-74400555D01*
X164400473Y-74396236D01*
X164371915Y-74389082D01*
X164344195Y-74379164D01*
X164317581Y-74366576D01*
X164292329Y-74351441D01*
X164268682Y-74333903D01*
X164246868Y-74314132D01*
X164227097Y-74292318D01*
X164209559Y-74268671D01*
X164194424Y-74243419D01*
X164181836Y-74216805D01*
X164171918Y-74189085D01*
X164164764Y-74160527D01*
X164160445Y-74131405D01*
X164159000Y-74102000D01*
X164159000Y-72202000D01*
X164160445Y-72172595D01*
X164164764Y-72143473D01*
X164171918Y-72114915D01*
X164181836Y-72087195D01*
X164194424Y-72060581D01*
X164209559Y-72035329D01*
X164227097Y-72011682D01*
X164246868Y-71989868D01*
X164268682Y-71970097D01*
X164292329Y-71952559D01*
X164317581Y-71937424D01*
X164344195Y-71924836D01*
X164371915Y-71914918D01*
X164400473Y-71907764D01*
X164429595Y-71903445D01*
X164459000Y-71902000D01*
X165059000Y-71902000D01*
X165088405Y-71903445D01*
X165088405Y-71903445D01*
G37*
D18*
X164759000Y-73152000D03*
G04 #@! TD*
D19*
G04 #@! TO.C,U1*
X150590000Y-91230000D03*
X150590000Y-91730000D03*
X150590000Y-92230000D03*
X150590000Y-92730000D03*
X150590000Y-93230000D03*
X150590000Y-93730000D03*
X150590000Y-94230000D03*
X150590000Y-94730000D03*
X150590000Y-95230000D03*
X150590000Y-95730000D03*
X150590000Y-96230000D03*
X150590000Y-96730000D03*
D20*
X152190000Y-98330000D03*
X152690000Y-98330000D03*
X153190000Y-98330000D03*
X153690000Y-98330000D03*
X154190000Y-98330000D03*
X154690000Y-98330000D03*
X155190000Y-98330000D03*
X155690000Y-98330000D03*
X156190000Y-98330000D03*
X156690000Y-98330000D03*
X157190000Y-98330000D03*
X157690000Y-98330000D03*
D19*
X159290000Y-96730000D03*
X159290000Y-96230000D03*
X159290000Y-95730000D03*
X159290000Y-95230000D03*
X159290000Y-94730000D03*
X159290000Y-94230000D03*
X159290000Y-93730000D03*
X159290000Y-93230000D03*
X159290000Y-92730000D03*
X159290000Y-92230000D03*
X159290000Y-91730000D03*
X159290000Y-91230000D03*
D20*
X157690000Y-89630000D03*
X157190000Y-89630000D03*
X156690000Y-89630000D03*
X156190000Y-89630000D03*
X155690000Y-89630000D03*
X155190000Y-89630000D03*
X154690000Y-89630000D03*
X154190000Y-89630000D03*
X153690000Y-89630000D03*
X153190000Y-89630000D03*
X152690000Y-89630000D03*
X152190000Y-89630000D03*
G04 #@! TD*
D21*
G04 #@! TO.C,U6*
X161638000Y-81915000D03*
X161638000Y-83185000D03*
X161638000Y-84455000D03*
X161638000Y-85725000D03*
X167038000Y-85725000D03*
X167038000Y-84455000D03*
X167038000Y-83185000D03*
X167038000Y-81915000D03*
G04 #@! TD*
D22*
G04 #@! TO.C,B3*
X136982200Y-93929200D03*
D10*
G36*
X131982200Y-89429200D02*
X141982200Y-93429200D01*
X141982200Y-94429200D01*
X131982200Y-98429200D01*
X131982200Y-89429200D01*
X131982200Y-89429200D01*
G37*
G04 #@! TD*
D22*
G04 #@! TO.C,B4*
X154940000Y-111785400D03*
D10*
G36*
X150440000Y-116785400D02*
X154440000Y-106785400D01*
X155440000Y-106785400D01*
X159440000Y-116785400D01*
X150440000Y-116785400D01*
X150440000Y-116785400D01*
G37*
G04 #@! TD*
D22*
G04 #@! TO.C,B2*
X172796200Y-94005400D03*
D10*
G36*
X177796200Y-98505400D02*
X167796200Y-94505400D01*
X167796200Y-93505400D01*
X177796200Y-89505400D01*
X177796200Y-98505400D01*
X177796200Y-98505400D01*
G37*
G04 #@! TD*
D22*
G04 #@! TO.C,B1*
X154940000Y-76174600D03*
D10*
G36*
X159440000Y-71174600D02*
X155440000Y-81174600D01*
X154440000Y-81174600D01*
X150440000Y-71174600D01*
X159440000Y-71174600D01*
X159440000Y-71174600D01*
G37*
G04 #@! TD*
D23*
G04 #@! TO.C,Y1*
X161798000Y-100096000D03*
X161798000Y-102596000D03*
G04 #@! TD*
M02*
