G04 #@! TF.GenerationSoftware,KiCad,Pcbnew,(5.0.1-3-g963ef8bb5)*
G04 #@! TF.CreationDate,2019-03-08T12:42:58-05:00*
G04 #@! TF.ProjectId,badge,62616467652E6B696361645F70636200,rev?*
G04 #@! TF.SameCoordinates,Original*
G04 #@! TF.FileFunction,Copper,L1,Top,Signal*
G04 #@! TF.FilePolarity,Positive*
%FSLAX46Y46*%
G04 Gerber Fmt 4.6, Leading zero omitted, Abs format (unit mm)*
G04 Created by KiCad (PCBNEW (5.0.1-3-g963ef8bb5)) date Friday, March 08, 2019 at 12:42:58 PM*
%MOMM*%
%LPD*%
G01*
G04 APERTURE LIST*
G04 #@! TA.AperFunction,ComponentPad*
%ADD10C,2.500000*%
G04 #@! TD*
G04 #@! TA.AperFunction,ComponentPad*
%ADD11C,3.000000*%
G04 #@! TD*
G04 #@! TA.AperFunction,Conductor*
%ADD12C,0.100000*%
G04 #@! TD*
G04 #@! TA.AperFunction,SMDPad,CuDef*
%ADD13C,0.975000*%
G04 #@! TD*
G04 #@! TA.AperFunction,ComponentPad*
%ADD14C,1.524000*%
G04 #@! TD*
G04 #@! TA.AperFunction,SMDPad,CuDef*
%ADD15R,0.400000X1.350000*%
G04 #@! TD*
G04 #@! TA.AperFunction,SMDPad,CuDef*
%ADD16R,1.600000X1.400000*%
G04 #@! TD*
G04 #@! TA.AperFunction,SMDPad,CuDef*
%ADD17R,1.900000X1.900000*%
G04 #@! TD*
G04 #@! TA.AperFunction,ComponentPad*
%ADD18O,0.900000X1.600000*%
G04 #@! TD*
G04 #@! TA.AperFunction,SMDPad,CuDef*
%ADD19R,0.650000X1.060000*%
G04 #@! TD*
G04 #@! TA.AperFunction,SMDPad,CuDef*
%ADD20R,1.500000X1.000000*%
G04 #@! TD*
G04 #@! TA.AperFunction,SMDPad,CuDef*
%ADD21R,1.000000X1.500000*%
G04 #@! TD*
G04 #@! TA.AperFunction,SMDPad,CuDef*
%ADD22C,1.200000*%
G04 #@! TD*
G04 #@! TA.AperFunction,SMDPad,CuDef*
%ADD23R,1.300000X0.250000*%
G04 #@! TD*
G04 #@! TA.AperFunction,SMDPad,CuDef*
%ADD24R,0.250000X1.300000*%
G04 #@! TD*
G04 #@! TA.AperFunction,SMDPad,CuDef*
%ADD25R,1.550000X0.600000*%
G04 #@! TD*
G04 #@! TA.AperFunction,SMDPad,CuDef*
%ADD26C,4.642382*%
G04 #@! TD*
G04 #@! TA.AperFunction,SMDPad,CuDef*
%ADD27R,1.800000X1.000000*%
G04 #@! TD*
G04 #@! TA.AperFunction,ViaPad*
%ADD28C,0.609600*%
G04 #@! TD*
G04 #@! TA.AperFunction,Conductor*
%ADD29C,0.240000*%
G04 #@! TD*
G04 #@! TA.AperFunction,Conductor*
%ADD30C,0.200000*%
G04 #@! TD*
G04 #@! TA.AperFunction,Conductor*
%ADD31C,0.400000*%
G04 #@! TD*
G04 #@! TA.AperFunction,Conductor*
%ADD32C,0.500000*%
G04 #@! TD*
G04 #@! TA.AperFunction,Conductor*
%ADD33C,0.600000*%
G04 #@! TD*
G04 #@! TA.AperFunction,Conductor*
%ADD34C,1.000000*%
G04 #@! TD*
G04 #@! TA.AperFunction,Conductor*
%ADD35C,0.254000*%
G04 #@! TD*
G04 APERTURE END LIST*
D10*
G04 #@! TO.P,SP1,1*
G04 #@! TO.N,/BUZZER*
X134249233Y-76951767D03*
G04 #@! TO.P,SP1,2*
G04 #@! TO.N,GND*
X137784767Y-73416233D03*
G04 #@! TD*
D11*
G04 #@! TO.P,BH1,2*
G04 #@! TO.N,GND*
X174444882Y-117803523D03*
G04 #@! TO.P,BH1,1*
G04 #@! TO.N,Net-(BH1-Pad1)*
X178935010Y-113313395D03*
D12*
G04 #@! TD*
G04 #@! TO.N,Net-(BH1-Pad1)*
G04 #@! TO.C,BH1*
G36*
X181056330Y-113313395D02*
X178935010Y-115434715D01*
X176813690Y-113313395D01*
X178935010Y-111192075D01*
X181056330Y-113313395D01*
X181056330Y-113313395D01*
G37*
G04 #@! TO.N,GND*
G04 #@! TO.C,C7*
G36*
X170710942Y-85871374D02*
X170734603Y-85874884D01*
X170757807Y-85880696D01*
X170780329Y-85888754D01*
X170801953Y-85898982D01*
X170822470Y-85911279D01*
X170841683Y-85925529D01*
X170859407Y-85941593D01*
X170875471Y-85959317D01*
X170889721Y-85978530D01*
X170902018Y-85999047D01*
X170912246Y-86020671D01*
X170920304Y-86043193D01*
X170926116Y-86066397D01*
X170929626Y-86090058D01*
X170930800Y-86113950D01*
X170930800Y-86601450D01*
X170929626Y-86625342D01*
X170926116Y-86649003D01*
X170920304Y-86672207D01*
X170912246Y-86694729D01*
X170902018Y-86716353D01*
X170889721Y-86736870D01*
X170875471Y-86756083D01*
X170859407Y-86773807D01*
X170841683Y-86789871D01*
X170822470Y-86804121D01*
X170801953Y-86816418D01*
X170780329Y-86826646D01*
X170757807Y-86834704D01*
X170734603Y-86840516D01*
X170710942Y-86844026D01*
X170687050Y-86845200D01*
X169774550Y-86845200D01*
X169750658Y-86844026D01*
X169726997Y-86840516D01*
X169703793Y-86834704D01*
X169681271Y-86826646D01*
X169659647Y-86816418D01*
X169639130Y-86804121D01*
X169619917Y-86789871D01*
X169602193Y-86773807D01*
X169586129Y-86756083D01*
X169571879Y-86736870D01*
X169559582Y-86716353D01*
X169549354Y-86694729D01*
X169541296Y-86672207D01*
X169535484Y-86649003D01*
X169531974Y-86625342D01*
X169530800Y-86601450D01*
X169530800Y-86113950D01*
X169531974Y-86090058D01*
X169535484Y-86066397D01*
X169541296Y-86043193D01*
X169549354Y-86020671D01*
X169559582Y-85999047D01*
X169571879Y-85978530D01*
X169586129Y-85959317D01*
X169602193Y-85941593D01*
X169619917Y-85925529D01*
X169639130Y-85911279D01*
X169659647Y-85898982D01*
X169681271Y-85888754D01*
X169703793Y-85880696D01*
X169726997Y-85874884D01*
X169750658Y-85871374D01*
X169774550Y-85870200D01*
X170687050Y-85870200D01*
X170710942Y-85871374D01*
X170710942Y-85871374D01*
G37*
D13*
G04 #@! TD*
G04 #@! TO.P,C7,2*
G04 #@! TO.N,GND*
X170230800Y-86357700D03*
D12*
G04 #@! TO.N,+3V3*
G04 #@! TO.C,C7*
G36*
X170710942Y-83996374D02*
X170734603Y-83999884D01*
X170757807Y-84005696D01*
X170780329Y-84013754D01*
X170801953Y-84023982D01*
X170822470Y-84036279D01*
X170841683Y-84050529D01*
X170859407Y-84066593D01*
X170875471Y-84084317D01*
X170889721Y-84103530D01*
X170902018Y-84124047D01*
X170912246Y-84145671D01*
X170920304Y-84168193D01*
X170926116Y-84191397D01*
X170929626Y-84215058D01*
X170930800Y-84238950D01*
X170930800Y-84726450D01*
X170929626Y-84750342D01*
X170926116Y-84774003D01*
X170920304Y-84797207D01*
X170912246Y-84819729D01*
X170902018Y-84841353D01*
X170889721Y-84861870D01*
X170875471Y-84881083D01*
X170859407Y-84898807D01*
X170841683Y-84914871D01*
X170822470Y-84929121D01*
X170801953Y-84941418D01*
X170780329Y-84951646D01*
X170757807Y-84959704D01*
X170734603Y-84965516D01*
X170710942Y-84969026D01*
X170687050Y-84970200D01*
X169774550Y-84970200D01*
X169750658Y-84969026D01*
X169726997Y-84965516D01*
X169703793Y-84959704D01*
X169681271Y-84951646D01*
X169659647Y-84941418D01*
X169639130Y-84929121D01*
X169619917Y-84914871D01*
X169602193Y-84898807D01*
X169586129Y-84881083D01*
X169571879Y-84861870D01*
X169559582Y-84841353D01*
X169549354Y-84819729D01*
X169541296Y-84797207D01*
X169535484Y-84774003D01*
X169531974Y-84750342D01*
X169530800Y-84726450D01*
X169530800Y-84238950D01*
X169531974Y-84215058D01*
X169535484Y-84191397D01*
X169541296Y-84168193D01*
X169549354Y-84145671D01*
X169559582Y-84124047D01*
X169571879Y-84103530D01*
X169586129Y-84084317D01*
X169602193Y-84066593D01*
X169619917Y-84050529D01*
X169639130Y-84036279D01*
X169659647Y-84023982D01*
X169681271Y-84013754D01*
X169703793Y-84005696D01*
X169726997Y-83999884D01*
X169750658Y-83996374D01*
X169774550Y-83995200D01*
X170687050Y-83995200D01*
X170710942Y-83996374D01*
X170710942Y-83996374D01*
G37*
D13*
G04 #@! TD*
G04 #@! TO.P,C7,1*
G04 #@! TO.N,+3V3*
X170230800Y-84482700D03*
D12*
G04 #@! TO.N,+3V3*
G04 #@! TO.C,C6*
G36*
X166223142Y-69341674D02*
X166246803Y-69345184D01*
X166270007Y-69350996D01*
X166292529Y-69359054D01*
X166314153Y-69369282D01*
X166334670Y-69381579D01*
X166353883Y-69395829D01*
X166371607Y-69411893D01*
X166387671Y-69429617D01*
X166401921Y-69448830D01*
X166414218Y-69469347D01*
X166424446Y-69490971D01*
X166432504Y-69513493D01*
X166438316Y-69536697D01*
X166441826Y-69560358D01*
X166443000Y-69584250D01*
X166443000Y-70496750D01*
X166441826Y-70520642D01*
X166438316Y-70544303D01*
X166432504Y-70567507D01*
X166424446Y-70590029D01*
X166414218Y-70611653D01*
X166401921Y-70632170D01*
X166387671Y-70651383D01*
X166371607Y-70669107D01*
X166353883Y-70685171D01*
X166334670Y-70699421D01*
X166314153Y-70711718D01*
X166292529Y-70721946D01*
X166270007Y-70730004D01*
X166246803Y-70735816D01*
X166223142Y-70739326D01*
X166199250Y-70740500D01*
X165711750Y-70740500D01*
X165687858Y-70739326D01*
X165664197Y-70735816D01*
X165640993Y-70730004D01*
X165618471Y-70721946D01*
X165596847Y-70711718D01*
X165576330Y-70699421D01*
X165557117Y-70685171D01*
X165539393Y-70669107D01*
X165523329Y-70651383D01*
X165509079Y-70632170D01*
X165496782Y-70611653D01*
X165486554Y-70590029D01*
X165478496Y-70567507D01*
X165472684Y-70544303D01*
X165469174Y-70520642D01*
X165468000Y-70496750D01*
X165468000Y-69584250D01*
X165469174Y-69560358D01*
X165472684Y-69536697D01*
X165478496Y-69513493D01*
X165486554Y-69490971D01*
X165496782Y-69469347D01*
X165509079Y-69448830D01*
X165523329Y-69429617D01*
X165539393Y-69411893D01*
X165557117Y-69395829D01*
X165576330Y-69381579D01*
X165596847Y-69369282D01*
X165618471Y-69359054D01*
X165640993Y-69350996D01*
X165664197Y-69345184D01*
X165687858Y-69341674D01*
X165711750Y-69340500D01*
X166199250Y-69340500D01*
X166223142Y-69341674D01*
X166223142Y-69341674D01*
G37*
D13*
G04 #@! TD*
G04 #@! TO.P,C6,1*
G04 #@! TO.N,+3V3*
X165955500Y-70040500D03*
D12*
G04 #@! TO.N,GND*
G04 #@! TO.C,C6*
G36*
X168098142Y-69341674D02*
X168121803Y-69345184D01*
X168145007Y-69350996D01*
X168167529Y-69359054D01*
X168189153Y-69369282D01*
X168209670Y-69381579D01*
X168228883Y-69395829D01*
X168246607Y-69411893D01*
X168262671Y-69429617D01*
X168276921Y-69448830D01*
X168289218Y-69469347D01*
X168299446Y-69490971D01*
X168307504Y-69513493D01*
X168313316Y-69536697D01*
X168316826Y-69560358D01*
X168318000Y-69584250D01*
X168318000Y-70496750D01*
X168316826Y-70520642D01*
X168313316Y-70544303D01*
X168307504Y-70567507D01*
X168299446Y-70590029D01*
X168289218Y-70611653D01*
X168276921Y-70632170D01*
X168262671Y-70651383D01*
X168246607Y-70669107D01*
X168228883Y-70685171D01*
X168209670Y-70699421D01*
X168189153Y-70711718D01*
X168167529Y-70721946D01*
X168145007Y-70730004D01*
X168121803Y-70735816D01*
X168098142Y-70739326D01*
X168074250Y-70740500D01*
X167586750Y-70740500D01*
X167562858Y-70739326D01*
X167539197Y-70735816D01*
X167515993Y-70730004D01*
X167493471Y-70721946D01*
X167471847Y-70711718D01*
X167451330Y-70699421D01*
X167432117Y-70685171D01*
X167414393Y-70669107D01*
X167398329Y-70651383D01*
X167384079Y-70632170D01*
X167371782Y-70611653D01*
X167361554Y-70590029D01*
X167353496Y-70567507D01*
X167347684Y-70544303D01*
X167344174Y-70520642D01*
X167343000Y-70496750D01*
X167343000Y-69584250D01*
X167344174Y-69560358D01*
X167347684Y-69536697D01*
X167353496Y-69513493D01*
X167361554Y-69490971D01*
X167371782Y-69469347D01*
X167384079Y-69448830D01*
X167398329Y-69429617D01*
X167414393Y-69411893D01*
X167432117Y-69395829D01*
X167451330Y-69381579D01*
X167471847Y-69369282D01*
X167493471Y-69359054D01*
X167515993Y-69350996D01*
X167539197Y-69345184D01*
X167562858Y-69341674D01*
X167586750Y-69340500D01*
X168074250Y-69340500D01*
X168098142Y-69341674D01*
X168098142Y-69341674D01*
G37*
D13*
G04 #@! TD*
G04 #@! TO.P,C6,2*
G04 #@! TO.N,GND*
X167830500Y-70040500D03*
D12*
G04 #@! TO.N,GND*
G04 #@! TO.C,C5*
G36*
X166404442Y-98411974D02*
X166428103Y-98415484D01*
X166451307Y-98421296D01*
X166473829Y-98429354D01*
X166495453Y-98439582D01*
X166515970Y-98451879D01*
X166535183Y-98466129D01*
X166552907Y-98482193D01*
X166568971Y-98499917D01*
X166583221Y-98519130D01*
X166595518Y-98539647D01*
X166605746Y-98561271D01*
X166613804Y-98583793D01*
X166619616Y-98606997D01*
X166623126Y-98630658D01*
X166624300Y-98654550D01*
X166624300Y-99567050D01*
X166623126Y-99590942D01*
X166619616Y-99614603D01*
X166613804Y-99637807D01*
X166605746Y-99660329D01*
X166595518Y-99681953D01*
X166583221Y-99702470D01*
X166568971Y-99721683D01*
X166552907Y-99739407D01*
X166535183Y-99755471D01*
X166515970Y-99769721D01*
X166495453Y-99782018D01*
X166473829Y-99792246D01*
X166451307Y-99800304D01*
X166428103Y-99806116D01*
X166404442Y-99809626D01*
X166380550Y-99810800D01*
X165893050Y-99810800D01*
X165869158Y-99809626D01*
X165845497Y-99806116D01*
X165822293Y-99800304D01*
X165799771Y-99792246D01*
X165778147Y-99782018D01*
X165757630Y-99769721D01*
X165738417Y-99755471D01*
X165720693Y-99739407D01*
X165704629Y-99721683D01*
X165690379Y-99702470D01*
X165678082Y-99681953D01*
X165667854Y-99660329D01*
X165659796Y-99637807D01*
X165653984Y-99614603D01*
X165650474Y-99590942D01*
X165649300Y-99567050D01*
X165649300Y-98654550D01*
X165650474Y-98630658D01*
X165653984Y-98606997D01*
X165659796Y-98583793D01*
X165667854Y-98561271D01*
X165678082Y-98539647D01*
X165690379Y-98519130D01*
X165704629Y-98499917D01*
X165720693Y-98482193D01*
X165738417Y-98466129D01*
X165757630Y-98451879D01*
X165778147Y-98439582D01*
X165799771Y-98429354D01*
X165822293Y-98421296D01*
X165845497Y-98415484D01*
X165869158Y-98411974D01*
X165893050Y-98410800D01*
X166380550Y-98410800D01*
X166404442Y-98411974D01*
X166404442Y-98411974D01*
G37*
D13*
G04 #@! TD*
G04 #@! TO.P,C5,2*
G04 #@! TO.N,GND*
X166136800Y-99110800D03*
D12*
G04 #@! TO.N,+3V3*
G04 #@! TO.C,C5*
G36*
X164529442Y-98411974D02*
X164553103Y-98415484D01*
X164576307Y-98421296D01*
X164598829Y-98429354D01*
X164620453Y-98439582D01*
X164640970Y-98451879D01*
X164660183Y-98466129D01*
X164677907Y-98482193D01*
X164693971Y-98499917D01*
X164708221Y-98519130D01*
X164720518Y-98539647D01*
X164730746Y-98561271D01*
X164738804Y-98583793D01*
X164744616Y-98606997D01*
X164748126Y-98630658D01*
X164749300Y-98654550D01*
X164749300Y-99567050D01*
X164748126Y-99590942D01*
X164744616Y-99614603D01*
X164738804Y-99637807D01*
X164730746Y-99660329D01*
X164720518Y-99681953D01*
X164708221Y-99702470D01*
X164693971Y-99721683D01*
X164677907Y-99739407D01*
X164660183Y-99755471D01*
X164640970Y-99769721D01*
X164620453Y-99782018D01*
X164598829Y-99792246D01*
X164576307Y-99800304D01*
X164553103Y-99806116D01*
X164529442Y-99809626D01*
X164505550Y-99810800D01*
X164018050Y-99810800D01*
X163994158Y-99809626D01*
X163970497Y-99806116D01*
X163947293Y-99800304D01*
X163924771Y-99792246D01*
X163903147Y-99782018D01*
X163882630Y-99769721D01*
X163863417Y-99755471D01*
X163845693Y-99739407D01*
X163829629Y-99721683D01*
X163815379Y-99702470D01*
X163803082Y-99681953D01*
X163792854Y-99660329D01*
X163784796Y-99637807D01*
X163778984Y-99614603D01*
X163775474Y-99590942D01*
X163774300Y-99567050D01*
X163774300Y-98654550D01*
X163775474Y-98630658D01*
X163778984Y-98606997D01*
X163784796Y-98583793D01*
X163792854Y-98561271D01*
X163803082Y-98539647D01*
X163815379Y-98519130D01*
X163829629Y-98499917D01*
X163845693Y-98482193D01*
X163863417Y-98466129D01*
X163882630Y-98451879D01*
X163903147Y-98439582D01*
X163924771Y-98429354D01*
X163947293Y-98421296D01*
X163970497Y-98415484D01*
X163994158Y-98411974D01*
X164018050Y-98410800D01*
X164505550Y-98410800D01*
X164529442Y-98411974D01*
X164529442Y-98411974D01*
G37*
D13*
G04 #@! TD*
G04 #@! TO.P,C5,1*
G04 #@! TO.N,+3V3*
X164261800Y-99110800D03*
D12*
G04 #@! TO.N,+3V3*
G04 #@! TO.C,C4*
G36*
X145331642Y-101218674D02*
X145355303Y-101222184D01*
X145378507Y-101227996D01*
X145401029Y-101236054D01*
X145422653Y-101246282D01*
X145443170Y-101258579D01*
X145462383Y-101272829D01*
X145480107Y-101288893D01*
X145496171Y-101306617D01*
X145510421Y-101325830D01*
X145522718Y-101346347D01*
X145532946Y-101367971D01*
X145541004Y-101390493D01*
X145546816Y-101413697D01*
X145550326Y-101437358D01*
X145551500Y-101461250D01*
X145551500Y-102373750D01*
X145550326Y-102397642D01*
X145546816Y-102421303D01*
X145541004Y-102444507D01*
X145532946Y-102467029D01*
X145522718Y-102488653D01*
X145510421Y-102509170D01*
X145496171Y-102528383D01*
X145480107Y-102546107D01*
X145462383Y-102562171D01*
X145443170Y-102576421D01*
X145422653Y-102588718D01*
X145401029Y-102598946D01*
X145378507Y-102607004D01*
X145355303Y-102612816D01*
X145331642Y-102616326D01*
X145307750Y-102617500D01*
X144820250Y-102617500D01*
X144796358Y-102616326D01*
X144772697Y-102612816D01*
X144749493Y-102607004D01*
X144726971Y-102598946D01*
X144705347Y-102588718D01*
X144684830Y-102576421D01*
X144665617Y-102562171D01*
X144647893Y-102546107D01*
X144631829Y-102528383D01*
X144617579Y-102509170D01*
X144605282Y-102488653D01*
X144595054Y-102467029D01*
X144586996Y-102444507D01*
X144581184Y-102421303D01*
X144577674Y-102397642D01*
X144576500Y-102373750D01*
X144576500Y-101461250D01*
X144577674Y-101437358D01*
X144581184Y-101413697D01*
X144586996Y-101390493D01*
X144595054Y-101367971D01*
X144605282Y-101346347D01*
X144617579Y-101325830D01*
X144631829Y-101306617D01*
X144647893Y-101288893D01*
X144665617Y-101272829D01*
X144684830Y-101258579D01*
X144705347Y-101246282D01*
X144726971Y-101236054D01*
X144749493Y-101227996D01*
X144772697Y-101222184D01*
X144796358Y-101218674D01*
X144820250Y-101217500D01*
X145307750Y-101217500D01*
X145331642Y-101218674D01*
X145331642Y-101218674D01*
G37*
D13*
G04 #@! TD*
G04 #@! TO.P,C4,1*
G04 #@! TO.N,+3V3*
X145064000Y-101917500D03*
D12*
G04 #@! TO.N,GND*
G04 #@! TO.C,C4*
G36*
X147206642Y-101218674D02*
X147230303Y-101222184D01*
X147253507Y-101227996D01*
X147276029Y-101236054D01*
X147297653Y-101246282D01*
X147318170Y-101258579D01*
X147337383Y-101272829D01*
X147355107Y-101288893D01*
X147371171Y-101306617D01*
X147385421Y-101325830D01*
X147397718Y-101346347D01*
X147407946Y-101367971D01*
X147416004Y-101390493D01*
X147421816Y-101413697D01*
X147425326Y-101437358D01*
X147426500Y-101461250D01*
X147426500Y-102373750D01*
X147425326Y-102397642D01*
X147421816Y-102421303D01*
X147416004Y-102444507D01*
X147407946Y-102467029D01*
X147397718Y-102488653D01*
X147385421Y-102509170D01*
X147371171Y-102528383D01*
X147355107Y-102546107D01*
X147337383Y-102562171D01*
X147318170Y-102576421D01*
X147297653Y-102588718D01*
X147276029Y-102598946D01*
X147253507Y-102607004D01*
X147230303Y-102612816D01*
X147206642Y-102616326D01*
X147182750Y-102617500D01*
X146695250Y-102617500D01*
X146671358Y-102616326D01*
X146647697Y-102612816D01*
X146624493Y-102607004D01*
X146601971Y-102598946D01*
X146580347Y-102588718D01*
X146559830Y-102576421D01*
X146540617Y-102562171D01*
X146522893Y-102546107D01*
X146506829Y-102528383D01*
X146492579Y-102509170D01*
X146480282Y-102488653D01*
X146470054Y-102467029D01*
X146461996Y-102444507D01*
X146456184Y-102421303D01*
X146452674Y-102397642D01*
X146451500Y-102373750D01*
X146451500Y-101461250D01*
X146452674Y-101437358D01*
X146456184Y-101413697D01*
X146461996Y-101390493D01*
X146470054Y-101367971D01*
X146480282Y-101346347D01*
X146492579Y-101325830D01*
X146506829Y-101306617D01*
X146522893Y-101288893D01*
X146540617Y-101272829D01*
X146559830Y-101258579D01*
X146580347Y-101246282D01*
X146601971Y-101236054D01*
X146624493Y-101227996D01*
X146647697Y-101222184D01*
X146671358Y-101218674D01*
X146695250Y-101217500D01*
X147182750Y-101217500D01*
X147206642Y-101218674D01*
X147206642Y-101218674D01*
G37*
D13*
G04 #@! TD*
G04 #@! TO.P,C4,2*
G04 #@! TO.N,GND*
X146939000Y-101917500D03*
D12*
G04 #@! TO.N,GND*
G04 #@! TO.C,C1*
G36*
X179005142Y-74231174D02*
X179028803Y-74234684D01*
X179052007Y-74240496D01*
X179074529Y-74248554D01*
X179096153Y-74258782D01*
X179116670Y-74271079D01*
X179135883Y-74285329D01*
X179153607Y-74301393D01*
X179169671Y-74319117D01*
X179183921Y-74338330D01*
X179196218Y-74358847D01*
X179206446Y-74380471D01*
X179214504Y-74402993D01*
X179220316Y-74426197D01*
X179223826Y-74449858D01*
X179225000Y-74473750D01*
X179225000Y-75386250D01*
X179223826Y-75410142D01*
X179220316Y-75433803D01*
X179214504Y-75457007D01*
X179206446Y-75479529D01*
X179196218Y-75501153D01*
X179183921Y-75521670D01*
X179169671Y-75540883D01*
X179153607Y-75558607D01*
X179135883Y-75574671D01*
X179116670Y-75588921D01*
X179096153Y-75601218D01*
X179074529Y-75611446D01*
X179052007Y-75619504D01*
X179028803Y-75625316D01*
X179005142Y-75628826D01*
X178981250Y-75630000D01*
X178493750Y-75630000D01*
X178469858Y-75628826D01*
X178446197Y-75625316D01*
X178422993Y-75619504D01*
X178400471Y-75611446D01*
X178378847Y-75601218D01*
X178358330Y-75588921D01*
X178339117Y-75574671D01*
X178321393Y-75558607D01*
X178305329Y-75540883D01*
X178291079Y-75521670D01*
X178278782Y-75501153D01*
X178268554Y-75479529D01*
X178260496Y-75457007D01*
X178254684Y-75433803D01*
X178251174Y-75410142D01*
X178250000Y-75386250D01*
X178250000Y-74473750D01*
X178251174Y-74449858D01*
X178254684Y-74426197D01*
X178260496Y-74402993D01*
X178268554Y-74380471D01*
X178278782Y-74358847D01*
X178291079Y-74338330D01*
X178305329Y-74319117D01*
X178321393Y-74301393D01*
X178339117Y-74285329D01*
X178358330Y-74271079D01*
X178378847Y-74258782D01*
X178400471Y-74248554D01*
X178422993Y-74240496D01*
X178446197Y-74234684D01*
X178469858Y-74231174D01*
X178493750Y-74230000D01*
X178981250Y-74230000D01*
X179005142Y-74231174D01*
X179005142Y-74231174D01*
G37*
D13*
G04 #@! TD*
G04 #@! TO.P,C1,2*
G04 #@! TO.N,GND*
X178737500Y-74930000D03*
D12*
G04 #@! TO.N,/USBVDD_5V*
G04 #@! TO.C,C1*
G36*
X177130142Y-74231174D02*
X177153803Y-74234684D01*
X177177007Y-74240496D01*
X177199529Y-74248554D01*
X177221153Y-74258782D01*
X177241670Y-74271079D01*
X177260883Y-74285329D01*
X177278607Y-74301393D01*
X177294671Y-74319117D01*
X177308921Y-74338330D01*
X177321218Y-74358847D01*
X177331446Y-74380471D01*
X177339504Y-74402993D01*
X177345316Y-74426197D01*
X177348826Y-74449858D01*
X177350000Y-74473750D01*
X177350000Y-75386250D01*
X177348826Y-75410142D01*
X177345316Y-75433803D01*
X177339504Y-75457007D01*
X177331446Y-75479529D01*
X177321218Y-75501153D01*
X177308921Y-75521670D01*
X177294671Y-75540883D01*
X177278607Y-75558607D01*
X177260883Y-75574671D01*
X177241670Y-75588921D01*
X177221153Y-75601218D01*
X177199529Y-75611446D01*
X177177007Y-75619504D01*
X177153803Y-75625316D01*
X177130142Y-75628826D01*
X177106250Y-75630000D01*
X176618750Y-75630000D01*
X176594858Y-75628826D01*
X176571197Y-75625316D01*
X176547993Y-75619504D01*
X176525471Y-75611446D01*
X176503847Y-75601218D01*
X176483330Y-75588921D01*
X176464117Y-75574671D01*
X176446393Y-75558607D01*
X176430329Y-75540883D01*
X176416079Y-75521670D01*
X176403782Y-75501153D01*
X176393554Y-75479529D01*
X176385496Y-75457007D01*
X176379684Y-75433803D01*
X176376174Y-75410142D01*
X176375000Y-75386250D01*
X176375000Y-74473750D01*
X176376174Y-74449858D01*
X176379684Y-74426197D01*
X176385496Y-74402993D01*
X176393554Y-74380471D01*
X176403782Y-74358847D01*
X176416079Y-74338330D01*
X176430329Y-74319117D01*
X176446393Y-74301393D01*
X176464117Y-74285329D01*
X176483330Y-74271079D01*
X176503847Y-74258782D01*
X176525471Y-74248554D01*
X176547993Y-74240496D01*
X176571197Y-74234684D01*
X176594858Y-74231174D01*
X176618750Y-74230000D01*
X177106250Y-74230000D01*
X177130142Y-74231174D01*
X177130142Y-74231174D01*
G37*
D13*
G04 #@! TD*
G04 #@! TO.P,C1,1*
G04 #@! TO.N,/USBVDD_5V*
X176862500Y-74930000D03*
D12*
G04 #@! TO.N,Net-(C8-Pad1)*
G04 #@! TO.C,C8*
G36*
X155461642Y-86804174D02*
X155485303Y-86807684D01*
X155508507Y-86813496D01*
X155531029Y-86821554D01*
X155552653Y-86831782D01*
X155573170Y-86844079D01*
X155592383Y-86858329D01*
X155610107Y-86874393D01*
X155626171Y-86892117D01*
X155640421Y-86911330D01*
X155652718Y-86931847D01*
X155662946Y-86953471D01*
X155671004Y-86975993D01*
X155676816Y-86999197D01*
X155680326Y-87022858D01*
X155681500Y-87046750D01*
X155681500Y-87959250D01*
X155680326Y-87983142D01*
X155676816Y-88006803D01*
X155671004Y-88030007D01*
X155662946Y-88052529D01*
X155652718Y-88074153D01*
X155640421Y-88094670D01*
X155626171Y-88113883D01*
X155610107Y-88131607D01*
X155592383Y-88147671D01*
X155573170Y-88161921D01*
X155552653Y-88174218D01*
X155531029Y-88184446D01*
X155508507Y-88192504D01*
X155485303Y-88198316D01*
X155461642Y-88201826D01*
X155437750Y-88203000D01*
X154950250Y-88203000D01*
X154926358Y-88201826D01*
X154902697Y-88198316D01*
X154879493Y-88192504D01*
X154856971Y-88184446D01*
X154835347Y-88174218D01*
X154814830Y-88161921D01*
X154795617Y-88147671D01*
X154777893Y-88131607D01*
X154761829Y-88113883D01*
X154747579Y-88094670D01*
X154735282Y-88074153D01*
X154725054Y-88052529D01*
X154716996Y-88030007D01*
X154711184Y-88006803D01*
X154707674Y-87983142D01*
X154706500Y-87959250D01*
X154706500Y-87046750D01*
X154707674Y-87022858D01*
X154711184Y-86999197D01*
X154716996Y-86975993D01*
X154725054Y-86953471D01*
X154735282Y-86931847D01*
X154747579Y-86911330D01*
X154761829Y-86892117D01*
X154777893Y-86874393D01*
X154795617Y-86858329D01*
X154814830Y-86844079D01*
X154835347Y-86831782D01*
X154856971Y-86821554D01*
X154879493Y-86813496D01*
X154902697Y-86807684D01*
X154926358Y-86804174D01*
X154950250Y-86803000D01*
X155437750Y-86803000D01*
X155461642Y-86804174D01*
X155461642Y-86804174D01*
G37*
D13*
G04 #@! TD*
G04 #@! TO.P,C8,1*
G04 #@! TO.N,Net-(C8-Pad1)*
X155194000Y-87503000D03*
D12*
G04 #@! TO.N,GND*
G04 #@! TO.C,C8*
G36*
X157336642Y-86804174D02*
X157360303Y-86807684D01*
X157383507Y-86813496D01*
X157406029Y-86821554D01*
X157427653Y-86831782D01*
X157448170Y-86844079D01*
X157467383Y-86858329D01*
X157485107Y-86874393D01*
X157501171Y-86892117D01*
X157515421Y-86911330D01*
X157527718Y-86931847D01*
X157537946Y-86953471D01*
X157546004Y-86975993D01*
X157551816Y-86999197D01*
X157555326Y-87022858D01*
X157556500Y-87046750D01*
X157556500Y-87959250D01*
X157555326Y-87983142D01*
X157551816Y-88006803D01*
X157546004Y-88030007D01*
X157537946Y-88052529D01*
X157527718Y-88074153D01*
X157515421Y-88094670D01*
X157501171Y-88113883D01*
X157485107Y-88131607D01*
X157467383Y-88147671D01*
X157448170Y-88161921D01*
X157427653Y-88174218D01*
X157406029Y-88184446D01*
X157383507Y-88192504D01*
X157360303Y-88198316D01*
X157336642Y-88201826D01*
X157312750Y-88203000D01*
X156825250Y-88203000D01*
X156801358Y-88201826D01*
X156777697Y-88198316D01*
X156754493Y-88192504D01*
X156731971Y-88184446D01*
X156710347Y-88174218D01*
X156689830Y-88161921D01*
X156670617Y-88147671D01*
X156652893Y-88131607D01*
X156636829Y-88113883D01*
X156622579Y-88094670D01*
X156610282Y-88074153D01*
X156600054Y-88052529D01*
X156591996Y-88030007D01*
X156586184Y-88006803D01*
X156582674Y-87983142D01*
X156581500Y-87959250D01*
X156581500Y-87046750D01*
X156582674Y-87022858D01*
X156586184Y-86999197D01*
X156591996Y-86975993D01*
X156600054Y-86953471D01*
X156610282Y-86931847D01*
X156622579Y-86911330D01*
X156636829Y-86892117D01*
X156652893Y-86874393D01*
X156670617Y-86858329D01*
X156689830Y-86844079D01*
X156710347Y-86831782D01*
X156731971Y-86821554D01*
X156754493Y-86813496D01*
X156777697Y-86807684D01*
X156801358Y-86804174D01*
X156825250Y-86803000D01*
X157312750Y-86803000D01*
X157336642Y-86804174D01*
X157336642Y-86804174D01*
G37*
D13*
G04 #@! TD*
G04 #@! TO.P,C8,2*
G04 #@! TO.N,GND*
X157069000Y-87503000D03*
D12*
G04 #@! TO.N,/XTAL2_PA15*
G04 #@! TO.C,C3*
G36*
X164582642Y-100570974D02*
X164606303Y-100574484D01*
X164629507Y-100580296D01*
X164652029Y-100588354D01*
X164673653Y-100598582D01*
X164694170Y-100610879D01*
X164713383Y-100625129D01*
X164731107Y-100641193D01*
X164747171Y-100658917D01*
X164761421Y-100678130D01*
X164773718Y-100698647D01*
X164783946Y-100720271D01*
X164792004Y-100742793D01*
X164797816Y-100765997D01*
X164801326Y-100789658D01*
X164802500Y-100813550D01*
X164802500Y-101726050D01*
X164801326Y-101749942D01*
X164797816Y-101773603D01*
X164792004Y-101796807D01*
X164783946Y-101819329D01*
X164773718Y-101840953D01*
X164761421Y-101861470D01*
X164747171Y-101880683D01*
X164731107Y-101898407D01*
X164713383Y-101914471D01*
X164694170Y-101928721D01*
X164673653Y-101941018D01*
X164652029Y-101951246D01*
X164629507Y-101959304D01*
X164606303Y-101965116D01*
X164582642Y-101968626D01*
X164558750Y-101969800D01*
X164071250Y-101969800D01*
X164047358Y-101968626D01*
X164023697Y-101965116D01*
X164000493Y-101959304D01*
X163977971Y-101951246D01*
X163956347Y-101941018D01*
X163935830Y-101928721D01*
X163916617Y-101914471D01*
X163898893Y-101898407D01*
X163882829Y-101880683D01*
X163868579Y-101861470D01*
X163856282Y-101840953D01*
X163846054Y-101819329D01*
X163837996Y-101796807D01*
X163832184Y-101773603D01*
X163828674Y-101749942D01*
X163827500Y-101726050D01*
X163827500Y-100813550D01*
X163828674Y-100789658D01*
X163832184Y-100765997D01*
X163837996Y-100742793D01*
X163846054Y-100720271D01*
X163856282Y-100698647D01*
X163868579Y-100678130D01*
X163882829Y-100658917D01*
X163898893Y-100641193D01*
X163916617Y-100625129D01*
X163935830Y-100610879D01*
X163956347Y-100598582D01*
X163977971Y-100588354D01*
X164000493Y-100580296D01*
X164023697Y-100574484D01*
X164047358Y-100570974D01*
X164071250Y-100569800D01*
X164558750Y-100569800D01*
X164582642Y-100570974D01*
X164582642Y-100570974D01*
G37*
D13*
G04 #@! TD*
G04 #@! TO.P,C3,1*
G04 #@! TO.N,/XTAL2_PA15*
X164315000Y-101269800D03*
D12*
G04 #@! TO.N,GND*
G04 #@! TO.C,C3*
G36*
X166457642Y-100570974D02*
X166481303Y-100574484D01*
X166504507Y-100580296D01*
X166527029Y-100588354D01*
X166548653Y-100598582D01*
X166569170Y-100610879D01*
X166588383Y-100625129D01*
X166606107Y-100641193D01*
X166622171Y-100658917D01*
X166636421Y-100678130D01*
X166648718Y-100698647D01*
X166658946Y-100720271D01*
X166667004Y-100742793D01*
X166672816Y-100765997D01*
X166676326Y-100789658D01*
X166677500Y-100813550D01*
X166677500Y-101726050D01*
X166676326Y-101749942D01*
X166672816Y-101773603D01*
X166667004Y-101796807D01*
X166658946Y-101819329D01*
X166648718Y-101840953D01*
X166636421Y-101861470D01*
X166622171Y-101880683D01*
X166606107Y-101898407D01*
X166588383Y-101914471D01*
X166569170Y-101928721D01*
X166548653Y-101941018D01*
X166527029Y-101951246D01*
X166504507Y-101959304D01*
X166481303Y-101965116D01*
X166457642Y-101968626D01*
X166433750Y-101969800D01*
X165946250Y-101969800D01*
X165922358Y-101968626D01*
X165898697Y-101965116D01*
X165875493Y-101959304D01*
X165852971Y-101951246D01*
X165831347Y-101941018D01*
X165810830Y-101928721D01*
X165791617Y-101914471D01*
X165773893Y-101898407D01*
X165757829Y-101880683D01*
X165743579Y-101861470D01*
X165731282Y-101840953D01*
X165721054Y-101819329D01*
X165712996Y-101796807D01*
X165707184Y-101773603D01*
X165703674Y-101749942D01*
X165702500Y-101726050D01*
X165702500Y-100813550D01*
X165703674Y-100789658D01*
X165707184Y-100765997D01*
X165712996Y-100742793D01*
X165721054Y-100720271D01*
X165731282Y-100698647D01*
X165743579Y-100678130D01*
X165757829Y-100658917D01*
X165773893Y-100641193D01*
X165791617Y-100625129D01*
X165810830Y-100610879D01*
X165831347Y-100598582D01*
X165852971Y-100588354D01*
X165875493Y-100580296D01*
X165898697Y-100574484D01*
X165922358Y-100570974D01*
X165946250Y-100569800D01*
X166433750Y-100569800D01*
X166457642Y-100570974D01*
X166457642Y-100570974D01*
G37*
D13*
G04 #@! TD*
G04 #@! TO.P,C3,2*
G04 #@! TO.N,GND*
X166190000Y-101269800D03*
D12*
G04 #@! TO.N,GND*
G04 #@! TO.C,C2*
G36*
X166457542Y-102679174D02*
X166481203Y-102682684D01*
X166504407Y-102688496D01*
X166526929Y-102696554D01*
X166548553Y-102706782D01*
X166569070Y-102719079D01*
X166588283Y-102733329D01*
X166606007Y-102749393D01*
X166622071Y-102767117D01*
X166636321Y-102786330D01*
X166648618Y-102806847D01*
X166658846Y-102828471D01*
X166666904Y-102850993D01*
X166672716Y-102874197D01*
X166676226Y-102897858D01*
X166677400Y-102921750D01*
X166677400Y-103834250D01*
X166676226Y-103858142D01*
X166672716Y-103881803D01*
X166666904Y-103905007D01*
X166658846Y-103927529D01*
X166648618Y-103949153D01*
X166636321Y-103969670D01*
X166622071Y-103988883D01*
X166606007Y-104006607D01*
X166588283Y-104022671D01*
X166569070Y-104036921D01*
X166548553Y-104049218D01*
X166526929Y-104059446D01*
X166504407Y-104067504D01*
X166481203Y-104073316D01*
X166457542Y-104076826D01*
X166433650Y-104078000D01*
X165946150Y-104078000D01*
X165922258Y-104076826D01*
X165898597Y-104073316D01*
X165875393Y-104067504D01*
X165852871Y-104059446D01*
X165831247Y-104049218D01*
X165810730Y-104036921D01*
X165791517Y-104022671D01*
X165773793Y-104006607D01*
X165757729Y-103988883D01*
X165743479Y-103969670D01*
X165731182Y-103949153D01*
X165720954Y-103927529D01*
X165712896Y-103905007D01*
X165707084Y-103881803D01*
X165703574Y-103858142D01*
X165702400Y-103834250D01*
X165702400Y-102921750D01*
X165703574Y-102897858D01*
X165707084Y-102874197D01*
X165712896Y-102850993D01*
X165720954Y-102828471D01*
X165731182Y-102806847D01*
X165743479Y-102786330D01*
X165757729Y-102767117D01*
X165773793Y-102749393D01*
X165791517Y-102733329D01*
X165810730Y-102719079D01*
X165831247Y-102706782D01*
X165852871Y-102696554D01*
X165875393Y-102688496D01*
X165898597Y-102682684D01*
X165922258Y-102679174D01*
X165946150Y-102678000D01*
X166433650Y-102678000D01*
X166457542Y-102679174D01*
X166457542Y-102679174D01*
G37*
D13*
G04 #@! TD*
G04 #@! TO.P,C2,2*
G04 #@! TO.N,GND*
X166189900Y-103378000D03*
D12*
G04 #@! TO.N,/XTAL1_PA14*
G04 #@! TO.C,C2*
G36*
X164582542Y-102679174D02*
X164606203Y-102682684D01*
X164629407Y-102688496D01*
X164651929Y-102696554D01*
X164673553Y-102706782D01*
X164694070Y-102719079D01*
X164713283Y-102733329D01*
X164731007Y-102749393D01*
X164747071Y-102767117D01*
X164761321Y-102786330D01*
X164773618Y-102806847D01*
X164783846Y-102828471D01*
X164791904Y-102850993D01*
X164797716Y-102874197D01*
X164801226Y-102897858D01*
X164802400Y-102921750D01*
X164802400Y-103834250D01*
X164801226Y-103858142D01*
X164797716Y-103881803D01*
X164791904Y-103905007D01*
X164783846Y-103927529D01*
X164773618Y-103949153D01*
X164761321Y-103969670D01*
X164747071Y-103988883D01*
X164731007Y-104006607D01*
X164713283Y-104022671D01*
X164694070Y-104036921D01*
X164673553Y-104049218D01*
X164651929Y-104059446D01*
X164629407Y-104067504D01*
X164606203Y-104073316D01*
X164582542Y-104076826D01*
X164558650Y-104078000D01*
X164071150Y-104078000D01*
X164047258Y-104076826D01*
X164023597Y-104073316D01*
X164000393Y-104067504D01*
X163977871Y-104059446D01*
X163956247Y-104049218D01*
X163935730Y-104036921D01*
X163916517Y-104022671D01*
X163898793Y-104006607D01*
X163882729Y-103988883D01*
X163868479Y-103969670D01*
X163856182Y-103949153D01*
X163845954Y-103927529D01*
X163837896Y-103905007D01*
X163832084Y-103881803D01*
X163828574Y-103858142D01*
X163827400Y-103834250D01*
X163827400Y-102921750D01*
X163828574Y-102897858D01*
X163832084Y-102874197D01*
X163837896Y-102850993D01*
X163845954Y-102828471D01*
X163856182Y-102806847D01*
X163868479Y-102786330D01*
X163882729Y-102767117D01*
X163898793Y-102749393D01*
X163916517Y-102733329D01*
X163935730Y-102719079D01*
X163956247Y-102706782D01*
X163977871Y-102696554D01*
X164000393Y-102688496D01*
X164023597Y-102682684D01*
X164047258Y-102679174D01*
X164071150Y-102678000D01*
X164558650Y-102678000D01*
X164582542Y-102679174D01*
X164582542Y-102679174D01*
G37*
D13*
G04 #@! TD*
G04 #@! TO.P,C2,1*
G04 #@! TO.N,/XTAL1_PA14*
X164314900Y-103378000D03*
D14*
G04 #@! TO.P,SWCLK1,1*
G04 #@! TO.N,/SWCLK*
X162560000Y-69850000D03*
G04 #@! TD*
G04 #@! TO.P,SWDIO1,1*
G04 #@! TO.N,/SWDIO*
X160020000Y-69850000D03*
G04 #@! TD*
G04 #@! TO.P,3V3,1*
G04 #@! TO.N,+3V3*
X171450000Y-81280000D03*
G04 #@! TD*
G04 #@! TO.P,5V0,1*
G04 #@! TO.N,/USBVDD_5V*
X179501800Y-71882000D03*
G04 #@! TD*
G04 #@! TO.P,RST1,1*
G04 #@! TO.N,Net-(RST1-Pad1)*
X144780000Y-83820000D03*
G04 #@! TD*
G04 #@! TO.P,PA18,1*
G04 #@! TO.N,/PA18*
X171704000Y-89916000D03*
G04 #@! TD*
G04 #@! TO.P,PA17,1*
G04 #@! TO.N,/PA17*
X161036000Y-97536000D03*
G04 #@! TD*
G04 #@! TO.P,PA13,1*
G04 #@! TO.N,/PA13*
X163068000Y-105156000D03*
G04 #@! TD*
G04 #@! TO.P,PB3,1*
G04 #@! TO.N,/PB03*
X151130000Y-87731600D03*
G04 #@! TD*
G04 #@! TO.P,PA9,1*
G04 #@! TO.N,/PA09*
X161290000Y-109220000D03*
G04 #@! TD*
G04 #@! TO.P,PA8,1*
G04 #@! TO.N,/PA08*
X161290000Y-111760000D03*
G04 #@! TD*
G04 #@! TO.P,PA7,1*
G04 #@! TO.N,/PA07*
X149860000Y-99695000D03*
G04 #@! TD*
G04 #@! TO.P,PA6,1*
G04 #@! TO.N,/PA06*
X147320000Y-99695000D03*
G04 #@! TD*
G04 #@! TO.P,PA4,1*
G04 #@! TO.N,/PA04*
X144780000Y-99695000D03*
G04 #@! TD*
G04 #@! TO.P,PA3,1*
G04 #@! TO.N,/PA03*
X137160000Y-83820000D03*
G04 #@! TD*
G04 #@! TO.P,PA1,1*
G04 #@! TO.N,/PA01*
X139700000Y-83820000D03*
G04 #@! TD*
G04 #@! TO.P,PA0,1*
G04 #@! TO.N,/PA00*
X142240000Y-83820000D03*
G04 #@! TD*
G04 #@! TO.P,GND1,1*
G04 #@! TO.N,GND*
X147320000Y-83820000D03*
G04 #@! TD*
G04 #@! TO.P,PB9,1*
G04 #@! TO.N,/PB09*
X142240000Y-99695000D03*
G04 #@! TD*
G04 #@! TO.P,PB11,1*
G04 #@! TO.N,/PB11*
X155425000Y-100350000D03*
G04 #@! TD*
G04 #@! TO.P,PA12,1*
G04 #@! TO.N,/PA12*
X160553400Y-105156000D03*
G04 #@! TD*
G04 #@! TO.P,PA19,1*
G04 #@! TO.N,/PA19*
X169164000Y-89916000D03*
G04 #@! TD*
D15*
G04 #@! TO.P,J1,1*
G04 #@! TO.N,/USBVDD_5V*
X175220000Y-71939000D03*
G04 #@! TO.P,J1,2*
G04 #@! TO.N,/USB_N*
X174570000Y-71939000D03*
G04 #@! TO.P,J1,3*
G04 #@! TO.N,/USB_P*
X173920000Y-71939000D03*
G04 #@! TO.P,J1,4*
G04 #@! TO.N,Net-(J1-Pad4)*
X173270000Y-71939000D03*
G04 #@! TO.P,J1,5*
G04 #@! TO.N,GND*
X172620000Y-71939000D03*
D16*
G04 #@! TO.P,J1,S1*
X177120000Y-71714000D03*
G04 #@! TO.P,J1,S2*
X170720000Y-71714000D03*
D17*
G04 #@! TO.P,J1,S4*
G04 #@! TO.N,Net-(J1-PadS4)*
X175120000Y-69264000D03*
G04 #@! TO.P,J1,S3*
G04 #@! TO.N,Net-(J1-PadS3)*
X172720000Y-69264000D03*
D18*
G04 #@! TO.P,J1,S5*
G04 #@! TO.N,Net-(J1-PadS5)*
X177220000Y-69264000D03*
G04 #@! TO.P,J1,S6*
G04 #@! TO.N,Net-(J1-PadS6)*
X170620000Y-69264000D03*
G04 #@! TD*
D19*
G04 #@! TO.P,U2,1*
G04 #@! TO.N,/USBVDD_5V*
X178877000Y-78910000D03*
G04 #@! TO.P,U2,2*
G04 #@! TO.N,GND*
X177927000Y-78910000D03*
G04 #@! TO.P,U2,3*
G04 #@! TO.N,/USBVDD_5V*
X176977000Y-78910000D03*
G04 #@! TO.P,U2,4*
G04 #@! TO.N,Net-(U2-Pad4)*
X176977000Y-81110000D03*
G04 #@! TO.P,U2,5*
G04 #@! TO.N,Net-(SW1-Pad1)*
X178877000Y-81110000D03*
G04 #@! TD*
D20*
G04 #@! TO.P,U7,1*
G04 #@! TO.N,Net-(U5-Pad6)*
X152236000Y-82220000D03*
G04 #@! TO.P,U7,2*
G04 #@! TO.N,Net-(U5-Pad5)*
X152236000Y-83820000D03*
G04 #@! TO.P,U7,3*
G04 #@! TO.N,GND*
X152236000Y-85420000D03*
G04 #@! TO.P,U7,6*
G04 #@! TO.N,Net-(TP7-Pad1)*
X157136000Y-82220000D03*
G04 #@! TO.P,U7,5*
G04 #@! TO.N,Net-(TP8-Pad1)*
X157136000Y-83820000D03*
G04 #@! TO.P,U7,4*
G04 #@! TO.N,+3V3*
X157136000Y-85420000D03*
G04 #@! TD*
D21*
G04 #@! TO.P,U3,1*
G04 #@! TO.N,/LED_SDI*
X166700000Y-91530000D03*
G04 #@! TO.P,U3,2*
G04 #@! TO.N,/LED_CLK*
X165100000Y-91530000D03*
G04 #@! TO.P,U3,3*
G04 #@! TO.N,GND*
X163500000Y-91530000D03*
G04 #@! TO.P,U3,6*
G04 #@! TO.N,Net-(U3-Pad6)*
X166700000Y-96430000D03*
G04 #@! TO.P,U3,5*
G04 #@! TO.N,Net-(U3-Pad5)*
X165100000Y-96430000D03*
G04 #@! TO.P,U3,4*
G04 #@! TO.N,+3V3*
X163500000Y-96430000D03*
G04 #@! TD*
D20*
G04 #@! TO.P,U4,1*
G04 #@! TO.N,Net-(U3-Pad6)*
X157390000Y-105740000D03*
G04 #@! TO.P,U4,2*
G04 #@! TO.N,Net-(U3-Pad5)*
X157390000Y-104140000D03*
G04 #@! TO.P,U4,3*
G04 #@! TO.N,GND*
X157390000Y-102540000D03*
G04 #@! TO.P,U4,6*
G04 #@! TO.N,Net-(U4-Pad6)*
X152490000Y-105740000D03*
G04 #@! TO.P,U4,5*
G04 #@! TO.N,Net-(U4-Pad5)*
X152490000Y-104140000D03*
G04 #@! TO.P,U4,4*
G04 #@! TO.N,+3V3*
X152490000Y-102540000D03*
G04 #@! TD*
D21*
G04 #@! TO.P,U5,1*
G04 #@! TO.N,Net-(U4-Pad6)*
X143180000Y-96176000D03*
G04 #@! TO.P,U5,2*
G04 #@! TO.N,Net-(U4-Pad5)*
X144780000Y-96176000D03*
G04 #@! TO.P,U5,3*
G04 #@! TO.N,GND*
X146380000Y-96176000D03*
G04 #@! TO.P,U5,6*
G04 #@! TO.N,Net-(U5-Pad6)*
X143180000Y-91276000D03*
G04 #@! TO.P,U5,5*
G04 #@! TO.N,Net-(U5-Pad5)*
X144780000Y-91276000D03*
G04 #@! TO.P,U5,4*
G04 #@! TO.N,+3V3*
X146380000Y-91276000D03*
G04 #@! TD*
D12*
G04 #@! TO.N,Net-(SW1-Pad1)*
G04 #@! TO.C,SW1*
G36*
X167588405Y-77403445D02*
X167617527Y-77407764D01*
X167646085Y-77414918D01*
X167673805Y-77424836D01*
X167700419Y-77437424D01*
X167725671Y-77452559D01*
X167749318Y-77470097D01*
X167771132Y-77489868D01*
X167790903Y-77511682D01*
X167808441Y-77535329D01*
X167823576Y-77560581D01*
X167836164Y-77587195D01*
X167846082Y-77614915D01*
X167853236Y-77643473D01*
X167857555Y-77672595D01*
X167859000Y-77702000D01*
X167859000Y-79602000D01*
X167857555Y-79631405D01*
X167853236Y-79660527D01*
X167846082Y-79689085D01*
X167836164Y-79716805D01*
X167823576Y-79743419D01*
X167808441Y-79768671D01*
X167790903Y-79792318D01*
X167771132Y-79814132D01*
X167749318Y-79833903D01*
X167725671Y-79851441D01*
X167700419Y-79866576D01*
X167673805Y-79879164D01*
X167646085Y-79889082D01*
X167617527Y-79896236D01*
X167588405Y-79900555D01*
X167559000Y-79902000D01*
X166959000Y-79902000D01*
X166929595Y-79900555D01*
X166900473Y-79896236D01*
X166871915Y-79889082D01*
X166844195Y-79879164D01*
X166817581Y-79866576D01*
X166792329Y-79851441D01*
X166768682Y-79833903D01*
X166746868Y-79814132D01*
X166727097Y-79792318D01*
X166709559Y-79768671D01*
X166694424Y-79743419D01*
X166681836Y-79716805D01*
X166671918Y-79689085D01*
X166664764Y-79660527D01*
X166660445Y-79631405D01*
X166659000Y-79602000D01*
X166659000Y-77702000D01*
X166660445Y-77672595D01*
X166664764Y-77643473D01*
X166671918Y-77614915D01*
X166681836Y-77587195D01*
X166694424Y-77560581D01*
X166709559Y-77535329D01*
X166727097Y-77511682D01*
X166746868Y-77489868D01*
X166768682Y-77470097D01*
X166792329Y-77452559D01*
X166817581Y-77437424D01*
X166844195Y-77424836D01*
X166871915Y-77414918D01*
X166900473Y-77407764D01*
X166929595Y-77403445D01*
X166959000Y-77402000D01*
X167559000Y-77402000D01*
X167588405Y-77403445D01*
X167588405Y-77403445D01*
G37*
D22*
G04 #@! TD*
G04 #@! TO.P,SW1,4*
G04 #@! TO.N,Net-(SW1-Pad1)*
X167259000Y-78652000D03*
D12*
G04 #@! TO.N,+3V3*
G04 #@! TO.C,SW1*
G36*
X165088405Y-77403445D02*
X165117527Y-77407764D01*
X165146085Y-77414918D01*
X165173805Y-77424836D01*
X165200419Y-77437424D01*
X165225671Y-77452559D01*
X165249318Y-77470097D01*
X165271132Y-77489868D01*
X165290903Y-77511682D01*
X165308441Y-77535329D01*
X165323576Y-77560581D01*
X165336164Y-77587195D01*
X165346082Y-77614915D01*
X165353236Y-77643473D01*
X165357555Y-77672595D01*
X165359000Y-77702000D01*
X165359000Y-79602000D01*
X165357555Y-79631405D01*
X165353236Y-79660527D01*
X165346082Y-79689085D01*
X165336164Y-79716805D01*
X165323576Y-79743419D01*
X165308441Y-79768671D01*
X165290903Y-79792318D01*
X165271132Y-79814132D01*
X165249318Y-79833903D01*
X165225671Y-79851441D01*
X165200419Y-79866576D01*
X165173805Y-79879164D01*
X165146085Y-79889082D01*
X165117527Y-79896236D01*
X165088405Y-79900555D01*
X165059000Y-79902000D01*
X164459000Y-79902000D01*
X164429595Y-79900555D01*
X164400473Y-79896236D01*
X164371915Y-79889082D01*
X164344195Y-79879164D01*
X164317581Y-79866576D01*
X164292329Y-79851441D01*
X164268682Y-79833903D01*
X164246868Y-79814132D01*
X164227097Y-79792318D01*
X164209559Y-79768671D01*
X164194424Y-79743419D01*
X164181836Y-79716805D01*
X164171918Y-79689085D01*
X164164764Y-79660527D01*
X164160445Y-79631405D01*
X164159000Y-79602000D01*
X164159000Y-77702000D01*
X164160445Y-77672595D01*
X164164764Y-77643473D01*
X164171918Y-77614915D01*
X164181836Y-77587195D01*
X164194424Y-77560581D01*
X164209559Y-77535329D01*
X164227097Y-77511682D01*
X164246868Y-77489868D01*
X164268682Y-77470097D01*
X164292329Y-77452559D01*
X164317581Y-77437424D01*
X164344195Y-77424836D01*
X164371915Y-77414918D01*
X164400473Y-77407764D01*
X164429595Y-77403445D01*
X164459000Y-77402000D01*
X165059000Y-77402000D01*
X165088405Y-77403445D01*
X165088405Y-77403445D01*
G37*
D22*
G04 #@! TD*
G04 #@! TO.P,SW1,5*
G04 #@! TO.N,+3V3*
X164759000Y-78652000D03*
D12*
G04 #@! TO.N,Net-(BH1-Pad1)*
G04 #@! TO.C,SW1*
G36*
X162588405Y-77403445D02*
X162617527Y-77407764D01*
X162646085Y-77414918D01*
X162673805Y-77424836D01*
X162700419Y-77437424D01*
X162725671Y-77452559D01*
X162749318Y-77470097D01*
X162771132Y-77489868D01*
X162790903Y-77511682D01*
X162808441Y-77535329D01*
X162823576Y-77560581D01*
X162836164Y-77587195D01*
X162846082Y-77614915D01*
X162853236Y-77643473D01*
X162857555Y-77672595D01*
X162859000Y-77702000D01*
X162859000Y-79602000D01*
X162857555Y-79631405D01*
X162853236Y-79660527D01*
X162846082Y-79689085D01*
X162836164Y-79716805D01*
X162823576Y-79743419D01*
X162808441Y-79768671D01*
X162790903Y-79792318D01*
X162771132Y-79814132D01*
X162749318Y-79833903D01*
X162725671Y-79851441D01*
X162700419Y-79866576D01*
X162673805Y-79879164D01*
X162646085Y-79889082D01*
X162617527Y-79896236D01*
X162588405Y-79900555D01*
X162559000Y-79902000D01*
X161959000Y-79902000D01*
X161929595Y-79900555D01*
X161900473Y-79896236D01*
X161871915Y-79889082D01*
X161844195Y-79879164D01*
X161817581Y-79866576D01*
X161792329Y-79851441D01*
X161768682Y-79833903D01*
X161746868Y-79814132D01*
X161727097Y-79792318D01*
X161709559Y-79768671D01*
X161694424Y-79743419D01*
X161681836Y-79716805D01*
X161671918Y-79689085D01*
X161664764Y-79660527D01*
X161660445Y-79631405D01*
X161659000Y-79602000D01*
X161659000Y-77702000D01*
X161660445Y-77672595D01*
X161664764Y-77643473D01*
X161671918Y-77614915D01*
X161681836Y-77587195D01*
X161694424Y-77560581D01*
X161709559Y-77535329D01*
X161727097Y-77511682D01*
X161746868Y-77489868D01*
X161768682Y-77470097D01*
X161792329Y-77452559D01*
X161817581Y-77437424D01*
X161844195Y-77424836D01*
X161871915Y-77414918D01*
X161900473Y-77407764D01*
X161929595Y-77403445D01*
X161959000Y-77402000D01*
X162559000Y-77402000D01*
X162588405Y-77403445D01*
X162588405Y-77403445D01*
G37*
D22*
G04 #@! TD*
G04 #@! TO.P,SW1,6*
G04 #@! TO.N,Net-(BH1-Pad1)*
X162259000Y-78652000D03*
D12*
G04 #@! TO.N,Net-(BH1-Pad1)*
G04 #@! TO.C,SW1*
G36*
X162588405Y-71903445D02*
X162617527Y-71907764D01*
X162646085Y-71914918D01*
X162673805Y-71924836D01*
X162700419Y-71937424D01*
X162725671Y-71952559D01*
X162749318Y-71970097D01*
X162771132Y-71989868D01*
X162790903Y-72011682D01*
X162808441Y-72035329D01*
X162823576Y-72060581D01*
X162836164Y-72087195D01*
X162846082Y-72114915D01*
X162853236Y-72143473D01*
X162857555Y-72172595D01*
X162859000Y-72202000D01*
X162859000Y-74102000D01*
X162857555Y-74131405D01*
X162853236Y-74160527D01*
X162846082Y-74189085D01*
X162836164Y-74216805D01*
X162823576Y-74243419D01*
X162808441Y-74268671D01*
X162790903Y-74292318D01*
X162771132Y-74314132D01*
X162749318Y-74333903D01*
X162725671Y-74351441D01*
X162700419Y-74366576D01*
X162673805Y-74379164D01*
X162646085Y-74389082D01*
X162617527Y-74396236D01*
X162588405Y-74400555D01*
X162559000Y-74402000D01*
X161959000Y-74402000D01*
X161929595Y-74400555D01*
X161900473Y-74396236D01*
X161871915Y-74389082D01*
X161844195Y-74379164D01*
X161817581Y-74366576D01*
X161792329Y-74351441D01*
X161768682Y-74333903D01*
X161746868Y-74314132D01*
X161727097Y-74292318D01*
X161709559Y-74268671D01*
X161694424Y-74243419D01*
X161681836Y-74216805D01*
X161671918Y-74189085D01*
X161664764Y-74160527D01*
X161660445Y-74131405D01*
X161659000Y-74102000D01*
X161659000Y-72202000D01*
X161660445Y-72172595D01*
X161664764Y-72143473D01*
X161671918Y-72114915D01*
X161681836Y-72087195D01*
X161694424Y-72060581D01*
X161709559Y-72035329D01*
X161727097Y-72011682D01*
X161746868Y-71989868D01*
X161768682Y-71970097D01*
X161792329Y-71952559D01*
X161817581Y-71937424D01*
X161844195Y-71924836D01*
X161871915Y-71914918D01*
X161900473Y-71907764D01*
X161929595Y-71903445D01*
X161959000Y-71902000D01*
X162559000Y-71902000D01*
X162588405Y-71903445D01*
X162588405Y-71903445D01*
G37*
D22*
G04 #@! TD*
G04 #@! TO.P,SW1,3*
G04 #@! TO.N,Net-(BH1-Pad1)*
X162259000Y-73152000D03*
D12*
G04 #@! TO.N,Net-(SW1-Pad1)*
G04 #@! TO.C,SW1*
G36*
X167588405Y-71903445D02*
X167617527Y-71907764D01*
X167646085Y-71914918D01*
X167673805Y-71924836D01*
X167700419Y-71937424D01*
X167725671Y-71952559D01*
X167749318Y-71970097D01*
X167771132Y-71989868D01*
X167790903Y-72011682D01*
X167808441Y-72035329D01*
X167823576Y-72060581D01*
X167836164Y-72087195D01*
X167846082Y-72114915D01*
X167853236Y-72143473D01*
X167857555Y-72172595D01*
X167859000Y-72202000D01*
X167859000Y-74102000D01*
X167857555Y-74131405D01*
X167853236Y-74160527D01*
X167846082Y-74189085D01*
X167836164Y-74216805D01*
X167823576Y-74243419D01*
X167808441Y-74268671D01*
X167790903Y-74292318D01*
X167771132Y-74314132D01*
X167749318Y-74333903D01*
X167725671Y-74351441D01*
X167700419Y-74366576D01*
X167673805Y-74379164D01*
X167646085Y-74389082D01*
X167617527Y-74396236D01*
X167588405Y-74400555D01*
X167559000Y-74402000D01*
X166959000Y-74402000D01*
X166929595Y-74400555D01*
X166900473Y-74396236D01*
X166871915Y-74389082D01*
X166844195Y-74379164D01*
X166817581Y-74366576D01*
X166792329Y-74351441D01*
X166768682Y-74333903D01*
X166746868Y-74314132D01*
X166727097Y-74292318D01*
X166709559Y-74268671D01*
X166694424Y-74243419D01*
X166681836Y-74216805D01*
X166671918Y-74189085D01*
X166664764Y-74160527D01*
X166660445Y-74131405D01*
X166659000Y-74102000D01*
X166659000Y-72202000D01*
X166660445Y-72172595D01*
X166664764Y-72143473D01*
X166671918Y-72114915D01*
X166681836Y-72087195D01*
X166694424Y-72060581D01*
X166709559Y-72035329D01*
X166727097Y-72011682D01*
X166746868Y-71989868D01*
X166768682Y-71970097D01*
X166792329Y-71952559D01*
X166817581Y-71937424D01*
X166844195Y-71924836D01*
X166871915Y-71914918D01*
X166900473Y-71907764D01*
X166929595Y-71903445D01*
X166959000Y-71902000D01*
X167559000Y-71902000D01*
X167588405Y-71903445D01*
X167588405Y-71903445D01*
G37*
D22*
G04 #@! TD*
G04 #@! TO.P,SW1,1*
G04 #@! TO.N,Net-(SW1-Pad1)*
X167259000Y-73152000D03*
D12*
G04 #@! TO.N,+3V3*
G04 #@! TO.C,SW1*
G36*
X165088405Y-71903445D02*
X165117527Y-71907764D01*
X165146085Y-71914918D01*
X165173805Y-71924836D01*
X165200419Y-71937424D01*
X165225671Y-71952559D01*
X165249318Y-71970097D01*
X165271132Y-71989868D01*
X165290903Y-72011682D01*
X165308441Y-72035329D01*
X165323576Y-72060581D01*
X165336164Y-72087195D01*
X165346082Y-72114915D01*
X165353236Y-72143473D01*
X165357555Y-72172595D01*
X165359000Y-72202000D01*
X165359000Y-74102000D01*
X165357555Y-74131405D01*
X165353236Y-74160527D01*
X165346082Y-74189085D01*
X165336164Y-74216805D01*
X165323576Y-74243419D01*
X165308441Y-74268671D01*
X165290903Y-74292318D01*
X165271132Y-74314132D01*
X165249318Y-74333903D01*
X165225671Y-74351441D01*
X165200419Y-74366576D01*
X165173805Y-74379164D01*
X165146085Y-74389082D01*
X165117527Y-74396236D01*
X165088405Y-74400555D01*
X165059000Y-74402000D01*
X164459000Y-74402000D01*
X164429595Y-74400555D01*
X164400473Y-74396236D01*
X164371915Y-74389082D01*
X164344195Y-74379164D01*
X164317581Y-74366576D01*
X164292329Y-74351441D01*
X164268682Y-74333903D01*
X164246868Y-74314132D01*
X164227097Y-74292318D01*
X164209559Y-74268671D01*
X164194424Y-74243419D01*
X164181836Y-74216805D01*
X164171918Y-74189085D01*
X164164764Y-74160527D01*
X164160445Y-74131405D01*
X164159000Y-74102000D01*
X164159000Y-72202000D01*
X164160445Y-72172595D01*
X164164764Y-72143473D01*
X164171918Y-72114915D01*
X164181836Y-72087195D01*
X164194424Y-72060581D01*
X164209559Y-72035329D01*
X164227097Y-72011682D01*
X164246868Y-71989868D01*
X164268682Y-71970097D01*
X164292329Y-71952559D01*
X164317581Y-71937424D01*
X164344195Y-71924836D01*
X164371915Y-71914918D01*
X164400473Y-71907764D01*
X164429595Y-71903445D01*
X164459000Y-71902000D01*
X165059000Y-71902000D01*
X165088405Y-71903445D01*
X165088405Y-71903445D01*
G37*
D22*
G04 #@! TD*
G04 #@! TO.P,SW1,2*
G04 #@! TO.N,+3V3*
X164759000Y-73152000D03*
D23*
G04 #@! TO.P,U1,1*
G04 #@! TO.N,/PA00*
X150590000Y-91230000D03*
G04 #@! TO.P,U1,2*
G04 #@! TO.N,/PA01*
X150590000Y-91730000D03*
G04 #@! TO.P,U1,3*
G04 #@! TO.N,/PTC_BUTTON2*
X150590000Y-92230000D03*
G04 #@! TO.P,U1,4*
G04 #@! TO.N,/PA03*
X150590000Y-92730000D03*
G04 #@! TO.P,U1,5*
G04 #@! TO.N,GND*
X150590000Y-93230000D03*
G04 #@! TO.P,U1,6*
G04 #@! TO.N,+3V3*
X150590000Y-93730000D03*
G04 #@! TO.P,U1,7*
G04 #@! TO.N,/PTC_BUTTON3*
X150590000Y-94230000D03*
G04 #@! TO.P,U1,8*
G04 #@! TO.N,/PB09*
X150590000Y-94730000D03*
G04 #@! TO.P,U1,9*
G04 #@! TO.N,/PA04*
X150590000Y-95230000D03*
G04 #@! TO.P,U1,10*
G04 #@! TO.N,/PTC_BUTTON4*
X150590000Y-95730000D03*
G04 #@! TO.P,U1,11*
G04 #@! TO.N,/PA06*
X150590000Y-96230000D03*
G04 #@! TO.P,U1,12*
G04 #@! TO.N,/PA07*
X150590000Y-96730000D03*
D24*
G04 #@! TO.P,U1,13*
G04 #@! TO.N,/PA08*
X152190000Y-98330000D03*
G04 #@! TO.P,U1,14*
G04 #@! TO.N,/PA09*
X152690000Y-98330000D03*
G04 #@! TO.P,U1,15*
G04 #@! TO.N,Net-(U1-Pad15)*
X153190000Y-98330000D03*
G04 #@! TO.P,U1,16*
G04 #@! TO.N,Net-(U1-Pad16)*
X153690000Y-98330000D03*
G04 #@! TO.P,U1,17*
G04 #@! TO.N,+3V3*
X154190000Y-98330000D03*
G04 #@! TO.P,U1,18*
G04 #@! TO.N,GND*
X154690000Y-98330000D03*
G04 #@! TO.P,U1,19*
G04 #@! TO.N,Net-(U1-Pad19)*
X155190000Y-98330000D03*
G04 #@! TO.P,U1,20*
G04 #@! TO.N,/PB11*
X155690000Y-98330000D03*
G04 #@! TO.P,U1,21*
G04 #@! TO.N,/PA12*
X156190000Y-98330000D03*
G04 #@! TO.P,U1,22*
G04 #@! TO.N,/PA13*
X156690000Y-98330000D03*
G04 #@! TO.P,U1,23*
G04 #@! TO.N,/XTAL1_PA14*
X157190000Y-98330000D03*
G04 #@! TO.P,U1,24*
G04 #@! TO.N,/XTAL2_PA15*
X157690000Y-98330000D03*
D23*
G04 #@! TO.P,U1,25*
G04 #@! TO.N,/BUZZER*
X159290000Y-96730000D03*
G04 #@! TO.P,U1,26*
G04 #@! TO.N,/PA17*
X159290000Y-96230000D03*
G04 #@! TO.P,U1,27*
G04 #@! TO.N,/PA18*
X159290000Y-95730000D03*
G04 #@! TO.P,U1,28*
G04 #@! TO.N,/PA19*
X159290000Y-95230000D03*
G04 #@! TO.P,U1,29*
G04 #@! TO.N,/FLASH_SI*
X159290000Y-94730000D03*
G04 #@! TO.P,U1,30*
G04 #@! TO.N,/FLASH_SCK*
X159290000Y-94230000D03*
G04 #@! TO.P,U1,31*
G04 #@! TO.N,/LED_CLK*
X159290000Y-93730000D03*
G04 #@! TO.P,U1,32*
G04 #@! TO.N,/LED_SDI*
X159290000Y-93230000D03*
G04 #@! TO.P,U1,33*
G04 #@! TO.N,/USB_N*
X159290000Y-92730000D03*
G04 #@! TO.P,U1,34*
G04 #@! TO.N,/USB_P*
X159290000Y-92230000D03*
G04 #@! TO.P,U1,35*
G04 #@! TO.N,GND*
X159290000Y-91730000D03*
G04 #@! TO.P,U1,36*
G04 #@! TO.N,+3V3*
X159290000Y-91230000D03*
D24*
G04 #@! TO.P,U1,37*
G04 #@! TO.N,/FLASH_SO*
X157690000Y-89630000D03*
G04 #@! TO.P,U1,38*
G04 #@! TO.N,/FLASH_CS#*
X157190000Y-89630000D03*
G04 #@! TO.P,U1,39*
G04 #@! TO.N,Net-(U1-Pad39)*
X156690000Y-89630000D03*
G04 #@! TO.P,U1,40*
G04 #@! TO.N,Net-(RST1-Pad1)*
X156190000Y-89630000D03*
G04 #@! TO.P,U1,41*
G04 #@! TO.N,Net-(U1-Pad41)*
X155690000Y-89630000D03*
G04 #@! TO.P,U1,42*
G04 #@! TO.N,GND*
X155190000Y-89630000D03*
G04 #@! TO.P,U1,43*
G04 #@! TO.N,Net-(C8-Pad1)*
X154690000Y-89630000D03*
G04 #@! TO.P,U1,44*
G04 #@! TO.N,+3V3*
X154190000Y-89630000D03*
G04 #@! TO.P,U1,45*
G04 #@! TO.N,/SWCLK*
X153690000Y-89630000D03*
G04 #@! TO.P,U1,46*
G04 #@! TO.N,/SWDIO*
X153190000Y-89630000D03*
G04 #@! TO.P,U1,47*
G04 #@! TO.N,/PTC_BUTTON1*
X152690000Y-89630000D03*
G04 #@! TO.P,U1,48*
G04 #@! TO.N,/PB03*
X152190000Y-89630000D03*
G04 #@! TD*
D25*
G04 #@! TO.P,U6,1*
G04 #@! TO.N,/FLASH_CS#*
X161638000Y-81915000D03*
G04 #@! TO.P,U6,2*
G04 #@! TO.N,/FLASH_SO*
X161638000Y-83185000D03*
G04 #@! TO.P,U6,3*
G04 #@! TO.N,+3V3*
X161638000Y-84455000D03*
G04 #@! TO.P,U6,4*
G04 #@! TO.N,GND*
X161638000Y-85725000D03*
G04 #@! TO.P,U6,5*
G04 #@! TO.N,/FLASH_SI*
X167038000Y-85725000D03*
G04 #@! TO.P,U6,6*
G04 #@! TO.N,/FLASH_SCK*
X167038000Y-84455000D03*
G04 #@! TO.P,U6,7*
G04 #@! TO.N,+3V3*
X167038000Y-83185000D03*
G04 #@! TO.P,U6,8*
X167038000Y-81915000D03*
G04 #@! TD*
D14*
G04 #@! TO.P,TP7,1*
G04 #@! TO.N,Net-(TP7-Pad1)*
X158750000Y-78105000D03*
G04 #@! TD*
G04 #@! TO.P,TP8,1*
G04 #@! TO.N,Net-(TP8-Pad1)*
X158750000Y-80645000D03*
G04 #@! TD*
D26*
G04 #@! TO.P,B3,1*
G04 #@! TO.N,/PTC_BUTTON3*
X136982200Y-93929200D03*
D12*
G04 #@! TD*
G04 #@! TO.N,/PTC_BUTTON3*
G04 #@! TO.C,B3*
G36*
X131982200Y-89429200D02*
X141982200Y-93429200D01*
X141982200Y-94429200D01*
X131982200Y-98429200D01*
X131982200Y-89429200D01*
X131982200Y-89429200D01*
G37*
D26*
G04 #@! TO.P,B4,1*
G04 #@! TO.N,/PTC_BUTTON4*
X154940000Y-111785400D03*
D12*
G04 #@! TD*
G04 #@! TO.N,/PTC_BUTTON4*
G04 #@! TO.C,B4*
G36*
X150440000Y-116785400D02*
X154440000Y-106785400D01*
X155440000Y-106785400D01*
X159440000Y-116785400D01*
X150440000Y-116785400D01*
X150440000Y-116785400D01*
G37*
D26*
G04 #@! TO.P,B2,1*
G04 #@! TO.N,/PTC_BUTTON2*
X172796200Y-94005400D03*
D12*
G04 #@! TD*
G04 #@! TO.N,/PTC_BUTTON2*
G04 #@! TO.C,B2*
G36*
X177796200Y-98505400D02*
X167796200Y-94505400D01*
X167796200Y-93505400D01*
X177796200Y-89505400D01*
X177796200Y-98505400D01*
X177796200Y-98505400D01*
G37*
D26*
G04 #@! TO.P,B1,1*
G04 #@! TO.N,/PTC_BUTTON1*
X154940000Y-76174600D03*
D12*
G04 #@! TD*
G04 #@! TO.N,/PTC_BUTTON1*
G04 #@! TO.C,B1*
G36*
X159440000Y-71174600D02*
X155440000Y-81174600D01*
X154440000Y-81174600D01*
X150440000Y-71174600D01*
X159440000Y-71174600D01*
X159440000Y-71174600D01*
G37*
D27*
G04 #@! TO.P,Y1,2*
G04 #@! TO.N,/XTAL2_PA15*
X161798000Y-100096000D03*
G04 #@! TO.P,Y1,1*
G04 #@! TO.N,/XTAL1_PA14*
X161798000Y-102596000D03*
G04 #@! TD*
D28*
G04 #@! TO.N,GND*
X160706225Y-91481413D03*
X155425000Y-91500000D03*
X167132000Y-101269800D03*
X167157400Y-103378000D03*
X157073600Y-101396800D03*
X154686000Y-96901000D03*
X147472400Y-96189800D03*
X168910000Y-70040500D03*
X146939000Y-103251000D03*
X163499800Y-92989400D03*
X150774400Y-85394800D03*
X170230800Y-87477600D03*
X167436800Y-99339400D03*
X178689008Y-73533000D03*
X170713400Y-73202800D03*
X177927000Y-77470000D03*
X160933072Y-87054903D03*
X158185199Y-87813801D03*
X176860200Y-73126604D03*
X149047200Y-93050390D03*
G04 #@! TO.N,+3V3*
X154178000Y-91059000D03*
X151003000Y-102489000D03*
X164744400Y-80645000D03*
X163068000Y-84429600D03*
X146380200Y-89992200D03*
X145097500Y-103251000D03*
X160800000Y-90300000D03*
X147900000Y-92725000D03*
X163499800Y-97917000D03*
X165684200Y-80645000D03*
X166547800Y-80645000D03*
X156025345Y-85394800D03*
X153637417Y-99854583D03*
G04 #@! TO.N,Net-(SW1-Pad1)*
X167284400Y-75082400D03*
X167259000Y-75946000D03*
X175260000Y-80518000D03*
X176022000Y-80518000D03*
G04 #@! TO.N,Net-(BH1-Pad1)*
X162225000Y-75350000D03*
X162225000Y-76200000D03*
G04 #@! TD*
D29*
G04 #@! TO.N,GND*
X160457638Y-91730000D02*
X160706225Y-91481413D01*
X159290000Y-91730000D02*
X160457638Y-91730000D01*
D30*
X166040000Y-101269800D02*
X167132000Y-101269800D01*
X166039900Y-103378000D02*
X167157400Y-103378000D01*
X154690000Y-96905000D02*
X154686000Y-96901000D01*
D29*
X154690000Y-98330000D02*
X154690000Y-96905000D01*
D30*
X147458600Y-96176000D02*
X147472400Y-96189800D01*
X146380000Y-96176000D02*
X147458600Y-96176000D01*
D31*
X167830500Y-70040500D02*
X168910000Y-70040500D01*
X146939000Y-101917500D02*
X146939000Y-103251000D01*
D30*
X155190000Y-90480000D02*
X155200000Y-90490000D01*
D29*
X155190000Y-89630000D02*
X155190000Y-90480000D01*
X155200000Y-90490000D02*
X155200000Y-90750000D01*
X155425000Y-90975000D02*
X155425000Y-91500000D01*
X155200000Y-90750000D02*
X155425000Y-90975000D01*
D30*
X163500000Y-92989200D02*
X163499800Y-92989400D01*
X163500000Y-91530000D02*
X163500000Y-92989200D01*
X150799600Y-85420000D02*
X150774400Y-85394800D01*
X152236000Y-85420000D02*
X150799600Y-85420000D01*
X170230800Y-86357700D02*
X170230800Y-87477600D01*
X172395000Y-71284000D02*
X172620000Y-71509000D01*
X170720000Y-71284000D02*
X172395000Y-71284000D01*
D32*
X178737500Y-73581492D02*
X178689008Y-73533000D01*
X178737500Y-74930000D02*
X178737500Y-73581492D01*
X177927000Y-78910000D02*
X177927000Y-77724000D01*
D30*
X161638000Y-85725000D02*
X161638000Y-86349975D01*
X161237871Y-86750104D02*
X160933072Y-87054903D01*
X161638000Y-86349975D02*
X161237871Y-86750104D01*
X157874398Y-87503000D02*
X158185199Y-87813801D01*
X157069000Y-87503000D02*
X157874398Y-87503000D01*
X157390000Y-101713200D02*
X157073600Y-101396800D01*
X157390000Y-102540000D02*
X157390000Y-101713200D01*
D33*
X170720000Y-73196200D02*
X170713400Y-73202800D01*
X170720000Y-71714000D02*
X170720000Y-73196200D01*
D32*
X177120000Y-71284000D02*
X176860200Y-71543800D01*
X176860200Y-72695552D02*
X176860200Y-73126604D01*
X176860200Y-71543800D02*
X176860200Y-72695552D01*
X167208200Y-99110800D02*
X167436800Y-99339400D01*
X166136800Y-99110800D02*
X167208200Y-99110800D01*
D30*
X150590000Y-93230000D02*
X149226810Y-93230000D01*
X149226810Y-93230000D02*
X149047200Y-93050390D01*
G04 #@! TO.N,+3V3*
X154190000Y-91047000D02*
X154178000Y-91059000D01*
D29*
X154190000Y-89630000D02*
X154190000Y-91047000D01*
D30*
X151054000Y-102540000D02*
X151003000Y-102489000D01*
X152490000Y-102540000D02*
X151054000Y-102540000D01*
D29*
X154190000Y-98330000D02*
X154190000Y-99683000D01*
D32*
X164759000Y-80630400D02*
X164744400Y-80645000D01*
X164759000Y-78652000D02*
X164759000Y-80630400D01*
D30*
X163042600Y-84455000D02*
X163068000Y-84429600D01*
X161638000Y-84455000D02*
X163042600Y-84455000D01*
X146380000Y-89992400D02*
X146380200Y-89992200D01*
X146380000Y-91276000D02*
X146380000Y-89992400D01*
D31*
X165955500Y-70040500D02*
X165675300Y-70040500D01*
X145064000Y-103217500D02*
X145097500Y-103251000D01*
X145064000Y-101917500D02*
X145064000Y-103217500D01*
D30*
X160745000Y-90300000D02*
X160800000Y-90300000D01*
D29*
X159815000Y-91230000D02*
X160745000Y-90300000D01*
D30*
X159290000Y-91230000D02*
X159815000Y-91230000D01*
X163500000Y-97916800D02*
X163499800Y-97917000D01*
X163500000Y-96430000D02*
X163500000Y-97916800D01*
D32*
X165138100Y-70040500D02*
X165955500Y-70040500D01*
X164759000Y-70419600D02*
X165138100Y-70040500D01*
X164759000Y-73152000D02*
X164759000Y-70419600D01*
X164759000Y-73152000D02*
X164759000Y-80630400D01*
X164744400Y-80645000D02*
X165684200Y-80645000D01*
X165684200Y-80645000D02*
X166547800Y-80645000D01*
D30*
X167038000Y-83185000D02*
X168427400Y-83185000D01*
X168427400Y-83185000D02*
X168656000Y-82956400D01*
X168402000Y-81915000D02*
X167038000Y-81915000D01*
X168656000Y-82169000D02*
X168402000Y-81915000D01*
X168402000Y-81915000D02*
X168402000Y-81457800D01*
X168402000Y-81457800D02*
X167563800Y-80619600D01*
X167538400Y-80645000D02*
X166547800Y-80645000D01*
X167563800Y-80619600D02*
X167538400Y-80645000D01*
X168656000Y-82907900D02*
X168656000Y-82550000D01*
X170230800Y-84482700D02*
X168656000Y-82907900D01*
X168656000Y-82550000D02*
X168656000Y-82169000D01*
X168656000Y-82956400D02*
X168656000Y-82550000D01*
D31*
X164444200Y-99339400D02*
X164444200Y-98861400D01*
D30*
X157136000Y-85420000D02*
X156050545Y-85420000D01*
X156050545Y-85420000D02*
X156025345Y-85394800D01*
X168452800Y-81508600D02*
X168402000Y-81457800D01*
D34*
X168681400Y-81280000D02*
X168452800Y-81508600D01*
X171450000Y-81280000D02*
X168681400Y-81280000D01*
D30*
X154190000Y-99683000D02*
X154190000Y-99733052D01*
X154068469Y-99854583D02*
X153637417Y-99854583D01*
X154190000Y-99733052D02*
X154068469Y-99854583D01*
D32*
X164261800Y-98679000D02*
X163499800Y-97917000D01*
X164261800Y-99110800D02*
X164261800Y-98679000D01*
D30*
X150590000Y-93730000D02*
X149740000Y-93730000D01*
X147900000Y-93156052D02*
X147900000Y-92725000D01*
X148473948Y-93730000D02*
X147900000Y-93156052D01*
X149740000Y-93730000D02*
X148473948Y-93730000D01*
G04 #@! TO.N,/USBVDD_5V*
X175220000Y-73287500D02*
X176862500Y-74930000D01*
X175220000Y-71939000D02*
X175220000Y-73287500D01*
X179279306Y-71882000D02*
X179501800Y-71882000D01*
X176862500Y-74298806D02*
X179279306Y-71882000D01*
X176862500Y-74930000D02*
X176862500Y-74298806D01*
G04 #@! TO.N,/XTAL1_PA14*
X161818000Y-102616000D02*
X161798000Y-102596000D01*
X163682900Y-102596000D02*
X164464900Y-103378000D01*
X161798000Y-102596000D02*
X163682900Y-102596000D01*
X160609600Y-102596000D02*
X161798000Y-102596000D01*
X157190000Y-99176400D02*
X160609600Y-102596000D01*
X157190000Y-98330000D02*
X157190000Y-99176400D01*
G04 #@! TO.N,/XTAL2_PA15*
X161818000Y-100076000D02*
X161798000Y-100096000D01*
X160192400Y-100096000D02*
X161798000Y-100096000D01*
X158426400Y-98330000D02*
X160192400Y-100096000D01*
X157690000Y-98330000D02*
X158426400Y-98330000D01*
X164033200Y-101269800D02*
X164465000Y-101269800D01*
X162859400Y-100096000D02*
X164033200Y-101269800D01*
X161798000Y-100096000D02*
X162859400Y-100096000D01*
G04 #@! TO.N,/USB_N*
X174570000Y-85373600D02*
X174570000Y-71939000D01*
X171424600Y-88519000D02*
X174570000Y-85373600D01*
X163957000Y-88519000D02*
X171424600Y-88519000D01*
X162159990Y-90316010D02*
X163957000Y-88519000D01*
X162159990Y-92094010D02*
X162159990Y-90316010D01*
X160140000Y-92730000D02*
X160160000Y-92710000D01*
X161544000Y-92710000D02*
X162159990Y-92094010D01*
X160160000Y-92710000D02*
X161544000Y-92710000D01*
X159290000Y-92730000D02*
X160140000Y-92730000D01*
G04 #@! TO.N,/USB_P*
X173920000Y-84956800D02*
X173920000Y-71939000D01*
X170764200Y-88112600D02*
X173920000Y-84956800D01*
X163728400Y-88112600D02*
X170764200Y-88112600D01*
X159290000Y-92230000D02*
X160852744Y-92230000D01*
X161479802Y-90361198D02*
X163728400Y-88112600D01*
X161479802Y-91602942D02*
X161479802Y-90361198D01*
X160852744Y-92230000D02*
X161479802Y-91602942D01*
G04 #@! TO.N,/BUZZER*
X135097761Y-76951767D02*
X134249233Y-76951767D01*
X137530767Y-76951767D02*
X135097761Y-76951767D01*
X143446500Y-84582000D02*
X143446500Y-82867500D01*
X145478500Y-86614000D02*
X143446500Y-84582000D01*
X146507200Y-86614000D02*
X145478500Y-86614000D01*
X150444200Y-90551000D02*
X146507200Y-86614000D01*
X143446500Y-82867500D02*
X137530767Y-76951767D01*
X157409299Y-96730000D02*
X151230299Y-90551000D01*
X151230299Y-90551000D02*
X150444200Y-90551000D01*
X159290000Y-96730000D02*
X157409299Y-96730000D01*
G04 #@! TO.N,/PA00*
X150065000Y-91230000D02*
X150590000Y-91230000D01*
X145999200Y-87198200D02*
X149098000Y-90297000D01*
X149098000Y-90297000D02*
X149132000Y-90297000D01*
X144540570Y-87198200D02*
X145999200Y-87198200D01*
X149132000Y-90297000D02*
X150065000Y-91230000D01*
X142240000Y-84897630D02*
X144540570Y-87198200D01*
X142240000Y-83820000D02*
X142240000Y-84897630D01*
G04 #@! TO.N,/PA01*
X145894000Y-87884000D02*
X143764000Y-87884000D01*
X149740000Y-91730000D02*
X145894000Y-87884000D01*
X140461999Y-84581999D02*
X139700000Y-83820000D01*
X143764000Y-87884000D02*
X140461999Y-84581999D01*
X150590000Y-91730000D02*
X149740000Y-91730000D01*
G04 #@! TO.N,/PTC_BUTTON1*
X154940000Y-81274600D02*
X154940000Y-76174600D01*
X154924990Y-81289610D02*
X154940000Y-81274600D01*
X154924990Y-84724010D02*
X154924990Y-81289610D01*
X152690000Y-86959000D02*
X154924990Y-84724010D01*
X152690000Y-89630000D02*
X152690000Y-86959000D01*
G04 #@! TO.N,/PTC_BUTTON2*
X167696200Y-94005400D02*
X172796200Y-94005400D01*
X163068000Y-95072200D02*
X166629400Y-95072200D01*
X162306000Y-95834200D02*
X163068000Y-95072200D01*
X166629400Y-95072200D02*
X167696200Y-94005400D01*
X161798000Y-98806000D02*
X162306000Y-98298000D01*
X156718000Y-97282000D02*
X159004000Y-97282000D01*
X151666000Y-92230000D02*
X156718000Y-97282000D01*
X162306000Y-98298000D02*
X162306000Y-95834200D01*
X160528000Y-98806000D02*
X161798000Y-98806000D01*
X159004000Y-97282000D02*
X160528000Y-98806000D01*
X150590000Y-92230000D02*
X151666000Y-92230000D01*
G04 #@! TO.N,/PTC_BUTTON3*
X137283000Y-94230000D02*
X136982200Y-93929200D01*
X150590000Y-94230000D02*
X137283000Y-94230000D01*
G04 #@! TO.N,/PTC_BUTTON4*
X154432000Y-102635906D02*
X154432000Y-106177400D01*
X150590000Y-95730000D02*
X151440000Y-95730000D01*
X151440000Y-95730000D02*
X151765000Y-96055000D01*
X154940000Y-106685400D02*
X154940000Y-111785400D01*
X151765000Y-96055000D02*
X151765000Y-99968906D01*
X154432000Y-106177400D02*
X154940000Y-106685400D01*
X151765000Y-99968906D02*
X154432000Y-102635906D01*
G04 #@! TO.N,/FLASH_SI*
X168529000Y-84201000D02*
X168529000Y-84709000D01*
X160739612Y-89120188D02*
X166004801Y-83854999D01*
X157939989Y-90699310D02*
X158488309Y-90150990D01*
X168182999Y-83854999D02*
X168529000Y-84201000D01*
X160269005Y-89120188D02*
X160739612Y-89120188D01*
X159238203Y-90150990D02*
X160269005Y-89120188D01*
X166004801Y-83854999D02*
X168182999Y-83854999D01*
X167513000Y-85725000D02*
X167038000Y-85725000D01*
X168529000Y-84709000D02*
X167513000Y-85725000D01*
X158409299Y-94730000D02*
X157939989Y-94260690D01*
X158488309Y-90150990D02*
X159238203Y-90150990D01*
X157939989Y-94260690D02*
X157939989Y-90699310D01*
X159290000Y-94730000D02*
X158409299Y-94730000D01*
G04 #@! TO.N,/FLASH_SCK*
X166063000Y-84457200D02*
X166063000Y-84455000D01*
X159403892Y-90551000D02*
X160434694Y-89520198D01*
X158339999Y-94095001D02*
X158339999Y-90864999D01*
X161000002Y-89520198D02*
X166063000Y-84457200D01*
X158653998Y-90551000D02*
X159403892Y-90551000D01*
X166063000Y-84455000D02*
X167038000Y-84455000D01*
X160434694Y-89520198D02*
X161000002Y-89520198D01*
X158474998Y-94230000D02*
X158339999Y-94095001D01*
X158339999Y-90864999D02*
X158653998Y-90551000D01*
X159290000Y-94230000D02*
X158474998Y-94230000D01*
G04 #@! TO.N,/FLASH_SO*
X162941000Y-83185000D02*
X162864800Y-83185000D01*
X162864800Y-83185000D02*
X161638000Y-83185000D01*
X157690000Y-89630000D02*
X159170068Y-89630000D01*
X163880800Y-83693000D02*
X163372800Y-83185000D01*
X161390295Y-87659705D02*
X163880800Y-85169200D01*
X163880800Y-85169200D02*
X163880800Y-83693000D01*
X159170068Y-89630000D02*
X161140363Y-87659705D01*
X161140363Y-87659705D02*
X161390295Y-87659705D01*
X163372800Y-83185000D02*
X162864800Y-83185000D01*
G04 #@! TO.N,/FLASH_CS#*
X157190000Y-88814998D02*
X157190000Y-89260000D01*
X160447001Y-82760997D02*
X160447001Y-86694999D01*
X157485998Y-88519000D02*
X157190000Y-88814998D01*
X161638000Y-81915000D02*
X161292998Y-81915000D01*
X161292998Y-81915000D02*
X160447001Y-82760997D01*
X160447001Y-86694999D02*
X158623000Y-88519000D01*
X157190000Y-89260000D02*
X157190000Y-89630000D01*
X158623000Y-88519000D02*
X157485998Y-88519000D01*
G04 #@! TO.N,/LED_SDI*
X166700000Y-90580000D02*
X166700000Y-91530000D01*
X166417000Y-90297000D02*
X166700000Y-90580000D01*
X162560000Y-90551000D02*
X162814000Y-90297000D01*
X162814000Y-90297000D02*
X166417000Y-90297000D01*
X162040000Y-93230000D02*
X162560000Y-92710000D01*
X162560000Y-92710000D02*
X162560000Y-90551000D01*
X159290000Y-93230000D02*
X162040000Y-93230000D01*
G04 #@! TO.N,/LED_CLK*
X163850000Y-93730000D02*
X159290000Y-93730000D01*
X165100000Y-92480000D02*
X163850000Y-93730000D01*
X165100000Y-91530000D02*
X165100000Y-92480000D01*
G04 #@! TO.N,Net-(U4-Pad5)*
X144780000Y-97126000D02*
X144780000Y-96176000D01*
X143510000Y-104140000D02*
X140716000Y-101346000D01*
X140716000Y-101346000D02*
X140716000Y-99314000D01*
X142544800Y-97485200D02*
X144420800Y-97485200D01*
X140716000Y-99314000D02*
X142544800Y-97485200D01*
X144420800Y-97485200D02*
X144780000Y-97126000D01*
X152490000Y-104140000D02*
X143510000Y-104140000D01*
G04 #@! TO.N,Net-(U4-Pad6)*
X152490000Y-105740000D02*
X143382800Y-105740000D01*
X143382800Y-105740000D02*
X139852400Y-102209600D01*
X139852400Y-102209600D02*
X139852400Y-97282000D01*
X140958400Y-96176000D02*
X143180000Y-96176000D01*
X139852400Y-97282000D02*
X140958400Y-96176000D01*
G04 #@! TO.N,Net-(U5-Pad6)*
X143183000Y-70358000D02*
X152236000Y-79411000D01*
X130975000Y-74511000D02*
X135128000Y-70358000D01*
X130975000Y-81275000D02*
X130975000Y-74511000D01*
X152236000Y-79411000D02*
X152236000Y-82220000D01*
X140976000Y-91276000D02*
X130975000Y-81275000D01*
X135128000Y-70358000D02*
X143183000Y-70358000D01*
X143180000Y-91276000D02*
X140976000Y-91276000D01*
G04 #@! TO.N,Net-(U5-Pad5)*
X142249000Y-71374000D02*
X150575000Y-79700000D01*
X150575000Y-83125000D02*
X151270000Y-83820000D01*
X136144000Y-71374000D02*
X142249000Y-71374000D01*
X141156400Y-89950000D02*
X132080000Y-80873600D01*
X132080000Y-75438000D02*
X136144000Y-71374000D01*
X144404000Y-89950000D02*
X141156400Y-89950000D01*
X150575000Y-79700000D02*
X150575000Y-83125000D01*
X132080000Y-80873600D02*
X132080000Y-75438000D01*
X151270000Y-83820000D02*
X152236000Y-83820000D01*
X144780000Y-90326000D02*
X144404000Y-89950000D01*
X144780000Y-91276000D02*
X144780000Y-90326000D01*
G04 #@! TO.N,/SWDIO*
X160020000Y-71755000D02*
X160020000Y-69850000D01*
X159746990Y-72028010D02*
X160020000Y-71755000D01*
X157480000Y-77241400D02*
X159746990Y-74974410D01*
X157480000Y-78613000D02*
X157480000Y-77241400D01*
X156735990Y-80627010D02*
X156735990Y-79357010D01*
X153190000Y-87221000D02*
X155420535Y-84990465D01*
X155420535Y-81942465D02*
X156735990Y-80627010D01*
X159746990Y-74974410D02*
X159746990Y-72028010D01*
X155420535Y-84990465D02*
X155420535Y-81942465D01*
X156735990Y-79357010D02*
X157480000Y-78613000D01*
X153190000Y-89630000D02*
X153190000Y-87221000D01*
G04 #@! TO.N,/SWCLK*
X160324800Y-72085200D02*
X162560000Y-69850000D01*
X159385000Y-83185000D02*
X160324800Y-82245200D01*
X159385000Y-85344000D02*
X159385000Y-83185000D01*
X154616698Y-86360000D02*
X158369000Y-86360000D01*
X158369000Y-86360000D02*
X159385000Y-85344000D01*
X160324800Y-82245200D02*
X160324800Y-72085200D01*
X153690000Y-87286698D02*
X154616698Y-86360000D01*
X153690000Y-89630000D02*
X153690000Y-87286698D01*
G04 #@! TO.N,Net-(TP8-Pad1)*
X158750000Y-83489800D02*
X158750000Y-80645000D01*
X158419800Y-83820000D02*
X158750000Y-83489800D01*
X157136000Y-83820000D02*
X158419800Y-83820000D01*
G04 #@! TO.N,Net-(TP7-Pad1)*
X157454600Y-81201400D02*
X157454600Y-79756000D01*
X158750000Y-78460600D02*
X158750000Y-78105000D01*
X157454600Y-79756000D02*
X158750000Y-78460600D01*
X157136000Y-81520000D02*
X157454600Y-81201400D01*
X157136000Y-82220000D02*
X157136000Y-81520000D01*
D34*
G04 #@! TO.N,Net-(SW1-Pad1)*
X167259000Y-73152000D02*
X167259000Y-75946000D01*
X167259000Y-78652000D02*
X167259000Y-75946000D01*
D32*
X178877000Y-82140000D02*
X178594000Y-82423000D01*
X178877000Y-81110000D02*
X178877000Y-82140000D01*
X178594000Y-82423000D02*
X175260000Y-82423000D01*
X175260000Y-82423000D02*
X175260000Y-80518000D01*
X176129005Y-80518000D02*
X176154910Y-80492095D01*
X175260000Y-80518000D02*
X176129005Y-80518000D01*
D30*
G04 #@! TO.N,Net-(U3-Pad5)*
X157665400Y-104114600D02*
X157665400Y-104173000D01*
X157640000Y-104140000D02*
X157665400Y-104114600D01*
X157390000Y-104140000D02*
X157640000Y-104140000D01*
X159105600Y-104597200D02*
X158648400Y-104140000D01*
X159105600Y-105892600D02*
X159105600Y-104597200D01*
X159715200Y-106502200D02*
X159105600Y-105892600D01*
X168173400Y-103987600D02*
X165658800Y-106502200D01*
X165658800Y-106502200D02*
X159715200Y-106502200D01*
X165303200Y-97840800D02*
X166833306Y-97840800D01*
X158648400Y-104140000D02*
X157390000Y-104140000D01*
X168173400Y-99180894D02*
X168173400Y-103987600D01*
X166833306Y-97840800D02*
X168173400Y-99180894D01*
X165100000Y-97637600D02*
X165303200Y-97840800D01*
X165100000Y-96430000D02*
X165100000Y-97637600D01*
G04 #@! TO.N,Net-(U3-Pad6)*
X167400000Y-96430000D02*
X168960800Y-97990800D01*
X166700000Y-96430000D02*
X167400000Y-96430000D01*
X168960800Y-97990800D02*
X168960800Y-104571800D01*
X168960800Y-104571800D02*
X166370000Y-107162600D01*
X166370000Y-107162600D02*
X157886400Y-107162600D01*
X157390000Y-106666200D02*
X157390000Y-105740000D01*
X157886400Y-107162600D02*
X157390000Y-106666200D01*
D34*
G04 #@! TO.N,Net-(BH1-Pad1)*
X162225000Y-75350000D02*
X162225000Y-76200000D01*
X162259000Y-76234000D02*
X162225000Y-76200000D01*
X162259000Y-78652000D02*
X162259000Y-76234000D01*
X162259000Y-75316000D02*
X162225000Y-75350000D01*
X162259000Y-73152000D02*
X162259000Y-75316000D01*
D30*
G04 #@! TO.N,Net-(C8-Pad1)*
X154690000Y-88007000D02*
X155194000Y-87503000D01*
X154690000Y-89630000D02*
X154690000Y-88007000D01*
G04 #@! TO.N,/PA09*
X152690000Y-99762506D02*
X155295600Y-102368106D01*
X160212370Y-109220000D02*
X161290000Y-109220000D01*
X155295600Y-102368106D02*
X155295600Y-105511600D01*
X152690000Y-98330000D02*
X152690000Y-99762506D01*
X159004000Y-109220000D02*
X160212370Y-109220000D01*
X155295600Y-105511600D02*
X159004000Y-109220000D01*
G04 #@! TO.N,/PA08*
X152190000Y-99180000D02*
X152190000Y-98330000D01*
X160528001Y-110998001D02*
X160076881Y-110998001D01*
X161290000Y-111760000D02*
X160528001Y-110998001D01*
X154832010Y-105753130D02*
X154832010Y-102470216D01*
X160076881Y-110998001D02*
X154832010Y-105753130D01*
X152190000Y-99828206D02*
X152190000Y-99180000D01*
X154832010Y-102470216D02*
X152190000Y-99828206D01*
G04 #@! TO.N,/PA07*
X150590000Y-97055000D02*
X149860000Y-97785000D01*
X149860000Y-97785000D02*
X149860000Y-99695000D01*
X150590000Y-96730000D02*
X150590000Y-97055000D01*
G04 #@! TO.N,/PA06*
X149047200Y-96984098D02*
X149047200Y-96697800D01*
X149515000Y-96230000D02*
X150590000Y-96230000D01*
X149047200Y-96697800D02*
X149515000Y-96230000D01*
X148081999Y-98933001D02*
X147320000Y-99695000D01*
X148990010Y-98024990D02*
X148081999Y-98933001D01*
X148990010Y-97008990D02*
X148990010Y-98024990D01*
X149014902Y-96984098D02*
X148990010Y-97008990D01*
X149047200Y-96984098D02*
X149014902Y-96984098D01*
G04 #@! TO.N,/PA04*
X150590000Y-95230000D02*
X149067200Y-95230000D01*
X148590000Y-95707200D02*
X148590000Y-96875600D01*
X148590000Y-96875600D02*
X147243800Y-98221800D01*
X149067200Y-95230000D02*
X148590000Y-95707200D01*
X146253200Y-98221800D02*
X144780000Y-99695000D01*
X147243800Y-98221800D02*
X146253200Y-98221800D01*
G04 #@! TO.N,/PB09*
X148107400Y-95250000D02*
X148627400Y-94730000D01*
X148107400Y-96449906D02*
X148107400Y-95250000D01*
X146818106Y-97739200D02*
X148107400Y-96449906D01*
X148627400Y-94730000D02*
X150590000Y-94730000D01*
X143538698Y-98933001D02*
X144732499Y-97739200D01*
X144732499Y-97739200D02*
X146818106Y-97739200D01*
X143001999Y-98933001D02*
X143538698Y-98933001D01*
X142240000Y-99695000D02*
X143001999Y-98933001D01*
G04 #@! TO.N,/PA03*
X137921999Y-84581999D02*
X137160000Y-83820000D01*
X142727399Y-89387399D02*
X137921999Y-84581999D01*
X150590000Y-92730000D02*
X149740000Y-92730000D01*
X149740000Y-92730000D02*
X148094400Y-91084400D01*
X148094400Y-90811294D02*
X146670505Y-89387399D01*
X146670505Y-89387399D02*
X142727399Y-89387399D01*
X148094400Y-91084400D02*
X148094400Y-90811294D01*
G04 #@! TO.N,/PB03*
X151130000Y-88809230D02*
X151130000Y-87731600D01*
X151130000Y-88895000D02*
X151130000Y-88809230D01*
X151865000Y-89630000D02*
X151130000Y-88895000D01*
X152190000Y-89630000D02*
X151865000Y-89630000D01*
G04 #@! TO.N,/PA13*
X160731200Y-103784400D02*
X161696400Y-103784400D01*
X159791400Y-102412800D02*
X159791400Y-102844600D01*
X156690000Y-99311400D02*
X159791400Y-102412800D01*
X159791400Y-102844600D02*
X160731200Y-103784400D01*
X161696400Y-103784400D02*
X163068000Y-105156000D01*
X156690000Y-98330000D02*
X156690000Y-99311400D01*
G04 #@! TO.N,/PA12*
X159308800Y-103911400D02*
X160553400Y-105156000D01*
X159308800Y-102514400D02*
X159308800Y-103911400D01*
X156210000Y-99200000D02*
X156210000Y-99415600D01*
X156190000Y-99180000D02*
X156210000Y-99200000D01*
X156210000Y-99415600D02*
X159308800Y-102514400D01*
X156190000Y-98330000D02*
X156190000Y-99180000D01*
G04 #@! TO.N,/PB11*
X155690000Y-100596000D02*
X155600400Y-100685600D01*
X155690000Y-100085000D02*
X155425000Y-100350000D01*
X155690000Y-98330000D02*
X155690000Y-100085000D01*
G04 #@! TO.N,/PA19*
X167716200Y-92303802D02*
X167716200Y-91363800D01*
X165862202Y-94157800D02*
X167716200Y-92303802D01*
X159290000Y-95230000D02*
X160105002Y-95230000D01*
X161177202Y-94157800D02*
X165862202Y-94157800D01*
X167716200Y-91363800D02*
X169164000Y-89916000D01*
X160105002Y-95230000D02*
X161177202Y-94157800D01*
G04 #@! TO.N,/PA18*
X161499590Y-94557810D02*
X166122390Y-94557810D01*
X166122390Y-94557810D02*
X169549799Y-91130401D01*
X160327400Y-95730000D02*
X161499590Y-94557810D01*
X159290000Y-95730000D02*
X160327400Y-95730000D01*
X170489599Y-91130401D02*
X171704000Y-89916000D01*
X169549799Y-91130401D02*
X170489599Y-91130401D01*
G04 #@! TO.N,/PA17*
X161036000Y-96458370D02*
X161036000Y-97536000D01*
X160807630Y-96230000D02*
X161036000Y-96458370D01*
X159290000Y-96230000D02*
X160807630Y-96230000D01*
G04 #@! TO.N,Net-(RST1-Pad1)*
X156190000Y-92060000D02*
X156190000Y-89630000D01*
X155825000Y-92425000D02*
X156190000Y-92060000D01*
X148971000Y-87726002D02*
X153669997Y-92425000D01*
X148686002Y-87726002D02*
X148971000Y-87726002D01*
X153669997Y-92425000D02*
X155825000Y-92425000D01*
X144780000Y-83820000D02*
X148686002Y-87726002D01*
G04 #@! TD*
D35*
G04 #@! TO.N,+3V3*
G36*
X166116000Y-70739000D02*
X165481000Y-70739000D01*
X165432399Y-70748667D01*
X165391197Y-70776197D01*
X165363667Y-70817399D01*
X165354000Y-70866000D01*
X165354000Y-80264000D01*
X165363667Y-80312601D01*
X165391197Y-80353803D01*
X165432399Y-80381333D01*
X165481000Y-80391000D01*
X169312009Y-80391000D01*
X169801049Y-83080718D01*
X169819254Y-83126806D01*
X169853710Y-83162418D01*
X169899172Y-83182134D01*
X169926000Y-83185000D01*
X171323000Y-83185000D01*
X171323000Y-84836000D01*
X169164000Y-84836000D01*
X169164000Y-83566000D01*
X169154333Y-83517399D01*
X169126803Y-83476197D01*
X169085601Y-83448667D01*
X169037000Y-83439000D01*
X168426189Y-83439000D01*
X168370676Y-83401907D01*
X168230372Y-83373999D01*
X168230368Y-83373999D01*
X168182999Y-83364577D01*
X168135630Y-83373999D01*
X166052170Y-83373999D01*
X166004801Y-83364577D01*
X165957432Y-83373999D01*
X165957428Y-83373999D01*
X165895258Y-83386365D01*
X164084000Y-82593940D01*
X164084000Y-69088000D01*
X166116000Y-69088000D01*
X166116000Y-70739000D01*
X166116000Y-70739000D01*
G37*
X166116000Y-70739000D02*
X165481000Y-70739000D01*
X165432399Y-70748667D01*
X165391197Y-70776197D01*
X165363667Y-70817399D01*
X165354000Y-70866000D01*
X165354000Y-80264000D01*
X165363667Y-80312601D01*
X165391197Y-80353803D01*
X165432399Y-80381333D01*
X165481000Y-80391000D01*
X169312009Y-80391000D01*
X169801049Y-83080718D01*
X169819254Y-83126806D01*
X169853710Y-83162418D01*
X169899172Y-83182134D01*
X169926000Y-83185000D01*
X171323000Y-83185000D01*
X171323000Y-84836000D01*
X169164000Y-84836000D01*
X169164000Y-83566000D01*
X169154333Y-83517399D01*
X169126803Y-83476197D01*
X169085601Y-83448667D01*
X169037000Y-83439000D01*
X168426189Y-83439000D01*
X168370676Y-83401907D01*
X168230372Y-83373999D01*
X168230368Y-83373999D01*
X168182999Y-83364577D01*
X168135630Y-83373999D01*
X166052170Y-83373999D01*
X166004801Y-83364577D01*
X165957432Y-83373999D01*
X165957428Y-83373999D01*
X165895258Y-83386365D01*
X164084000Y-82593940D01*
X164084000Y-69088000D01*
X166116000Y-69088000D01*
X166116000Y-70739000D01*
G04 #@! TO.N,/USBVDD_5V*
G36*
X175285400Y-72618600D02*
X175295067Y-72667201D01*
X175327508Y-72713058D01*
X177292000Y-74478614D01*
X177292000Y-75946000D01*
X177301667Y-75994601D01*
X177329197Y-76035803D01*
X177370399Y-76063333D01*
X177419000Y-76073000D01*
X179451000Y-76073000D01*
X179451000Y-79248000D01*
X178640464Y-79248000D01*
X178640464Y-78380000D01*
X178610894Y-78231341D01*
X178558000Y-78152179D01*
X178558000Y-77738713D01*
X178612800Y-77606414D01*
X178612800Y-77333586D01*
X178508393Y-77081525D01*
X178315475Y-76888607D01*
X178063414Y-76784200D01*
X177790586Y-76784200D01*
X177538525Y-76888607D01*
X177345607Y-77081525D01*
X177241200Y-77333586D01*
X177241200Y-77606414D01*
X177296001Y-77738715D01*
X177296001Y-78152178D01*
X177243106Y-78231341D01*
X177213536Y-78380000D01*
X177213536Y-79248000D01*
X175158400Y-79248000D01*
X175158400Y-72614322D01*
X175158464Y-72614000D01*
X175158464Y-72390000D01*
X175285400Y-72390000D01*
X175285400Y-72618600D01*
X175285400Y-72618600D01*
G37*
X175285400Y-72618600D02*
X175295067Y-72667201D01*
X175327508Y-72713058D01*
X177292000Y-74478614D01*
X177292000Y-75946000D01*
X177301667Y-75994601D01*
X177329197Y-76035803D01*
X177370399Y-76063333D01*
X177419000Y-76073000D01*
X179451000Y-76073000D01*
X179451000Y-79248000D01*
X178640464Y-79248000D01*
X178640464Y-78380000D01*
X178610894Y-78231341D01*
X178558000Y-78152179D01*
X178558000Y-77738713D01*
X178612800Y-77606414D01*
X178612800Y-77333586D01*
X178508393Y-77081525D01*
X178315475Y-76888607D01*
X178063414Y-76784200D01*
X177790586Y-76784200D01*
X177538525Y-76888607D01*
X177345607Y-77081525D01*
X177241200Y-77333586D01*
X177241200Y-77606414D01*
X177296001Y-77738715D01*
X177296001Y-78152178D01*
X177243106Y-78231341D01*
X177213536Y-78380000D01*
X177213536Y-79248000D01*
X175158400Y-79248000D01*
X175158400Y-72614322D01*
X175158464Y-72614000D01*
X175158464Y-72390000D01*
X175285400Y-72390000D01*
X175285400Y-72618600D01*
G04 #@! TO.N,Net-(SW1-Pad1)*
G36*
X176276000Y-80517339D02*
X176263536Y-80580000D01*
X176263536Y-81640000D01*
X176276000Y-81702661D01*
X176276000Y-81788000D01*
X176285667Y-81836601D01*
X176313197Y-81877803D01*
X176354399Y-81905333D01*
X176373619Y-81909156D01*
X176377314Y-81914686D01*
X176503341Y-81998894D01*
X176652000Y-82028464D01*
X177302000Y-82028464D01*
X177450659Y-81998894D01*
X177576216Y-81915000D01*
X178562000Y-81915000D01*
X178610601Y-81905333D01*
X178651803Y-81877803D01*
X178679333Y-81836601D01*
X178689000Y-81788000D01*
X178689000Y-80772000D01*
X179070000Y-80772000D01*
X179070000Y-83185000D01*
X175051000Y-83185000D01*
X175051000Y-80264000D01*
X176276000Y-80264000D01*
X176276000Y-80517339D01*
X176276000Y-80517339D01*
G37*
X176276000Y-80517339D02*
X176263536Y-80580000D01*
X176263536Y-81640000D01*
X176276000Y-81702661D01*
X176276000Y-81788000D01*
X176285667Y-81836601D01*
X176313197Y-81877803D01*
X176354399Y-81905333D01*
X176373619Y-81909156D01*
X176377314Y-81914686D01*
X176503341Y-81998894D01*
X176652000Y-82028464D01*
X177302000Y-82028464D01*
X177450659Y-81998894D01*
X177576216Y-81915000D01*
X178562000Y-81915000D01*
X178610601Y-81905333D01*
X178651803Y-81877803D01*
X178679333Y-81836601D01*
X178689000Y-81788000D01*
X178689000Y-80772000D01*
X179070000Y-80772000D01*
X179070000Y-83185000D01*
X175051000Y-83185000D01*
X175051000Y-80264000D01*
X176276000Y-80264000D01*
X176276000Y-80517339D01*
G04 #@! TD*
M02*
